<?xml version="1.0" standalone="no"?>
<!DOCTYPE svg PUBLIC "-//W3C//DTD SVG 20010904//EN"
 "http://www.w3.org/TR/2001/REC-SVG-20010904/DTD/svg10.dtd">
<svg version="1.0" xmlns="http://www.w3.org/2000/svg"
 width="1024.000000pt" height="1024.000000pt" viewBox="0 0 1024.000000 1024.000000"
 preserveAspectRatio="xMidYMid meet">

<g transform="translate(0.000000,1024.000000) scale(0.100000,-0.100000)"
fill="#000000" stroke="none">
<path d="M2995 7640 c-3 -5 -15 -10 -26 -10 -10 0 -19 -5 -19 -11 0 -5 6 -7
13 -3 9 5 9 4 1 -5 -15 -17 10 -90 39 -114 20 -16 20 -17 2 -11 -11 3 -5 -3
13 -15 36 -23 46 -26 37 -11 -3 6 1 10 9 10 9 0 16 4 16 9 0 7 35 24 50 23 3
0 6 12 6 26 1 15 4 39 6 53 8 45 -22 69 -86 69 -30 0 -58 -4 -61 -10z"/>
<path d="M3460 7425 c-7 -9 -11 -17 -9 -20 3 -2 10 5 17 15 14 24 10 26 -8 5z"/>
<path d="M3570 7430 c0 -6 7 -10 15 -10 8 0 15 2 15 4 0 2 -7 6 -15 10 -8 3
-15 1 -15 -4z"/>
<path d="M3490 7415 c-7 -9 -8 -15 -2 -15 5 0 12 7 16 15 3 8 4 15 2 15 -2 0
-9 -7 -16 -15z"/>
<path d="M3547 7396 c-4 -10 -1 -13 9 -9 7 3 14 9 14 14 0 14 -17 10 -23 -5z"/>
<path d="M3610 7406 c0 -2 8 -10 18 -17 15 -13 16 -12 3 4 -13 16 -21 21 -21
13z"/>
<path d="M3580 7396 c0 -2 7 -7 16 -10 8 -3 12 -2 9 4 -6 10 -25 14 -25 6z"/>
<path d="M3480 7385 c0 -2 6 -8 13 -14 10 -8 14 -7 14 2 0 8 -6 14 -14 14 -7
0 -13 -1 -13 -2z"/>
<path d="M6687 7346 c-4 -10 -3 -15 3 -11 6 3 10 2 10 -3 0 -5 -9 -13 -21 -18
-19 -9 -20 -11 -5 -23 14 -12 16 -11 10 5 -4 15 -4 16 4 5 6 -8 8 -20 5 -28
-3 -7 1 -20 8 -29 21 -25 19 -42 -3 -36 -15 4 -17 7 -6 13 7 5 8 9 2 9 -19 0
-24 -12 -13 -32 8 -15 6 -25 -8 -41 l-18 -22 23 19 c23 20 31 10 10 -14 -8 -8
-2 -7 15 3 17 11 27 13 27 6 0 -6 7 -9 15 -6 8 4 17 2 19 -2 10 -15 -6 -21
-26 -10 -23 12 -45 -2 -33 -21 5 -8 11 -7 23 2 15 11 15 11 7 -2 -9 -13 -11
-26 -6 -52 0 -3 14 7 30 23 38 37 79 38 121 3 37 -32 33 -41 -9 -20 -33 17
-88 21 -110 7 -8 -5 3 -7 31 -4 46 5 108 -17 108 -38 0 -8 -5 -8 -14 0 -19 16
-127 22 -143 9 -9 -7 -13 -7 -13 1 0 7 -5 9 -12 5 -7 -4 -8 -3 -4 4 4 7 2 12
-3 12 -6 0 -11 -7 -11 -16 0 -8 -5 -12 -10 -9 -8 5 -7 11 0 20 7 8 9 19 5 25
-3 5 -1 10 4 10 6 0 11 -5 11 -12 0 -6 3 -8 7 -5 3 4 -3 16 -15 27 l-22 21 0
-30 c0 -18 -7 -34 -17 -40 -10 -6 -13 -11 -7 -11 6 0 16 -11 22 -24 12 -27 2
-45 -33 -64 -14 -8 -16 -12 -5 -12 12 0 10 -4 -4 -15 -16 -12 -17 -15 -4 -15
9 0 18 6 20 12 3 9 9 8 22 -5 10 -9 12 -17 6 -17 -8 0 -8 -6 0 -21 11 -19 10
-20 -9 -9 -28 14 -27 3 2 -21 19 -16 20 -20 7 -29 -12 -8 -13 -10 -1 -10 8 0
12 -3 8 -6 -3 -3 -11 -3 -17 1 -8 5 -7 11 2 23 11 13 10 15 -5 9 -11 -4 -20
-1 -24 9 -3 8 -12 13 -20 9 -10 -3 -13 -1 -10 8 3 7 -2 13 -12 13 -10 0 -16
-9 -17 -26 -1 -14 1 -19 3 -12 3 6 9 12 14 12 12 0 69 -61 69 -74 0 -8 -2 -8
-8 0 -4 6 -20 14 -37 18 -21 5 -26 4 -15 -3 12 -9 12 -11 -3 -17 -9 -3 -17
-13 -17 -21 0 -13 -2 -13 -17 -2 -11 9 -9 3 6 -19 l23 -33 -26 7 c-17 4 -26 2
-26 -6 0 -7 7 -10 16 -6 12 5 15 2 10 -11 -6 -15 -5 -15 13 1 11 10 18 23 15
27 -3 5 0 9 6 9 7 0 8 6 0 19 -6 12 -6 22 -1 26 5 3 11 0 14 -7 2 -7 3 -5 2 5
-2 9 3 17 11 17 8 0 11 -6 7 -15 -3 -9 -2 -15 3 -14 28 5 36 -1 24 -16 -12
-14 -10 -15 14 -11 15 3 24 1 21 -5 -4 -5 -10 -7 -15 -4 -5 3 -11 1 -14 -4
-10 -15 25 -22 42 -9 13 11 14 11 7 -2 -6 -8 -10 -18 -10 -22 0 -3 -4 -10 -9
-15 -5 -4 -6 -3 -3 3 4 7 0 15 -9 18 -22 8 -26 8 -19 -4 3 -5 2 -10 -4 -10 -5
0 -13 5 -16 10 -4 6 -11 7 -17 4 -7 -4 -5 -10 6 -16 20 -11 21 -38 0 -38 -8 0
-13 -4 -9 -9 3 -5 1 -12 -5 -16 -6 -4 -7 -12 -4 -18 4 -7 3 -8 -2 -4 -5 5 -9
12 -9 15 -3 28 -19 53 -31 48 -9 -3 -12 -1 -9 4 3 6 0 10 -7 10 -10 0 -12 -11
-10 -40 3 -34 7 -39 18 -29 11 9 11 15 3 25 -7 9 -8 14 -1 14 16 0 22 -28 8
-39 -7 -6 -12 -21 -11 -34 2 -16 -3 -23 -16 -24 -10 -1 -21 2 -24 8 -4 5 -11
9 -16 9 -6 0 2 -11 18 -24 27 -23 29 -23 53 -7 42 29 46 30 46 11 0 -10 -4
-16 -8 -14 -4 3 -20 -2 -36 -10 -20 -10 -32 -12 -39 -5 -8 8 -13 7 -18 -2 -5
-7 -4 -10 2 -6 6 4 14 -4 17 -18 4 -15 11 -23 17 -19 8 4 7 10 -2 16 -11 8
-10 9 4 4 9 -3 17 -1 17 4 0 16 30 12 36 -4 3 -8 1 -23 -5 -33 -8 -14 -10 -15
-11 -3 0 13 -1 13 -10 0 -9 -13 -10 -13 -10 0 0 12 -2 12 -8 2 -7 -10 -14 -8
-34 8 -23 17 -26 18 -24 3 2 -9 11 -17 20 -19 22 -3 22 -3 30 -36 4 -17 1 -32
-9 -42 -8 -8 -15 -19 -15 -25 0 -5 -8 -15 -17 -21 -15 -8 -14 -9 7 -5 22 5 28
1 43 -32 15 -32 15 -35 1 -18 -15 20 -16 20 -13 -5 2 -14 -1 -25 -6 -25 -6 0
-9 9 -7 20 1 15 0 16 -7 6 -10 -16 -7 -68 4 -79 5 -4 5 -2 2 5 -5 8 0 9 15 5
19 -5 20 -7 6 -10 -10 -2 -18 -8 -18 -14 0 -7 -4 -7 -13 1 -10 8 -14 7 -14 -4
0 -8 7 -15 14 -15 8 0 12 -4 8 -10 -3 -5 -13 -6 -23 -3 -15 6 -16 5 -2 -13 21
-26 32 -34 44 -27 5 3 6 1 2 -5 -4 -7 -2 -12 5 -12 7 0 9 -3 6 -6 -4 -4 -13
-1 -21 5 -8 7 -20 10 -27 6 -7 -5 -1 -14 17 -26 25 -16 26 -18 7 -16 -12 0
-19 6 -16 12 3 5 0 4 -8 -3 -12 -11 -12 -14 1 -23 11 -8 12 -12 3 -16 -18 -7
-16 -23 2 -23 8 0 15 -5 15 -11 0 -5 -4 -7 -10 -4 -6 3 -10 -5 -10 -19 0 -13
6 -27 13 -30 6 -3 1 -3 -13 0 -24 7 -25 6 -7 -13 17 -19 17 -21 1 -27 -10 -4
-21 -1 -26 6 -7 10 -8 9 -5 -2 2 -8 12 -14 21 -14 16 2 16 0 -1 -19 l-18 -21
30 19 c21 13 26 14 18 3 -7 -8 -9 -19 -5 -23 4 -5 2 -5 -5 -1 -8 4 -11 -3 -11
-24 1 -16 5 -30 10 -30 5 0 6 -5 3 -10 -5 -8 -12 -7 -23 2 -15 12 -16 11 -4
-4 8 -9 10 -23 6 -29 -5 -8 -2 -10 8 -7 11 5 15 0 14 -15 -1 -12 2 -28 7 -34
6 -9 4 -15 -7 -19 -9 -3 -13 -11 -9 -17 3 -5 2 -7 -4 -4 -11 7 -11 36 1 55 4
7 6 16 3 19 -9 8 -28 -7 -22 -17 3 -5 1 -11 -3 -14 -15 -9 -1 -55 17 -59 13
-4 13 -5 -2 -6 -10 0 -15 -6 -12 -11 4 -6 10 -8 14 -5 5 2 7 -7 5 -21 -2 -21
1 -25 17 -21 10 3 17 1 13 -4 -3 -5 -17 -9 -32 -9 -25 0 -25 -1 -6 -15 12 -9
14 -14 6 -15 -7 0 0 -11 15 -25 18 -16 21 -23 10 -19 -15 6 -17 3 -11 -21 5
-19 3 -26 -4 -21 -6 3 -9 21 -7 39 2 17 1 26 -2 19 -4 -10 -8 -10 -21 0 -10 7
-14 8 -10 4 4 -5 3 -15 -3 -22 -7 -8 -6 -14 2 -20 7 -4 9 -3 5 4 -3 6 -2 13 3
16 5 3 12 -1 15 -9 3 -9 -1 -18 -9 -21 -8 -4 -15 -11 -15 -16 0 -6 6 -6 14 2
12 9 15 7 14 -12 -1 -13 -6 -29 -12 -37 -8 -10 -4 -18 16 -33 18 -12 25 -25
21 -35 -4 -10 -2 -14 5 -9 6 3 14 1 18 -5 4 -8 3 -9 -4 -5 -7 4 -12 2 -12 -5
0 -9 -3 -9 -14 0 -11 9 -16 9 -22 0 -5 -8 -3 -9 6 -4 10 6 12 4 7 -9 -4 -10
-3 -15 3 -11 5 3 7 -1 4 -9 -3 -8 -12 -12 -19 -10 -7 3 -16 1 -20 -5 -3 -6 0
-13 7 -16 16 -6 21 -42 7 -50 -5 -4 -6 -11 -3 -17 10 -16 12 -78 2 -72 -4 3
-5 10 -2 16 4 7 2 8 -4 4 -6 -4 -9 -13 -6 -20 3 -8 1 -17 -5 -21 -8 -4 -8 -12
0 -27 9 -18 8 -24 -7 -35 -9 -7 -15 -16 -11 -19 4 -4 15 -1 24 7 16 12 16 11
-1 -8 -11 -13 -16 -29 -12 -40 4 -11 -1 -9 -13 7 -20 25 -20 25 -18 3 1 -13 5
-23 10 -23 4 0 6 -4 3 -9 -4 -5 0 -12 6 -14 9 -4 8 -6 -2 -7 -8 0 -24 -13 -34
-28 -20 -27 -20 -27 0 -9 22 18 39 23 29 8 -3 -5 -1 -12 5 -16 5 -3 10 -11 10
-16 0 -6 -4 -8 -9 -4 -5 3 -13 0 -17 -6 -4 -7 -3 -9 4 -5 21 13 25 -18 4 -35
-18 -14 -20 -22 -14 -41 5 -12 7 -29 5 -35 -3 -7 0 -13 5 -13 15 0 9 -34 -8
-42 -12 -5 -12 -7 3 -7 9 -1 17 -6 17 -12 0 -5 -6 -7 -12 -3 -10 5 -10 4 -1
-6 9 -10 7 -17 -10 -32 -20 -18 -18 -18 18 2 l40 21 -37 -35 c-21 -19 -38 -39
-38 -43 0 -4 7 1 16 12 14 19 15 18 11 -18 -4 -37 7 -60 16 -35 3 7 4 3 4 -9
-1 -24 -15 -26 -35 -3 -11 12 -11 11 -1 -10 7 -14 12 -27 12 -30 -1 -3 1 -7 4
-10 4 -3 3 1 -1 8 -4 6 -2 12 3 12 15 0 14 -17 -1 -27 -7 -4 -14 -17 -16 -28
-1 -11 -4 -26 -6 -34 -1 -8 3 -26 9 -40 7 -14 11 -48 10 -76 -4 -69 -4 -67
-17 -59 -7 4 -2 -5 11 -19 14 -15 19 -27 13 -27 -7 0 -12 5 -12 11 0 8 -5 8
-15 -1 -17 -14 -21 -55 -4 -45 6 4 8 14 4 24 -5 13 -4 13 6 4 10 -10 8 -18
-12 -40 -13 -16 -30 -32 -37 -36 -7 -5 -10 -12 -7 -18 4 -5 1 -9 -5 -9 -8 0
-8 -6 0 -20 9 -16 8 -19 -6 -13 -12 4 -15 3 -10 -5 4 -7 2 -12 -3 -12 -6 0
-11 6 -11 12 0 14 -23 -18 -34 -46 -5 -15 -4 -17 8 -7 11 9 16 9 22 0 4 -8 3
-9 -4 -5 -16 10 -15 -6 1 -24 10 -12 9 -12 -3 -3 -8 5 -23 10 -34 10 -17 0
-17 -1 -2 -13 13 -9 14 -13 4 -17 -11 -4 -11 -6 0 -6 7 -1 10 -6 7 -11 -5 -8
-11 -7 -21 1 -8 6 -18 9 -21 5 -4 -4 -1 -11 6 -15 9 -6 10 -11 2 -15 -17 -11
-13 -26 7 -27 13 0 14 -2 2 -6 -26 -11 -39 -36 -29 -56 6 -10 8 -31 6 -47 -3
-18 0 -30 9 -34 8 -3 11 -12 7 -22 -4 -12 -3 -15 5 -10 7 4 12 2 12 -3 0 -11
-15 -15 -34 -12 -5 1 -4 -5 4 -13 7 -9 18 -16 24 -16 6 0 4 5 -4 10 -9 6 -10
10 -3 10 6 0 15 -5 19 -11 4 -8 9 -7 15 2 6 9 7 0 4 -24 -2 -23 0 -35 5 -32 6
4 10 -1 10 -10 0 -10 5 -13 12 -9 6 4 8 3 5 -3 -4 -6 7 -28 23 -49 29 -38 40
-71 20 -59 -6 3 -7 -1 -4 -9 7 -18 25 -22 21 -5 -1 6 4 14 11 16 8 3 10 -1 5
-14 -6 -16 -5 -16 10 -4 20 16 23 2 5 -18 -11 -11 -10 -12 1 -6 10 6 13 4 9
-6 -8 -20 33 -20 49 0 16 20 17 6 1 -22 -9 -18 -9 -20 3 -11 8 5 23 10 34 10
11 -1 24 4 28 9 5 6 6 2 3 -9 -5 -14 -2 -17 10 -12 14 5 15 4 4 -9 -10 -12
-10 -15 4 -15 9 0 16 5 16 10 0 6 5 10 11 10 5 0 7 -5 3 -12 -4 -7 -3 -8 5 -4
6 4 18 3 26 -4 10 -8 15 -8 21 1 5 8 3 9 -6 4 -8 -5 -11 -4 -6 3 12 19 37 2
30 -21 -6 -18 -3 -17 21 6 25 22 63 28 50 7 -3 -5 0 -12 6 -16 7 -4 9 -3 6 3
-8 12 20 39 30 29 3 -3 2 -6 -3 -6 -5 0 -10 -8 -10 -18 0 -10 8 -18 18 -18 13
0 14 3 6 13 -8 10 -7 12 4 8 8 -3 21 1 28 9 12 16 30 13 30 -5 0 -5 -7 -9 -16
-7 -10 2 -19 -4 -21 -12 -3 -9 -1 -11 4 -5 4 6 24 11 45 10 20 0 34 4 30 9 -3
5 2 6 12 3 11 -5 15 -3 10 5 -5 8 -1 9 12 4 28 -11 32 -12 31 -5 -3 9 24 39
35 39 6 0 6 -6 -1 -14 -9 -11 -9 -16 0 -22 8 -4 9 -3 5 4 -8 13 -6 14 39 16
22 2 29 7 27 19 -2 12 2 15 14 10 13 -5 16 -2 12 9 -4 8 -1 15 7 15 7 0 11 -6
8 -12 -2 -7 5 -15 16 -18 22 -5 29 7 11 18 -15 9 -12 22 5 22 8 0 12 -5 9 -11
-3 -6 1 -4 8 6 11 12 18 14 33 5 20 -10 20 -10 0 12 -14 16 -15 22 -5 19 8 -2
14 2 13 9 -2 7 4 10 13 6 14 -5 15 -3 5 15 -10 18 -8 20 14 17 14 -1 30 5 37
14 11 14 11 14 -4 3 -9 -7 -19 -9 -22 -4 -3 5 10 17 29 28 28 15 32 21 22 33
-10 12 -9 14 5 8 9 -3 22 0 28 8 13 15 6 35 -12 35 -6 0 -5 -7 3 -17 12 -14
12 -16 0 -8 -10 6 -12 4 -6 -6 7 -11 6 -12 -7 -2 -8 7 -18 11 -22 8 -3 -3 -2
0 4 7 7 8 4 18 -8 32 -16 20 -16 20 1 7 19 -15 89 -23 81 -9 -3 5 -10 6 -15 3
-5 -4 -9 -1 -9 5 0 6 -8 9 -18 6 -12 -4 -19 -1 -19 7 0 9 9 12 22 9 13 -2 25
1 29 6 4 6 -3 8 -16 5 -16 -3 -19 -2 -10 5 7 5 12 15 10 22 -2 8 4 15 12 15
14 1 16 24 2 35 -10 7 -8 37 2 47 5 4 6 3 2 -4 -5 -9 -2 -11 10 -6 11 4 13 8
6 11 -18 6 -15 42 4 42 8 0 12 -4 9 -10 -10 -17 2 -11 16 8 7 9 9 14 4 9 -4
-4 -17 1 -28 10 -11 10 -17 12 -13 5 4 -7 1 -15 -8 -18 -8 -3 -12 -13 -9 -22
4 -14 3 -15 -5 -2 -6 8 -8 19 -4 25 10 15 9 29 -3 38 -6 6 -4 7 6 4 9 -3 22
-1 30 4 10 6 8 9 -10 9 -21 0 -22 2 -10 17 13 15 12 15 -10 4 -13 -7 -21 -8
-17 -3 3 6 2 13 -2 16 -5 3 -7 16 -5 30 5 26 -11 44 -23 25 -4 -7 -3 -9 3 -6
5 3 10 0 10 -8 0 -10 -4 -12 -12 -5 -7 5 -14 9 -16 7 -2 -1 -1 2 3 8 13 15 9
28 -5 16 -10 -8 -14 -7 -14 4 0 8 4 12 8 10 3 -3 12 2 19 10 10 12 8 14 -8 10
-12 -2 -23 3 -26 11 -4 11 -13 13 -27 9 -19 -6 -20 -5 -8 8 12 13 16 13 30 1
8 -8 19 -14 24 -14 4 0 -1 8 -12 18 -11 9 -23 27 -27 40 -6 18 -11 21 -21 12
-9 -8 -15 -8 -20 0 -3 5 -2 10 3 10 5 0 7 11 4 25 -2 14 -7 23 -11 21 -4 -3
-8 11 -8 30 -1 19 3 37 8 40 5 3 2 16 -7 30 -14 21 -14 23 -2 19 9 -4 18 1 21
9 4 11 1 13 -11 9 -14 -5 -15 -3 -5 7 10 11 9 18 -5 34 -16 20 -16 20 1 7 16
-12 18 -12 15 0 -2 8 -10 20 -18 26 -13 11 -13 12 1 7 21 -7 36 14 15 22 -9 3
-12 12 -8 22 4 13 3 15 -9 7 -8 -5 -7 -3 3 7 19 17 25 33 8 23 -6 -4 -6 3 0
21 9 22 8 25 -3 16 -10 -9 -13 -6 -12 13 0 13 4 27 8 31 4 5 5 0 2 -11 -6 -16
-5 -17 4 -5 7 10 6 19 -5 31 -8 8 -12 18 -9 21 10 10 14 49 4 43 -5 -4 -7 -11
-4 -16 4 -5 2 -9 -3 -9 -9 0 -8 92 2 108 3 5 -1 13 -10 16 -10 4 -13 2 -8 -6
4 -6 3 -8 -3 -5 -11 7 -10 40 0 85 3 12 2 22 -2 22 -4 0 -13 12 -20 28 l-12
27 21 -25 c20 -26 25 -20 10 15 -5 15 -2 25 14 40 12 11 17 17 12 13 -16 -13
-33 -9 -40 7 -3 8 -2 14 2 14 18 -3 22 2 10 15 -7 8 -17 11 -23 8 -5 -2 -5 1
2 8 9 9 9 19 2 32 -6 11 -8 24 -5 31 2 7 5 4 5 -5 1 -20 16 -24 27 -6 4 6 3 8
-3 5 -6 -4 -10 4 -10 18 0 14 3 22 7 20 5 -3 7 3 5 12 -1 10 -9 17 -16 15 -9
-1 -7 3 4 12 15 12 16 14 2 20 -19 7 -19 20 0 39 17 17 10 28 -13 19 -14 -5
-15 -4 -2 10 8 9 20 13 25 10 6 -2 4 1 -2 9 -15 15 -17 33 -4 25 5 -3 11 8 13
24 3 19 1 29 -6 27 -6 -2 -10 -13 -8 -23 2 -14 1 -16 -6 -5 -6 8 -5 23 4 39 9
17 10 30 4 36 -16 16 -11 30 5 16 13 -11 14 -10 9 4 -3 9 -11 16 -17 16 -6 0
-7 3 -4 7 4 3 2 12 -4 20 -9 10 -8 13 2 13 10 0 10 3 1 12 -9 9 -8 16 5 30 10
11 11 18 5 18 -7 0 -12 -4 -12 -10 0 -5 -4 -10 -9 -10 -5 0 -7 9 -4 21 4 12 0
25 -8 30 -11 7 -11 9 -1 9 17 0 43 26 35 34 -3 3 -12 -2 -20 -12 -12 -15 -12
-14 -4 8 12 35 11 43 -10 58 -11 7 -19 19 -18 25 0 9 2 8 6 -1 2 -6 10 -9 15
-6 7 5 8 2 3 -6 -5 -8 -4 -11 3 -6 6 4 8 14 5 23 -5 11 -3 14 6 8 10 -6 11 -3
1 15 -6 12 -9 29 -6 37 6 14 4 14 -11 2 -12 -10 -15 -10 -9 -1 4 7 2 21 -5 30
-11 14 -11 15 1 5 8 -7 21 -13 30 -13 12 1 12 2 -2 11 -10 5 -18 15 -18 22 0
7 4 6 10 -3 6 -10 9 -4 7 22 -1 20 -5 34 -10 31 -4 -2 -4 -9 -1 -15 4 -6 2 -8
-4 -5 -13 9 -8 43 6 40 5 -1 8 6 5 16 -3 11 1 21 9 24 7 2 3 2 -9 0 -19 -3
-22 1 -21 21 1 14 6 22 10 20 4 -3 5 2 2 10 -3 9 -9 14 -13 12 -4 -3 -8 11 -9
30 -2 19 2 34 7 34 5 0 12 8 16 18 5 14 4 15 -6 5 -7 -7 -18 -13 -23 -13 -6 1
0 10 13 20 13 11 18 20 12 20 -8 0 -9 6 -2 19 8 14 5 21 -14 31 -13 7 -22 17
-19 22 3 4 9 6 13 3 5 -2 7 11 5 30 -2 25 1 33 9 28 7 -3 8 -2 4 3 -5 5 -14 9
-20 9 -5 0 -12 6 -15 13 -2 7 2 11 10 10 7 -2 12 5 12 15 -2 16 8 22 29 18 5
-1 6 3 3 8 -3 5 -16 7 -29 3 -21 -5 -21 -4 -6 14 17 20 16 69 -3 91 -7 9 -7
13 1 13 7 0 9 5 5 12 -5 7 -3 8 5 4 7 -5 10 -14 7 -21 -3 -8 1 -19 9 -25 14
-12 15 -9 3 40 -1 8 3 14 10 12 8 -1 11 2 7 8 -4 6 -10 9 -13 6 -9 -10 -31 15
-25 30 3 9 0 12 -9 9 -9 -4 -14 1 -14 14 0 19 2 19 18 4 10 -9 18 -22 18 -29
0 -16 33 -14 49 3 8 9 8 13 1 13 -7 0 -9 8 -5 19 6 20 -20 38 -29 20 -2 -5 -3
-4 -2 3 2 7 8 12 12 11 5 -1 23 -5 39 -9 25 -5 28 -4 18 7 -7 7 -13 18 -13 24
0 5 4 4 8 -2 5 -9 18 3 38 37 l29 50 62 0 c36 0 65 5 69 12 4 7 3 8 -4 4 -7
-4 -12 -3 -12 2 0 19 -32 22 -63 6 l-32 -17 24 26 c21 23 22 27 8 33 -9 3 -14
10 -11 15 3 5 -15 9 -40 9 -50 0 -51 1 -36 31 14 25 -2 25 -18 -1 -15 -24 -34
-18 -26 8 4 12 0 11 -14 -6 -14 -15 -22 -18 -25 -10 -3 8 -6 6 -6 -5 -1 -11
-6 -15 -13 -11 -7 4 -8 3 -4 -4 16 -26 14 -48 -4 -48 -10 0 -16 6 -13 12 2 7
0 15 -6 19 -6 3 -11 11 -11 16 0 6 5 7 12 3 7 -4 8 -3 4 5 -4 6 -12 9 -17 6
-5 -4 -9 1 -9 10 0 10 5 13 12 9 7 -4 8 -3 4 5 -4 6 -11 9 -15 6 -5 -2 -17 5
-27 16 -10 11 -24 17 -31 15 -9 -4 -12 1 -8 17 7 27 -32 58 -46 36 -8 -14 -3
-29 11 -29 5 0 6 7 3 17 -4 11 -3 14 5 9 11 -6 18 -46 8 -46 -2 0 -16 6 -31
14 -16 8 -22 17 -16 21 6 3 9 11 6 16 -4 5 -1 9 5 9 7 0 8 6 1 19 -8 14 -7 22
3 30 9 8 16 8 20 2 4 -5 -2 -12 -11 -14 -13 -3 -14 -5 -3 -6 8 0 22 4 30 9 13
9 13 11 0 20 -8 6 -22 8 -31 6 -14 -3 -16 1 -9 24 4 15 4 34 -1 41 -8 13 -13
5 -9 -16 1 -5 -5 -4 -12 4 -9 10 -10 15 -2 18 7 2 10 13 7 24 -4 13 -11 18
-20 14 -11 -4 -13 -1 -9 10 3 9 -1 18 -9 21 -8 4 -15 10 -15 16 0 5 5 6 12 2
8 -5 9 -2 5 9 -3 9 -2 19 4 22 5 4 6 11 3 17 -4 7 -2 8 4 4 7 -4 12 -2 12 4 0
6 -7 13 -15 16 -8 4 -15 10 -15 16 0 5 4 6 10 3 5 -3 7 0 4 9 -3 8 -11 13 -19
10 -15 -6 -28 23 -14 32 5 3 7 14 4 23 -4 12 3 21 21 30 20 9 23 15 15 25 -6
7 -7 17 -3 21 4 5 2 6 -3 2 -6 -3 -17 -1 -25 4 -12 7 -13 11 -2 18 11 7 11 9
-1 14 -9 3 -21 -2 -29 -11 -7 -8 -8 -13 -2 -9 6 3 11 0 11 -8 0 -11 -5 -12
-20 -4 -10 6 -41 9 -68 7 -34 -2 -50 1 -54 10 -3 7 -9 10 -15 7 -5 -3 -10 -1
-10 4 0 6 -6 11 -14 11 -8 0 -16 5 -18 12 -3 7 -7 5 -11 -6z m224 -80 c1 5 1
12 0 17 -2 12 9 8 27 -10 15 -15 15 -16 1 -11 -9 4 -21 2 -26 -3 -6 -6 -17 -1
-29 13 l-19 23 23 -19 c12 -11 23 -15 23 -10z m-169 -95 c10 -13 10 -14 -1 -4
-7 6 -19 9 -26 7 -7 -3 -15 1 -18 9 -8 20 28 10 45 -12z m208 -195 c0 -2 -7
-7 -16 -10 -8 -3 -12 -2 -9 4 6 10 25 14 25 6z m8 -38 c15 -15 15 -28 1 -28
-5 0 -8 4 -4 9 3 6 -3 14 -12 20 -10 6 -13 11 -7 11 5 0 15 -5 22 -12z m-243
-158 c3 -6 -1 -7 -9 -4 -10 4 -16 1 -16 -7 0 -7 -3 -10 -6 -6 -7 7 4 27 16 27
5 0 12 -4 15 -10z m270 -9 c3 -5 1 -12 -5 -16 -5 -3 -10 1 -10 9 0 18 6 21 15
7z m-265 -21 c0 -5 -2 -10 -4 -10 -3 0 -8 5 -11 10 -3 6 -1 10 4 10 6 0 11 -4
11 -10z m364 -9 c9 -10 16 -22 14 -27 -1 -5 3 -19 11 -32 7 -13 10 -28 7 -35
-2 -7 -5 -4 -5 6 -1 9 -6 17 -12 17 -6 0 -8 -12 -6 -28 4 -25 2 -28 -23 -28
-16 1 -32 5 -37 10 -5 5 -1 7 9 3 22 -8 48 21 29 33 -10 6 -8 10 9 15 l23 7
-24 13 c-22 12 -26 11 -42 -16 -11 -16 -21 -29 -24 -29 -3 0 2 12 12 26 16 26
16 26 -7 20 -12 -3 -17 -3 -10 0 6 3 12 13 13 22 0 11 2 12 6 5 6 -17 20 -16
27 2 3 8 0 14 -6 12 -6 -1 -12 3 -14 8 -7 18 33 14 50 -4z m-74 -1 c0 -5 -4
-10 -10 -10 -5 0 -10 5 -10 10 0 6 5 10 10 10 6 0 10 -4 10 -10z m-24 -59 c-4
-6 -13 -11 -19 -11 -8 0 -7 3 2 9 8 5 10 14 6 22 -6 11 -5 11 5 2 7 -6 9 -16
6 -22z m-176 -1 c20 -38 -20 -76 -56 -52 -15 9 -21 43 -11 60 13 19 55 14 67
-8z m200 -4 c0 -2 -8 -10 -17 -17 -16 -13 -17 -12 -4 4 13 16 21 21 21 13z
m97 -82 c-3 -3 -12 -4 -19 -1 -8 3 -5 6 6 6 11 1 17 -2 13 -5z m-497 -48 c-14
-14 -22 -2 -14 18 5 14 9 15 15 4 4 -7 4 -17 -1 -22z m480 -1 c0 -6 -7 -12
-15 -12 -10 0 -12 4 -5 12 6 7 5 16 -3 25 -10 12 -9 12 6 1 9 -7 17 -19 17
-26z m-416 9 c3 -8 2 -12 -4 -9 -6 3 -10 10 -10 16 0 14 7 11 14 -7z m341 -13
c3 -5 2 -12 -3 -15 -5 -3 -9 1 -9 9 0 17 3 19 12 6z m100 -39 c-3 -3 -11 0
-18 7 -9 10 -8 11 6 5 10 -3 15 -9 12 -12z m-60 -10 c-3 -3 -11 0 -18 7 -9 10
-8 11 6 5 10 -3 15 -9 12 -12z m-400 -51 c-3 -6 -11 -11 -16 -11 -5 0 -4 6 3
14 14 16 24 13 13 -3z m531 -8 c-7 -7 -26 7 -26 19 0 6 6 6 15 -2 9 -7 13 -15
11 -17z m-561 -23 c3 -6 -1 -7 -9 -4 -18 7 -21 14 -7 14 6 0 13 -4 16 -10z
m494 -21 c-22 -13 -31 -11 -17 5 7 8 17 12 22 9 4 -3 2 -9 -5 -14z m-517 -63
c-15 -19 -21 -22 -25 -12 -8 20 23 60 35 48 7 -7 4 -19 -10 -36z m429 27 c13
-16 12 -17 -3 -4 -10 7 -18 15 -18 17 0 8 8 3 21 -13z m-67 -9 c21 -21 20 -40
-4 -64 -23 -23 -39 -25 -64 -7 -22 16 -25 65 -5 78 22 14 56 10 73 -7z m146 6
c0 -5 -2 -10 -4 -10 -3 0 -8 5 -11 10 -3 6 -1 10 4 10 6 0 11 -4 11 -10z m25
-50 c3 -6 -1 -7 -9 -4 -18 7 -21 14 -7 14 6 0 13 -4 16 -10z m5 -24 c0 -3 -4
-8 -10 -11 -5 -3 -10 -1 -10 4 0 6 5 11 10 11 6 0 10 -2 10 -4z m-531 -59 c-2
-1 -13 -9 -24 -17 -19 -14 -19 -14 -6 3 7 9 18 17 24 17 6 0 8 -1 6 -3z m46
-36 c-9 -16 -25 -3 -18 15 4 10 9 12 15 6 6 -6 7 -15 3 -21z m306 -76 c64 -34
87 -118 49 -180 -52 -84 -180 -85 -230 -2 -38 62 -13 152 50 184 34 17 95 16
131 -2z m169 -76 c0 -6 -4 -7 -10 -4 -5 3 -10 11 -10 16 0 6 5 7 10 4 6 -3 10
-11 10 -16z m30 -378 c0 -4 -7 -8 -15 -8 -16 0 -20 9 -9 20 8 8 24 -1 24 -12z
m-88 -78 c37 -33 13 -77 -39 -71 -20 2 -30 11 -37 30 -17 49 35 78 76 41z m81
-18 c-3 -9 -8 -14 -10 -11 -3 3 -2 9 2 15 9 16 15 13 8 -4z m-588 -155 c3 -5
-1 -10 -10 -10 -9 0 -13 5 -10 10 3 6 8 10 10 10 2 0 7 -4 10 -10z m0 -32 c4
4 6 1 3 -7 -2 -8 -8 -16 -14 -18 -15 -5 -37 14 -29 26 5 8 11 9 19 2 7 -6 16
-7 21 -3z m230 -52 c91 -39 99 -173 12 -226 -68 -42 -170 -15 -198 52 -50 120
63 225 186 174z m-220 -99 c-4 -8 -14 -18 -23 -22 -9 -3 -13 -3 -9 1 4 5 -3
14 -15 22 -19 11 -19 12 -3 7 34 -11 37 -10 43 4 3 9 0 11 -8 6 -9 -6 -11 -4
-5 4 10 17 27 -1 20 -22z m-15 -42 c0 -2 -10 -9 -22 -15 -22 -11 -22 -10 -4 4
21 17 26 19 26 11z m508 -127 c15 -15 16 -45 1 -53 -18 -11 -61 4 -55 20 2 7
0 15 -6 17 -19 7 1 28 26 28 12 0 27 -5 34 -12z m19 -280 c25 -21 43 -74 37
-108 -9 -44 -56 -80 -106 -80 -105 0 -137 145 -43 199 24 14 90 8 112 -11z
m-592 -7 c-9 -8 -36 -10 -30 -2 2 4 11 8 20 8 8 0 13 -3 10 -6z m0 -39 c-3 -3
-11 0 -18 7 -9 10 -8 11 6 5 10 -3 15 -9 12 -12z m176 -139 c12 -15 12 -16 -4
-10 -10 4 -27 2 -38 -3 -21 -12 -26 -1 -7 18 17 17 33 15 49 -5z m-166 -23
c-3 -5 -12 -10 -18 -10 -7 0 -6 4 3 10 19 12 23 12 15 0z m-30 -180 c-10 -11
-13 -20 -8 -20 6 0 11 -11 11 -25 0 -23 -2 -24 -13 -8 -15 20 -11 53 7 65 21
13 22 9 3 -12z m593 -172 c51 -34 91 -101 99 -166 19 -160 -172 -290 -317
-216 -34 17 -84 71 -105 114 -41 79 -13 200 58 254 50 39 76 46 153 43 58 -2
78 -7 112 -29z m-693 -249 c-3 -4 -12 -6 -20 -3 -8 4 -13 10 -10 15 3 4 12 6
20 3 8 -4 13 -10 10 -15z m62 -55 c2 -7 -6 -10 -22 -7 -16 4 -25 1 -25 -7 0
-7 7 -10 15 -7 8 4 17 2 20 -2 9 -15 -34 -19 -46 -5 -9 11 -8 18 1 29 15 18
51 16 57 -1z m-142 -123 c-3 -6 -11 -11 -17 -11 -6 0 -6 6 2 15 14 17 26 13
15 -4z m21 -48 c-3 -4 -6 0 -6 8 0 11 -2 12 -9 1 -7 -11 -9 -10 -14 3 -4 9 -3
13 3 10 6 -3 10 0 10 7 0 8 5 6 11 -5 6 -10 8 -21 5 -24z m314 -43 c12 -12 20
-33 20 -52 l-1 -33 -14 26 c-16 30 -56 44 -84 30 -10 -6 -22 -7 -26 -3 -5 4
-5 2 -2 -4 7 -13 -16 -38 -26 -28 -9 9 12 57 30 72 26 19 80 15 103 -8z m-10
-115 c-7 -8 -22 -14 -34 -14 -20 1 -20 2 -1 6 11 3 24 9 30 14 15 14 19 10 5
-6z m-173 -120 c0 -8 -4 -12 -9 -9 -5 3 -6 10 -3 15 9 13 12 11 12 -6z m47
-71 c3 -8 2 -12 -4 -9 -6 3 -10 10 -10 16 0 14 7 11 14 -7z m510 -24 c-6 -6
-10 -3 -10 10 0 13 4 16 10 10 7 -7 7 -13 0 -20z m60 4 c3 -8 2 -12 -4 -9 -6
3 -10 10 -10 16 0 14 7 11 14 -7z m-159 -14 c-3 -5 -1 -10 4 -10 6 0 11 -5 11
-11 0 -8 -5 -8 -15 1 -13 11 -12 30 1 30 3 0 2 -4 -1 -10z m49 -12 c-3 -4 -9
-8 -15 -8 -5 0 -9 4 -9 8 0 5 7 9 15 9 8 0 12 -4 9 -9z m41 -8 c3 -6 -1 -7 -9
-4 -18 7 -21 14 -7 14 6 0 13 -4 16 -10z"/>
<path d="M6762 6658 c5 -15 28 -18 29 -3 0 6 -7 12 -17 13 -10 3 -15 -1 -12
-10z"/>
<path d="M6591 6337 c-13 -21 -12 -21 5 -5 10 10 16 20 13 22 -3 3 -11 -5 -18
-17z"/>
<path d="M6900 6299 c0 -15 5 -20 22 -17 34 5 37 38 4 38 -20 0 -26 -5 -26
-21z"/>
<path d="M6860 6040 c-14 -3 -31 -18 -38 -33 -12 -24 -11 -32 2 -53 9 -13 13
-24 9 -24 -25 -1 28 -20 54 -20 36 0 93 49 93 80 0 34 -69 63 -120 50z"/>
<path d="M7007 5564 c-18 -18 -5 -33 27 -31 22 1 32 6 29 14 -3 7 -9 13 -13
13 -5 0 -15 2 -22 5 -8 3 -17 2 -21 -1z"/>
<path d="M6668 5216 c-21 -16 -23 -64 -4 -89 18 -24 78 -33 115 -17 38 15 58
61 43 95 -11 23 -17 25 -74 25 -37 -1 -70 -6 -80 -14z"/>
<path d="M6980 4722 c-31 -10 -40 -54 -17 -86 15 -20 79 -37 98 -25 8 5 10 9
5 9 -5 0 -4 6 1 13 12 16 14 57 3 57 -5 0 -11 8 -14 18 -6 17 -44 24 -76 14z"/>
<path d="M6822 4048 c-30 -30 0 -88 59 -119 94 -47 188 4 177 97 -3 32 -4 32
-82 13 -41 -9 -54 -9 -83 5 -40 19 -55 20 -71 4z"/>
<path d="M6950 7316 c0 -2 8 -10 18 -17 15 -13 16 -12 3 4 -13 16 -21 21 -21
13z"/>
<path d="M3228 7253 c7 -3 16 -2 19 1 4 3 -2 6 -13 5 -11 0 -14 -3 -6 -6z"/>
<path d="M7079 7244 c-11 -14 -11 -18 2 -28 9 -6 14 -17 12 -23 -7 -21 21 -15
41 9 15 18 16 20 2 15 -24 -10 -45 2 -41 24 5 23 1 24 -16 3z"/>
<path d="M3174 7228 l-19 -23 25 20 c14 11 27 21 29 22 2 2 0 3 -6 3 -5 0 -18
-10 -29 -22z"/>
<path d="M3291 7221 c36 -36 37 -73 4 -106 -41 -42 -113 -32 -143 20 -6 11
-12 14 -12 7 0 -7 -5 -10 -12 -6 -7 4 -8 3 -4 -5 4 -6 13 -8 19 -4 8 4 7 1 -1
-9 -10 -13 -10 -17 0 -21 10 -4 10 -6 1 -6 -7 -1 -13 -10 -13 -20 0 -11 -5
-23 -10 -26 -16 -10 -1 -25 18 -18 15 6 14 3 -2 -16 -17 -18 -17 -21 -3 -15
10 3 17 1 17 -5 0 -6 -4 -11 -10 -11 -5 0 -10 -5 -10 -10 0 -6 6 -10 13 -9 29
4 40 -4 17 -11 -24 -8 -24 -8 -3 -9 17 -1 21 -5 16 -18 -5 -13 -2 -15 11 -10
10 4 24 1 31 -7 12 -12 12 -15 -1 -20 -8 -3 -12 -2 -9 4 3 6 1 10 -5 10 -7 0
-10 -6 -7 -14 3 -7 0 -20 -6 -27 -7 -7 -3 -6 8 3 13 10 27 13 40 8 11 -5 14
-9 8 -9 -15 -1 -18 -57 -3 -66 5 -3 16 -2 22 2 16 10 20 45 4 40 -6 -2 -10
-11 -8 -21 2 -9 -2 -16 -7 -16 -6 0 -10 11 -9 26 2 22 6 25 35 21 18 -3 36 -1
39 4 3 5 9 7 13 4 5 -2 20 6 35 20 14 13 26 21 26 17 0 -4 10 -13 23 -21 21
-13 21 -13 -2 13 -23 25 -17 38 6 15 9 -9 11 -7 8 7 -2 11 -4 19 -5 19 -1 0
-3 8 -5 18 -2 11 -7 22 -11 25 -4 4 -4 -1 0 -12 5 -14 2 -17 -11 -12 -16 5
-16 4 -2 -6 14 -10 12 -14 -13 -39 -18 -16 -37 -26 -49 -24 -11 2 -17 0 -14
-5 3 -5 1 -11 -3 -14 -5 -3 -16 11 -26 30 -9 20 -12 33 -6 29 5 -3 10 3 10 14
0 24 20 27 53 10 12 -7 19 -8 15 -4 -4 4 0 13 8 20 14 10 14 15 4 34 -6 13
-14 20 -18 17 -3 -4 0 -12 6 -18 19 -19 14 -25 -20 -26 -31 -1 -32 0 -14 14
11 8 14 14 8 14 -7 0 -12 5 -12 11 0 5 5 7 10 4 6 -3 10 -2 10 4 0 5 -6 12
-12 15 -7 3 1 4 17 1 l30 -4 -33 15 c-32 14 -33 16 -19 38 9 13 12 28 7 36 -5
7 -5 23 0 34 4 12 4 30 0 41 -9 24 -47 65 -60 65 -4 0 5 -13 21 -29z m-4 -357
c-3 -3 -12 -4 -19 -1 -8 3 -5 6 6 6 11 1 17 -2 13 -5z"/>
<path d="M6923 7194 c-8 -8 -9 -15 -3 -19 6 -3 10 0 10 7 1 8 6 6 15 -6 7 -10
20 -16 27 -13 11 4 11 6 0 6 -7 1 -10 6 -6 13 4 6 3 8 -4 4 -6 -3 -14 0 -19 8
-7 12 -10 12 -20 0z"/>
<path d="M6977 7146 c-10 -8 -14 -16 -10 -19 5 -3 14 3 21 14 14 22 13 23 -11
5z"/>
<path d="M7040 7146 c0 -3 9 -10 20 -16 11 -6 20 -8 20 -6 0 3 -9 10 -20 16
-11 6 -20 8 -20 6z"/>
<path d="M3948 7103 c-18 -4 -34 -38 -29 -62 1 -7 -2 -10 -9 -6 -8 5 -10 -2
-7 -24 3 -18 1 -29 -4 -25 -5 3 -7 10 -4 15 4 5 1 9 -5 9 -13 0 -9 -32 5 -42
5 -4 -2 -11 -17 -17 -14 -5 -29 -16 -33 -23 -6 -10 -5 -11 6 0 7 6 17 12 22
12 4 0 5 -6 2 -12 -4 -7 0 -5 8 4 8 10 17 15 20 11 4 -3 1 -13 -6 -21 -9 -13
-9 -14 1 -8 6 4 12 2 12 -3 0 -6 5 -11 11 -11 6 0 8 7 5 16 -3 9 -2 12 5 9 6
-4 8 -13 5 -20 -4 -12 32 -35 67 -42 19 -3 23 13 5 20 -8 3 -5 6 5 6 11 1 15
6 11 13 -4 6 -3 8 3 5 18 -11 35 21 39 71 1 27 4 55 6 63 2 8 -4 13 -14 13
-10 -1 -15 2 -13 7 3 4 -10 11 -30 15 -19 3 -38 10 -41 15 -7 12 -1 11 33 -2
17 -6 24 -6 18 0 -13 12 -55 20 -77 14z"/>
<path d="M4035 7100 c3 -5 8 -10 11 -10 2 0 4 5 4 10 0 6 -5 10 -11 10 -5 0
-7 -4 -4 -10z"/>
<path d="M6949 7083 c-13 -15 -12 -15 11 -3 34 17 36 20 18 20 -9 0 -22 -7
-29 -17z"/>
<path d="M3367 7066 c-4 -10 -1 -13 8 -9 8 3 12 9 9 14 -7 12 -11 11 -17 -5z"/>
<path d="M6956 7061 c-16 -18 -16 -20 7 -37 13 -11 22 -25 19 -32 -2 -6 1 -12
8 -12 6 0 8 5 4 12 -5 7 -2 9 8 6 8 -3 19 2 25 12 10 14 7 20 -14 31 -21 11
-27 11 -30 2 -6 -17 -23 -16 -23 1 0 17 24 27 48 20 14 -5 15 -4 2 5 -22 15
-35 14 -54 -8z m59 -32 c10 -14 1 -21 -19 -13 -9 3 -13 10 -10 15 7 12 21 11
29 -2z"/>
<path d="M3836 7022 c-3 -5 1 -9 9 -9 8 0 12 4 9 9 -3 4 -7 8 -9 8 -2 0 -6 -4
-9 -8z"/>
<path d="M3491 6998 c5 -10 11 -18 12 -18 2 0 3 8 3 18 0 10 -6 19 -13 19 -8
0 -9 -6 -2 -19z"/>
<path d="M6556 6998 c3 -5 10 -6 15 -3 13 9 11 12 -6 12 -8 0 -12 -4 -9 -9z"/>
<path d="M6649 6993 c-8 -9 -9 -14 -2 -10 6 4 13 2 15 -5 3 -8 7 -6 11 5 9 23
-8 30 -24 10z"/>
<path d="M7060 7000 c0 -5 5 -10 11 -10 5 0 7 5 4 10 -3 6 -8 10 -11 10 -2 0
-4 -4 -4 -10z"/>
<path d="M6602 6984 c-7 -8 -8 -14 -3 -14 10 0 25 19 20 25 -2 1 -10 -3 -17
-11z"/>
<path d="M7026 6982 c-2 -4 4 -8 14 -8 10 0 16 4 14 8 -3 4 -9 8 -14 8 -5 0
-11 -4 -14 -8z"/>
<path d="M3556 6961 c-3 -5 2 -15 12 -22 15 -12 16 -12 5 2 -7 9 -10 19 -6 22
3 4 4 7 0 7 -3 0 -8 -4 -11 -9z"/>
<path d="M7010 6951 c0 -5 7 -12 16 -15 14 -5 15 -4 4 9 -14 17 -20 19 -20 6z"/>
<path d="M6580 6942 c0 -5 7 -15 15 -22 8 -7 15 -9 15 -6 0 4 -7 14 -15 22 -8
9 -15 11 -15 6z"/>
<path d="M3303 6926 c3 -7 0 -19 -6 -25 -13 -13 4 -15 19 -2 5 5 18 11 29 14
15 3 13 5 -8 6 -16 0 -26 5 -22 11 3 6 1 10 -5 10 -7 0 -10 -6 -7 -14z"/>
<path d="M3535 6921 c-3 -5 -2 -12 3 -15 5 -3 9 1 9 9 0 17 -3 19 -12 6z"/>
<path d="M3646 6918 c3 -5 10 -6 15 -3 13 9 11 12 -6 12 -8 0 -12 -4 -9 -9z"/>
<path d="M6536 6918 c3 -5 10 -6 15 -3 13 9 11 12 -6 12 -8 0 -12 -4 -9 -9z"/>
<path d="M7005 6920 c3 -5 11 -10 16 -10 6 0 7 5 4 10 -3 6 -11 10 -16 10 -6
0 -7 -4 -4 -10z"/>
<path d="M3850 6896 c7 -7 13 -7 20 0 6 6 3 10 -10 10 -13 0 -16 -4 -10 -10z"/>
<path d="M4048 6896 c-10 -7 -18 -19 -18 -27 0 -12 2 -12 9 -1 4 8 12 14 17
15 5 1 9 8 10 15 3 15 3 15 -18 -2z"/>
<path d="M3161 6884 c0 -11 3 -14 6 -6 3 7 2 16 -1 19 -3 4 -6 -2 -5 -13z"/>
<path d="M6635 6890 c-3 -6 1 -7 9 -4 18 7 21 14 7 14 -6 0 -13 -4 -16 -10z"/>
<path d="M3493 6875 c-3 -9 -3 -19 1 -22 3 -4 6 1 6 11 0 9 5 14 10 11 6 -3
10 -1 10 4 0 17 -20 13 -27 -4z"/>
<path d="M3546 6881 c-12 -5 -15 -10 -9 -14 6 -4 16 0 23 8 14 17 13 17 -14 6z"/>
<path d="M3905 6879 c-4 -6 -13 -8 -21 -5 -7 3 -16 1 -19 -4 -3 -5 9 -7 26 -5
26 4 29 2 19 -10 -7 -8 -24 -13 -41 -11 -29 3 -29 3 -13 -15 21 -23 25 -24 17
-3 -5 14 -3 15 16 5 12 -7 21 -8 20 -4 -4 22 3 25 17 7 14 -18 15 -18 4 4 -6
13 -7 22 -1 22 5 0 11 -5 13 -11 2 -7 9 -5 17 5 12 14 12 16 -4 10 -13 -5 -16
-4 -11 4 5 8 1 10 -10 5 -12 -4 -15 -3 -10 5 4 7 3 12 -3 12 -5 0 -13 -5 -16
-11z"/>
<path d="M3377 6863 c-4 -3 1 -12 11 -20 15 -13 15 -14 1 -10 -9 3 -22 0 -29
-6 -10 -9 -12 -8 -7 5 4 12 2 15 -9 11 -11 -4 -12 -8 -3 -19 8 -10 15 -11 24
-4 6 5 15 7 18 3 4 -3 13 0 21 6 12 10 16 9 24 -6 5 -10 7 -24 4 -32 -3 -8 0
-11 7 -7 6 4 11 13 11 20 0 17 -35 48 -43 39 -4 -3 -7 1 -7 10 0 17 -11 22
-23 10z"/>
<path d="M3122 6848 c-15 -15 -15 -28 0 -28 6 0 8 3 5 7 -4 3 -2 12 4 20 14
16 7 17 -9 1z"/>
<path d="M3210 6838 c0 -17 -3 -19 -12 -10 -7 7 -16 12 -22 12 -5 0 -1 -7 10
-15 10 -8 15 -15 10 -15 -4 0 6 -13 23 -29 16 -15 27 -31 24 -35 -3 -3 2 -6
11 -6 13 0 17 6 13 19 -3 12 1 22 10 25 11 5 13 1 7 -17 -4 -12 -7 -27 -7 -34
0 -12 -56 -37 -65 -28 -3 2 -14 -7 -25 -22 -19 -24 -21 -25 -34 -7 -7 10 -13
13 -13 7 0 -7 5 -15 10 -18 7 -4 5 -14 -5 -28 -17 -25 -19 -37 -5 -37 6 0 9 3
9 8 -3 19 2 33 11 27 20 -12 -3 -70 -23 -59 -8 5 -9 4 -2 -4 6 -6 20 -13 32
-15 13 -2 26 -7 30 -12 5 -4 2 -5 -4 -1 -8 4 -13 2 -13 -5 0 -8 -4 -8 -13 -1
-7 6 -33 14 -57 17 l-45 6 54 -23 c42 -18 59 -32 74 -61 19 -36 19 -40 3 -82
-27 -71 -103 -103 -166 -71 -30 15 -31 14 -19 -2 8 -9 19 -20 24 -24 6 -5 6
-8 -1 -8 -7 0 -15 -7 -18 -16 -5 -13 -3 -14 7 -6 10 9 12 4 9 -25 -3 -20 0
-33 4 -30 5 3 14 -6 21 -19 6 -13 7 -24 2 -24 -5 0 -12 7 -15 15 -4 8 -10 12
-16 9 -5 -3 -1 -12 9 -20 16 -12 16 -15 3 -24 -21 -14 5 -14 31 0 31 17 22 4
-12 -18 -30 -19 -31 -20 -10 -27 11 -3 21 -11 21 -16 0 -6 -4 -8 -8 -5 -5 3
-9 -1 -9 -9 0 -19 2 -19 22 1 15 16 16 16 13 -2 -2 -10 2 -19 9 -19 6 0 15 -4
20 -8 4 -5 1 -7 -7 -5 -8 2 -14 -3 -15 -9 0 -7 -4 -13 -10 -13 -5 1 -9 11 -8
23 1 15 0 17 -3 4 -3 -10 -11 -14 -17 -11 -8 5 -8 3 0 -6 10 -11 10 -17 -3
-31 -12 -14 -13 -18 -2 -25 7 -4 10 -4 6 1 -4 4 -3 14 3 22 9 10 15 11 26 2
11 -10 11 -15 -3 -30 -12 -14 -13 -19 -4 -19 9 0 8 -6 -5 -20 -16 -18 -16 -20
-1 -26 21 -8 20 -32 -1 -58 -15 -17 -15 -18 -2 -8 14 10 18 10 23 -3 4 -11 2
-14 -6 -9 -8 5 -9 2 -5 -10 5 -13 3 -15 -11 -7 -15 8 -17 4 -18 -24 0 -19 4
-33 10 -32 6 1 11 -5 11 -13 0 -8 5 -19 10 -23 6 -5 4 -7 -5 -4 -8 2 -14 11
-12 20 2 12 -2 15 -13 11 -9 -4 -14 -12 -11 -19 2 -7 -1 -19 -7 -26 -10 -11
-9 -11 5 -1 12 10 18 10 24 1 5 -8 3 -9 -6 -4 -10 6 -12 3 -8 -13 4 -16 2 -19
-11 -15 -14 4 -14 3 2 -10 17 -15 24 -33 8 -23 -5 3 -15 -2 -22 -12 -12 -15
-12 -16 2 -4 15 11 16 7 15 -40 -1 -29 -6 -60 -11 -68 -7 -13 -6 -13 7 -2 9 8
15 19 12 27 -3 7 -2 15 3 18 5 3 8 -12 8 -33 0 -21 -3 -37 -6 -34 -4 2 -12 -3
-19 -11 -10 -12 -8 -13 10 -10 13 2 20 2 17 -2 -4 -3 -2 -14 4 -25 9 -17 8
-18 -10 -9 -14 8 -22 8 -27 -1 -5 -7 -3 -8 6 -3 10 6 12 0 8 -24 -3 -18 0 -35
5 -38 6 -3 7 -1 4 4 -4 6 0 16 8 23 10 9 15 9 15 1 0 -6 -4 -11 -8 -11 -4 0
-8 -9 -9 -20 -1 -13 2 -18 9 -14 7 4 8 2 4 -5 -6 -9 -11 -9 -24 1 -13 11 -15
11 -10 -3 4 -9 1 -22 -5 -29 -10 -10 -7 -10 10 -1 15 7 24 8 28 1 4 -6 3 -10
-2 -9 -20 3 -25 -2 -13 -16 11 -14 9 -14 -16 0 -16 8 -36 15 -44 15 -8 -1 -1
-7 15 -14 17 -7 38 -23 49 -34 10 -12 22 -19 27 -17 4 3 11 0 15 -6 4 -7 3 -9
-3 -6 -6 4 -10 -12 -10 -39 0 -35 -6 -51 -28 -74 -16 -16 -37 -33 -48 -36 -18
-6 -19 -7 -3 -16 9 -5 14 -14 10 -19 -3 -5 2 -21 11 -36 16 -23 16 -27 1 -41
-9 -9 -16 -11 -16 -5 0 6 6 13 13 16 6 3 2 4 -10 4 -17 -1 -20 -4 -12 -19 5
-10 15 -18 21 -18 7 0 7 -4 0 -12 -5 -7 -8 -23 -6 -36 3 -14 0 -21 -6 -17 -5
3 -10 4 -10 0 0 -3 10 -10 23 -15 21 -8 21 -9 2 -9 -12 -1 -25 2 -31 7 -5 4
-1 -1 9 -10 11 -10 23 -16 27 -13 5 3 6 -4 3 -15 -3 -11 -9 -17 -14 -14 -5 3
-6 10 -3 16 4 7 2 8 -5 4 -7 -5 -8 -13 -2 -24 6 -11 4 -20 -7 -30 -10 -7 -11
-11 -4 -7 6 3 12 2 12 -4 0 -5 8 -18 18 -27 16 -17 16 -18 -1 -11 -14 5 -16 2
-11 -18 3 -14 2 -25 -4 -25 -5 0 -8 17 -6 37 2 24 0 32 -6 23 -5 -8 -7 -27 -5
-44 2 -17 0 -36 -6 -42 -8 -9 -5 -11 10 -7 12 3 21 10 21 16 0 6 3 7 7 3 4 -4
-3 -15 -15 -25 -23 -17 -23 -18 -5 -32 16 -13 17 -13 4 4 -7 9 -9 17 -3 17 12
0 21 -21 15 -38 -4 -10 -8 -10 -21 0 -15 11 -15 11 -5 -3 7 -9 10 -19 6 -23
-4 -4 0 -4 9 -1 14 6 16 0 15 -28 -1 -19 -6 -32 -11 -29 -5 3 -7 -2 -3 -11 4
-12 2 -14 -11 -10 -15 6 -15 5 -3 -10 11 -14 11 -17 0 -17 -10 0 -11 -2 -2 -8
12 -7 3 -35 -11 -33 -3 1 -5 -2 -3 -6 1 -5 5 -7 8 -6 4 1 15 -7 25 -19 11 -12
13 -18 5 -13 -11 6 -13 4 -7 -10 5 -15 4 -16 -9 -5 -13 10 -15 9 -15 -9 0 -15
4 -20 13 -16 6 4 3 -2 -8 -12 -22 -20 -22 -53 1 -53 8 0 14 -4 14 -10 0 -5 -6
-7 -12 -5 -7 2 -22 -7 -32 -22 -11 -14 -15 -23 -9 -20 13 8 12 -41 -1 -61 -7
-12 -4 -12 15 -1 21 11 22 10 12 -3 -7 -8 -9 -19 -5 -23 4 -5 1 -5 -5 -1 -7 4
-13 2 -13 -4 0 -7 -7 -10 -15 -6 -13 5 -14 2 -4 -17 12 -21 11 -21 -7 -7 -10
8 -16 10 -11 5 4 -4 0 -17 -10 -27 -9 -11 -11 -18 -5 -18 7 0 12 6 12 13 0 6
5 4 11 -6 6 -10 8 -21 5 -24 -3 -4 -6 -1 -6 6 0 7 -5 9 -10 6 -6 -4 -7 -11 -4
-17 4 -5 -4 -5 -17 2 -19 10 -21 10 -13 0 9 -9 9 -18 -2 -38 -7 -14 -10 -30
-7 -35 3 -5 -4 -4 -16 2 -18 10 -20 9 -14 -5 4 -11 2 -15 -4 -11 -6 4 -13 0
-17 -8 -3 -8 0 -15 5 -15 7 0 4 -12 -6 -27 -13 -20 -15 -28 -6 -31 8 -3 5 -9
-8 -19 -12 -8 -19 -19 -16 -24 9 -14 27 -11 19 4 -4 6 -3 8 1 4 15 -14 13 -31
-8 -52 -20 -20 -20 -20 -8 2 9 19 8 24 -9 33 -11 6 -20 9 -21 8 -7 -25 -5 -39
7 -49 8 -6 11 -16 8 -21 -4 -6 3 -5 15 1 17 10 20 9 15 -4 -4 -8 -1 -15 6 -15
6 0 8 -5 4 -11 -5 -8 -9 -8 -14 1 -5 9 -9 9 -14 1 -4 -6 -2 -11 5 -11 8 0 7
-5 -2 -17 -10 -11 -10 -14 -1 -9 7 4 12 2 12 -4 0 -6 5 -8 10 -5 6 4 8 10 5
15 -3 5 -1 11 4 14 5 3 11 0 14 -8 3 -8 0 -17 -7 -19 -8 -3 -13 -20 -13 -39 1
-21 -4 -32 -12 -30 -7 1 -9 -2 -6 -9 5 -8 10 -8 18 0 14 14 37 14 37 0 0 -5
-4 -8 -9 -5 -5 4 -7 -3 -4 -15 4 -16 8 -17 14 -7 7 10 9 9 9 -4 0 -10 5 -17
11 -15 6 1 14 -5 16 -13 3 -9 1 -11 -4 -5 -11 13 -33 17 -33 6 0 -5 9 -13 21
-16 12 -4 18 -13 15 -20 -3 -8 3 -19 12 -27 16 -12 16 -11 2 6 -13 17 -13 19
0 14 8 -3 15 -14 14 -26 0 -12 3 -19 7 -16 4 2 9 -1 11 -8 3 -7 11 -3 24 10
l20 21 2 -26 c1 -14 -3 -32 -9 -40 -10 -11 -8 -12 6 -6 14 5 17 3 12 -10 -3
-9 -2 -19 2 -22 5 -3 11 2 15 10 3 8 1 17 -4 20 -6 4 -10 12 -9 18 0 9 2 8 6
-1 2 -6 9 -10 14 -6 8 5 13 -9 10 -29 -2 -12 37 11 41 25 3 8 7 6 11 -5 3 -9
3 -16 -1 -16 -21 4 -22 -3 -1 -22 l24 -21 -27 16 c-31 18 -44 7 -23 -20 14
-18 15 -18 9 0 -6 16 -4 17 14 7 12 -7 22 -9 22 -7 0 3 12 1 26 -4 19 -8 24
-7 19 3 -4 6 2 3 12 -9 20 -23 49 -26 45 -4 -1 9 6 5 18 -9 18 -21 25 -20 21
1 0 4 9 13 22 19 12 6 19 8 15 4 -4 -5 -3 -14 3 -21 6 -8 8 -22 5 -31 -6 -14
-5 -15 5 -6 9 9 17 9 32 2 14 -8 18 -8 13 0 -7 11 42 36 52 26 3 -3 0 -5 -7
-5 -7 0 -9 -5 -6 -10 4 -7 11 -7 18 -2 7 5 21 12 32 15 20 7 20 7 1 -8 -11 -8
-15 -15 -9 -15 20 0 42 30 37 48 -5 14 -4 14 4 2 6 -8 9 -17 6 -21 -2 -4 3
-10 12 -13 9 -4 13 -2 8 5 -4 7 -1 10 7 7 8 -3 13 -11 11 -17 -1 -7 2 -10 7
-7 5 3 7 16 5 29 -2 12 -2 16 2 10 3 -7 13 -13 21 -13 13 0 13 -2 2 -17 -12
-14 -10 -14 14 1 29 20 35 29 14 20 -19 -7 -42 22 -26 32 7 4 9 3 6 -3 -4 -6
4 -11 19 -11 18 0 24 5 20 15 -3 8 -2 11 3 8 5 -3 13 -1 16 5 9 15 37 -8 28
-24 -4 -8 -2 -7 7 1 7 6 18 9 25 6 8 -2 19 5 25 17 10 18 9 21 -2 17 -7 -2
-12 -10 -11 -16 2 -6 -2 -11 -7 -11 -13 0 -13 17 0 25 6 4 8 10 5 14 -2 5 7 7
21 5 14 -1 28 4 31 12 4 11 7 11 20 -1 15 -15 33 -12 33 6 0 6 -5 7 -12 3 -13
-8 -3 12 20 39 8 9 11 17 7 17 -4 0 0 9 9 19 15 16 22 18 37 8 12 -7 15 -15 9
-22 -7 -8 -5 -12 4 -12 8 0 13 8 11 19 -2 10 0 18 4 18 5 0 12 11 15 25 4 16
11 23 18 19 7 -4 8 -3 4 5 -6 9 -11 9 -22 0 -10 -8 -14 -8 -14 -1 0 13 35 34
42 26 3 -2 11 4 19 13 13 16 12 17 -3 4 -12 -9 -18 -10 -18 -2 0 6 -8 11 -17
11 -15 0 -16 -2 -3 -10 9 -6 10 -10 3 -10 -19 0 -26 20 -8 26 13 5 13 9 3 22
-11 13 -10 14 9 4 27 -15 33 -15 33 0 0 6 -3 9 -6 5 -4 -3 -13 1 -21 9 -8 8
-19 11 -25 8 -6 -4 -8 -3 -5 3 4 6 17 9 29 8 18 -2 23 3 24 21 1 13 -2 24 -8
24 -5 0 -7 -4 -3 -9 8 -14 -9 -21 -25 -10 -11 6 -12 9 -2 9 7 0 10 5 6 12 -4
6 -3 8 3 5 6 -4 13 -1 15 6 7 17 -2 38 -13 31 -5 -3 -9 -1 -9 4 0 17 13 22 29
9 14 -10 14 -10 5 3 -7 8 -11 27 -9 43 2 15 0 27 -4 27 -4 0 -14 11 -21 25 -8
14 -20 23 -27 21 -7 -3 -18 4 -24 16 -6 11 -7 18 -1 14 14 -9 22 18 10 35 -7
11 -8 9 -3 -6 5 -17 3 -17 -17 5 -25 27 -29 47 -13 70 9 13 8 13 -9 0 -16 -13
-20 -12 -31 3 -6 9 -16 13 -20 9 -4 -4 -3 3 4 15 8 16 8 24 -1 29 -6 4 -8 3
-5 -3 3 -5 0 -10 -8 -10 -10 0 -11 5 -5 18 7 12 6 19 -4 22 -9 4 -12 15 -8 33
3 18 1 25 -6 20 -8 -5 -10 -2 -6 8 3 9 10 16 15 16 4 0 3 14 -3 30 -7 23 -7
34 2 45 11 13 10 14 -4 9 -18 -7 -21 7 -5 23 8 8 8 13 0 17 -17 11 -13 26 7
27 11 0 7 5 -13 14 -25 12 -21 21 8 16 10 -2 -1 38 -14 55 -5 6 -6 14 -2 18
17 16 10 33 -11 28 -20 -5 -20 -4 3 15 19 15 21 22 11 28 -9 6 -11 4 -5 -5 5
-8 4 -11 -3 -7 -20 13 -6 42 19 40 23 -3 23 -2 -3 14 -16 10 -28 21 -28 26 0
4 4 6 9 3 5 -3 9 5 9 19 0 14 -4 23 -8 20 -13 -8 -7 30 7 47 11 12 11 18 3 23
-9 6 -9 9 -1 14 6 4 13 17 16 30 2 12 0 19 -6 16 -5 -4 -7 -11 -4 -16 4 -5 1
-9 -4 -9 -6 0 -11 5 -11 11 0 5 -4 8 -8 5 -5 -3 -9 1 -9 9 0 8 4 12 8 9 4 -2
10 0 14 6 4 6 11 8 16 5 5 -4 9 -1 9 4 0 6 -5 11 -11 11 -5 0 -7 5 -4 10 3 6
1 10 -4 10 -6 0 -11 -5 -11 -12 0 -6 -3 -9 -6 -6 -3 4 2 18 11 32 17 26 9 36
-12 15 -7 -7 -12 -6 -16 5 -4 10 -1 13 8 10 10 -4 13 0 10 15 -3 14 0 18 12
14 12 -5 12 -7 1 -15 -11 -8 -11 -9 0 -6 22 6 17 22 -14 43 -30 20 -30 21 -12
40 16 17 20 17 29 5 7 -11 8 -9 6 10 -3 15 -11 26 -23 28 -16 3 -17 1 -4 -7 9
-7 10 -11 3 -11 -15 0 -25 15 -15 24 4 4 8 20 8 34 1 15 3 27 4 27 1 0 3 12 5
28 2 15 0 25 -6 22 -5 -3 -6 1 -3 9 3 9 14 16 23 17 13 0 12 2 -3 8 -18 7 -18
8 -2 14 13 5 15 11 7 25 -12 23 -17 104 -6 121 5 9 4 12 -2 8 -6 -4 -15 5 -21
18 -10 20 -9 23 5 18 13 -5 14 -3 6 11 -11 21 -5 68 8 60 5 -3 9 2 9 11 0 10
-6 15 -13 12 -18 -7 -40 50 -24 60 7 5 12 20 12 34 0 21 -3 25 -20 22 -16 -4
-17 -3 -5 6 17 12 23 51 8 51 -6 0 -8 -7 -5 -15 4 -8 2 -17 -3 -20 -6 -4 -10
3 -10 15 0 11 7 23 16 27 12 4 13 8 3 14 -7 4 -14 15 -15 24 -2 15 0 15 19 -1
12 -10 16 -12 10 -4 -19 21 -16 43 5 36 9 -4 4 5 -13 18 -16 14 -24 25 -17 26
6 0 12 -5 12 -12 0 -6 3 -9 6 -5 4 3 3 14 -1 24 -12 28 -13 53 -2 60 6 4 7 1
2 -7 -5 -9 -4 -11 3 -6 17 10 15 15 -10 26 -16 6 -18 9 -7 9 9 1 20 8 23 17 5
14 4 15 -8 5 -10 -8 -16 -9 -21 -1 -3 5 4 14 17 19 13 6 17 10 10 10 -8 1 -10
6 -6 13 11 17 12 48 2 42 -4 -3 -16 0 -25 6 -17 10 -16 10 2 8 18 -3 20 3 21
55 0 32 -4 61 -9 64 -6 3 -7 1 -3 -5 5 -8 1 -10 -9 -5 -13 4 -14 8 -4 14 10 6
10 11 -1 23 -7 9 -10 19 -6 23 3 3 6 1 6 -5 0 -7 7 -12 16 -12 8 0 13 -4 9 -9
-3 -5 -1 -12 5 -16 16 -10 11 17 -7 37 -14 16 -15 21 -4 27 11 7 11 10 0 15
-12 5 -12 7 -1 12 10 5 8 9 -8 18 -25 12 -28 29 -6 32 8 1 22 7 33 13 16 10
16 11 -6 8 -27 -2 -37 25 -15 44 8 6 14 16 14 22 0 6 -6 3 -13 -7 -11 -15 -17
-17 -35 -7 -26 14 -30 26 -4 13 12 -6 22 -4 34 9 9 9 14 20 10 23 -3 3 0 6 6
6 7 0 12 5 12 10 0 7 -6 8 -17 2 -12 -7 -24 -5 -39 5 -13 8 -27 12 -33 9 -5
-4 -7 3 -4 15 5 18 7 19 15 5 12 -21 25 -20 37 3 9 16 8 18 -12 14 -14 -2 -11
1 9 10 18 8 35 20 39 27 6 9 2 9 -14 1 -18 -10 -20 -9 -14 6 4 10 14 24 22 31
13 10 11 10 -11 1 -15 -7 -25 -15 -23 -19 2 -4 -2 -15 -9 -25 -10 -14 -15 -15
-21 -5 -5 8 -4 11 2 7 6 -4 13 0 17 8 7 18 -15 20 -34 3 -12 -11 -12 -10 -2 3
6 9 8 19 4 23 -4 4 0 6 8 4 8 -1 14 2 15 9 0 17 25 41 25 25 0 -7 -4 -12 -8
-12 -5 0 -9 -7 -9 -16 0 -15 1 -15 12 0 7 8 14 13 17 10 3 -2 3 7 0 21 -2 14
-8 28 -13 31 -5 3 -9 10 -9 16 0 6 7 5 18 -3 15 -13 16 -12 4 3 -8 9 -20 14
-28 11 -11 -4 -12 -8 -3 -20 9 -11 9 -17 -1 -26 -10 -9 -11 -9 -6 1 4 6 3 12
-1 12 -5 0 -15 -6 -22 -12 -11 -11 -11 -9 -2 10 6 12 8 22 4 22 -4 0 1 7 11
15 17 13 17 17 5 32 -9 11 -10 14 -1 9 6 -4 12 -3 12 2 0 6 6 9 13 8 6 0 13 3
14 8 1 5 7 12 13 16 8 5 7 9 -5 13 -9 4 -13 3 -10 -3 3 -6 2 -10 -3 -10 -15 0
-22 13 -14 25 4 6 -1 2 -11 -8 -21 -24 -36 -15 -16 10 12 15 12 16 -6 9 -11
-4 -16 -4 -12 0 4 4 2 13 -4 21 -13 15 2 18 17 3 6 -6 15 -5 24 1 13 9 12 10
-2 5 -10 -3 -20 -1 -23 4 -4 6 -15 10 -26 10 -15 0 -18 5 -15 25 4 19 0 25
-14 25 -10 0 -22 6 -26 13 -4 6 -4 9 1 5 4 -4 15 -3 22 4 11 9 17 9 24 -3 5
-8 7 -20 4 -26 -2 -7 0 -13 6 -13 6 0 7 -6 3 -12 -4 -8 -3 -10 2 -5 5 5 9 29
9 53 0 36 -2 42 -11 30 -6 -9 -14 -13 -17 -9 -4 3 -13 0 -22 -7 -8 -7 -15 -9
-15 -5 0 4 -6 2 -14 -4 -12 -10 -17 -7 -28 15 -7 15 -21 28 -31 30 -9 1 -15
-2 -11 -7 3 -5 12 -9 20 -9 18 0 18 -10 -1 -37 -13 -19 -19 -21 -40 -11 -18 8
-22 14 -14 24 7 8 7 14 -1 19 -9 6 -14 -1 -11 -17 0 -5 -6 -8 -15 -8 -8 0 -12
5 -9 10 3 6 2 10 -4 10 -5 0 -11 -5 -13 -10 -2 -7 -14 -7 -36 -1 -20 6 -32 6
-32 0 0 -5 -3 -8 -7 -7 -5 1 -18 -2 -31 -6 -32 -11 -50 7 -44 44 2 16 2 30 -2
30 -3 0 -6 -10 -6 -22z m135 -58 c5 -7 11 -8 18 -1 8 6 20 5 36 -3 18 -10 20
-14 9 -19 -8 -3 -21 -1 -29 3 -8 6 -17 4 -22 -3 -7 -9 -10 -9 -14 1 -2 6 -9
10 -14 6 -5 -3 -9 0 -9 7 0 20 -10 4 -20 -31 -8 -27 -7 -31 6 -26 18 7 60 -19
45 -28 -5 -4 -12 -3 -15 2 -2 4 -20 7 -38 7 -25 -1 -32 -5 -30 -17 1 -10 -7
-19 -19 -23 -17 -6 -19 -9 -8 -16 10 -6 10 -9 2 -9 -7 0 -10 -7 -7 -15 4 -8
12 -15 20 -15 8 0 14 -5 14 -11 0 -6 7 -8 17 -5 10 4 14 4 10 0 -4 -4 -2 -13
4 -21 9 -9 8 -13 0 -13 -6 0 -11 5 -11 10 0 6 -7 10 -15 10 -16 0 -21 -15 -7
-23 4 -2 1 -2 -7 0 -9 2 -11 -2 -7 -14 4 -10 4 -14 0 -10 -8 8 -34 -11 -34
-25 0 -5 5 -6 12 -2 7 4 8 3 4 -5 -6 -9 -11 -9 -22 0 -12 10 -11 14 6 26 20
14 18 39 -2 27 -7 -4 -8 -2 -4 4 4 6 13 9 21 5 15 -5 21 12 8 20 -5 2 -2 2 5
1 18 -5 15 2 -13 32 -23 24 -31 21 -26 -9 1 -5 -3 -6 -8 -3 -5 3 -11 -4 -14
-15 -4 -13 -10 -18 -17 -14 -9 6 -9 9 0 15 7 4 9 13 6 19 -4 6 -1 14 8 17 15
6 11 34 -6 34 -5 0 -6 -5 -2 -12 5 -7 3 -8 -5 -3 -18 11 26 54 59 57 33 4 60
28 60 53 0 36 39 60 55 35z m207 -25 c2 2 5 -11 6 -30 2 -25 -3 -37 -17 -44
-29 -16 -49 -13 -68 8 -9 11 -21 17 -27 14 -5 -4 3 12 19 34 29 39 31 40 56
27 15 -7 28 -11 31 -9z m-208 -22 c3 -7 11 -13 18 -13 9 0 8 3 -2 10 -10 6
-11 10 -2 10 20 0 27 -4 24 -15 -1 -5 4 -1 13 9 11 15 17 16 28 8 8 -7 18 -8
22 -4 5 4 5 2 1 -5 -4 -7 -13 -10 -22 -6 -8 3 -14 2 -13 -3 1 -5 1 -16 0 -24
-1 -13 -2 -13 -11 0 -9 13 -11 13 -20 0 -5 -8 -10 -10 -10 -5 0 6 -13 16 -30
23 -32 15 -40 29 -15 29 8 0 16 -6 19 -14z m-12 -72 c-5 -3 -8 -13 -7 -21 4
-22 -33 -20 -38 2 -6 20 19 39 41 31 7 -3 9 -9 4 -12z m-54 -35 c3 -11 -1 -17
-9 -14 -7 2 -13 12 -15 22 -3 23 20 15 24 -8z m382 3 c12 -9 12 -10 -3 -5 -10
3 -28 1 -40 -5 -21 -10 -21 -10 -3 5 23 19 26 19 46 5z m-271 -31 c-5 -10 -11
-18 -12 -18 -2 0 -3 8 -3 18 0 10 6 19 13 19 8 0 9 -6 2 -19z m-29 -25 c0 -7
-39 17 -46 28 -3 6 5 3 20 -6 14 -10 26 -19 26 -22z m-23 -45 c-3 -8 -6 -5 -6
6 -1 11 2 17 5 13 3 -3 4 -12 1 -19z m-34 -32 c4 -10 1 -13 -8 -9 -8 3 -12 9
-9 14 7 12 11 11 17 -5z m17 -111 c0 -8 -7 -15 -15 -15 -16 0 -20 12 -8 23 11
12 23 8 23 -8z m-240 -265 c0 -5 -8 -10 -17 -10 -15 0 -16 2 -3 10 19 12 20
12 20 0z m35 -20 c3 -6 -1 -7 -9 -4 -18 7 -21 14 -7 14 6 0 13 -4 16 -10z
m560 -108 c-3 -3 -11 0 -18 7 -9 10 -8 11 6 5 10 -3 15 -9 12 -12z m-206 -16
c86 -92 -28 -247 -164 -222 -80 15 -155 124 -125 180 19 37 64 52 113 39 36
-10 44 -9 65 8 34 27 83 25 111 -5z m-369 -56 c-24 -15 -37 -11 -16 5 11 8 22
12 25 9 3 -3 -1 -9 -9 -14z m25 -10 c-3 -5 -12 -10 -18 -10 -7 0 -6 4 3 10 19
12 23 12 15 0z m559 -8 c2 -4 -4 -8 -14 -8 -10 0 -16 4 -14 8 3 4 9 8 14 8 5
0 11 -4 14 -8z m-27 -154 c-3 -8 -6 -5 -6 6 -1 11 2 17 5 13 3 -3 4 -12 1 -19z
m-579 -138 c-14 -21 -28 -27 -28 -10 0 6 5 10 11 10 5 0 7 5 4 10 -3 6 1 10 9
10 14 0 14 -3 4 -20z m597 -87 c-2 -10 -4 -22 -4 -27 -1 -5 -8 -3 -16 4 -12
10 -13 16 -4 26 16 19 28 17 24 -3z m-68 -8 c63 -18 93 -110 54 -169 -26 -40
-57 -55 -109 -56 -37 0 -50 6 -78 34 -27 27 -34 42 -34 74 0 51 35 103 80 119
34 11 42 11 87 -2z m108 -345 c3 -5 1 -10 -4 -10 -6 0 -11 5 -11 10 0 6 2 10
4 10 3 0 8 -4 11 -10z m-300 -164 c42 -32 55 -61 55 -118 0 -84 -54 -146 -136
-156 -55 -6 -95 11 -134 54 -38 44 -47 93 -26 148 39 103 155 137 241 72z
m-349 -98 c4 -7 3 -8 -4 -4 -7 4 -12 2 -12 -3 0 -6 5 -11 12 -11 6 0 9 -2 6
-5 -3 -3 -13 -3 -22 1 -13 5 -14 9 -5 20 14 17 16 17 25 2z m14 -363 c0 -8 -4
-15 -9 -15 -13 0 -22 16 -14 24 11 11 23 6 23 -9z m453 -46 c30 -33 34 -66 12
-109 -32 -61 -112 -72 -157 -21 -15 17 -28 43 -28 57 0 63 63 120 120 108 14
-2 37 -18 53 -35z m187 -109 c0 -5 -4 -10 -10 -10 -5 0 -10 5 -10 10 0 6 5 10
10 10 6 0 10 -4 10 -10z m5 -88 c-3 -3 -11 0 -18 7 -9 10 -8 11 6 5 10 -3 15
-9 12 -12z m-711 -7 c3 -8 1 -15 -4 -15 -6 0 -10 7 -10 15 0 8 2 15 4 15 2 0
6 -7 10 -15z m-21 -100 c-3 -9 -8 -14 -10 -11 -3 3 -2 9 2 15 9 16 15 13 8 -4z
m318 -180 c21 -14 46 -43 59 -69 38 -80 13 -78 -50 4 -52 69 -145 73 -202 8
-9 -11 -20 -18 -24 -16 -5 2 -17 -19 -27 -47 -16 -43 -17 -57 -8 -94 15 -57 7
-65 -8 -9 -9 32 -9 55 -1 93 31 142 152 202 261 130z m-22 -51 c19 -16 31 -35
31 -50 0 -23 -7 -27 -52 -27 -10 0 -18 -4 -18 -9 0 -5 -10 -6 -22 -2 -13 4
-45 8 -73 9 -46 1 -50 3 -47 25 8 74 119 107 181 54z m625 -154 c-6 -6 -10 -3
-10 10 0 13 4 16 10 10 7 -7 7 -13 0 -20z m-1114 -27 c0 -19 -13 -9 -16 12 -1
8 2 13 7 9 5 -3 9 -12 9 -21z m974 -34 c21 -31 9 -55 -14 -27 -15 19 -20 20
-34 9 -23 -19 -20 -37 7 -46 14 -4 17 -8 9 -12 -15 -6 -62 34 -62 53 0 16 39
44 62 44 9 0 24 -10 32 -21z m-910 -117 c3 -5 -1 -9 -9 -9 -8 0 -15 4 -15 9 0
4 4 8 9 8 6 0 12 -4 15 -8z m1012 -93 c3 -6 2 -15 -4 -21 -6 -6 -11 -2 -15 11
-5 22 7 29 19 10z m-911 -58 c3 -5 2 -12 -3 -15 -5 -3 -9 1 -9 9 0 17 3 19 12
6z m189 -106 c-19 -30 -18 -29 -35 -7 -12 15 -12 16 1 5 13 -10 18 -8 28 8 7
10 14 19 17 19 3 0 -2 -11 -11 -25z m96 -21 c0 -8 -19 -13 -24 -6 -3 5 1 9 9
9 8 0 15 -2 15 -3z m87 -24 c2 -23 -12 -35 -22 -20 -4 6 -1 17 5 25 16 19 15
19 17 -5z m-137 6 c0 -3 -4 -8 -10 -11 -5 -3 -10 -1 -10 4 0 6 5 11 10 11 6 0
10 -2 10 -4z"/>
<path d="M3234 6675 c-4 -8 -12 -14 -19 -13 -8 2 -14 0 -14 -4 -2 -21 0 -25
13 -25 8 0 14 4 13 8 -1 4 7 14 17 22 13 10 15 16 7 21 -6 4 -14 0 -17 -9z"/>
<path d="M3500 6700 c0 -6 7 -10 15 -10 8 0 15 2 15 4 0 2 -7 6 -15 10 -8 3
-15 1 -15 -4z"/>
<path d="M3302 6663 c-6 -2 -10 -9 -6 -14 8 -14 21 -11 21 6 0 8 -1 15 -1 14
-1 0 -7 -3 -14 -6z"/>
<path d="M3329 5918 c-3 -19 -5 -24 -12 -35 -10 -16 14 -53 35 -53 28 0 33 22
9 41 -13 10 -21 24 -19 30 2 7 17 0 35 -15 18 -15 40 -26 50 -24 11 2 17 -2
15 -12 -1 -10 3 -8 13 5 9 11 15 31 13 45 -3 24 -6 25 -70 26 -38 0 -69 -3
-69 -8z"/>
<path d="M3266 5888 c3 -5 10 -6 15 -3 5 4 9 2 9 -4 0 -5 -4 -13 -10 -16 -5
-3 -10 -11 -10 -17 0 -7 6 -6 15 2 22 18 19 49 -4 47 -11 0 -17 -5 -15 -9z"/>
<path d="M3516 5441 c-30 -18 -38 -35 -30 -66 14 -54 93 -57 123 -3 32 56 -34
105 -93 69z"/>
<path d="M3275 4901 c-39 -8 -45 -46 -14 -80 18 -19 29 -22 61 -18 60 8 98 63
66 95 -13 13 -62 14 -113 3z"/>
<path d="M3410 4470 c-29 -29 -26 -74 6 -99 15 -12 35 -21 45 -21 43 0 70 100
34 126 -27 20 -62 17 -85 -6z"/>
<path d="M3160 3934 c-9 -10 -10 -18 -2 -26 12 -12 32 -2 32 17 0 21 -16 26
-30 9z"/>
<path d="M3252 3929 c1 -13 8 -23 13 -21 15 3 12 35 -3 40 -9 3 -13 -3 -10
-19z"/>
<path d="M3990 6850 c0 -5 5 -10 10 -10 6 0 10 -5 10 -11 0 -5 -5 -7 -12 -3
-7 4 -8 3 -4 -4 4 -6 13 -9 22 -5 13 5 13 8 -2 24 -19 22 -24 23 -24 9z"/>
<path d="M3149 6848 c-5 -18 -6 -38 -1 -34 7 8 12 36 6 36 -2 0 -4 -1 -5 -2z"/>
<path d="M3533 6836 c-10 -11 -9 -16 5 -21 9 -3 13 -3 9 1 -4 4 -2 13 4 21 15
17 -2 16 -18 -1z"/>
<path d="M3286 6825 c-3 -9 2 -13 15 -12 22 2 25 13 5 20 -8 3 -17 0 -20 -8z"/>
<path d="M6555 6830 c-3 -5 -1 -10 4 -10 6 0 11 5 11 10 0 6 -2 10 -4 10 -3 0
-8 -4 -11 -10z"/>
<path d="M3165 6807 c-4 -10 -14 -16 -22 -13 -8 4 -11 1 -7 -5 3 -6 15 -9 25
-6 10 3 22 1 25 -4 4 -8 -16 -14 -38 -10 -13 2 3 -27 19 -33 14 -6 14 -4 2 10
-13 16 -11 17 20 11 l35 -7 -21 22 c-11 13 -23 30 -26 38 -4 12 -6 12 -12 -3z"/>
<path d="M3456 6795 c-9 -26 -7 -32 5 -12 6 10 9 21 6 23 -2 3 -7 -2 -11 -11z"/>
<path d="M3980 6786 c0 -2 8 -10 18 -17 15 -13 16 -12 3 4 -13 16 -21 21 -21
13z"/>
<path d="M7080 6776 c0 -2 7 -9 15 -16 9 -7 15 -8 15 -2 0 5 -7 12 -15 16 -8
3 -15 4 -15 2z"/>
<path d="M3620 6735 c0 -8 2 -15 4 -15 2 0 6 7 10 15 3 8 1 15 -4 15 -6 0 -10
-7 -10 -15z"/>
<path d="M6642 6741 c-7 -4 -14 -15 -16 -24 -1 -9 -11 -25 -21 -37 -18 -20
-18 -21 0 -14 13 5 16 4 11 -4 -10 -17 2 -32 20 -25 13 5 13 8 -3 25 -14 16
-15 21 -4 28 8 4 21 5 30 2 13 -5 14 -3 3 10 -7 8 -10 23 -6 32 7 18 5 19 -14
7z"/>
<path d="M3125 6731 c-3 -5 -2 -12 3 -15 5 -3 9 1 9 9 0 17 -3 19 -12 6z"/>
<path d="M3210 6725 c0 -17 2 -18 24 -9 18 7 12 24 -10 24 -8 0 -14 -7 -14
-15z"/>
<path d="M6546 6732 c-3 -5 1 -9 9 -9 8 0 12 4 9 9 -3 4 -7 8 -9 8 -2 0 -6 -4
-9 -8z"/>
<path d="M6069 6632 c6 -12 16 -24 22 -28 8 -4 8 -1 0 14 -6 12 -16 24 -22 28
-8 4 -8 1 0 -14z"/>
<path d="M3650 6596 c0 -2 7 -9 15 -16 13 -11 14 -10 9 4 -5 14 -24 23 -24 12z"/>
<path d="M6535 6580 c3 -5 8 -10 11 -10 2 0 4 5 4 10 0 6 -5 10 -11 10 -5 0
-7 -4 -4 -10z"/>
<path d="M4220 6568 c0 -4 5 -17 12 -27 9 -15 16 -17 30 -10 28 15 21 36 -12
41 -16 3 -30 1 -30 -4z"/>
<path d="M6557 6563 c-4 -3 -7 -11 -7 -17 0 -6 5 -5 12 2 6 6 9 14 7 17 -3 3
-9 2 -12 -2z"/>
<path d="M4165 6507 c-4 -14 -4 -31 0 -36 3 -6 2 -11 -3 -11 -6 0 -13 -7 -16
-16 -5 -14 -4 -15 9 -4 13 10 15 9 15 -7 0 -10 6 -25 13 -32 10 -11 9 -12 -3
-6 -12 6 -12 5 -3 -5 12 -13 59 -17 70 -6 4 3 7 16 8 29 1 13 8 22 18 22 24 0
29 11 12 25 -21 17 -19 35 3 19 14 -11 15 -11 4 1 -7 9 -26 13 -46 12 -25 -3
-40 3 -54 19 l-21 22 -6 -26z"/>
<path d="M5910 6523 c0 -5 5 -14 12 -21 7 -7 8 -12 4 -12 -5 0 0 -12 9 -27 13
-19 14 -25 4 -21 -10 4 -14 -3 -14 -22 0 -17 4 -26 12 -23 9 4 10 -3 3 -26 -5
-19 -5 -31 1 -31 5 0 10 10 10 23 1 20 2 20 6 2 3 -11 11 -24 19 -28 8 -4 14
-13 14 -18 0 -6 -6 -7 -12 -3 -7 4 -9 3 -5 -1 11 -13 38 -15 30 -2 -4 6 0 8
10 4 10 -4 16 -2 14 6 -1 7 7 11 18 10 19 -1 19 -1 2 12 -18 13 -17 14 4 17
17 2 27 15 40 51 9 26 14 47 10 47 -4 0 -7 9 -8 21 -2 18 0 19 15 7 15 -12 16
-11 4 4 -8 9 -11 23 -7 30 4 7 -3 1 -15 -14 -44 -56 -116 -57 -159 -2 -11 15
-21 22 -21 17z"/>
<path d="M6596 6473 c-11 -11 -7 -20 9 -20 8 0 15 4 15 8 0 11 -16 20 -24 12z"/>
<path d="M4264 6397 c1 -28 -2 -32 -21 -29 -14 2 -23 -2 -23 -9 0 -10 -3 -10
-12 -1 -7 7 -19 12 -27 11 -11 0 -10 -3 4 -9 11 -5 14 -9 7 -9 -7 -1 -10 -5
-7 -11 3 -5 1 -10 -4 -10 -6 0 -11 -6 -11 -12 1 -7 10 -2 20 11 12 14 20 18
20 10 0 -11 2 -11 10 1 9 14 14 7 11 -13 -1 -5 3 -6 9 -2 8 5 7 12 -2 23 -11
13 -10 15 4 9 10 -3 20 -2 23 4 4 5 11 6 17 3 7 -4 7 0 0 12 -5 11 -7 24 -5
31 2 6 0 14 -4 16 -5 3 -9 -9 -9 -26z"/>
<path d="M6550 6380 c0 -5 5 -10 10 -10 6 0 10 5 10 10 0 6 -4 10 -10 10 -5 0
-10 -4 -10 -10z"/>
<path d="M3665 6364 c-10 -8 -14 -14 -8 -14 7 0 15 5 18 10 4 7 13 7 26 0 10
-6 19 -8 19 -6 0 16 -37 23 -55 10z"/>
<path d="M4266 6333 c-6 -14 -5 -15 5 -6 7 7 10 15 7 18 -3 3 -9 -2 -12 -12z"/>
<path d="M4195 6300 c3 -5 8 -10 11 -10 2 0 4 5 4 10 0 6 -5 10 -11 10 -5 0
-7 -4 -4 -10z"/>
<path d="M4230 6280 c-12 -7 -10 -9 7 -7 12 0 19 5 17 9 -6 10 -6 10 -24 -2z"/>
<path d="M6550 6280 c0 -5 5 -10 10 -10 6 0 10 5 10 10 0 6 -4 10 -10 10 -5 0
-10 -4 -10 -10z"/>
<path d="M4240 6184 l-25 -25 28 12 c15 7 27 18 27 26 0 17 0 17 -30 -13z"/>
<path d="M3654 6192 c4 -3 14 -7 22 -8 9 -1 13 0 10 4 -4 3 -14 7 -22 8 -9 1
-13 0 -10 -4z"/>
<path d="M7166 6167 c3 -10 9 -15 12 -12 3 3 0 11 -7 18 -10 9 -11 8 -5 -6z"/>
<path d="M4233 6131 c0 -11 5 -18 9 -15 4 3 5 11 1 19 -7 21 -12 19 -10 -4z"/>
<path d="M5745 6140 c-3 -6 1 -7 10 -4 8 4 23 0 33 -7 15 -13 16 -12 3 4 -15
19 -36 22 -46 7z"/>
<path d="M4262 6135 c4 -4 3 -13 -2 -20 -7 -8 -5 -12 5 -12 18 0 20 23 3 33
-7 4 -10 4 -6 -1z"/>
<path d="M7150 6099 c0 -5 5 -7 10 -4 6 3 10 8 10 11 0 2 -4 4 -10 4 -5 0 -10
-5 -10 -11z"/>
<path d="M4359 6028 c12 -16 11 -18 -8 -18 -11 0 -21 -4 -21 -10 0 -5 6 -7 14
-4 20 8 28 -12 11 -26 -10 -9 -15 -9 -15 -1 0 6 -5 11 -10 11 -6 0 -5 -8 2
-20 7 -11 15 -15 18 -9 7 11 40 1 40 -12 0 -5 14 -9 31 -9 18 0 28 -4 24 -10
-4 -6 -11 -7 -17 -4 -5 4 -2 -5 7 -20 20 -31 30 -35 15 -6 -14 27 -2 25 35 -5
27 -22 28 -24 7 -20 -20 3 -21 1 -16 -23 6 -26 6 -27 -11 -7 -9 11 -14 14 -10
7 8 -15 -13 -44 -26 -36 -5 3 -6 -1 -3 -9 3 -8 1 -18 -5 -22 -6 -3 -11 -12
-11 -18 0 -7 4 -6 10 3 8 13 10 13 10 -2 0 -9 -3 -18 -7 -21 -5 -2 -3 -2 4 -1
7 2 15 -1 18 -6 4 -6 1 -10 -6 -10 -8 0 -8 -4 1 -15 14 -17 0 -21 -17 -4 -8 8
-13 7 -18 -2 -5 -8 -4 -10 3 -5 11 7 17 -6 13 -27 -1 -5 3 -6 9 -2 5 3 10 3
10 0 0 -8 -27 -36 -35 -35 -3 0 -5 -3 -4 -7 1 -11 22 -4 31 10 4 7 6 2 5 -10
0 -12 -4 -20 -8 -17 -4 2 -9 -3 -12 -10 -3 -8 -1 -17 6 -20 9 -5 9 -7 0 -12
-8 -4 -6 -11 8 -25 10 -10 19 -25 18 -31 0 -10 -2 -10 -6 0 -2 6 -9 12 -14 12
-6 0 0 -18 12 -40 12 -21 26 -37 31 -34 4 3 8 -2 8 -11 0 -10 -5 -13 -12 -9
-9 5 -9 3 1 -9 7 -9 17 -14 22 -11 5 3 9 2 8 -3 -3 -19 2 -34 10 -28 5 3 13 0
17 -6 4 -8 3 -9 -4 -5 -7 4 -12 1 -12 -9 0 -9 4 -14 9 -11 20 13 3 -27 -19
-44 l-23 -18 23 2 c13 0 25 -5 27 -12 3 -8 -1 -10 -13 -5 -16 6 -17 5 -4 -9
10 -11 20 -13 32 -7 12 6 16 5 14 -6 -1 -8 -5 -18 -9 -21 -10 -10 -9 -26 1
-20 4 2 9 -4 9 -15 1 -15 -1 -18 -10 -11 -9 8 -12 4 -12 -12 0 -22 1 -22 23
-8 20 13 22 13 16 -1 -3 -8 -12 -18 -20 -21 -14 -5 -16 -56 -2 -56 5 0 5 12 2
26 -5 19 -4 25 5 20 6 -4 11 -14 11 -22 0 -13 12 -19 33 -15 5 1 6 -3 2 -8 -3
-6 -12 -8 -19 -5 -8 3 -17 0 -22 -7 -4 -7 -3 -10 3 -6 6 4 13 0 16 -8 4 -9 1
-12 -7 -9 -8 3 -17 0 -22 -7 -4 -8 -3 -10 4 -5 7 4 20 3 29 -3 17 -9 17 -10 1
-16 -10 -4 -15 -11 -12 -16 3 -5 7 -19 9 -31 3 -12 12 -29 22 -37 16 -15 16
-15 3 2 -11 15 -11 20 0 30 10 10 12 9 7 -4 -3 -9 -1 -21 4 -26 6 -6 4 -14 -6
-23 -8 -7 -15 -18 -15 -24 0 -6 5 -4 11 4 8 12 9 9 5 -11 -6 -26 14 -56 27
-42 4 3 7 1 7 -5 0 -15 -6 -15 -30 -2 -16 8 -18 8 -14 -5 4 -8 10 -15 16 -15
5 0 6 -4 3 -10 -4 -6 1 -7 12 -3 15 6 16 4 5 -9 -10 -13 -10 -18 -1 -24 8 -4
9 -3 5 4 -4 7 -2 12 3 12 14 0 14 -27 1 -35 -13 -8 -3 -25 13 -25 7 0 6 4 -3
10 -13 8 -12 10 3 10 12 0 16 4 11 13 -4 7 -3 8 2 4 12 -11 11 -40 -1 -49 -6
-5 -4 -8 5 -9 10 0 8 -3 -5 -9 -18 -8 -19 -9 -1 -9 14 -1 17 -6 12 -25 -7 -29
1 -38 24 -26 20 11 35 -10 31 -43 -1 -10 8 -21 23 -27 27 -10 35 -35 14 -43
-8 -4 -7 -6 3 -6 9 -1 20 -8 23 -17 5 -13 9 -14 21 -4 12 10 16 9 21 -3 3 -9
14 -14 24 -12 13 3 17 -1 13 -12 -5 -12 -7 -12 -14 -1 -5 7 -9 9 -9 3 0 -5 -7
-1 -15 9 -8 11 -15 15 -15 8 0 -6 9 -17 20 -25 11 -8 17 -18 12 -23 -4 -5 3 0
16 11 13 11 22 15 20 10 -2 -6 0 -10 4 -10 4 0 13 -8 21 -19 11 -15 17 -16 34
-7 16 8 24 7 33 -4 7 -8 15 -13 19 -11 3 2 15 0 26 -4 24 -9 75 7 93 29 10 14
11 13 5 -4 -3 -11 -11 -23 -17 -27 -7 -5 -7 -8 2 -8 7 0 15 7 18 15 5 11 11
12 25 4 15 -8 25 -4 49 21 16 17 30 25 30 19 0 -7 3 -9 7 -6 3 4 12 2 19 -4 9
-8 11 -5 7 10 -3 12 -10 18 -15 15 -6 -4 -5 3 2 15 6 12 15 19 20 16 5 -3 15
4 23 15 12 18 15 18 20 5 4 -10 1 -15 -10 -15 -15 0 -10 -15 5 -15 4 0 12 -4
19 -8 13 -8 11 23 -3 45 -4 7 -3 8 4 4 13 -8 35 28 24 39 -4 5 -1 5 6 1 6 -4
12 -2 12 3 0 18 -5 26 -13 23 -5 -1 -6 2 -2 8 5 8 12 7 23 -2 13 -11 15 -10
10 10 -4 12 -2 20 3 17 5 -3 16 3 25 14 9 10 22 18 28 17 6 -2 8 -1 3 1 -4 3
-4 9 -1 14 4 6 11 6 19 -1 10 -9 13 -7 11 7 -2 11 -11 17 -22 16 -11 -1 -13 0
-6 3 6 3 10 10 7 14 -3 5 4 7 15 5 11 -2 20 0 20 6 0 5 -6 9 -12 9 -9 0 -8 4
2 10 8 5 11 10 7 10 -5 0 -1 10 7 22 9 12 16 33 16 45 0 13 5 21 13 19 6 -1 9
-1 4 1 -4 3 -4 10 0 16 4 6 0 8 -10 4 -9 -3 -19 -3 -21 2 -8 12 27 10 43 -3
11 -8 13 -8 8 1 -4 6 -3 14 3 18 6 4 8 10 5 15 -3 5 -1 11 5 15 17 10 11 25
-7 19 -10 -3 -7 1 7 9 14 9 27 14 30 12 3 -2 6 8 5 23 0 15 -5 27 -12 27 -6 0
-15 3 -18 7 -4 4 4 5 19 2 21 -3 24 -1 19 12 -5 13 -3 15 8 9 12 -8 12 -6 0 9
-12 14 -12 19 -1 29 10 10 11 9 5 -3 -8 -13 -7 -13 10 0 15 13 16 15 3 18 -14
3 -14 6 -2 32 8 15 22 31 30 34 11 4 14 14 11 27 -5 17 -3 18 9 8 13 -11 14
-8 8 16 -5 19 -3 26 4 21 6 -3 14 -1 18 5 4 8 3 9 -4 5 -16 -10 -14 3 3 34 18
31 19 43 3 34 -9 -5 -8 -2 1 10 11 13 16 14 23 4 6 -9 7 -5 3 10 -4 14 -1 32
9 47 9 13 13 31 10 39 -4 10 1 18 10 22 11 4 13 10 7 18 -6 7 -7 22 -4 35 4
17 8 19 14 9 7 -10 9 -10 9 3 0 9 11 37 25 63 14 26 22 52 19 58 -4 7 -2 8 4
4 8 -5 12 2 12 19 0 15 5 35 10 46 14 24 -5 26 -19 2 -13 -23 -24 -10 -24 27
0 26 -3 29 -21 23 -40 -14 -271 1 -282 18 -3 5 -10 9 -15 9 -6 0 -7 -6 -3 -12
6 -10 4 -10 -8 0 -14 11 -17 9 -23 -18 -5 -23 -2 -37 12 -52 18 -21 18 -21 -4
-10 -12 7 -24 17 -27 24 -3 7 -3 3 0 -9 3 -13 1 -23 -3 -23 -5 0 -8 -18 -7
-40 1 -22 -2 -37 -6 -35 -4 3 -13 -2 -20 -10 -11 -13 -10 -14 2 -10 24 9 29
-21 7 -41 -10 -9 -19 -23 -19 -29 0 -7 -7 -16 -16 -19 -10 -4 -14 -14 -11 -26
3 -11 2 -20 -2 -20 -4 0 -14 -12 -21 -26 -9 -16 -20 -24 -31 -21 -12 3 -16 0
-12 -9 4 -11 -3 -13 -28 -9 -28 5 -30 4 -13 -4 31 -13 37 -27 24 -52 -10 -17
-18 -20 -50 -15 -29 4 -42 1 -55 -14 -10 -11 -14 -20 -9 -20 5 0 3 -4 -5 -9
-9 -6 -10 -11 -2 -15 10 -7 16 6 12 27 -1 5 4 5 10 1 8 -5 9 -3 4 6 -6 9 -4
11 5 5 9 -5 11 -4 6 3 -4 7 -2 12 3 12 6 0 11 -3 11 -8 0 -12 -58 -72 -70 -72
-6 0 -8 -5 -4 -12 9 -14 -26 10 -38 27 -5 6 -8 4 -8 -5 0 -9 3 -20 8 -26 4 -5
-1 -1 -10 9 -10 11 -19 16 -19 13 -1 -3 -2 -10 -3 -16 0 -5 -5 -9 -11 -7 -5 1
-9 7 -9 14 1 8 -5 9 -21 3 -12 -5 -28 -4 -36 1 -10 6 -10 9 -1 9 6 0 12 4 12
10 0 15 -28 0 -33 -18 -3 -12 -5 -11 -6 5 0 12 5 24 12 26 8 4 7 6 -3 6 -20 1
-54 57 -44 73 4 7 3 8 -5 4 -13 -9 -5 -47 13 -58 7 -5 6 -8 -3 -8 -11 0 -9 -4
5 -15 10 -8 14 -15 7 -15 -13 0 -26 17 -30 39 -1 8 -9 19 -18 24 -12 6 -13 12
-6 21 8 9 7 13 -4 13 -8 0 -15 -4 -15 -8 0 -4 -9 -7 -20 -6 -10 1 -17 3 -15 6
3 2 -1 11 -8 19 -8 10 -8 13 -1 9 7 -4 14 0 18 8 6 17 -46 49 -60 37 -5 -4 -3
0 4 9 10 14 8 19 -13 33 -16 11 -22 22 -18 34 5 15 4 15 -9 -2 -14 -18 -15
-18 -15 0 0 11 4 25 10 32 6 8 6 12 -1 12 -5 0 -13 -8 -16 -17 -6 -15 -9 -15
-16 -3 -5 8 -7 17 -4 21 2 4 -3 9 -11 12 -9 4 -12 1 -8 -9 3 -7 0 -14 -6 -14
-6 0 -11 11 -11 24 0 13 -6 27 -12 30 -7 3 -2 4 12 1 14 -3 19 -2 13 1 -7 3
-13 15 -13 27 0 18 -2 19 -10 7 -8 -12 -10 -10 -11 10 -1 23 -2 23 -9 -5 l-8
-30 -1 28 c-1 16 -7 27 -15 27 -10 0 -16 14 -18 43 l-3 42 -40 -1 c-22 -1 -34
0 -27 3 6 3 12 11 12 19 0 10 5 12 13 8 9 -6 9 -4 1 7 -6 8 -14 21 -18 29 -3
8 -4 5 -2 -8 4 -19 2 -21 -10 -11 -16 13 -19 49 -5 49 5 0 16 -7 25 -15 18
-19 33 -20 17 -2 -6 8 -8 16 -5 19 3 3 0 9 -7 14 -8 5 -10 3 -4 -6 5 -7 4 -11
-1 -7 -12 7 -11 71 1 74 6 1 9 -9 7 -22 -2 -12 0 -25 5 -28 12 -8 8 46 -5 68
-10 17 -13 18 -22 5 -6 -10 -10 -11 -10 -2 0 6 -7 12 -15 12 -8 0 -15 -4 -15
-10 0 -5 -7 -10 -16 -10 -8 0 -13 4 -9 9 3 5 1 12 -5 16 -6 4 -8 9 -6 13 2 4
-12 8 -31 10 -44 3 -56 10 -48 29 4 13 3 14 -9 3 -13 -10 -15 -7 -11 19 2 20
-2 34 -13 43 -15 12 -16 11 -3 -4z m161 -189 c0 -5 8 -6 18 -2 13 5 12 1 -5
-16 -12 -11 -20 -27 -17 -35 3 -8 0 -17 -5 -21 -6 -3 -9 -10 -6 -15 3 -4 -1
-10 -8 -13 -7 -3 -12 4 -12 18 0 16 4 21 15 17 13 -5 13 -4 0 10 -25 26 -68 7
-50 -22 8 -12 10 -10 11 10 0 23 1 23 8 5 5 -11 4 -22 0 -23 -5 -2 -7 -8 -4
-13 4 -5 -1 -6 -8 -3 -22 8 -27 40 -10 63 12 17 18 19 35 10 26 -14 45 9 21
26 -14 11 -14 12 1 12 9 0 16 -4 16 -8z m4 -145 c21 -20 20 -38 0 -30 -11 4
-15 2 -11 -7 6 -17 -22 -18 -45 -2 -16 10 -16 13 -2 33 18 26 37 28 58 6z m78
-46 c-9 -26 -11 -28 -7 -5 3 15 1 27 -4 27 -6 0 -8 7 -4 16 4 10 9 12 16 5 7
-7 7 -21 -1 -43z m1035 6 c-3 -3 -12 -4 -19 -1 -8 3 -5 6 6 6 11 1 17 -2 13
-5z m80 0 c-3 -3 -12 -4 -19 -1 -8 3 -5 6 6 6 11 1 17 -2 13 -5z m-1082 -54
c3 -6 -1 -7 -9 -4 -18 7 -21 14 -7 14 6 0 13 -4 16 -10z m1090 -179 c-11 -10
-45 34 -45 58 1 24 2 24 25 -14 13 -21 22 -41 20 -44z m-1238 54 c4 -4 3 -5
-4 -2 -6 4 -13 2 -15 -5 -3 -8 -6 -6 -10 4 -7 17 15 19 29 3z m1094 -23 c-6
-2 -9 -7 -7 -11 3 -4 -1 -8 -9 -8 -19 0 -19 7 2 37 16 23 18 24 21 5 3 -10 -1
-21 -7 -23z m-771 -39 c0 -3 -6 -3 -14 0 -7 3 -20 0 -27 -6 -11 -10 -11 -9 0
5 11 15 41 15 41 1z m-72 -25 c7 -7 12 -21 11 -32 0 -12 -3 -15 -6 -8 -5 14
-33 17 -33 3 0 -5 6 -12 13 -15 6 -3 1 -4 -13 -3 -28 2 -38 30 -20 52 15 18
32 19 48 3z m112 -18 c8 -5 11 -10 5 -10 -5 0 -17 5 -25 10 -8 5 -10 10 -5 10
6 0 17 -5 25 -10z m194 -178 c2 -4 -5 -9 -17 -9 -17 -2 -19 0 -7 7 18 12 18
12 24 2z m-144 -79 c26 -33 21 -79 -11 -105 -47 -40 -119 -4 -119 59 0 49 24
73 71 73 29 0 42 -6 59 -27z m507 11 c2 -7 -8 -9 -27 -6 -16 2 -27 8 -24 14 8
12 46 6 51 -8z m181 -99 c-3 -3 -9 2 -12 12 -6 14 -5 15 5 6 7 -7 10 -15 7
-18z m-976 -22 c-6 -3 -10 -9 -6 -14 3 -5 0 -9 -5 -9 -15 0 -14 27 2 33 6 2
14 2 17 -1 3 -2 -1 -7 -8 -9z m982 -38 c-4 -8 -11 -15 -16 -15 -6 0 -5 6 2 15
7 8 14 15 16 15 2 0 1 -7 -2 -15z m-44 -75 c0 -5 -5 -10 -11 -10 -5 0 -7 5 -4
10 3 6 8 10 11 10 2 0 4 -4 4 -10z m-900 -24 c0 -2 -7 -6 -15 -10 -8 -3 -15
-1 -15 4 0 6 7 10 15 10 8 0 15 -2 15 -4z m418 -32 c28 -19 31 -83 5 -107 -53
-47 -120 -17 -102 46 12 41 12 40 -11 34 -16 -4 -18 -2 -10 13 5 10 15 21 22
23 27 11 74 6 96 -9z m-365 -189 c-3 -9 -8 -14 -10 -11 -3 3 -2 9 2 15 9 16
15 13 8 -4z m72 -65 c-3 -5 -12 -10 -18 -10 -7 0 -6 4 3 10 19 12 23 12 15 0z
m42 -72 c2 -17 0 -19 -7 -8 -5 8 -6 18 -4 22 8 12 10 10 11 -14z m282 -84 c-6
-8 -17 -14 -23 -14 -6 0 -5 4 3 9 7 5 11 14 7 20 -5 7 -1 9 9 5 12 -5 13 -9 4
-20z m-67 -2 c9 -9 9 -12 0 -12 -7 0 -12 6 -12 13 0 9 -2 9 -9 -1 -7 -11 -9
-11 -14 1 -7 18 17 17 35 -1z m168 9 c0 -5 -9 -7 -20 -4 -11 3 -20 7 -20 9 0
2 9 4 20 4 11 0 20 -4 20 -9z"/>
<path d="M4804 5078 c-13 -20 -12 -48 2 -59 19 -16 75 -7 88 14 9 15 7 22 -13
38 -26 22 -66 25 -77 7z"/>
<path d="M5020 4795 c-12 -14 -11 -18 1 -26 22 -14 44 -6 44 16 0 25 -28 31
-45 10z"/>
<path d="M4982 4753 c2 -21 9 -29 28 -31 22 -2 23 -1 8 8 -10 6 -18 20 -18 30
0 11 -5 20 -11 20 -6 0 -9 -12 -7 -27z"/>
<path d="M4501 6004 c0 -11 3 -14 6 -6 3 7 2 16 -1 19 -3 4 -6 -2 -5 -13z"/>
<path d="M4514 5973 c4 -7 3 -13 -2 -13 -15 0 -23 -28 -10 -36 6 -4 8 -3 5 3
-4 6 1 17 10 24 15 12 16 12 10 -3 -3 -10 -2 -18 3 -18 6 0 10 5 10 11 0 5 5
7 10 4 6 -4 8 -11 4 -16 -3 -6 3 -5 15 3 21 13 21 13 -5 20 -14 4 -33 13 -42
20 -11 9 -14 10 -8 1z"/>
<path d="M5658 5973 c6 -2 18 -2 25 0 6 3 1 5 -13 5 -14 0 -19 -2 -12 -5z"/>
<path d="M6500 5966 c0 -2 7 -6 15 -10 8 -3 15 -1 15 4 0 6 -7 10 -15 10 -8 0
-15 -2 -15 -4z"/>
<path d="M7145 5940 c3 -5 11 -10 16 -10 6 0 7 5 4 10 -3 6 -11 10 -16 10 -6
0 -7 -4 -4 -10z"/>
<path d="M4413 5874 c0 -17 2 -22 7 -13 5 6 6 18 3 26 -8 19 -10 16 -10 -13z"/>
<path d="M5841 5873 c7 -12 15 -20 18 -17 3 2 -3 12 -13 22 -17 16 -18 16 -5
-5z"/>
<path d="M7160 5880 c-9 -6 -10 -10 -3 -10 6 0 15 5 18 10 8 12 4 12 -15 0z"/>
<path d="M3050 5866 c7 -7 13 -7 20 0 6 6 3 10 -10 10 -13 0 -16 -4 -10 -10z"/>
<path d="M4380 5870 c0 -5 5 -10 11 -10 5 0 7 5 4 10 -3 6 -8 10 -11 10 -2 0
-4 -4 -4 -10z"/>
<path d="M5568 5848 c-43 -33 -12 -82 36 -60 31 14 34 47 7 62 -24 13 -24 13
-43 -2z"/>
<path d="M5735 5810 c-15 -16 -15 -22 -5 -35 30 -36 92 -6 70 34 -14 26 -42
27 -65 1z"/>
<path d="M5657 5810 c6 -7 9 -19 6 -26 -4 -10 0 -12 13 -8 17 6 17 5 -1 -9
-22 -17 -20 -21 12 -31 19 -6 21 -4 17 19 -3 15 -1 24 4 21 5 -3 7 6 4 20 -3
19 -7 22 -13 12 -7 -11 -12 -11 -31 1 -15 9 -19 9 -11 1z"/>
<path d="M4370 5796 c0 -2 8 -10 18 -17 15 -13 16 -12 3 4 -13 16 -21 21 -21
13z"/>
<path d="M2990 5734 l-25 -13 31 2 c20 1 30 6 27 15 -3 6 -6 12 -7 11 0 -1
-12 -7 -26 -15z"/>
<path d="M4630 5662 c0 -15 28 -23 36 -9 4 7 4 9 -1 5 -4 -4 -14 -3 -22 3 -8
7 -13 8 -13 1z"/>
<path d="M4720 5550 c0 -5 5 -10 10 -10 6 0 10 5 10 10 0 6 -4 10 -10 10 -5 0
-10 -4 -10 -10z"/>
<path d="M5410 5535 c-8 -9 -8 -15 -2 -15 12 0 26 19 19 26 -2 2 -10 -2 -17
-11z"/>
<path d="M5351 5423 c-5 -10 -12 -17 -15 -15 -3 1 -6 0 -6 -3 0 -14 14 -7 28
13 8 12 12 22 9 22 -3 0 -10 -8 -16 -17z"/>
<path d="M4471 5367 c-13 -21 -13 -21 4 -7 17 14 18 13 11 -5 -5 -15 -4 -17 4
-8 8 7 9 17 3 27 -7 13 -10 12 -22 -7z"/>
<path d="M4865 5341 c-3 -5 -1 -12 5 -16 5 -3 10 1 10 9 0 18 -6 21 -15 7z"/>
<path d="M4495 5320 c-3 -5 -2 -10 4 -10 5 0 13 5 16 10 3 6 2 10 -4 10 -5 0
-13 -4 -16 -10z"/>
<path d="M5256 5321 c-3 -5 0 -11 8 -14 15 -6 26 1 26 15 0 11 -27 10 -34 -1z"/>
<path d="M4519 5218 c-12 -23 -12 -23 10 -4 23 21 26 26 11 26 -5 0 -15 -10
-21 -22z"/>
<path d="M2935 5160 c-3 -6 1 -13 10 -16 19 -8 30 0 20 15 -8 14 -22 14 -30 1z"/>
<path d="M7177 5153 c-4 -3 -7 -11 -7 -17 0 -6 5 -5 12 2 6 6 9 14 7 17 -3 3
-9 2 -12 -2z"/>
<path d="M5650 5119 c0 -5 5 -7 10 -4 6 3 10 8 10 11 0 2 -4 4 -10 4 -5 0 -10
-5 -10 -11z"/>
<path d="M5660 5100 c-9 -6 -10 -10 -3 -10 6 0 15 5 18 10 8 12 4 12 -15 0z"/>
<path d="M3705 5021 c-3 -5 -2 -12 3 -15 5 -3 9 1 9 9 0 17 -3 19 -12 6z"/>
<path d="M5816 5015 c-9 -26 -7 -32 5 -12 6 10 9 21 6 23 -2 3 -7 -2 -11 -11z"/>
<path d="M6485 5010 c3 -5 8 -10 11 -10 2 0 4 5 4 10 0 6 -5 10 -11 10 -5 0
-7 -4 -4 -10z"/>
<path d="M3700 4938 c0 -9 7 -19 16 -22 15 -6 15 -4 3 11 -7 10 -15 20 -16 22
-2 2 -3 -3 -3 -11z"/>
<path d="M7181 4754 c0 -11 3 -14 6 -6 3 7 2 16 -1 19 -3 4 -6 -2 -5 -13z"/>
<path d="M5705 4721 c-8 -27 -2 -36 13 -18 6 7 7 18 3 26 -7 10 -10 8 -16 -8z"/>
<path d="M3710 4650 c0 -5 7 -7 15 -4 8 4 15 8 15 10 0 2 -7 4 -15 4 -8 0 -15
-4 -15 -10z"/>
<path d="M5430 4627 c-25 -21 -43 -58 -32 -69 6 -6 12 -5 17 3 5 8 4 10 -3 5
-7 -4 -12 -2 -12 3 0 6 5 11 10 11 6 0 10 7 10 15 0 8 4 15 9 15 5 0 11 7 15
15 6 18 5 18 -14 2z"/>
<path d="M4710 4610 c0 -5 7 -10 16 -10 8 0 12 5 9 10 -3 6 -10 10 -16 10 -5
0 -9 -4 -9 -10z"/>
<path d="M4737 4533 c3 -7 6 -13 8 -13 2 0 5 6 8 13 3 8 -1 14 -8 14 -7 0 -11
-6 -8 -14z"/>
<path d="M5375 4541 c3 -6 -2 -14 -11 -19 -15 -8 -15 -10 0 -15 10 -4 14 -3
11 2 -3 6 2 14 11 19 15 8 15 10 0 15 -10 4 -14 3 -11 -2z"/>
<path d="M5272 4478 c2 -5 8 -9 13 -9 5 0 11 4 13 9 1 5 -4 9 -13 9 -9 0 -14
-4 -13 -9z"/>
<path d="M3732 4441 c-11 -7 -11 -9 0 -14 9 -3 15 1 15 9 0 8 -1 14 -1 14 -1
0 -7 -4 -14 -9z"/>
<path d="M5559 4423 c-13 -16 -12 -17 4 -4 16 13 21 21 13 21 -2 0 -10 -8 -17
-17z"/>
<path d="M5225 4421 c-3 -5 -2 -12 3 -15 5 -3 9 1 9 9 0 17 -3 19 -12 6z"/>
<path d="M4965 4410 c-3 -5 -1 -10 4 -10 6 0 11 5 11 10 0 6 -2 10 -4 10 -3 0
-8 -4 -11 -10z"/>
<path d="M6447 4223 c-10 -9 -9 -23 1 -23 5 0 9 7 9 15 0 17 -1 18 -10 8z"/>
<path d="M3745 4130 c-3 -5 -1 -10 4 -10 6 0 11 5 11 10 0 6 -2 10 -4 10 -3 0
-8 -4 -11 -10z"/>
<path d="M6340 4026 c0 -2 7 -7 16 -10 8 -3 12 -2 9 4 -6 10 -25 14 -25 6z"/>
<path d="M7360 3959 c0 -5 5 -7 10 -4 6 3 10 8 10 11 0 2 -4 4 -10 4 -5 0 -10
-5 -10 -11z"/>
<path d="M7369 3933 c-13 -16 -12 -17 4 -4 16 13 21 21 13 21 -2 0 -10 -8 -17
-17z"/>
<path d="M3869 3913 c-11 -15 -11 -16 1 -6 11 10 18 9 34 -5 21 -17 21 -17 2
6 -23 26 -20 26 -37 5z"/>
<path d="M2815 3900 c-3 -5 -1 -10 4 -10 6 0 11 5 11 10 0 6 -2 10 -4 10 -3 0
-8 -4 -11 -10z"/>
<path d="M2790 3850 c0 -5 5 -10 10 -10 6 0 10 5 10 10 0 6 -4 10 -10 10 -5 0
-10 -4 -10 -10z"/>
<path d="M4192 3785 c0 -16 2 -22 5 -12 2 9 2 23 0 30 -3 6 -5 -1 -5 -18z"/>
<path d="M7392 3751 c4 -13 18 -16 19 -4 0 4 -5 9 -11 12 -7 2 -11 -2 -8 -8z"/>
<path d="M2810 3645 c0 -8 2 -15 4 -15 2 0 6 7 10 15 3 8 1 15 -4 15 -6 0 -10
-7 -10 -15z"/>
<path d="M6305 3591 c-3 -6 -12 -8 -18 -5 -7 4 -4 -1 5 -12 14 -14 21 -15 30
-6 9 9 9 15 1 23 -8 8 -13 8 -18 0z"/>
<path d="M3820 3495 c-10 -12 -10 -15 3 -15 19 0 31 16 18 24 -5 3 -14 -1 -21
-9z"/>
<path d="M6347 3498 c7 -8 10 -18 6 -22 -4 -4 1 -4 11 0 15 6 17 4 11 -6 -5
-9 -4 -11 4 -6 14 9 7 22 -22 38 -19 10 -20 9 -10 -4z"/>
<path d="M3817 3459 c7 -7 15 -10 18 -7 3 3 -2 9 -12 12 -14 6 -15 5 -6 -5z"/>
<path d="M2970 3435 c-11 -13 -10 -14 4 -9 9 3 16 10 16 15 0 13 -6 11 -20 -6z"/>
<path d="M3790 3440 c0 -5 5 -10 10 -10 6 0 10 5 10 10 0 6 -4 10 -10 10 -5 0
-10 -4 -10 -10z"/>
<path d="M3610 3351 c-13 -25 -13 -28 3 -28 6 0 13 11 13 24 2 28 -2 29 -16 4z"/>
<path d="M7130 3360 c0 -5 5 -10 11 -10 5 0 7 5 4 10 -3 6 -8 10 -11 10 -2 0
-4 -4 -4 -10z"/>
<path d="M4079 3343 c-13 -16 -12 -17 4 -4 16 13 21 21 13 21 -2 0 -10 -8 -17
-17z"/>
<path d="M6555 3340 c3 -5 11 -10 16 -10 6 0 7 5 4 10 -3 6 -11 10 -16 10 -6
0 -7 -4 -4 -10z"/>
<path d="M6130 3337 c0 -2 15 -16 33 -33 l32 -29 -29 33 c-28 30 -36 37 -36
29z"/>
<path d="M3270 3310 c0 -5 0 -13 1 -16 0 -4 -5 -11 -13 -16 -10 -8 -10 -9 2
-5 8 2 15 8 15 13 0 5 4 15 8 22 5 7 4 12 -2 12 -6 0 -11 -4 -11 -10z"/>
<path d="M4049 3303 c-13 -16 -12 -17 4 -4 16 13 21 21 13 21 -2 0 -10 -8 -17
-17z"/>
<path d="M6645 3310 c-3 -5 -1 -10 4 -10 6 0 11 5 11 10 0 6 -2 10 -4 10 -3 0
-8 -4 -11 -10z"/>
<path d="M6225 3240 c10 -11 20 -20 23 -20 3 0 -3 9 -13 20 -10 11 -20 20 -23
20 -3 0 3 -9 13 -20z"/>
<path d="M7394 3218 l-19 -23 25 20 c14 11 27 21 29 22 2 2 0 3 -6 3 -5 0 -18
-10 -29 -22z"/>
<path d="M6261 3207 c2 -1 13 -9 24 -17 19 -14 19 -14 6 3 -7 9 -18 17 -24 17
-6 0 -8 -1 -6 -3z"/>
<path d="M6310 3176 c0 -3 9 -10 20 -16 11 -6 20 -8 20 -6 0 3 -9 10 -20 16
-11 6 -20 8 -20 6z"/>
<path d="M6387 3129 c7 -7 15 -10 18 -7 3 3 -2 9 -12 12 -14 6 -15 5 -6 -5z"/>
</g>
</svg>
