<?xml version="1.0" standalone="no"?>
<!DOCTYPE svg PUBLIC "-//W3C//DTD SVG 20010904//EN"
 "http://www.w3.org/TR/2001/REC-SVG-20010904/DTD/svg10.dtd">
<svg version="1.0" xmlns="http://www.w3.org/2000/svg"
 width="1024.000000pt" height="1024.000000pt" viewBox="0 0 1024.000000 1024.000000"
 preserveAspectRatio="xMidYMid meet">

<g transform="translate(0.000000,1024.000000) scale(0.100000,-0.100000)"
fill="#000000" stroke="none">
<path d="M0 5120 l0 -5120 5120 0 5120 0 0 5120 0 5120 -5120 0 -5120 0 0
-5120z m6567 3516 c7 -1 26 -15 42 -32 25 -24 30 -37 31 -77 0 -26 -6 -63 -14
-81 -15 -37 -67 -81 -107 -91 -43 -11 -104 12 -138 50 -69 78 -23 201 87 235
24 8 41 7 99 -4z m-2707 -66 c0 -5 -4 -10 -10 -10 -5 0 -10 5 -10 10 0 6 5 10
10 10 6 0 10 -4 10 -10z m-580 -85 c33 -17 50 -43 50 -75 0 -20 -5 -21 -52
-18 -51 3 -53 2 -56 -24 -3 -29 28 -55 50 -42 8 5 9 2 5 -9 -4 -10 -1 -17 6
-17 21 -1 -37 -40 -60 -40 -12 0 -28 7 -36 15 -8 8 -18 11 -22 7 -5 -4 -5 -2
-2 5 4 6 4 19 1 28 -6 13 -9 14 -16 3 -7 -9 -8 -7 -3 7 3 11 9 32 12 48 3 15
10 30 14 33 15 9 0 24 -17 17 -9 -3 -11 -8 -6 -12 6 -4 5 -17 -4 -36 l-13 -30
4 30 5 30 -16 -34 c-20 -44 -11 -96 27 -155 23 -37 34 -46 57 -46 16 0 37 -9
47 -20 22 -24 13 -26 -21 -4 -18 13 -23 13 -19 3 6 -16 55 -42 55 -29 0 15 39
18 59 3 18 -12 21 -12 21 0 0 27 50 31 76 6 17 -16 32 -20 62 -17 29 2 38 0
35 -9 -3 -7 2 -13 11 -13 9 0 16 -7 16 -16 0 -10 6 -14 14 -11 8 3 16 3 19 1
3 -3 36 -7 75 -9 67 -4 71 -3 88 23 10 15 17 30 16 35 -1 4 3 7 10 7 6 0 8 3
5 7 -8 7 11 33 25 33 5 0 6 -6 2 -12 -6 -10 -4 -10 7 -2 8 5 19 10 24 9 60 -4
36 -105 -25 -105 -35 0 -60 -9 -60 -22 0 -5 4 -7 9 -3 5 3 16 -4 24 -15 7 -11
17 -17 20 -13 4 3 7 2 7 -4 0 -6 16 -14 36 -18 21 -3 47 -13 59 -21 21 -14 23
-13 30 8 5 16 8 19 11 8 6 -21 98 -64 119 -56 11 4 18 0 22 -12 3 -12 24 -25
61 -37 56 -17 121 -44 211 -88 42 -21 117 -89 169 -153 33 -42 88 -161 102
-221 7 -29 15 -51 20 -48 4 2 5 -6 3 -18 -3 -14 2 -29 13 -38 11 -9 15 -9 10
-1 -4 6 -5 12 -2 12 2 0 15 -20 27 -45 12 -25 27 -45 32 -45 5 0 7 -6 4 -12
-2 -7 0 -22 6 -32 5 -11 11 -40 13 -65 1 -25 5 -62 8 -81 7 -39 25 -220 24
-229 -1 -3 7 -26 17 -50 17 -40 19 -42 32 -25 10 14 16 15 25 6 9 -9 10 -19 1
-42 -12 -31 -3 -86 13 -83 11 2 34 -39 28 -49 -3 -4 5 -12 16 -18 11 -6 20
-17 20 -26 0 -8 13 -17 30 -21 17 -3 33 -10 36 -15 3 -5 6 -46 7 -90 0 -67 -2
-83 -17 -94 -14 -10 -17 -20 -11 -41 4 -15 9 -52 12 -80 7 -72 23 -67 23 6 0
33 5 63 11 67 8 5 8 9 -1 14 -7 4 -9 13 -5 20 10 16 45 -17 38 -37 -4 -9 1
-19 10 -25 15 -8 15 -11 -3 -40 -10 -17 -16 -37 -13 -44 5 -15 -19 -44 -37
-44 -6 0 -4 -10 6 -25 9 -14 14 -28 10 -32 -3 -4 1 -15 11 -25 9 -10 14 -21
10 -24 -3 -3 5 -27 18 -52 27 -55 55 -136 55 -160 0 -12 3 -13 8 -5 5 8 8 -3
8 -25 1 -83 17 -182 30 -182 8 0 11 -6 7 -17 -5 -11 -3 -14 6 -8 18 10 33 -16
19 -32 -8 -10 -6 -13 6 -13 9 0 16 -6 15 -12 -2 -18 24 -78 34 -78 5 0 6 -8 2
-19 -8 -25 12 -39 65 -43 l45 -4 3 -67 c3 -71 15 -88 26 -36 3 17 10 28 16 24
5 -3 10 -1 10 4 0 15 37 14 43 -1 3 -7 6 4 8 25 1 20 2 43 3 50 1 7 -17 14
-44 17 -45 5 -45 5 -42 40 2 19 8 37 14 39 7 2 7 6 0 10 -6 3 0 11 14 18 19 9
24 8 24 -3 0 -8 5 -14 10 -14 6 0 10 10 10 21 0 12 8 28 18 35 15 12 15 15 2
25 -12 9 -11 10 6 6 12 -2 29 0 38 5 10 6 16 5 16 -2 0 -5 -4 -10 -10 -10 -11
0 -8 -95 3 -106 4 -4 5 16 2 45 -3 29 -2 50 3 47 5 -3 15 33 22 80 6 46 18
104 25 127 13 43 76 200 101 250 12 25 12 28 -2 23 -8 -3 -12 -2 -9 4 3 6 12
10 20 10 16 0 29 30 12 31 -9 0 -9 2 1 6 6 2 12 16 12 29 0 13 5 24 10 24 6 0
10 6 10 14 0 8 7 22 16 30 8 9 11 16 6 16 -5 0 -8 20 -8 45 1 39 3 43 14 28 6
-9 12 -22 12 -27 0 -6 5 -3 11 7 6 9 15 14 21 11 7 -4 8 -2 4 5 -6 9 -11 9
-22 0 -17 -14 -19 2 -2 19 9 9 9 12 -2 12 -10 0 -6 8 10 20 l25 21 -30 -7 -30
-6 23 17 c13 9 29 14 37 11 10 -3 12 0 8 11 -5 11 -3 14 6 8 10 -6 11 -3 1 15
-8 15 -8 20 -1 16 7 -4 11 1 11 12 0 30 13 34 33 10 17 -21 17 -21 8 -2 -8 17
-7 25 8 38 10 9 21 13 26 9 4 -5 3 1 -3 12 -7 13 -7 26 0 38 5 10 7 31 3 45
l-6 26 20 -25 21 -24 -6 28 c-4 17 -2 27 5 27 17 0 71 58 71 76 0 8 7 28 14
43 l15 28 -45 -10 c-24 -6 -47 -7 -51 -4 -9 10 -2 15 31 21 28 5 76 31 76 42
0 3 -10 -2 -22 -10 -12 -9 -27 -16 -32 -16 -10 0 20 27 51 46 15 10 14 11 -12
8 -27 -4 -28 -4 -7 6 20 8 21 13 12 31 -7 11 -11 37 -9 57 4 68 0 92 -16 92
-14 0 -21 30 -16 68 2 9 -8 12 -30 10 -39 -4 -67 -38 -76 -91 -7 -44 16 -77
54 -77 14 0 21 -4 18 -10 -10 -16 -56 -11 -102 11 -24 11 -43 23 -43 25 0 3 5
2 11 -2 7 -4 10 -1 7 7 -3 8 -11 13 -17 11 -7 -1 -9 2 -5 9 4 7 6 29 6 50 -1
21 3 50 8 64 6 15 6 24 1 20 -5 -3 -13 0 -17 6 -4 8 -3 9 4 5 7 -4 12 -2 12 3
0 6 3 10 8 9 4 -2 7 -1 8 2 0 3 12 18 27 34 14 15 25 33 24 40 -1 6 6 10 16 8
15 -3 17 1 11 20 -6 19 -5 21 8 11 12 -11 14 -8 11 20 -2 30 -2 30 7 7 8 -21
9 -19 7 18 -2 27 2 42 10 42 14 0 45 59 37 71 -3 5 1 9 8 9 22 1 81 89 75 112
-4 15 -3 18 5 10 8 -8 19 -2 39 21 22 25 25 34 16 47 -10 13 -10 13 4 3 13
-11 20 -8 43 16 16 16 39 32 53 35 14 4 21 11 17 18 -5 7 -2 9 9 5 9 -3 21 1
29 11 7 8 8 13 2 9 -6 -3 -11 0 -11 8 0 8 4 12 8 9 15 -9 59 8 59 22 0 8 10
14 21 14 19 0 20 2 8 17 -13 15 -12 15 11 3 17 -9 25 -10 28 -1 2 6 11 11 19
11 14 0 13 3 -2 20 -14 15 -20 17 -26 8 -4 -7 -3 -15 3 -19 7 -4 7 -9 -1 -13
-6 -4 -11 -2 -11 3 0 6 -10 11 -22 12 -22 0 -22 1 -3 9 21 9 6 15 -25 10 -8
-1 -12 1 -8 5 3 4 0 21 -7 39 -12 29 -12 37 4 67 16 30 22 33 55 31 20 -2 36
1 36 7 0 6 -7 8 -16 4 -12 -4 -15 -2 -12 8 3 8 12 13 21 11 8 -1 18 2 22 7 3
6 12 8 20 4 11 -4 15 3 16 28 1 19 1 37 0 42 0 4 23 8 52 9 28 0 65 2 80 2 29
2 48 -18 40 -42 -8 -21 5 -44 19 -35 7 4 28 9 47 10 18 1 38 8 45 16 6 8 20
20 31 26 19 12 19 12 -2 6 -12 -3 -24 -1 -28 5 -4 6 10 10 37 11 24 1 34 4 23
6 -11 3 -26 10 -32 15 -7 6 -36 7 -71 3 l-59 -7 0 34 c0 18 2 27 5 20 2 -6 11
-12 20 -12 15 0 15 -2 2 -10 -11 -7 -4 -10 27 -10 55 0 54 23 -2 31 l-40 6 48
1 c40 2 47 -1 45 -15 -2 -15 4 -18 36 -17 22 0 42 6 44 13 3 8 -4 11 -18 9
-13 -2 -25 3 -28 11 -3 10 1 12 15 9 11 -3 27 -1 36 3 20 12 47 1 48 -20 1
-14 2 -14 6 2 3 10 14 17 28 17 13 0 35 4 49 10 19 7 26 6 27 -3 0 -6 5 1 11
17 11 30 48 73 48 55 0 -5 4 -8 9 -5 5 4 12 0 14 -6 3 -8 6 -6 6 5 1 10 6 15
11 12 6 -3 10 1 10 9 0 10 6 13 15 10 8 -4 15 -1 15 5 0 15 27 14 33 -1 4 -10
7 -10 18 -1 8 8 17 9 23 3 6 -5 34 -10 62 -13 28 -2 56 -7 62 -11 7 -4 12 -1
12 8 0 9 7 16 15 16 9 0 15 9 15 21 0 19 4 20 33 15 17 -4 43 -8 57 -10 14 -1
43 -9 65 -16 22 -8 42 -15 45 -15 3 -1 13 -5 24 -10 12 -5 21 -3 27 6 7 11 9
10 9 -5 0 -15 3 -16 15 -6 10 8 15 9 15 2 0 -6 7 -9 16 -5 13 5 15 1 9 -18 -4
-17 -3 -20 3 -10 8 12 13 11 32 -2 12 -8 18 -17 13 -19 -4 -3 -2 -3 5 -2 17 5
43 -7 37 -16 -3 -5 3 -6 14 -3 10 3 22 0 25 -6 4 -6 15 -11 25 -11 10 0 31 -6
46 -14 15 -8 34 -12 41 -9 8 3 21 0 29 -7 9 -7 18 -10 22 -7 3 4 12 2 20 -4 7
-6 22 -9 33 -6 11 3 18 1 14 -4 -3 -5 2 -9 10 -9 9 0 16 -4 16 -10 0 -5 7 -10
15 -10 8 0 15 -4 15 -8 0 -5 19 -15 43 -22 23 -7 53 -20 67 -29 14 -10 52 -32
85 -51 33 -18 63 -38 67 -44 4 -6 8 -8 8 -4 0 14 112 -97 157 -154 95 -124
134 -261 115 -405 -24 -189 -114 -313 -249 -344 -130 -30 -275 56 -321 190
-17 49 -15 89 8 137 26 53 66 72 110 54 34 -14 35 -16 17 -53 -14 -32 -23 -34
-30 -7 -7 28 -25 25 -33 -5 -15 -59 46 -125 116 -125 104 0 169 117 141 252
-29 136 -134 257 -286 329 -76 37 -192 41 -254 10 -106 -55 -200 -165 -254
-301 -45 -115 -57 -218 -56 -507 0 -145 4 -263 9 -263 4 0 7 -12 5 -27 -11
-85 -14 -257 -5 -243 5 8 10 10 10 4 0 -6 -3 -14 -6 -17 -9 -8 -11 -297 -3
-297 4 0 10 -7 13 -16 3 -8 2 -12 -4 -9 -6 3 -7 -1 -4 -9 3 -9 11 -13 18 -9 6
3 8 3 4 -2 -4 -4 23 -29 60 -55 200 -141 308 -291 317 -440 3 -38 9 -60 22
-70 20 -17 102 -138 127 -188 52 -103 70 -280 40 -401 -35 -141 -154 -322
-250 -382 -39 -24 -128 -33 -190 -19 -21 5 -40 8 -41 6 -2 -2 4 -23 13 -47 15
-43 35 -259 23 -259 -3 0 -13 -35 -22 -77 -19 -86 -57 -174 -110 -253 -38 -56
-41 -96 -5 -64 44 41 98 162 122 274 8 36 15 54 15 40 2 -81 -66 -255 -127
-322 l-34 -38 1 -358 c2 -407 -10 -357 98 -422 108 -66 169 -84 278 -85 123 0
177 18 233 79 99 107 95 269 -9 374 -48 49 -86 65 -154 66 -79 1 -141 -29
-177 -86 -49 -74 -49 -128 0 -173 24 -23 25 -25 7 -25 -24 0 -60 51 -70 98
-16 75 64 204 135 219 16 3 41 19 55 35 26 29 29 30 99 26 93 -5 151 -34 239
-117 83 -79 113 -128 132 -217 19 -91 19 -264 0 -339 -26 -99 -91 -200 -158
-246 -26 -18 -24 -14 12 21 24 24 56 64 73 89 31 50 68 158 68 200 0 20 -10 9
-43 -52 -90 -167 -184 -227 -422 -272 -153 -29 -216 -13 -310 76 l-54 51 17
-51 c10 -34 21 -51 32 -51 9 0 20 -3 24 -7 4 -5 35 -18 69 -30 34 -12 55 -22
46 -22 -9 -1 -42 8 -74 19 -74 25 -78 25 -71 -5 14 -55 107 -168 191 -232 69
-53 205 -113 285 -127 14 -2 44 -9 65 -16 43 -13 177 -10 210 5 17 8 18 7 7
-7 -7 -9 -34 -25 -60 -36 -39 -17 -79 -22 -227 -27 -99 -4 -185 -12 -191 -16
-6 -5 -42 -12 -80 -15 -38 -3 -71 -10 -75 -15 -4 -7 -9 -4 -12 5 -4 10 -17 14
-36 13 -16 -1 -27 -5 -24 -9 2 -5 -14 -8 -36 -8 -26 0 -41 -5 -41 -12 0 -10
-2 -10 -8 0 -10 15 -42 5 -42 -14 0 -21 -30 -32 -105 -35 -60 -4 -70 -2 -73
14 -2 9 -7 15 -12 12 -4 -2 -25 -7 -46 -10 -22 -4 -61 -12 -89 -20 -27 -7 -87
-16 -132 -20 -68 -6 -83 -10 -83 -24 0 -13 -12 -17 -57 -18 -32 -2 -60 -8 -65
-15 -5 -9 -8 -8 -8 5 0 15 -3 15 -20 5 -16 -10 -22 -10 -32 5 -10 13 -30 18
-88 20 -41 1 -79 7 -83 12 -5 6 -7 3 -3 -7 4 -13 -2 -20 -19 -24 -36 -9 -165
0 -173 12 -4 5 -20 11 -37 12 -16 2 -57 7 -90 11 l-60 8 55 2 c66 3 42 19 -29
20 -35 1 -42 -2 -37 -15 4 -10 2 -13 -6 -8 -6 4 -30 8 -52 10 -131 8 -126 7
-126 30 0 32 7 30 -175 58 -5 0 -15 8 -22 16 -11 13 -12 13 -13 0 0 -39 -50
-47 -50 -8 0 16 -5 18 -34 14 -19 -3 -38 -1 -41 4 -9 15 37 29 62 19 31 -11
83 0 83 18 0 10 6 12 20 8 11 -3 20 -2 20 4 0 5 10 8 22 6 32 -6 58 3 58 21 0
8 4 13 9 10 5 -4 11 -2 13 4 3 10 30 15 138 25 36 3 74 12 85 19 25 16 124 38
171 38 19 0 34 5 34 10 0 6 11 8 25 6 14 -3 23 -1 22 6 -1 6 8 12 21 14 12 2
30 14 38 28 9 13 20 21 25 18 5 -3 9 0 9 6 0 9 36 67 50 80 25 23 33 104 37
397 l5 311 -31 84 c-57 155 -82 323 -83 563 -1 185 28 342 85 465 17 38 22 74
28 230 7 176 11 825 9 1525 l-1 320 -50 -125 c-75 -188 -197 -515 -300 -800
-159 -446 -297 -803 -431 -1123 l-49 -117 28 -25 c15 -13 31 -25 34 -25 13 0
40 -82 45 -138 12 -116 -30 -241 -113 -339 -80 -94 -172 -141 -312 -158 -44
-6 -60 -14 -94 -47 -39 -38 -95 -74 -108 -70 -4 0 -14 -7 -24 -18 -9 -10 -23
-16 -31 -13 -8 3 -14 1 -14 -4 0 -16 -100 -3 -173 23 -144 51 -197 84 -297
184 -188 187 -393 567 -545 1012 -51 148 -138 443 -156 528 -25 120 -436 1240
-439 1195 0 -5 0 -455 0 -1000 0 -636 4 -993 10 -999 6 -6 10 -18 10 -28 0
-28 84 -105 120 -110 46 -7 80 23 80 71 0 20 -6 46 -14 57 -13 17 -18 17 -36
6 -26 -16 -38 -8 -24 16 16 25 66 27 88 3 63 -70 16 -219 -82 -258 -38 -14
-50 -15 -93 -4 -50 13 -76 8 -49 -9 11 -7 12 -10 2 -10 -20 0 -15 -306 5 -338
30 -48 137 -68 206 -38 56 24 82 61 81 115 -2 65 -25 104 -103 180 -36 35 -55
59 -42 52 43 -24 146 -137 178 -197 73 -138 84 -304 26 -424 -17 -36 -49 -87
-70 -115 -41 -53 -140 -128 -187 -142 -52 -15 -65 -46 -71 -173 -10 -187 -9
-241 4 -310 7 -36 14 -80 16 -99 5 -46 22 -79 62 -119 18 -18 33 -38 33 -43 0
-6 4 -7 10 -4 6 3 10 1 10 -6 0 -7 3 -10 6 -6 3 3 15 -2 25 -12 35 -32 147
-81 187 -81 41 0 150 -26 166 -39 6 -5 27 -10 46 -12 19 -2 41 -7 48 -12 6 -5
12 -6 12 -2 0 4 7 2 15 -5 8 -6 20 -8 26 -4 8 4 9 3 5 -4 -5 -8 3 -10 26 -7
18 3 27 3 21 -1 -14 -6 -18 -25 -5 -23 4 1 23 1 42 0 27 -1 31 -4 20 -11 -11
-7 -6 -10 22 -10 29 0 36 3 32 15 -4 8 -1 15 5 15 6 0 11 -7 11 -15 0 -8 7
-15 16 -15 9 0 12 5 8 12 -4 7 -3 8 4 4 7 -4 12 -15 12 -25 0 -13 -12 -20 -45
-28 -25 -6 -45 -7 -45 -2 0 9 -58 -9 -77 -23 -6 -5 -12 -5 -15 0 -4 11 -118
-3 -160 -20 -16 -6 -28 -18 -28 -28 0 -15 -10 -18 -57 -19 -82 -1 -117 -13
-121 -39 -2 -12 -8 -22 -13 -22 -6 0 -8 9 -4 20 6 19 5 19 -29 5 -20 -9 -52
-13 -71 -11 -19 3 -35 0 -35 -5 0 -17 -18 -9 -23 11 -5 20 -47 29 -47 10 0
-13 -95 -13 -178 1 -47 8 -79 8 -104 1 -27 -7 -38 -7 -42 1 -2 7 -8 1 -12 -12
-7 -23 -9 -23 -93 -17 -48 4 -89 12 -93 19 -9 14 0 24 27 29 11 3 -24 2 -77 0
-53 -3 -105 -1 -115 3 -28 12 -45 16 -93 21 -25 2 -58 6 -73 9 -18 3 -30 0
-33 -9 -4 -11 -13 -12 -41 -4 -20 5 -51 8 -70 6 -22 -3 -33 0 -33 9 0 7 -7 13
-15 13 -9 0 -15 9 -15 21 0 14 -5 19 -15 16 -8 -4 -17 -2 -19 2 -11 18 -48 20
-526 36 -161 5 -233 19 -280 55 -14 10 -23 21 -20 23 3 3 30 1 60 -4 57 -9
316 -21 268 -13 -16 3 -28 12 -28 20 0 8 2 14 5 14 12 0 55 -24 55 -32 0 -4 5
-8 11 -8 5 0 8 3 6 8 -3 4 16 7 42 8 52 0 132 34 198 82 46 34 119 140 208
302 31 58 66 118 77 133 26 36 48 109 48 157 0 32 -8 44 -58 91 -32 30 -78 65
-102 79 -23 14 -61 48 -83 75 -83 104 -114 211 -124 430 -5 123 -3 150 16 225
27 108 65 188 129 272 l51 68 -25 96 c-13 53 -24 106 -23 118 0 11 8 -7 16
-42 21 -89 26 -72 8 29 -8 46 -16 98 -17 114 -1 17 -4 6 -8 -25 l-7 -55 -3 70
c-4 115 0 194 16 313 12 85 13 120 5 144 -16 44 -13 172 5 248 24 107 98 245
164 312 32 32 51 54 42 49 -10 -5 -53 -45 -96 -89 -86 -85 -147 -177 -173
-257 -24 -78 -29 -289 -8 -419 9 -59 15 -110 12 -112 -11 -11 -37 216 -37 323
0 127 16 217 51 286 37 73 154 209 239 275 l25 20 0 241 0 241 28 0 c21 0 27
-5 28 -22 1 -54 11 -125 20 -154 5 -18 9 -36 8 -40 -2 -5 0 -38 4 -74 10 -105
16 -261 7 -210 -6 41 -7 38 -8 -32 -1 -42 -5 -85 -8 -95 -5 -15 -4 -15 5 -3 8
11 11 -6 12 -70 1 -58 4 -77 9 -60 l8 25 1 -27 c1 -36 11 -59 22 -52 5 3 9 -4
9 -16 0 -12 5 -18 10 -15 6 3 10 -3 10 -15 0 -12 4 -19 8 -16 5 3 8 18 7 33
-2 18 -1 20 2 6 2 -13 9 -23 14 -23 6 0 7 -5 3 -12 -4 -6 -3 -8 3 -5 5 3 8 21
7 39 -2 18 -1 25 2 15 3 -10 12 -30 20 -45 10 -20 14 -22 14 -9 0 10 4 16 9
13 5 -3 11 4 14 15 4 17 10 19 29 14 13 -4 26 -13 30 -19 5 -7 8 -6 8 4 1 11
4 10 15 -4 15 -19 15 -19 16 5 l0 24 9 -22 c9 -22 21 -32 19 -15 -3 20 3 20
23 0 20 -20 23 -21 26 -6 2 9 -1 26 -7 36 -6 11 -7 22 -3 26 3 4 14 -19 24
-51 16 -50 17 -53 13 -18 -3 32 -2 36 6 21 6 -10 12 -35 13 -56 0 -21 4 -36 8
-34 3 2 12 -12 18 -31 7 -21 16 -32 23 -28 7 4 8 0 4 -11 -8 -19 1 -66 12 -66
4 0 6 16 6 35 -2 45 11 36 19 -15 3 -22 11 -40 16 -40 6 0 6 9 1 23 -4 12 -11
42 -14 67 l-6 45 19 -55 19 -55 -5 55 c-3 30 -8 64 -11 75 -3 13 -2 17 5 10 5
-5 13 -19 16 -30 3 -11 3 -2 0 20 -4 30 -2 36 6 25 8 -11 10 1 7 45 -3 33 -2
49 0 35 6 -33 19 -45 27 -25 3 9 2 13 -4 10 -6 -4 -10 19 -9 62 l1 68 8 -48
c11 -64 25 -76 17 -14 -4 28 -3 47 3 47 6 0 10 18 10 40 0 22 5 40 11 40 6 0
8 17 4 48 -5 35 -4 43 5 32 8 -11 9 -2 4 36 -4 34 -2 54 5 58 6 4 11 12 11 17
0 6 -4 8 -8 5 -5 -3 -3 41 4 97 7 56 17 228 23 382 6 154 13 291 16 305 14 73
17 81 29 71 6 -5 23 -32 36 -60 14 -28 28 -51 33 -51 4 0 7 -7 7 -16 0 -9 5
-12 12 -8 6 4 8 3 5 -4 -4 -5 -1 -23 7 -39 16 -30 49 -105 51 -113 1 -3 7 -18
13 -33 7 -16 12 -33 12 -38 0 -6 5 -7 10 -4 6 3 10 -3 10 -13 0 -20 15 -62 49
-137 11 -22 24 -59 31 -82 7 -23 21 -51 32 -62 10 -11 18 -26 18 -33 1 -7 8
-24 16 -38 10 -17 13 -18 8 -5 -8 25 -16 76 -8 55 3 -8 10 -24 15 -35 5 -11
28 -69 50 -130 23 -60 51 -132 61 -160 11 -27 22 -60 25 -73 3 -12 9 -25 14
-28 5 -3 9 -13 9 -23 0 -10 10 -31 23 -47 12 -15 30 -51 39 -79 9 -27 17 -42
17 -33 1 9 7 18 14 21 9 3 8 12 -5 38 -9 19 -19 45 -22 59 -4 14 4 4 17 -23
13 -26 27 -44 31 -40 4 4 5 1 1 -7 -3 -9 8 -30 26 -49 19 -21 29 -41 26 -52
-3 -11 -1 -17 3 -14 11 7 25 -31 29 -73 0 -7 5 -10 11 -7 6 3 7 -1 4 -9 -3 -9
-2 -16 3 -16 8 0 36 -55 67 -132 8 -21 17 -38 20 -38 3 0 -3 23 -15 52 -19 48
-19 52 -3 67 15 15 16 14 10 -9 l-7 -25 16 25 c9 14 14 17 11 8 -7 -24 3 -50
17 -41 6 4 8 0 4 -11 -4 -9 -3 -15 1 -12 5 3 19 -15 32 -40 14 -24 28 -44 32
-44 5 0 -3 18 -17 40 -14 23 -23 46 -19 52 4 6 3 8 -4 4 -9 -6 -25 22 -27 49
-1 6 -5 21 -9 34 -7 19 -10 21 -18 10 -8 -11 -8 -10 -4 4 3 11 -1 34 -10 53
-9 19 -15 36 -13 39 2 2 28 -43 58 -100 30 -57 58 -102 62 -100 4 3 12 -9 18
-25 10 -32 24 -43 15 -12 -5 16 -5 16 6 -1 6 -9 8 -23 4 -30 -4 -6 -4 -9 1 -5
12 11 66 -54 59 -72 -3 -8 -2 -11 2 -7 4 4 22 -14 41 -40 18 -25 33 -40 33
-33 0 13 14 6 16 -8 4 -25 28 -72 37 -74 7 0 17 -2 23 -2 15 -2 44 -26 44 -38
0 -5 -5 -6 -12 -2 -6 4 -4 -3 4 -15 9 -13 27 -30 40 -38 l23 -15 -24 21 c-24
22 -23 41 2 25 7 -5 6 -2 -3 6 -9 9 -25 28 -35 43 -13 20 -23 26 -39 22 -14
-4 -17 -3 -8 3 11 7 10 12 -3 26 -10 9 -14 20 -10 24 4 4 10 1 12 -6 6 -16 74
-80 88 -83 6 -1 16 -10 23 -20 7 -11 20 -19 28 -19 8 0 14 -3 14 -7 0 -9 73
-46 175 -90 110 -48 133 -55 144 -49 5 4 13 1 16 -4 4 -7 19 -9 35 -5 16 3 31
2 35 -4 3 -6 12 -11 18 -11 7 0 6 4 -3 10 -12 7 -8 10 14 10 43 0 27 9 -24 13
-25 3 -69 10 -99 18 -65 16 -217 90 -214 105 2 10 -40 50 -111 104 -21 17 -35
30 -31 30 5 0 22 -10 39 -23 17 -13 49 -33 71 -45 36 -20 38 -21 16 -2 -13 11
-18 20 -12 20 7 0 9 5 5 11 -5 8 -8 8 -14 0 -5 -9 -11 -7 -21 5 -12 15 -12 17
0 9 10 -6 12 -4 7 4 -5 7 -15 10 -23 7 -8 -3 -12 -2 -8 3 3 5 -16 25 -42 44
-58 43 -106 91 -80 81 9 -3 17 -9 17 -13 0 -5 21 -20 48 -35 26 -14 54 -31 62
-36 33 -21 116 -67 133 -73 32 -12 18 2 -23 23 -35 18 -46 34 -41 63 1 5 -3 6
-9 2 -6 -3 -7 -12 -4 -18 4 -7 -1 -4 -12 6 -10 10 -28 25 -39 33 -19 15 -19
15 2 5 28 -14 36 -14 27 1 -4 7 -3 8 5 4 6 -4 8 -12 5 -18 -5 -7 -2 -9 8 -6 8
4 26 -4 40 -17 13 -12 35 -26 49 -30 13 -4 35 -14 48 -22 22 -14 112 -31 100
-19 -3 3 -22 7 -43 10 -21 3 -46 12 -55 20 -10 9 -21 16 -25 16 -4 0 -34 18
-66 40 -70 48 -97 60 -85 39 5 -8 5 -11 -1 -6 -5 5 -9 14 -9 20 0 5 -6 12 -14
15 -8 3 -11 0 -7 -6 3 -6 2 -14 -4 -17 -6 -4 -10 -3 -9 2 3 17 -1 33 -9 33 -5
0 -30 20 -57 45 -27 24 -53 41 -59 38 -6 -3 -8 -3 -4 2 4 4 -6 18 -22 32 -16
13 -29 30 -27 36 1 7 -4 11 -11 9 -8 -1 -11 2 -8 7 4 5 3 11 -1 13 -13 5 -83
96 -83 106 0 5 -7 12 -15 16 -8 3 -15 10 -15 16 0 5 11 0 25 -12 14 -12 25
-27 25 -34 0 -7 17 -27 38 -45 20 -17 30 -28 22 -24 -9 5 -12 4 -7 -1 5 -5 12
-9 17 -9 4 0 30 -23 57 -50 41 -44 144 -125 158 -125 2 0 28 -14 56 -31 61
-36 158 -74 166 -65 4 3 0 6 -7 6 -21 0 -180 81 -180 91 0 5 -14 16 -31 24
-60 32 -199 146 -199 165 0 5 -4 10 -9 10 -19 0 -219 240 -276 330 -33 52 -63
100 -68 105 -4 6 -26 39 -48 75 -50 84 -50 71 2 -31 22 -45 38 -83 36 -86 -3
-2 -120 224 -260 504 -350 697 -353 704 -361 696 -4 -4 -4 0 0 10 3 9 2 17 -3
17 -6 0 -15 12 -22 26 -9 21 -9 30 1 42 11 13 11 14 0 8 -9 -5 -13 -3 -11 5 2
16 -9 47 -24 67 -8 10 -13 10 -25 0 -13 -12 -14 -10 -1 9 12 20 11 25 -14 51
-15 15 -27 31 -27 35 0 3 -21 38 -47 78 -27 39 -48 75 -48 79 0 5 -9 17 -20
27 -35 32 -77 101 -69 114 4 7 3 10 -3 6 -6 -4 -39 30 -73 76 -83 111 -191
234 -211 240 -14 4 -14 -1 3 -34 10 -21 18 -42 18 -48 0 -5 5 -13 12 -17 7 -5
8 -2 3 7 -5 8 -6 12 -2 9 3 -3 6 -8 6 -13 0 -4 7 -20 15 -35 7 -15 19 -63 25
-107 6 -44 16 -102 21 -130 9 -51 14 -182 6 -174 -3 2 -7 43 -10 91 -5 88 -11
112 -25 103 -5 -2 -14 15 -20 38 -21 69 -90 205 -159 312 -66 101 -225 271
-243 259 -5 -3 -8 0 -7 7 2 6 -12 21 -29 31 -39 24 -42 11 -8 -30 14 -17 25
-35 25 -41 0 -6 5 -11 10 -11 6 0 10 -9 10 -20 0 -11 4 -20 10 -20 5 0 7 -7 4
-15 -4 -8 -1 -15 6 -15 6 0 8 -4 5 -10 -3 -5 -2 -10 2 -10 5 0 10 -12 11 -27
1 -16 11 -59 21 -98 23 -81 39 -193 47 -321 3 -49 9 -108 14 -131 4 -24 3 -43
-1 -43 -5 0 -9 -9 -9 -20 0 -11 4 -20 9 -20 16 0 20 -60 22 -274 1 -166 -2
-210 -12 -217 -8 -4 -14 -12 -15 -16 0 -4 -4 -24 -7 -43 -13 -68 -15 -88 -9
-94 8 -8 12 -30 17 -86 3 -35 2 -38 -3 -12 -4 18 -11 33 -17 33 -5 0 -17 7
-26 15 -15 13 -16 12 -13 -14 4 -31 -26 -72 -51 -72 -8 0 -15 -4 -15 -10 0 -5
-5 -10 -11 -10 -6 0 -18 -8 -27 -17 -16 -16 -16 -16 1 -10 9 3 17 2 17 -3 0
-6 -6 -10 -12 -10 -9 0 -8 -4 2 -10 28 -18 -5 -10 -36 9 -17 11 -41 40 -54 66
-31 64 -26 186 12 260 26 50 72 105 103 122 15 9 17 47 22 349 8 489 -8 631
-91 799 -68 136 -185 217 -327 223 -63 3 -86 0 -141 -22 -35 -14 -67 -26 -71
-26 -12 0 13 52 44 91 16 20 51 48 77 61 26 13 59 32 74 42 14 9 40 18 57 18
17 1 37 8 44 16 10 13 9 15 -10 10 -13 -4 -23 -2 -23 3 0 5 15 9 33 9 48 0 76
34 63 78 -11 38 0 55 19 29 13 -18 14 -17 18 10 4 27 5 27 12 6 4 -13 15 -23
24 -23 13 0 13 2 2 9 -7 5 -11 13 -7 19 7 12 76 21 76 10 0 -4 -9 -8 -21 -8
-11 0 -17 -4 -14 -10 10 -16 45 -12 45 5 0 8 5 15 11 15 7 0 10 -12 7 -30 -3
-16 -1 -30 4 -30 4 0 8 4 8 10 0 9 89 27 118 24 6 -1 12 2 12 8 0 5 4 7 9 4 5
-4 12 0 14 6 3 7 6 0 7 -17 1 -27 2 -28 10 -9 9 22 40 41 40 24 0 -6 9 -6 25
0 18 7 25 6 25 -3 0 -8 3 -8 9 2 6 9 11 10 15 2 9 -13 16 -14 35 -2 12 8 11
13 -6 35 -11 14 -23 23 -27 21 -3 -3 -4 -2 -2 1 2 3 -4 24 -15 47 -10 23 -19
64 -19 90 0 116 98 189 190 142z m3740 -139 c-14 -14 -24 0 -16 21 6 15 8 15
16 3 6 -9 5 -19 0 -24z m748 -59 c2 -12 -3 -17 -17 -17 -12 0 -21 6 -21 13 0
31 32 34 38 4z m-3403 -28 c4 -6 13 -8 21 -5 8 3 11 0 8 -8 -3 -8 -1 -17 5
-21 15 -9 14 -51 -4 -84 -40 -79 -170 -21 -150 67 10 46 100 84 120 51z m2491
-38 c-4 -5 -13 -8 -22 -4 -11 4 -12 8 -3 20 14 16 36 2 25 -16z m-3696 -56 c0
-12 -19 -12 -23 0 -4 9 -1 12 9 8 7 -3 14 -7 14 -8z m437 -7 c-3 -8 -6 -5 -6
6 -1 11 2 17 5 13 3 -3 4 -12 1 -19z m2906 -37 c3 -12 0 -19 -7 -18 -6 1 -10
-4 -8 -10 2 -15 -24 -17 -33 -3 -4 6 -10 8 -14 6 -4 -3 -7 7 -7 22 1 46 57 48
69 3z m-2786 -57 c-3 -3 -12 -4 -19 -1 -8 3 -5 6 6 6 11 1 17 -2 13 -5z m687
-89 c8 -22 -4 -45 -24 -45 -10 0 -20 7 -24 15 -8 22 4 45 24 45 10 0 20 -7 24
-15z m1716 -39 c0 -3 -4 -8 -10 -11 -5 -3 -10 -1 -10 4 0 6 5 11 10 11 6 0 10
-2 10 -4z m-3332 -1044 c2 -14 -2 -22 -11 -22 -19 0 -40 26 -32 40 11 18 40 6
43 -18z m3192 -76 c0 -3 -4 -8 -10 -11 -5 -3 -10 -1 -10 4 0 6 5 11 10 11 6 0
10 -2 10 -4z m47 -42 c-3 -3 -12 -4 -19 -1 -8 3 -5 6 6 6 11 1 17 -2 13 -5z
m2001 -55 c32 -6 59 -20 77 -39 16 -16 32 -27 37 -24 4 3 8 -1 8 -9 0 -8 9
-34 20 -58 24 -54 26 -142 5 -193 -21 -49 -89 -123 -136 -147 -152 -77 -332
42 -333 221 0 67 16 112 56 157 12 12 18 29 15 37 -4 9 -2 16 2 16 5 0 12 -6
14 -12 3 -7 6 -2 7 12 1 14 4 19 7 12 4 -9 10 -7 22 7 10 12 21 18 24 15 3 -3
14 -1 24 5 23 13 89 14 151 0z m-4951 -66 c-3 -10 -5 -4 -5 12 0 17 2 24 5 18
2 -7 2 -21 0 -30z m2954 -6 c-6 -8 -8 -16 -5 -20 3 -3 1 -14 -5 -24 -8 -15 -9
-13 -6 12 2 17 4 33 4 38 1 4 6 7 12 7 8 0 9 -4 0 -13z m-2217 -33 c7 -19 2
-18 -19 6 -16 17 -16 20 -3 15 9 -4 19 -13 22 -21z m-737 -46 c-3 -7 -5 -2 -5
12 0 14 2 19 5 13 2 -7 2 -19 0 -25z m283 6 c0 3 15 0 34 -8 19 -8 37 -12 40
-9 2 3 9 -10 14 -28 10 -39 1 -74 -19 -74 -8 0 -13 -8 -13 -18 1 -10 -3 -16
-9 -14 -6 2 -19 -5 -29 -15 -10 -10 -32 -18 -48 -18 -44 0 -65 48 -56 124 4
31 12 57 17 57 5 1 13 2 18 3 5 0 13 4 17 8 4 4 13 3 21 -3 7 -6 13 -9 13 -5z
m2466 -251 c-10 -10 -19 5 -10 18 6 11 8 11 12 0 2 -7 1 -15 -2 -18z m-507
-142 c10 -7 11 -13 2 -29 -13 -24 -41 -19 -41 7 0 29 14 37 39 22z m356 -101
c3 -5 -1 -10 -9 -10 -8 0 -18 5 -21 10 -3 6 1 10 9 10 8 0 18 -4 21 -10z
m-251 -221 c63 -55 21 -151 -60 -137 -43 7 -68 61 -49 105 23 54 68 67 109 32z
m-2674 -259 c0 -13 -7 -20 -20 -20 -19 0 -27 20 -13 33 13 14 33 6 33 -13z
m5520 5 c0 -8 -7 -15 -15 -15 -8 0 -15 7 -15 15 0 8 7 15 15 15 8 0 15 -7 15
-15z m-3036 -20 c-4 -8 -11 -12 -16 -9 -6 4 -5 10 3 15 19 12 19 11 13 -6z
m26 -15 c0 -5 -5 -10 -11 -10 -5 0 -7 5 -4 10 3 6 8 10 11 10 2 0 4 -4 4 -10z
m-1392 -318 c2 -12 -1 -22 -6 -22 -15 0 -34 28 -27 40 10 17 30 6 33 -18z
m-351 -184 c-3 -8 -6 -5 -6 6 -1 11 2 17 5 13 3 -3 4 -12 1 -19z m970 -30 c-3
-7 -5 -2 -5 12 0 14 2 19 5 13 2 -7 2 -19 0 -25z m-3 -124 c3 -8 2 -12 -4 -9
-6 3 -10 10 -10 16 0 14 7 11 14 -7z m21 -33 c3 -5 1 -12 -5 -16 -5 -3 -10 1
-10 9 0 18 6 21 15 7z m380 -191 l20 -25 -22 19 c-13 11 -23 24 -23 29 0 6 1
8 3 6 1 -2 11 -15 22 -29z m24 -64 c9 -11 9 -16 -1 -22 -7 -4 -10 -4 -6 1 4 4
3 14 -3 22 -6 7 -9 13 -6 13 2 0 10 -6 16 -14z m-100 -41 c0 -5 -6 -1 -14 9
-8 11 -15 24 -15 30 0 5 7 1 15 -10 8 -10 14 -23 14 -29z m146 5 c10 -11 14
-20 9 -20 -5 0 -15 9 -22 20 -7 11 -11 20 -9 20 2 0 12 -9 22 -20z m-2298 -42
c-3 -7 -5 -2 -5 12 0 14 2 19 5 13 2 -7 2 -19 0 -25z m2740 -274 c-3 -3 -12
-4 -19 -1 -8 3 -5 6 6 6 11 1 17 -2 13 -5z m1023 -534 c0 -33 -12 -50 -36 -50
-31 0 -46 47 -20 65 22 17 56 7 56 -15z m-3962 -533 c3 -23 0 -27 -22 -27 -21
0 -26 5 -26 23 0 13 3 27 7 31 15 14 38 0 41 -27z m5685 -52 c-3 -8 -9 -15
-14 -15 -10 0 -12 24 -3 33 11 11 24 -3 17 -18z m-4110 -117 c7 -21 -12 -48
-34 -48 -22 0 -34 22 -25 45 7 18 53 20 59 3z m202 -88 c0 -8 -10 -16 -22 -18
-18 -3 -23 2 -23 18 0 16 5 21 23 18 12 -2 22 -10 22 -18z m-1382 -137 c-7 -2
-13 -11 -13 -19 0 -9 5 -12 12 -8 7 4 8 3 4 -5 -6 -9 -11 -9 -21 -1 -17 14 -8
40 14 39 10 0 11 -2 4 -6z m-417 -22 c23 -10 45 -24 48 -30 4 -6 11 -9 15 -6
9 5 39 -60 42 -90 4 -61 -2 -79 -41 -117 -35 -32 -47 -38 -86 -38 -95 0 -175
80 -176 175 -2 101 95 153 198 106z m1424 -71 c0 -5 -5 -10 -11 -10 -5 0 -7 5
-4 10 3 6 8 10 11 10 2 0 4 -4 4 -10z m60 -85 c0 -16 -6 -25 -15 -25 -9 0 -15
9 -15 25 0 16 6 25 15 25 9 0 15 -9 15 -25z m1250 -1 c0 -8 -4 -12 -10 -9 -5
3 -10 10 -10 16 0 5 5 9 10 9 6 0 10 -7 10 -16z m915 -44 c0 -22 -39 -19 -43
3 -3 15 1 18 20 15 12 -2 23 -10 23 -18z m2181 -35 c-11 -8 -25 -15 -30 -15
-6 1 0 7 14 15 32 19 40 18 16 0z m-343 -32 c-7 -2 -19 -2 -25 0 -7 3 -2 5 12
5 14 0 19 -2 13 -5z m234 -9 c-3 -3 -12 -4 -19 -1 -8 3 -5 6 6 6 11 1 17 -2
13 -5z m-89 -11 c-10 -2 -26 -2 -35 0 -10 3 -2 5 17 5 19 0 27 -2 18 -5z
m-5561 -179 c-3 -3 -12 -4 -19 -1 -8 3 -5 6 6 6 11 1 17 -2 13 -5z m5609 -42
c-15 -15 -16 -14 -16 9 0 33 11 44 23 23 6 -11 4 -21 -7 -32z m-2074 -56 c-7
-13 -21 16 -14 32 4 13 7 12 12 -4 4 -10 5 -23 2 -28z m-1561 -9 c-6 -8 -8
-17 -4 -21 4 -4 0 -4 -10 0 -27 10 -19 34 11 34 11 0 12 -3 3 -13z m419 -7 c0
-5 -7 -10 -15 -10 -8 0 -15 5 -15 10 0 6 7 10 15 10 8 0 15 -4 15 -10z m190
-70 c0 -5 -4 -10 -10 -10 -5 0 -10 5 -10 10 0 6 5 10 10 10 6 0 10 -4 10 -10z
m-360 -15 c0 -10 -11 -15 -35 -15 -24 0 -35 5 -35 15 0 10 11 15 35 15 24 0
35 -5 35 -15z m130 -1 c0 -2 -7 -4 -15 -4 -8 0 -15 4 -15 10 0 5 7 7 15 4 8
-4 15 -8 15 -10z m810 -4 c0 -5 -4 -10 -10 -10 -5 0 -10 5 -10 10 0 6 5 10 10
10 6 0 10 -4 10 -10z m-3187 -100 c3 -11 1 -18 -4 -14 -5 3 -9 12 -9 20 0 20
7 17 13 -6z m687 -46 c0 -2 -17 -4 -37 -3 -33 1 -35 2 -13 8 23 7 50 4 50 -5z
m4097 -6 c-3 -8 -6 -5 -6 6 -1 11 2 17 5 13 3 -3 4 -12 1 -19z m33 18 c0 -3
-4 -8 -10 -11 -5 -3 -10 -1 -10 4 0 6 5 11 10 11 6 0 10 -2 10 -4z"/>
<path d="M6450 8560 c-8 -5 -11 -10 -6 -10 5 0 1 -9 -9 -20 -15 -17 -16 -23
-6 -33 11 -10 13 -9 9 3 -3 8 8 27 23 43 28 26 20 37 -11 17z"/>
<path d="M7161 8176 c-10 -12 -8 -13 8 -9 12 3 21 9 21 14 0 14 -16 11 -29 -5z"/>
<path d="M3285 8109 c-11 -16 -1 -19 13 -3 7 8 8 14 3 14 -5 0 -13 -5 -16 -11z"/>
<path d="M3309 8094 c-10 -12 -9 -13 6 -8 12 5 16 4 11 -4 -3 -6 -1 -14 5 -18
7 -4 9 -3 5 4 -3 5 -2 12 3 14 5 1 3 8 -4 15 -10 10 -16 9 -26 -3z"/>
<path d="M3380 8086 c0 -2 7 -6 15 -10 8 -3 15 -1 15 4 0 6 -7 10 -15 10 -8 0
-15 -2 -15 -4z"/>
<path d="M3425 8071 c-3 -5 -2 -12 3 -15 5 -3 9 1 9 9 0 17 -3 19 -12 6z"/>
<path d="M3778 8063 c12 -2 32 -2 45 0 12 2 2 4 -23 4 -25 0 -35 -2 -22 -4z"/>
<path d="M6848 8043 c7 -3 16 -2 19 1 4 3 -2 6 -13 5 -11 0 -14 -3 -6 -6z"/>
<path d="M6465 7810 c-3 -5 -1 -10 4 -10 6 0 11 5 11 10 0 6 -2 10 -4 10 -3 0
-8 -4 -11 -10z"/>
<path d="M4087 7779 c7 -7 15 -10 18 -7 3 3 -2 9 -12 12 -14 6 -15 5 -6 -5z"/>
<path d="M4404 7699 c4 -25 38 -69 49 -62 6 3 7 1 3 -6 -4 -6 2 -23 13 -37 24
-31 25 -31 8 18 -13 36 -78 113 -73 87z"/>
<path d="M4289 7687 c6 -8 8 -17 4 -20 -3 -4 -2 -7 4 -7 6 0 25 -29 44 -65 22
-42 36 -61 41 -52 4 6 8 17 8 22 0 6 -4 4 -9 -3 -7 -11 -9 -11 -14 2 -4 9 -2
16 4 16 6 0 -11 27 -36 60 -25 33 -49 60 -52 60 -3 0 0 -6 6 -13z"/>
<path d="M4265 7641 c-6 -11 13 -26 22 -17 4 3 1 6 -6 6 -7 0 -9 5 -6 10 3 6
4 10 1 10 -3 0 -7 -4 -11 -9z"/>
<path d="M4424 7609 c29 -40 34 -58 11 -39 -13 11 -14 10 -9 -4 7 -18 13 -19
32 -8 9 6 3 19 -24 48 l-35 39 25 -36z"/>
<path d="M6383 7623 c0 -9 6 -9 21 -1 30 15 30 16 3 14 -13 0 -24 -6 -24 -13z"/>
<path d="M6344 7618 c-4 -6 -3 -8 4 -4 5 3 13 0 15 -6 3 -8 6 -6 6 5 1 19 -14
23 -25 5z"/>
<path d="M6311 7596 c-8 -10 -9 -16 -1 -21 6 -3 7 -11 4 -17 -4 -7 -2 -8 5 -4
9 6 9 11 0 22 -11 13 -6 18 14 15 5 -1 6 3 2 9 -8 13 -10 13 -24 -4z"/>
<path d="M6239 7573 c-13 -16 -12 -17 4 -4 9 7 17 15 17 17 0 8 -8 3 -21 -13z"/>
<path d="M6276 7572 c-3 -5 1 -15 8 -21 11 -10 14 -9 12 3 -3 21 -13 29 -20
18z"/>
<path d="M4535 7539 c-6 -8 -4 -10 5 -4 10 6 12 4 6 -11 -6 -15 -5 -17 5 -6 9
9 10 15 2 23 -8 8 -13 7 -18 -2z"/>
<path d="M6229 7533 c-13 -16 -12 -17 4 -4 9 7 17 15 17 17 0 8 -8 3 -21 -13z"/>
<path d="M4390 7536 c0 -2 7 -7 16 -10 8 -3 12 -2 9 4 -6 10 -25 14 -25 6z"/>
<path d="M4467 7490 c3 -11 9 -17 15 -14 5 3 4 12 -3 20 -16 19 -18 18 -12 -6z"/>
<path d="M4494 7446 c2 -15 6 -29 9 -32 3 -4 5 6 3 20 -1 14 -5 29 -9 32 -3 3
-4 -6 -3 -20z"/>
<path d="M6156 7455 c-9 -7 -13 -15 -10 -18 3 -3 -4 -10 -15 -17 -12 -6 -21
-16 -21 -22 0 -7 4 -7 13 1 8 6 18 7 22 3 5 -4 5 -1 1 6 -4 7 -1 12 9 12 10 0
14 5 9 13 -6 10 -4 10 7 0 21 -20 34 -15 16 5 -14 15 -15 19 -2 19 8 0 12 -4
9 -8 -2 -4 1 -11 7 -14 5 -4 8 -13 5 -21 -3 -8 -1 -14 5 -14 6 0 9 -6 6 -13
-3 -8 1 -14 9 -14 7 0 11 4 8 9 -3 4 2 8 10 8 9 0 18 11 22 25 6 23 29 32 67
26 4 0 7 4 7 9 0 6 -15 11 -32 11 -18 1 -56 2 -84 3 -29 1 -59 -3 -68 -9z m76
-47 c-6 -6 -9 0 -9 18 0 23 1 24 9 10 7 -12 7 -21 0 -28z"/>
<path d="M3260 7444 c0 -9 53 -75 57 -71 6 7 -31 66 -44 72 -7 2 -13 2 -13 -1z"/>
<path d="M4586 7427 c3 -10 9 -15 12 -12 3 3 0 11 -7 18 -10 9 -11 8 -5 -6z"/>
<path d="M6280 7410 c0 -5 5 -10 10 -10 6 0 10 5 10 10 0 6 -4 10 -10 10 -5 0
-10 -4 -10 -10z"/>
<path d="M6117 7337 c-15 -15 -21 -16 -35 -5 -11 9 -14 10 -8 1 4 -7 3 -13 -3
-13 -7 0 -7 -8 -2 -22 5 -13 15 -22 23 -20 7 1 2 -7 -12 -18 -19 -15 -20 -19
-6 -13 14 5 17 3 11 -7 -5 -9 -4 -11 4 -6 6 4 9 12 6 17 -4 5 0 12 8 15 9 3
13 13 9 26 -3 12 -1 19 4 15 5 -3 17 0 26 7 12 9 13 15 4 27 -10 13 -13 13
-29 -4z"/>
<path d="M3390 7285 c0 -6 10 -21 23 -35 12 -14 42 -51 66 -83 24 -31 44 -57
46 -57 1 0 2 7 2 15 0 8 -4 12 -8 10 -4 -3 -9 2 -13 10 -9 24 12 27 28 3 9
-12 16 -17 16 -11 0 7 -5 15 -10 18 -6 4 -9 14 -8 23 2 9 -4 17 -12 17 -8 1
-14 7 -12 14 1 7 -2 10 -9 5 -9 -5 -10 -2 -6 9 3 10 2 17 -3 17 -5 0 -20 11
-34 25 -21 21 -25 22 -30 8 -6 -14 -8 -14 -21 3 -8 10 -15 14 -15 9z m84 -61
c30 -36 36 -48 26 -57 -10 -10 -12 -8 -6 7 5 14 3 17 -11 12 -10 -4 -14 -4
-10 0 4 4 -4 22 -18 40 -23 30 -30 44 -22 44 1 0 20 -21 41 -46z"/>
<path d="M7094 7215 c-6 -13 -9 -14 -16 -3 -7 10 -11 10 -15 1 -2 -7 -11 -13
-18 -13 -7 0 -15 -7 -19 -15 -3 -8 -11 -12 -19 -9 -8 3 -18 -5 -25 -18 -11
-23 -11 -23 -11 5 -1 16 -5 26 -10 23 -5 -4 -12 0 -15 6 -3 7 -4 4 -1 -8 3
-11 -1 -29 -9 -39 -13 -18 -14 -17 -8 10 5 28 4 29 -13 15 -17 -14 -18 -13
-13 8 6 20 4 21 -9 10 -8 -7 -19 -21 -24 -33 -9 -19 -9 -19 -5 3 2 12 1 22 -3
22 -7 0 -74 -128 -75 -145 -1 -5 -14 -37 -30 -70 -15 -33 -41 -87 -56 -120
-55 -121 -51 -114 -45 -80 4 26 2 25 -16 -12 -12 -24 -25 -41 -29 -38 -5 3 -6
-4 -3 -15 6 -22 -12 -28 -21 -7 -3 6 -3 2 0 -10 8 -32 -5 -71 -17 -52 -6 10
-9 5 -10 -16 0 -24 -2 -26 -8 -11 -6 15 -12 6 -31 -43 -12 -34 -25 -60 -27
-57 -3 3 5 31 17 63 31 82 34 106 8 53 -36 -74 -48 -102 -48 -115 0 -7 -11
-28 -24 -48 -14 -20 -26 -46 -28 -59 -2 -14 -6 -19 -10 -12 -4 6 3 32 16 57
12 26 19 44 14 41 -11 -7 -10 2 1 24 6 9 18 43 27 75 9 32 20 53 24 48 3 -6 6
6 7 27 0 28 -1 32 -7 17 -5 -11 -9 -14 -9 -7 -1 14 -37 -17 -37 -33 -1 -35
-54 -108 -54 -75 0 6 4 10 9 10 12 0 23 29 15 42 -10 15 -35 -52 -29 -73 7
-21 -14 -99 -27 -99 -4 0 -1 16 7 36 17 42 19 54 6 54 -5 0 -12 -13 -16 -30
-3 -16 -18 -53 -32 -81 -14 -29 -27 -68 -30 -86 -3 -18 -10 -33 -15 -33 -5 0
-7 -14 -3 -32 4 -20 3 -28 -3 -20 -10 14 -19 -3 -47 -88 -10 -30 -20 -61 -23
-69 -4 -10 -1 -12 9 -6 8 5 11 5 6 -1 -11 -12 -30 -12 -39 0 -4 6 -5 -10 -2
-35 3 -34 2 -40 -6 -24 -8 16 -9 14 -4 -12 5 -32 -10 -48 -19 -20 -6 17 2 -19
9 -42 3 -10 -1 -25 -10 -34 -9 -8 -16 -22 -16 -30 0 -40 -25 -63 -32 -29 -3
14 -5 13 -10 -6 -3 -12 -3 -20 2 -17 4 3 11 -2 14 -11 3 -8 2 -13 -3 -10 -5 3
-11 -2 -14 -12 -3 -9 -17 -50 -31 -91 -15 -41 -24 -76 -21 -79 3 -3 5 1 5 9 1
8 7 3 15 -11 12 -23 11 -29 -11 -67 -14 -24 -21 -43 -16 -43 15 0 53 91 46
114 -6 20 -5 20 12 3 18 -17 18 -19 1 -48 -9 -17 -17 -43 -17 -57 0 -21 -2
-24 -10 -12 -8 12 -10 9 -10 -12 0 -15 -5 -30 -11 -33 -6 -4 -8 -13 -5 -21 3
-8 1 -14 -4 -14 -5 0 -14 -17 -19 -37 -6 -21 -18 -48 -27 -61 -9 -13 -13 -26
-9 -30 4 -4 10 -1 12 6 3 6 8 10 13 7 4 -3 13 9 20 25 7 17 16 30 21 30 4 0 9
10 12 23 2 12 3 -5 1 -38 -2 -64 -11 -98 -24 -90 -5 3 -12 0 -16 -6 -5 -8 -3
-9 6 -4 10 6 12 4 7 -8 -10 -26 1 -20 15 8 10 17 17 22 27 15 12 -7 13 -11 1
-24 -7 -9 -10 -19 -7 -22 3 -3 11 6 19 20 7 14 17 25 23 24 5 0 13 6 17 13 21
39 48 104 48 116 0 7 4 13 9 13 10 0 -4 -54 -19 -75 -10 -14 -30 -75 -24 -75
2 0 14 22 26 50 12 27 25 47 30 44 4 -3 8 7 8 23 0 18 3 24 9 15 5 -9 16 5 33
43 14 31 28 53 30 48 3 -4 3 -2 1 6 -2 7 1 19 5 25 5 6 14 25 21 41 10 27 11
27 6 3 -3 -14 -7 -34 -10 -45 -3 -10 3 0 14 22 21 43 28 35 11 -12 -9 -26 -9
-27 5 -9 8 11 15 38 15 60 0 27 3 36 9 27 6 -9 9 -5 9 14 0 15 7 32 15 37 9 5
14 15 10 24 -3 9 -2 19 4 23 9 6 14 16 67 134 15 31 30 57 35 57 5 0 12 7 15
16 5 14 4 15 -9 4 -13 -11 -14 -10 -9 6 4 10 13 28 21 39 7 11 13 29 13 40 0
14 3 16 9 7 6 -10 12 -5 21 18 11 27 11 33 -1 41 -11 8 -10 9 6 7 13 -2 20 4
23 17 2 11 9 34 17 50 7 17 19 45 25 63 7 17 16 32 21 32 4 0 14 18 20 40 7
22 15 40 19 40 4 0 21 29 39 65 19 36 36 64 39 61 3 -3 11 -1 19 6 7 6 15 9
17 7 5 -5 12 -106 26 -369 12 -224 19 -300 30 -300 4 0 8 -30 9 -66 1 -36 6
-74 11 -84 5 -9 7 -20 4 -23 -6 -6 25 -157 33 -157 2 0 2 14 -2 30 -4 17 -3
45 0 62 l8 33 18 -45 c10 -25 18 -39 18 -32 2 24 20 11 26 -19 6 -28 8 -29 21
-12 14 17 14 16 5 -4 -15 -29 -14 -36 3 -30 10 4 12 0 9 -13 -5 -18 46 -144
54 -136 2 2 -6 27 -17 56 -11 29 -19 54 -17 57 2 2 12 -16 21 -40 20 -54 95
-205 96 -194 0 4 -11 35 -25 67 -23 56 -24 62 -11 89 9 16 12 32 8 36 -4 5 -1
5 6 1 7 -4 10 -12 6 -17 -3 -6 1 -18 8 -27 8 -9 30 -44 49 -77 18 -33 44 -76
57 -95 21 -30 23 -31 18 -10 -6 24 -6 24 5 3 14 -27 41 -40 32 -15 -4 9 -13
27 -21 40 -8 12 -10 22 -6 22 5 0 19 -16 32 -36 13 -20 26 -33 29 -30 4 3 11
2 17 -3 7 -6 -6 26 -28 70 -31 62 -37 82 -27 88 8 5 11 17 6 30 -13 42 25 10
69 -58 48 -74 98 -131 116 -131 6 0 8 5 5 10 -3 6 -2 10 4 10 5 0 12 -8 14
-17 3 -10 4 20 2 67 -2 53 0 76 5 60 7 -22 8 -20 10 15 3 46 17 107 20 85 1
-8 7 1 15 20 12 35 12 35 -34 80 -25 25 -74 69 -108 98 -168 144 -303 366
-367 603 -15 53 -16 73 -7 95 11 29 11 29 5 -6 -3 -23 -2 -31 4 -21 7 10 15
-2 28 -43 l19 -56 -1 98 c0 53 -4 151 -8 217 -5 86 -2 152 9 235 8 63 17 126
19 140 1 14 4 36 4 50 2 18 5 21 13 13 9 -9 9 -26 0 -69 -13 -68 -15 -340 -2
-349 17 -10 24 38 24 170 0 74 3 111 6 85 6 -44 7 -44 14 29 5 40 13 85 18
100 6 16 7 27 1 29 -13 4 11 81 28 92 10 6 14 25 12 57 -1 27 2 42 6 35 5 -7
9 12 9 45 l0 56 -23 -38 c-12 -21 -30 -67 -40 -101 -9 -35 -20 -61 -24 -59 -5
3 -6 -3 -4 -13 3 -9 1 -28 -5 -42 -5 -14 -10 -19 -10 -12 -1 7 -5 10 -11 7
-14 -9 -13 1 14 95 14 47 23 86 20 89 -2 2 -4 -2 -4 -9 0 -7 -2 -11 -5 -8 -3
2 2 28 11 57 8 29 13 56 10 59 -3 3 -6 -1 -6 -9 0 -8 -9 -27 -20 -44 l-20 -30
3 38 c2 20 2 37 0 37 -1 0 -9 -12 -18 -27 -16 -28 -16 -19 0 35 8 29 -21 64
-31 37z m-143 -132 c-12 -20 -14 -14 -5 12 4 9 9 14 11 11 3 -2 0 -13 -6 -23z
m276 -35 c-3 -8 -6 -5 -6 6 -1 11 2 17 5 13 3 -3 4 -12 1 -19z m-577 -328 c0
-5 -5 -10 -11 -10 -5 0 -7 5 -4 10 3 6 8 10 11 10 2 0 4 -4 4 -10z m497 -212
c-2 -18 -4 -6 -4 27 0 33 2 48 4 33 2 -15 2 -42 0 -60z m-607 35 c-11 -17 -11
-17 -6 0 3 10 6 24 7 30 0 9 2 9 5 0 3 -7 0 -20 -6 -30z m-113 -5 c-3 -8 -6
-5 -6 6 -1 11 2 17 5 13 3 -3 4 -12 1 -19z m74 -95 c-12 -20 -14 -14 -5 12 4
9 9 14 11 11 3 -2 0 -13 -6 -23z m-41 -30 c-11 -17 -11 -17 -6 0 3 10 6 24 7
30 0 9 2 9 5 0 3 -7 0 -20 -6 -30z m-108 -15 c-6 -6 -12 -6 -17 3 -5 8 -4 10
3 5 7 -4 12 0 13 11 0 12 2 13 6 5 3 -8 1 -18 -5 -24z m50 -42 c7 4 8 2 4 -5
-9 -13 -26 -5 -25 12 0 9 2 8 6 -1 2 -6 10 -9 15 -6z m685 -28 c-3 -8 -6 -5
-6 6 -1 11 2 17 5 13 3 -3 4 -12 1 -19z m10 -60 c-3 -7 -5 -2 -5 12 0 14 2 19
5 13 2 -7 2 -19 0 -25z m-717 12 c0 -5 -4 -10 -10 -10 -5 0 -10 5 -10 10 0 6
5 10 10 10 6 0 10 -4 10 -10z m-74 -176 c-4 -9 -9 -15 -11 -12 -3 3 -3 13 1
22 4 9 9 15 11 12 3 -3 3 -13 -1 -22z m-16 -54 c0 -5 -4 -10 -10 -10 -5 0 -10
5 -10 10 0 6 5 10 10 10 6 0 10 -4 10 -10z m-94 -37 c-8 -15 -15 -25 -16 -21
0 12 23 58 27 54 3 -2 -2 -17 -11 -33z m77 -3 c3 -11 1 -18 -4 -14 -5 3 -9 0
-9 -6 0 -6 -5 -8 -12 -4 -9 6 -9 9 0 12 7 2 12 10 12 18 0 20 7 17 13 -6z
m-42 -97 c-12 -20 -14 -14 -5 12 4 9 9 14 11 11 3 -2 0 -13 -6 -23z m-25 -9
c-4 -9 -9 -15 -11 -12 -3 3 -3 13 1 22 4 9 9 15 11 12 3 -3 3 -13 -1 -22z
m-36 -18 c0 -3 -4 -8 -10 -11 -5 -3 -10 -1 -10 4 0 6 5 11 10 11 6 0 10 -2 10
-4z m2 -81 c-10 -33 -23 -69 -30 -80 -7 -11 -11 -13 -8 -5 2 8 14 46 26 83 26
84 35 85 12 2z m685 13 c-3 -8 -6 -5 -6 6 -1 11 2 17 5 13 3 -3 4 -12 1 -19z
m-747 -57 c0 -6 -4 -13 -10 -16 -5 -3 -10 1 -10 9 0 9 5 16 10 16 6 0 10 -4
10 -9z m-19 -43 c0 -10 2 -10 6 0 6 16 32 -15 32 -38 0 -9 -6 -4 -14 10 -8 14
-14 19 -15 12 0 -10 -3 -10 -15 2 -17 17 -19 26 -5 26 6 0 10 -6 11 -12z m-29
-50 c-8 -8 -9 -4 -5 13 4 13 8 18 11 10 2 -7 -1 -18 -6 -23z m835 0 c-3 -7 -5
-2 -5 12 0 14 2 19 5 13 2 -7 2 -19 0 -25z m-558 -37 c-8 -17 -17 -31 -21 -31
-4 0 0 16 9 35 20 42 31 38 12 -4z m568 -18 c-3 -10 -5 -4 -5 12 0 17 2 24 5
18 2 -7 2 -21 0 -30z m-644 -18 c-3 -9 -8 -14 -10 -11 -3 3 -2 9 2 15 9 16 15
13 8 -4z m634 -37 c-3 -7 -5 -2 -5 12 0 14 2 19 5 13 2 -7 2 -19 0 -25z m-756
-35 c-12 -20 -14 -14 -5 12 4 9 9 14 11 11 3 -2 0 -13 -6 -23z m-51 -33 c0 -5
-2 -10 -4 -10 -3 0 -8 5 -11 10 -3 6 -1 10 4 10 6 0 11 -4 11 -10z m40 -9 c0
-6 -4 -13 -10 -16 -5 -3 -10 1 -10 9 0 9 5 16 10 16 6 0 10 -4 10 -9z m979
-131 c0 -9 -4 -8 -9 5 -5 11 -9 27 -9 35 0 9 4 8 9 -5 5 -11 9 -27 9 -35z
m-999 24 c0 -25 -26 -84 -37 -84 -18 0 -16 13 6 39 11 13 17 29 14 37 -3 8 0
14 6 14 6 0 11 -3 11 -6z m-3 -86 c-3 -8 -6 -5 -6 6 -1 11 2 17 5 13 3 -3 4
-12 1 -19z m1163 -81 c0 -16 -18 3 -23 25 -6 22 -5 22 8 4 8 -11 15 -24 15
-29z m70 -71 c0 -12 -5 -7 -19 24 -11 24 -11 24 3 6 9 -11 16 -24 16 -30z"/>
<path d="M6691 7149 c-17 -23 -31 -47 -30 -53 0 -6 3 -6 6 2 2 6 9 10 14 6 5
-3 9 0 9 6 0 7 9 25 21 42 12 16 19 32 16 35 -3 2 -19 -14 -36 -38z"/>
<path d="M3300 7179 c0 -4 7 -22 15 -40 8 -19 14 -27 14 -19 0 14 -28 72 -29
59z"/>
<path d="M6798 7128 c-15 -29 -44 -82 -64 -118 -21 -36 -31 -59 -22 -52 11 9
17 9 20 2 2 -6 13 9 26 34 13 27 17 46 11 46 -8 0 -8 4 -1 13 21 26 63 109 60
118 -2 6 -15 -14 -30 -43z m-52 -135 c-8 -15 -15 -25 -16 -21 0 12 23 58 27
54 3 -2 -2 -17 -11 -33z"/>
<path d="M3564 7126 c4 -20 0 -34 -12 -43 -9 -8 -12 -12 -5 -9 6 4 17 -2 23
-11 10 -16 10 -15 5 5 -4 13 -2 22 5 22 6 0 8 5 3 13 -4 6 -8 18 -9 25 -2 8
-5 17 -9 20 -3 4 -4 -6 -1 -22z"/>
<path d="M8594 7102 c-63 -72 -121 -97 -222 -97 l-84 0 39 -18 c95 -44 239 17
294 125 11 21 18 38 17 38 -2 -1 -22 -22 -44 -48z"/>
<path d="M6737 7082 c-19 -20 -23 -37 -7 -27 10 6 33 45 27 45 -2 0 -11 -8
-20 -18z"/>
<path d="M3596 7067 c3 -10 9 -15 12 -12 3 3 0 11 -7 18 -10 9 -11 8 -5 -6z"/>
<path d="M6636 7063 c-6 -14 -5 -15 5 -6 7 7 10 15 7 18 -3 3 -9 -2 -12 -12z"/>
<path d="M6702 7020 c-7 -11 -12 -25 -12 -32 0 -7 7 0 15 16 18 33 15 45 -3
16z"/>
<path d="M6087 6939 c7 -7 15 -10 18 -7 3 3 -2 9 -12 12 -14 6 -15 5 -6 -5z"/>
<path d="M6656 6935 c-9 -26 -7 -32 5 -12 6 10 9 21 6 23 -2 3 -7 -2 -11 -11z"/>
<path d="M7222 6930 c0 -14 2 -19 5 -12 2 6 2 18 0 25 -3 6 -5 1 -5 -13z"/>
<path d="M6080 6911 c0 -5 7 -11 15 -15 8 -3 15 -1 15 3 0 5 -7 11 -15 15 -8
3 -15 1 -15 -3z"/>
<path d="M6130 6910 c8 -5 20 -10 25 -10 6 0 3 5 -5 10 -8 5 -19 10 -25 10 -5
0 -3 -5 5 -10z"/>
<path d="M3690 6881 c0 -6 4 -13 10 -16 6 -3 7 1 4 9 -7 18 -14 21 -14 7z"/>
<path d="M6080 6888 c0 -3 6 -11 14 -17 10 -9 17 -7 27 6 12 16 12 17 -2 6
-12 -10 -18 -10 -27 -1 -7 7 -12 9 -12 6z"/>
<path d="M6681 6873 c-18 -20 -6 -29 14 -10 8 9 12 18 8 20 -5 3 -14 -2 -22
-10z"/>
<path d="M7211 6764 c0 -11 3 -14 6 -6 3 7 2 16 -1 19 -3 4 -6 -2 -5 -13z"/>
<path d="M7198 6734 c-5 -4 -8 -28 -7 -53 l1 -46 9 34 c11 36 9 77 -3 65z"/>
<path d="M6416 6627 c3 -10 9 -15 12 -12 3 3 0 11 -7 18 -10 9 -11 8 -5 -6z"/>
<path d="M6346 6605 c-9 -26 -7 -32 5 -12 6 10 9 21 6 23 -2 3 -7 -2 -11 -11z"/>
<path d="M6376 6603 c-6 -14 -5 -15 5 -6 7 7 10 15 7 18 -3 3 -9 -2 -12 -12z"/>
<path d="M7262 6580 c0 -14 2 -19 5 -12 2 6 2 18 0 25 -3 6 -5 1 -5 -13z"/>
<path d="M6356 6563 c-6 -14 -5 -15 5 -6 7 7 10 15 7 18 -3 3 -9 -2 -12 -12z"/>
<path d="M6325 6559 c-4 -6 -5 -12 -2 -15 2 -3 7 2 10 11 7 17 1 20 -8 4z"/>
<path d="M6336 6505 c-9 -26 -7 -32 5 -12 6 10 9 21 6 23 -2 3 -7 -2 -11 -11z"/>
<path d="M7262 6500 c0 -14 2 -19 5 -12 2 6 2 18 0 25 -3 6 -5 1 -5 -13z"/>
<path d="M3890 6503 c0 -6 8 -17 18 -24 16 -13 16 -13 2 6 -8 11 -16 22 -17
24 -2 2 -3 0 -3 -6z"/>
<path d="M6296 6495 c-9 -26 -7 -32 5 -12 6 10 9 21 6 23 -2 3 -7 -2 -11 -11z"/>
<path d="M3926 6447 c3 -10 9 -15 12 -12 3 3 0 11 -7 18 -10 9 -11 8 -5 -6z"/>
<path d="M7153 6405 c-7 -7 -8 -17 -2 -26 7 -11 9 -10 10 6 1 17 2 16 9 -5 7
-21 8 -21 9 -5 1 30 -12 45 -26 30z"/>
<path d="M2888 6376 c-14 -13 -33 -45 -42 -72 -14 -45 -16 -18 -2 31 4 11 -3
1 -14 -21 -29 -61 -37 -166 -16 -213 10 -20 26 -42 37 -49 25 -16 24 -13 -5
27 -32 43 -41 85 -26 120 11 28 46 51 75 51 19 0 27 34 23 97 l-3 51 -27 -22z"/>
<path d="M5871 6364 c0 -11 3 -14 6 -6 3 7 2 16 -1 19 -3 4 -6 -2 -5 -13z"/>
<path d="M7261 6304 c0 -11 3 -14 6 -6 3 7 2 16 -1 19 -3 4 -6 -2 -5 -13z"/>
<path d="M6216 6225 c-3 -9 -6 -22 -5 -28 0 -7 5 -1 10 12 5 13 8 26 5 28 -2
2 -6 -3 -10 -12z"/>
<path d="M2883 6183 c-21 -8 -15 -40 8 -46 26 -7 51 2 46 16 -5 16 -40 35 -54
30z m44 -30 c-7 -6 -46 10 -41 18 3 5 14 3 24 -3 11 -7 18 -13 17 -15z"/>
<path d="M6207 6173 c-4 -3 -7 -11 -7 -17 0 -6 5 -5 12 2 6 6 9 14 7 17 -3 3
-9 2 -12 -2z"/>
<path d="M3001 6154 c0 -11 3 -14 6 -6 3 7 2 16 -1 19 -3 4 -6 -2 -5 -13z"/>
<path d="M7110 6094 c0 -10 5 -26 10 -34 8 -11 9 -7 4 15 -8 37 -14 45 -14 19z"/>
<path d="M7619 6024 c-1 -11 -2 -26 -3 -34 0 -8 4 -18 9 -22 6 -5 6 -8 -1 -8
-20 0 -4 -139 19 -171 17 -22 108 -78 138 -83 13 -3 38 -5 54 -6 23 -1 26 -3
12 -9 -17 -6 -14 -11 22 -44 23 -20 43 -37 45 -37 5 0 -14 112 -25 147 -16 51
-113 167 -182 219 -34 26 -68 52 -74 57 -9 7 -13 4 -14 -9z"/>
<path d="M5019 5972 c5 -10 18 -25 27 -33 11 -9 9 -2 -6 19 -26 35 -36 42 -21
14z"/>
<path d="M5735 5949 c-4 -6 -5 -12 -2 -15 2 -3 7 2 10 11 7 17 1 20 -8 4z"/>
<path d="M6136 5945 c4 -8 8 -15 10 -15 2 0 4 7 4 15 0 8 -4 15 -10 15 -5 0
-7 -7 -4 -15z"/>
<path d="M5676 5853 c-42 -87 -80 -207 -73 -225 3 -7 6 -3 6 10 1 12 8 25 16
28 8 4 15 10 15 16 0 5 -6 6 -12 3 -7 -4 -6 -1 3 7 22 18 41 57 34 68 -3 6 -2
10 3 10 13 0 34 59 25 73 -4 6 -1 7 7 2 9 -6 10 -2 5 15 -4 12 -3 20 2 17 4
-3 13 5 19 18 9 18 9 25 -1 29 -9 3 -26 -22 -49 -71z m-35 -136 c-10 -9 -11
-8 -5 6 3 10 9 15 12 12 3 -3 0 -11 -7 -18z"/>
<path d="M6112 5880 c0 -14 2 -19 5 -12 2 6 2 18 0 25 -3 6 -5 1 -5 -13z"/>
<path d="M6058 5883 c6 -2 12 -11 12 -19 0 -9 -4 -12 -10 -9 -6 4 -10 -5 -10
-20 0 -14 -4 -24 -9 -21 -5 3 -11 -12 -15 -33 -3 -21 -13 -44 -21 -51 -8 -7
-15 -20 -15 -29 0 -10 7 -5 20 14 11 17 20 24 20 18 0 -28 17 -11 33 34 21 56
16 67 -8 18 -9 -20 -19 -34 -22 -32 -2 3 8 28 22 57 26 52 27 81 3 79 -10 0
-10 -2 0 -6z"/>
<path d="M7836 5869 c47 -54 83 -140 99 -232 6 -37 48 -97 67 -97 17 0 -3 104
-31 165 -30 64 -92 145 -132 172 l-24 16 21 -24z"/>
<path d="M6016 5843 c-6 -14 -5 -15 5 -6 7 7 10 15 7 18 -3 3 -9 -2 -12 -12z"/>
<path d="M6006 5797 c3 -10 9 -15 12 -12 3 3 0 11 -7 18 -10 9 -11 8 -5 -6z"/>
<path d="M4326 5725 c-9 -25 -7 -32 5 -15 8 11 9 7 4 -16 -4 -23 -1 -37 15
-55 l21 -24 -15 32 c-9 17 -13 38 -10 47 3 8 1 22 -4 31 -8 16 -9 16 -16 0z"/>
<path d="M6411 5714 c0 -11 3 -14 6 -6 3 7 2 16 -1 19 -3 4 -6 -2 -5 -13z"/>
<path d="M6836 5660 c5 -38 3 -54 -6 -60 -10 -6 -10 -23 -1 -84 6 -42 12 -96
13 -119 l1 -42 7 45 c5 34 8 16 9 -70 1 -63 6 -133 10 -155 l9 -40 1 34 c2 57
10 30 16 -54 9 -134 27 -235 42 -235 7 0 13 -9 13 -20 0 -11 -4 -20 -10 -20
-5 0 -10 -11 -10 -25 0 -18 4 -23 15 -19 15 6 20 -14 16 -58 -1 -10 3 -18 10
-18 8 0 10 -13 6 -42 -3 -24 0 -79 7 -123 8 -44 15 -67 16 -50 1 17 10 -17 20
-74 10 -57 16 -111 12 -119 -4 -11 -2 -13 8 -7 10 6 12 1 7 -22 -3 -16 -1 -49
4 -74 6 -24 12 -57 15 -73 2 -16 8 -34 13 -39 5 -5 7 -16 4 -25 -4 -10 -2 -13
5 -8 11 6 14 -10 12 -59 0 -3 6 -18 14 -33 7 -15 17 -47 21 -72 5 -25 10 -40
12 -35 2 6 -4 44 -12 85 -44 211 -57 306 -34 240 9 -26 8 -20 -5 125 -8 84 -2
61 25 -90 23 -124 24 -127 32 -85 4 25 5 61 3 80 -4 26 -3 30 4 15 l9 -20 0
20 c0 11 -4 38 -8 60 -8 37 -9 38 -11 10 -1 -16 -3 -25 -6 -20 -2 6 0 37 4 70
l8 60 18 -100 c23 -128 57 -282 51 -230 -11 83 -14 181 -6 150 7 -22 9 -25 11
-10 1 11 1 31 0 44 -1 13 2 21 8 18 16 -10 54 51 47 76 -5 17 -4 19 4 7 8 -12
11 -5 12 30 l1 45 8 -38 c9 -47 18 -57 35 -34 10 13 14 15 18 5 3 -7 6 -3 6 9
1 30 17 37 25 10 5 -18 8 -20 16 -7 8 12 10 12 10 1 0 -11 4 -10 19 3 15 13
20 14 24 4 3 -7 6 16 8 52 1 36 4 52 6 35 11 -96 15 -115 24 -109 5 3 9 11 8
17 -1 7 0 26 1 42 l3 30 7 -35 c6 -27 8 -16 10 50 2 70 4 78 10 45 l7 -40 2
41 c1 28 -4 44 -13 47 -12 5 -16 -6 -19 -46 l-3 -52 -2 56 c-1 36 -7 61 -17
69 -13 11 -15 8 -15 -15 0 -36 -9 -28 -12 10 -2 21 -11 31 -35 42 -18 7 -33
19 -33 26 0 8 -4 7 -10 -3 -9 -13 -10 -13 -10 0 0 8 -17 26 -38 40 -20 14 -45
33 -54 44 -10 10 -18 15 -18 11 0 -8 -22 15 -115 118 -80 88 -87 98 -127 174
-47 88 -94 204 -124 303 -16 52 -23 66 -23 46 -1 -16 4 -45 11 -63 10 -27 10
-38 0 -53 -15 -24 -15 -33 -1 -25 6 4 5 -2 -3 -14 -11 -19 -13 -7 -16 91 -1
61 -7 117 -12 123 -5 6 -6 22 -3 35 4 16 3 21 -5 16 -8 -5 -12 1 -12 16 0 13
-3 34 -6 48 -4 22 -3 22 11 -5 13 -26 15 -27 9 -5 -3 14 -5 50 -4 82 0 31 -4
59 -10 63 -8 5 -9 -9 -4 -45z m191 -752 c-3 -7 -5 -2 -5 12 0 14 2 19 5 13 2
-7 2 -19 0 -25z m20 -190 c-3 -8 -6 -5 -6 6 -1 11 2 17 5 13 3 -3 4 -12 1 -19z
m10 -80 c-3 -8 -6 -5 -6 6 -1 11 2 17 5 13 3 -3 4 -12 1 -19z m-70 -10 c-3 -8
-6 -5 -6 6 -1 11 2 17 5 13 3 -3 4 -12 1 -19z m10 -65 c-3 -10 -5 -2 -5 17 0
19 2 27 5 18 2 -10 2 -26 0 -35z m70 -15 c-3 -8 -6 -5 -6 6 -1 11 2 17 5 13 3
-3 4 -12 1 -19z m22 -101 c1 -5 -3 -5 -9 -2 -5 3 -10 16 -9 28 0 21 1 21 9 2
5 -11 9 -24 9 -28z m18 21 c-3 -8 -6 -5 -6 6 -1 11 2 17 5 13 3 -3 4 -12 1
-19z m160 -140 c-3 -8 -6 -5 -6 6 -1 11 2 17 5 13 3 -3 4 -12 1 -19z m-190
-50 c-3 -7 -5 -2 -5 12 0 14 2 19 5 13 2 -7 2 -19 0 -25z m-20 -30 c-3 -8 -6
-5 -6 6 -1 11 2 17 5 13 3 -3 4 -12 1 -19z"/>
<path d="M5972 5679 c0 -8 -3 -25 -7 -39 l-6 -25 11 25 c8 18 13 21 19 11 6
-10 10 -9 15 5 3 9 4 19 1 22 -3 3 -5 -1 -5 -8 0 -9 -4 -8 -13 4 -10 13 -14
15 -15 5z"/>
<path d="M6034 5605 c-4 -8 -9 -13 -13 -11 -4 3 -8 -7 -9 -22 l-2 -27 20 25
c19 24 26 50 15 50 -3 0 -8 -7 -11 -15z"/>
<path d="M4373 5587 c1 -14 5 -23 10 -20 4 2 7 -4 7 -14 0 -10 9 -29 20 -43
11 -14 20 -31 20 -37 0 -7 5 -13 10 -13 14 0 13 6 -6 38 -15 25 -15 26 1 7 9
-11 21 -19 26 -17 6 1 7 -5 1 -15 -4 -10 -8 -22 -7 -28 3 -17 34 -78 65 -125
16 -25 47 -76 69 -115 22 -38 41 -66 41 -61 0 5 -12 30 -26 55 l-25 46 26 -30
c14 -16 29 -34 33 -40 4 -5 17 -23 30 -39 30 -39 28 -58 -3 -23 -14 15 -25 25
-25 21 0 -13 174 -204 200 -219 21 -13 -43 61 -103 118 -27 26 -47 50 -43 54
3 4 31 -20 62 -53 30 -32 60 -58 65 -56 6 1 8 -2 5 -7 -3 -5 19 -30 48 -55 31
-26 57 -42 61 -36 6 10 -1 14 -18 11 -5 -1 -6 3 -2 9 4 6 2 9 -3 8 -9 -3 -12
2 -12 18 0 4 18 -10 40 -30 22 -20 47 -36 55 -36 8 0 15 -6 15 -13 0 -19 37
-39 46 -25 4 7 3 8 -4 4 -6 -4 -19 5 -28 19 -9 14 -22 25 -29 25 -6 0 -17 11
-23 25 -6 14 -17 24 -24 23 -7 -2 -12 3 -10 10 1 8 -2 11 -7 7 -9 -5 -29 20
-29 38 0 5 -4 12 -8 15 -4 4 -4 1 0 -5 4 -7 2 -13 -3 -13 -6 0 -11 8 -11 19 0
24 -25 45 -42 35 -7 -4 -4 3 7 16 l20 23 -22 -12 c-16 -8 -24 -8 -29 1 -5 7
-3 8 6 3 10 -6 12 -4 7 9 -4 10 -7 20 -7 22 0 3 -5 2 -12 -2 -8 -5 -9 -2 -4
11 5 15 4 16 -9 5 -14 -11 -19 -7 -16 12 0 4 -5 5 -13 2 -8 -3 -17 -1 -21 5
-3 6 -2 11 4 11 5 0 -16 34 -46 75 -39 52 -59 71 -65 63 -8 -14 -12 0 -9 34 1
9 -3 19 -10 23 -8 5 -9 1 -4 -14 14 -44 -7 -19 -35 43 -17 36 -41 74 -55 84
-14 11 -25 23 -25 27 0 4 -9 18 -20 32 -11 14 -20 20 -20 12 0 -8 -5 -6 -14 6
-8 11 -12 24 -10 30 3 6 -1 23 -9 37 -9 19 -17 24 -27 18 -9 -6 -17 -5 -21 2
-4 6 -6 0 -6 -15z m37 -12 c4 3 10 -2 14 -10 3 -8 1 -17 -5 -21 -13 -8 -15 -5
-23 26 -3 14 -3 19 0 12 3 -6 9 -10 14 -7z m100 -201 c0 -8 -4 -12 -10 -9 -5
3 -10 10 -10 16 0 5 5 9 10 9 6 0 10 -7 10 -16z m39 -64 l23 -35 -26 28 c-14
15 -26 33 -26 39 0 13 0 14 29 -32z m115 -66 c3 -8 2 -12 -4 -9 -6 3 -10 10
-10 16 0 14 7 11 14 -7z m46 -64 c8 -15 8 -25 0 -38 -11 -16 -11 -16 -6 1 3
10 1 27 -4 38 -6 10 -8 19 -6 19 3 0 10 -9 16 -20z m160 -181 c0 -6 -4 -7 -10
-4 -5 3 -10 11 -10 16 0 6 5 7 10 4 6 -3 10 -11 10 -16z"/>
<path d="M5990 5541 c0 -5 5 -13 10 -16 6 -3 10 -2 10 4 0 5 -4 13 -10 16 -5
3 -10 2 -10 -4z"/>
<path d="M6912 5520 c0 -14 2 -19 5 -12 2 6 2 18 0 25 -3 6 -5 1 -5 -13z"/>
<path d="M6013 5495 c-3 -9 -3 -18 -1 -21 3 -3 8 4 11 16 6 23 -1 27 -10 5z"/>
<path d="M6296 5485 c-9 -26 -7 -32 5 -12 6 10 9 21 6 23 -2 3 -7 -2 -11 -11z"/>
<path d="M6950 5475 c0 -8 5 -15 10 -15 6 0 10 7 10 15 0 8 -4 15 -10 15 -5 0
-10 -7 -10 -15z"/>
<path d="M6931 5464 c0 -11 3 -14 6 -6 3 7 2 16 -1 19 -3 4 -6 -2 -5 -13z"/>
<path d="M2863 5396 c-53 -60 -99 -142 -134 -243 -24 -67 -35 -209 -21 -268
10 -45 15 -38 32 48 6 31 16 55 21 52 5 -3 6 2 2 11 -5 13 -3 15 7 9 9 -5 11
-4 6 4 -4 6 4 33 19 59 25 45 12 36 -28 -19 l-18 -24 12 24 c22 46 81 121 90
115 5 -3 9 -2 8 3 -3 17 2 29 22 53 l21 25 -17 -30 c-15 -26 -15 -28 -1 -14 9
8 19 26 23 40 8 33 15 138 11 179 l-3 34 -52 -58z"/>
<path d="M6971 5423 c11 -34 19 -42 19 -20 0 7 -7 22 -15 33 -13 17 -14 16 -4
-13z"/>
<path d="M7602 5229 c3 -113 7 -152 17 -159 8 -4 54 -11 102 -15 79 -6 93 -5
131 14 24 12 57 33 73 47 l30 25 -55 50 c-30 27 -73 62 -95 78 -37 25 -192
111 -202 111 -2 0 -2 -68 -1 -151z"/>
<path d="M7803 5344 c0 -16 13 -19 21 -5 3 5 0 11 -7 14 -8 3 -14 -1 -14 -9z"/>
<path d="M7850 5341 c0 -5 6 -12 13 -15 6 -3 3 -4 -8 -1 -32 7 -48 -8 -24 -24
16 -9 19 -10 13 0 -5 9 -2 10 9 6 10 -3 17 -2 17 3 0 6 5 10 11 10 6 0 9 -6 6
-14 -4 -9 3 -16 16 -20 12 -3 18 -8 14 -12 -4 -4 -1 -14 5 -23 10 -13 10 -14
-1 -4 -7 6 -21 9 -30 6 -11 -4 -10 -1 4 10 17 14 17 16 4 17 -9 0 -22 -6 -28
-13 -16 -20 70 -101 89 -84 10 9 11 9 6 0 -3 -6 -2 -14 4 -18 5 -3 11 -1 11 4
1 6 2 17 3 24 4 20 -6 30 -16 16 -6 -9 -7 -5 -2 13 3 14 1 35 -5 46 -9 17 -8
21 7 24 9 2 -9 12 -40 22 -32 10 -58 22 -58 27 0 5 -4 9 -10 9 -5 0 -10 -4
-10 -9z m90 -41 c8 -5 11 -10 5 -10 -5 0 -17 5 -25 10 -8 5 -10 10 -5 10 6 0
17 -5 25 -10z"/>
<path d="M6882 5305 c0 -16 2 -22 5 -12 2 9 2 23 0 30 -3 6 -5 -1 -5 -18z"/>
<path d="M7116 5312 c-4 -6 -2 -21 4 -33 15 -28 21 -20 12 16 -5 18 -11 25
-16 17z"/>
<path d="M5957 5286 c-3 -8 -2 -18 3 -21 13 -8 20 9 11 24 -6 10 -10 9 -14 -3z"/>
<path d="M7308 5274 c-3 -5 -2 -18 3 -29 5 -13 8 -15 8 -5 1 13 2 13 11 0 5
-8 10 -10 10 -4 0 16 -26 48 -32 38z"/>
<path d="M7982 5250 c0 -14 2 -19 5 -12 2 6 2 18 0 25 -3 6 -5 1 -5 -13z"/>
<path d="M5933 5249 c-20 -20 -15 -27 16 -25 16 0 27 4 24 9 -2 4 -8 5 -13 2
-5 -3 -10 2 -12 10 -2 13 -5 14 -15 4z"/>
<path d="M6062 5195 c-17 -37 -14 -45 4 -12 9 16 14 31 11 33 -2 2 -9 -7 -15
-21z"/>
<path d="M2871 5153 c-25 -36 -26 -41 -6 -18 26 30 49 65 42 65 -2 0 -18 -21
-36 -47z"/>
<path d="M7941 5116 c-12 -13 -45 -36 -73 -51 -49 -27 -53 -27 -155 -21 l-104
7 3 -47 c3 -42 7 -50 37 -68 61 -36 177 -43 164 -10 -4 10 3 14 21 14 14 0 26
4 26 8 0 5 20 31 44 60 60 70 93 168 37 108z"/>
<path d="M6005 5104 c-9 -15 -12 -23 -6 -20 11 7 35 46 28 46 -3 0 -12 -12
-22 -26z"/>
<path d="M4331 5075 c1 -21 27 -98 28 -80 0 6 -6 30 -13 55 -8 25 -15 36 -15
25z"/>
<path d="M5936 5031 c-10 -11 -16 -26 -13 -33 4 -11 6 -11 6 0 1 7 6 10 13 6
7 -5 8 -3 4 5 -5 8 0 14 13 18 11 3 18 9 15 14 -8 14 -19 11 -38 -10z"/>
<path d="M4201 5029 c-4 -30 136 -474 199 -634 97 -245 264 -559 342 -645 46
-50 43 -44 -19 47 -78 115 -196 362 -270 568 -14 39 -70 186 -124 328 -55 141
-99 263 -99 270 -1 13 -28 76 -29 66z"/>
<path d="M5883 4975 c0 -7 6 -11 14 -8 7 3 13 6 13 8 0 2 -6 5 -13 8 -8 3 -14
-1 -14 -8z"/>
<path d="M5850 4950 c-9 -6 -10 -10 -3 -10 6 0 15 5 18 10 8 12 4 12 -15 0z"/>
<path d="M3486 4875 c-9 -26 -7 -32 5 -12 6 10 9 21 6 23 -2 3 -7 -2 -11 -11z"/>
<path d="M3505 4861 c-3 -5 -1 -12 5 -16 5 -3 10 1 10 9 0 18 -6 21 -15 7z"/>
<path d="M4940 4866 c0 -2 8 -10 18 -17 15 -13 16 -12 3 4 -13 16 -21 21 -21
13z"/>
<path d="M4850 4816 c0 -2 8 -10 18 -17 15 -13 16 -12 3 4 -13 16 -21 21 -21
13z"/>
<path d="M3480 4766 c0 -8 4 -17 9 -20 5 -4 7 3 4 14 -6 23 -13 26 -13 6z"/>
<path d="M3361 4757 c-1 -11 -6 -15 -12 -11 -9 5 -10 -1 -4 -22 4 -16 9 -54 9
-85 1 -31 8 -64 15 -73 8 -10 11 -30 7 -58 -5 -33 -4 -38 4 -23 8 15 9 11 5
-20 -4 -31 -3 -36 5 -25 9 12 10 8 6 -15 -3 -16 3 -61 14 -100 16 -60 24 -66
23 -17 -1 6 4 12 9 12 7 0 9 -18 5 -47 -5 -43 -4 -45 5 -16 12 35 3 87 -12 78
-6 -3 -10 4 -10 17 0 18 2 20 10 8 8 -12 10 -10 10 8 0 13 -4 21 -9 18 -12 -8
-31 49 -30 88 1 26 3 24 10 -13 13 -66 20 -73 15 -15 -3 28 0 56 5 61 5 5 6
18 3 28 -7 18 -8 18 -16 -1 -5 -12 -7 -5 -3 22 6 49 -4 111 -15 94 -4 -7 -15
12 -25 46 -9 33 -19 64 -20 69 -2 6 -4 2 -4 -8z m6 -69 c-3 -7 -5 -2 -5 12 0
14 2 19 5 13 2 -7 2 -19 0 -25z m20 -90 c-3 -8 -6 -5 -6 6 -1 11 2 17 5 13 3
-3 4 -12 1 -19z"/>
<path d="M6941 4734 c0 -11 3 -14 6 -6 3 7 2 16 -1 19 -3 4 -6 -2 -5 -13z"/>
<path d="M8095 4699 c-75 -77 -176 -122 -297 -134 -39 -4 -68 -11 -68 -18 0
-6 -7 -2 -15 9 -8 10 -15 14 -15 7 0 -10 16 -26 30 -29 3 0 18 -6 33 -12 16
-7 59 -12 97 -12 64 0 71 2 121 40 54 41 109 103 135 153 18 34 16 34 -21 -4z"/>
<path d="M3267 4695 c-4 -11 0 -52 8 -90 16 -78 19 -112 5 -80 -5 11 -9 34 -9
50 -1 21 -4 26 -10 16 -7 -11 -11 -10 -20 5 -10 16 -10 15 -5 -8 5 -24 3 -27
-15 -23 -18 3 -21 -1 -21 -30 0 -35 24 -158 40 -210 6 -16 22 -69 36 -117 14
-49 28 -88 31 -88 3 0 3 9 0 20 -3 11 -1 18 3 15 5 -3 11 1 14 7 4 7 4 3 2
-10 -2 -12 0 -20 4 -17 5 3 11 -1 14 -7 3 -7 4 -2 1 12 -4 22 -3 21 10 -5 7
-16 12 -39 9 -50 -4 -16 -3 -17 5 -6 8 12 11 9 17 -12 3 -16 9 -26 11 -23 3 2
-3 30 -12 61 -9 32 -14 60 -11 63 3 3 9 -9 12 -26 4 -18 10 -32 13 -32 7 0 7
19 2 113 0 16 -4 26 -8 24 -5 -3 -8 7 -9 21 -1 15 -9 63 -18 107 -10 44 -18
128 -19 187 -1 59 -6 110 -10 114 -4 4 -4 -6 -1 -23 3 -17 2 -39 -4 -49 -9
-16 -11 -15 -22 5 -13 25 -4 44 10 21 9 -13 10 -13 9 0 -1 8 -5 26 -9 40 l-8
25 -2 -25 -2 -25 -8 25 c-7 22 -8 22 -10 5 -2 -14 -4 -11 -9 10 -6 26 -8 28
-14 10z m71 -156 c-3 -8 -7 -3 -11 10 -4 17 -3 21 5 13 5 -5 8 -16 6 -23z
m-41 -71 c-3 -8 -6 -5 -6 6 -1 11 2 17 5 13 3 -3 4 -12 1 -19z m10 -75 c-3
-10 -5 -4 -5 12 0 17 2 24 5 18 2 -7 2 -21 0 -30z m10 -45 c-3 -8 -6 -5 -6 6
-1 11 2 17 5 13 3 -3 4 -12 1 -19z m20 -160 c-3 -8 -6 -5 -6 6 -1 11 2 17 5
13 3 -3 4 -12 1 -19z m-27 -3 c0 -8 -2 -15 -4 -15 -2 0 -6 7 -10 15 -3 8 -1
15 4 15 6 0 10 -7 10 -15z m60 5 c0 -5 -2 -10 -4 -10 -3 0 -8 5 -11 10 -3 6
-1 10 4 10 6 0 11 -4 11 -10z"/>
<path d="M6942 4690 c0 -14 2 -19 5 -12 2 6 2 18 0 25 -3 6 -5 1 -5 -13z"/>
<path d="M6961 4694 c0 -11 3 -14 6 -6 3 7 2 16 -1 19 -3 4 -6 -2 -5 -13z"/>
<path d="M3401 4684 c0 -11 3 -14 6 -6 3 7 2 16 -1 19 -3 4 -6 -2 -5 -13z"/>
<path d="M4630 4690 c0 -5 5 -10 10 -10 6 0 10 5 10 10 0 6 -4 10 -10 10 -5 0
-10 -4 -10 -10z"/>
<path d="M2910 4545 c-3 -59 -3 -59 -11 -20 -6 35 -7 33 -7 -25 1 -88 0 -100
-12 -100 -5 0 -10 21 -10 47 0 64 -6 51 -13 -27 -3 -36 -2 -54 2 -40 8 24 8
23 16 -12 4 -21 12 -38 19 -38 8 0 7 -3 -1 -8 -8 -5 -9 -19 -4 -44 5 -20 8
-38 7 -40 0 -2 4 3 11 10 9 11 13 9 18 -10 23 -76 151 -316 185 -348 3 -3 26
-34 52 -71 39 -55 96 -118 75 -82 -4 6 -3 14 3 18 5 3 10 11 10 18 0 6 -6 3
-13 -6 -11 -16 -13 -15 -24 13 -12 31 -6 39 15 18 9 -9 12 -9 12 0 0 7 -3 12
-7 12 -5 0 -13 10 -18 23 -6 12 -20 40 -32 62 -49 92 -100 221 -91 231 3 2 15
-28 28 -67 14 -40 30 -77 36 -83 6 -7 15 -22 18 -34 4 -12 11 -20 16 -17 4 3
11 -6 14 -20 4 -14 21 -40 39 -58 17 -19 33 -37 35 -40 1 -4 5 -7 8 -6 4 0 11
-5 15 -13 7 -10 9 -10 9 0 0 7 5 10 12 6 7 -4 8 -3 4 5 -4 6 -12 9 -17 5 -6
-3 -9 2 -7 12 2 12 -2 18 -10 16 -8 -1 -10 2 -7 8 4 6 -1 27 -10 46 -9 19 -14
40 -11 47 2 7 5 4 5 -6 1 -10 5 -16 10 -13 5 3 9 21 8 40 0 20 -5 32 -11 29
-5 -3 -6 -1 -2 6 12 18 27 1 21 -22 -5 -18 -4 -19 5 -7 10 12 11 10 5 -10 -12
-49 -14 -81 -5 -75 6 3 7 0 4 -8 -3 -8 0 -18 7 -23 8 -5 10 -3 5 5 -5 7 0 21
11 33 16 20 16 21 1 15 -15 -5 -17 -1 -13 27 2 21 -5 59 -20 98 -12 34 -26 72
-30 83 l-8 20 16 -20 c22 -27 21 -22 -7 59 -14 39 -23 73 -20 78 3 4 0 15 -5
25 -6 10 -18 54 -26 98 -9 44 -19 92 -22 107 -3 15 -9 25 -14 22 -5 -3 -9 5
-9 18 0 16 -3 19 -8 10 -7 -9 -15 -10 -35 -3 -15 6 -27 8 -27 5 0 -4 -6 -2
-12 4 -7 5 -33 9 -57 8 -39 -2 -46 1 -65 31 -27 41 -36 41 -37 1 l-2 -33 -7
35 c-7 31 -8 29 -10 -25z"/>
<path d="M5240 4470 c8 -5 20 -10 25 -10 6 0 3 5 -5 10 -8 5 -19 10 -25 10 -5
0 -3 -5 5 -10z"/>
<path d="M7540 4443 c0 -43 5 -41 13 5 4 18 2 32 -3 32 -6 0 -10 -16 -10 -37z"/>
<path d="M3459 4444 c-2 -33 3 -79 9 -89 4 -5 5 -21 4 -35 -2 -25 -2 -25 8 -3
6 15 6 43 -1 80 -12 62 -18 78 -20 47z"/>
<path d="M5150 4440 c8 -5 20 -10 25 -10 6 0 3 5 -5 10 -8 5 -19 10 -25 10 -5
0 -3 -5 5 -10z"/>
<path d="M3371 4394 c0 -11 3 -14 6 -6 3 7 2 16 -1 19 -3 4 -6 -2 -5 -13z"/>
<path d="M5131 4407 c28 -21 59 -36 59 -29 0 5 -11 14 -25 20 -24 11 -44 16
-34 9z"/>
<path d="M2821 4384 c0 -11 3 -14 6 -6 3 7 2 16 -1 19 -3 4 -6 -2 -5 -13z"/>
<path d="M3381 4354 c0 -11 3 -14 6 -6 3 7 2 16 -1 19 -3 4 -6 -2 -5 -13z"/>
<path d="M5015 4350 c10 -11 20 -20 23 -20 3 0 -3 9 -13 20 -10 11 -20 20 -23
20 -3 0 3 -9 13 -20z"/>
<path d="M5443 4353 c9 -2 25 -2 35 0 9 3 1 5 -18 5 -19 0 -27 -2 -17 -5z"/>
<path d="M2834 4279 l6 -44 -15 40 -14 40 5 -50 c3 -38 2 -45 -6 -30 -9 18
-10 17 -5 -6 2 -14 9 -59 15 -99 6 -40 17 -84 25 -99 8 -14 21 -44 30 -66 13
-31 18 -36 25 -25 13 20 12 10 -1 -28 -6 -18 -16 -29 -21 -25 -7 4 -9 -3 -4
-21 7 -27 -9 -38 -17 -11 -4 11 -4 10 -3 -2 1 -10 8 -18 16 -18 13 0 38 -40
43 -70 1 -5 10 -17 20 -26 9 -9 17 -21 17 -28 0 -10 14 -15 33 -12 5 1 6 -3 2
-9 -3 -6 1 -17 9 -26 10 -10 16 -11 16 -4 0 7 9 2 21 -11 30 -34 12 -1 -25 46
-53 67 -98 144 -91 155 4 6 1 9 -6 8 -6 -2 -14 3 -16 10 -3 7 1 11 7 10 7 -2
15 4 17 12 4 13 3 13 -7 0 -8 -10 -10 -11 -8 -2 6 24 22 18 33 -13 5 -16 18
-39 27 -49 10 -11 18 -24 18 -28 0 -5 8 -8 17 -6 11 2 18 -4 18 -16 0 -10 8
-24 17 -30 14 -9 22 -6 40 12 15 16 18 22 8 20 -8 -2 -15 4 -16 12 -1 25 -15
60 -24 60 -5 0 -12 10 -15 21 -6 17 -9 19 -17 8 -7 -10 -8 -9 -3 6 3 11 7 22
8 25 0 3 -23 54 -53 114 -29 60 -64 148 -76 195 -16 57 -22 71 -18 41 4 -33 2
-41 -5 -30 -6 8 -11 29 -11 47 0 17 -5 35 -11 39 -8 4 -9 -6 -5 -37z m43 -91
c-3 -8 -6 -5 -6 6 -1 11 2 17 5 13 3 -3 4 -12 1 -19z m168 -428 c3 -5 1 -10
-4 -10 -6 0 -11 5 -11 10 0 6 2 10 4 10 3 0 8 -4 11 -10z"/>
<path d="M7735 4301 c-3 -11 -35 -42 -71 -67 l-64 -46 0 -165 c0 -125 3 -164
12 -161 19 7 86 135 108 208 22 71 40 223 29 241 -4 7 -9 4 -14 -10z"/>
<path d="M6729 4253 c-1 -10 -3 -27 -4 -38 -1 -11 -2 -29 -3 -40 -2 -15 -4
-17 -11 -7 -9 16 -38 -94 -46 -178 -4 -46 -2 -41 14 30 12 53 19 74 20 55 3
-46 40 100 39 153 -1 42 -7 58 -9 25z m-22 -135 c-3 -7 -5 -2 -5 12 0 14 2 19
5 13 2 -7 2 -19 0 -25z"/>
<path d="M2907 4216 c-10 -25 -9 -28 5 -20 8 5 9 0 5 -16 -4 -16 -3 -20 5 -12
7 7 7 20 1 38 -8 24 -10 25 -16 10z"/>
<path d="M5895 4083 c-16 -38 -48 -112 -71 -165 -65 -144 -85 -198 -74 -198
20 0 80 29 115 55 41 32 90 125 82 157 -5 18 -4 19 8 7 29 -29 -22 -132 -93
-185 -19 -15 -60 -37 -89 -50 l-54 -22 46 -6 c38 -6 55 -3 93 16 63 32 101 83
128 175 13 43 23 66 23 52 1 -48 -29 -128 -68 -177 -48 -60 -109 -92 -177 -92
-48 0 -52 -3 -113 -62 l-62 -63 36 -3 c19 -2 61 4 93 13 191 56 313 238 299
446 -3 42 -10 87 -17 100 -17 33 -51 69 -66 69 -6 0 -24 -30 -39 -67z"/>
<path d="M7110 4125 c0 -8 5 -15 10 -15 6 0 10 7 10 15 0 8 -4 15 -10 15 -5 0
-10 -7 -10 -15z"/>
<path d="M3328 4092 c-4 -14 -2 -20 5 -15 7 4 8 0 3 -13 -5 -14 -4 -16 4 -8 7
7 7 19 2 34 l-9 24 -5 -22z"/>
<path d="M7171 4094 c0 -11 3 -14 6 -6 3 7 2 16 -1 19 -3 4 -6 -2 -5 -13z"/>
<path d="M3405 4090 c-3 -5 -1 -10 4 -10 6 0 11 5 11 10 0 6 -2 10 -4 10 -3 0
-8 -4 -11 -10z"/>
<path d="M2705 4042 c-53 -69 -123 -216 -140 -297 -17 -83 -19 -198 -5 -315
20 -160 64 -265 148 -352 57 -59 58 -44 2 23 -77 92 -132 217 -129 293 1 26 3
23 10 -14 13 -68 64 -190 79 -190 5 0 2 12 -5 28 -37 74 -54 175 -51 302 4
146 20 210 95 379 71 158 69 236 -4 143z"/>
<path d="M7159 4066 c-4 -4 -1 -34 6 -67 7 -33 9 -62 4 -65 -5 -3 -6 -17 -2
-32 4 -15 6 -35 5 -45 0 -10 4 -15 10 -11 8 5 9 -3 5 -24 -4 -20 -1 -34 8 -42
8 -7 15 -24 15 -39 1 -14 7 -39 16 -56 l14 -30 -5 35 c-5 35 -4 35 10 10 8
-14 14 -20 14 -15 1 17 -28 91 -29 75 0 -12 -3 -11 -11 3 -6 10 -8 34 -5 52 4
18 0 52 -8 76 -17 54 -35 126 -38 157 -2 13 -6 21 -9 18z m35 -181 c7 -34 -7
-15 -19 25 -5 16 -4 22 3 15 5 -5 12 -23 16 -40z"/>
<path d="M3417 4039 c4 -13 8 -18 11 -10 2 7 -1 18 -6 23 -8 8 -9 4 -5 -13z"/>
<path d="M7182 4040 c0 -14 2 -19 5 -12 2 6 2 18 0 25 -3 6 -5 1 -5 -13z"/>
<path d="M6691 4014 c0 -11 3 -14 6 -6 3 7 2 16 -1 19 -3 4 -6 -2 -5 -13z"/>
<path d="M7142 4010 c0 -14 2 -19 5 -12 2 6 2 18 0 25 -3 6 -5 1 -5 -13z"/>
<path d="M7248 3995 c-3 -22 -2 -44 2 -50 3 -5 7 -23 8 -40 1 -16 9 -50 17
-75 8 -25 22 -71 31 -103 19 -66 29 -71 15 -6 -7 29 -6 47 0 56 6 7 7 22 3 35
-8 22 -8 22 -14 -7 -5 -25 -8 -19 -14 33 -5 35 -5 66 -2 69 3 4 6 -10 6 -30 0
-20 4 -37 9 -37 6 0 8 17 6 38 -3 27 -1 22 10 -18 l14 -55 -6 75 c-6 86 -15
108 -24 65 -7 -30 -7 -30 -8 -3 0 15 -5 29 -9 32 -5 3 -7 -9 -5 -27 2 -25 0
-23 -10 13 -22 75 -24 76 -29 35z"/>
<path d="M7231 4004 c0 -11 3 -14 6 -6 3 7 2 16 -1 19 -3 4 -6 -2 -5 -13z"/>
<path d="M3441 3980 c0 -8 4 -22 9 -30 12 -18 12 -2 0 25 -6 13 -9 15 -9 5z"/>
<path d="M7152 3960 c0 -14 2 -19 5 -12 2 6 2 18 0 25 -3 6 -5 1 -5 -13z"/>
<path d="M7382 3960 c0 -14 2 -19 5 -12 2 6 2 18 0 25 -3 6 -5 1 -5 -13z"/>
<path d="M2775 3951 c-6 -19 -9 -21 -17 -10 -7 10 -8 9 -4 -6 8 -27 -8 -81
-23 -77 -6 1 -11 -7 -11 -19 0 -11 -5 -29 -10 -40 -7 -11 -7 -19 -1 -19 5 0
12 6 14 13 3 6 6 2 6 -11 1 -13 -3 -21 -7 -18 -5 3 -6 -9 -4 -27 4 -28 6 -30
14 -12 6 14 7 11 3 -14 -3 -19 -8 -73 -12 -120 -6 -77 -5 -85 9 -73 13 10 17
10 21 0 3 -7 6 23 8 67 l2 80 11 -115 c9 -101 11 -109 16 -65 l6 50 5 -50 c3
-27 2 -54 -3 -59 -4 -6 -8 -17 -7 -25 0 -11 3 -10 9 4 8 19 9 19 9 -2 1 -13 7
-23 15 -23 8 0 17 10 19 23 3 15 4 13 2 -5 -1 -16 1 -28 4 -28 4 0 14 -35 24
-77 10 -43 26 -94 36 -113 10 -19 27 -51 36 -70 10 -19 21 -37 25 -40 3 -3 19
-22 34 -42 16 -21 32 -35 37 -32 5 3 9 0 9 -5 0 -6 9 -11 20 -11 11 0 20 -3
20 -8 0 -4 9 -13 21 -20 12 -8 18 -9 14 -2 -5 7 1 9 19 4 21 -5 26 -2 27 12 0
11 3 14 6 7 10 -26 28 -12 30 22 1 20 -3 33 -8 30 -5 -4 -9 -1 -9 5 0 7 7 10
14 7 14 -6 20 5 32 58 3 11 -5 4 -16 -15 -16 -27 -19 -29 -14 -10 4 14 8 35
10 48 1 13 7 29 13 35 5 7 13 28 16 47 3 19 10 37 15 40 4 3 9 17 11 31 3 22
-6 34 -50 69 -81 64 -152 137 -215 219 -31 40 -56 69 -56 64 0 -5 5 -14 12
-21 9 -9 9 -12 0 -12 -8 0 -12 -19 -11 -57 1 -44 3 -52 9 -33 6 20 8 14 9 -26
1 -28 4 -67 7 -85 9 -43 -6 -31 -15 13 l-7 33 -5 -32 c-3 -18 -2 -30 3 -27 5
3 6 -5 3 -18 -6 -25 -13 -99 -14 -161 -1 -23 -5 -36 -11 -32 -6 4 -10 102 -10
260 l0 254 -46 88 c-26 48 -57 115 -69 147 -20 52 -23 57 -30 37z m-38 -403
c-3 -8 -6 -5 -6 6 -1 11 2 17 5 13 3 -3 4 -12 1 -19z m80 -70 c-3 -8 -6 -5 -6
6 -1 11 2 17 5 13 3 -3 4 -12 1 -19z m10 -80 c-3 -8 -6 -5 -6 6 -1 11 2 17 5
13 3 -3 4 -12 1 -19z m140 -95 c-3 -10 -5 -4 -5 12 0 17 2 24 5 18 2 -7 2 -21
0 -30z m240 -74 c-16 -50 -31 -88 -35 -85 -6 7 50 176 59 176 3 0 -8 -41 -24
-91z m-30 -1 c-3 -8 -6 -5 -6 6 -1 11 2 17 5 13 3 -3 4 -12 1 -19z m50 -10
c-3 -8 -6 -5 -6 6 -1 11 2 17 5 13 3 -3 4 -12 1 -19z m-26 -71 c-10 -9 -11 -8
-5 6 3 10 9 15 12 12 3 -3 0 -11 -7 -18z m-31 -37 c0 -5 -4 -10 -10 -10 -5 0
-10 5 -10 10 0 6 5 10 10 10 6 0 10 -4 10 -10z"/>
<path d="M2834 3950 c3 -14 6 -36 6 -49 0 -20 2 -22 16 -10 10 8 12 15 5 17
-6 2 -11 11 -11 20 0 10 -5 24 -11 32 -8 12 -9 10 -5 -10z"/>
<path d="M7361 3934 c0 -11 3 -14 6 -6 3 7 2 16 -1 19 -3 4 -6 -2 -5 -13z"/>
<path d="M7392 3910 c0 -14 2 -19 5 -12 2 6 2 18 0 25 -3 6 -5 1 -5 -13z"/>
<path d="M7342 3900 c0 -14 2 -19 5 -12 2 6 2 18 0 25 -3 6 -5 1 -5 -13z"/>
<path d="M6705 3811 c-22 -96 -17 -187 14 -251 13 -29 19 -36 16 -19 -2 14 -5
99 -6 187 -1 89 -3 162 -4 162 -1 0 -10 -36 -20 -79z"/>
<path d="M7352 3840 c0 -14 4 -38 8 -55 7 -27 8 -27 8 -5 0 14 -4 39 -8 55 -7
27 -8 27 -8 5z"/>
<path d="M7150 3821 c0 -5 5 -13 10 -16 6 -3 10 -2 10 4 0 5 -4 13 -10 16 -5
3 -10 2 -10 -4z"/>
<path d="M7382 3800 c0 -14 2 -19 5 -12 2 6 2 18 0 25 -3 6 -5 1 -5 -13z"/>
<path d="M7221 3794 c0 -11 3 -14 6 -6 3 7 2 16 -1 19 -3 4 -6 -2 -5 -13z"/>
<path d="M4068 3635 c4 -107 1 -129 -16 -169 -12 -25 -19 -46 -16 -46 10 0 54
107 60 147 6 41 -10 157 -24 180 -4 6 -5 -44 -4 -112z"/>
<path d="M4027 3684 c-49 -65 -178 -89 -250 -46 -21 12 -39 22 -41 22 -2 0 -3
-13 -2 -30 2 -47 105 -145 170 -160 24 -6 26 -8 8 -9 -34 -1 -81 25 -134 77
l-48 46 0 -91 c0 -125 6 -152 39 -160 60 -17 126 -9 168 20 46 32 122 155 81
131 -7 -4 -3 4 10 18 18 19 24 41 28 94 3 38 2 79 -3 90 l-8 22 -18 -24z m-37
-214 c-8 -5 -22 -9 -30 -9 -10 0 -8 3 5 9 27 12 43 12 25 0z"/>
<path d="M4798 3655 c27 -41 141 -151 153 -147 5 1 9 -2 9 -8 0 -10 69 -53
115 -70 37 -14 35 -12 -49 44 -38 25 -75 46 -83 46 -8 0 -11 5 -8 10 3 6 1 10
-5 10 -6 0 -42 33 -81 73 -39 39 -62 58 -51 42z"/>
<path d="M7262 3650 c0 -14 2 -19 5 -12 2 6 2 18 0 25 -3 6 -5 1 -5 -13z"/>
<path d="M7241 3634 c0 -11 3 -14 6 -6 3 7 2 16 -1 19 -3 4 -6 -2 -5 -13z"/>
<path d="M7250 3600 c0 -5 7 -7 15 -4 8 4 15 8 15 10 0 2 -7 4 -15 4 -8 0 -15
-4 -15 -10z"/>
<path d="M6667 3563 c17 -126 34 -204 52 -248 l21 -50 -2 93 c-1 83 -4 100
-29 145 -16 29 -29 60 -29 69 0 9 -4 19 -9 23 -6 3 -8 -10 -4 -32z"/>
<path d="M8031 3481 c-9 -6 9 -9 53 -10 38 0 78 -3 89 -6 13 -3 9 1 -8 10 -34
16 -113 19 -134 6z"/>
<path d="M3280 3274 c0 -8 5 -12 10 -9 6 3 10 10 10 16 0 5 -4 9 -10 9 -5 0
-10 -7 -10 -16z"/>
<path d="M3253 3183 c-1 -24 -1 -25 7 -8 11 26 12 35 2 35 -4 0 -8 -12 -9 -27z"/>
<path d="M3231 2964 c0 -11 3 -14 6 -6 3 7 2 16 -1 19 -3 4 -6 -2 -5 -13z"/>
<path d="M3259 2978 c-6 -21 -5 -38 2 -38 5 0 9 9 9 20 0 16 -7 28 -11 18z"/>
<path d="M3210 2929 c0 -5 5 -7 10 -4 6 3 10 8 10 11 0 2 -4 4 -10 4 -5 0 -10
-5 -10 -11z"/>
<path d="M2863 2683 c-4 -10 -30 -56 -58 -103 -28 -47 -66 -112 -84 -145 -30
-55 -30 -57 -7 -30 63 73 122 172 152 257 13 37 10 56 -3 21z"/>
<path d="M7685 2680 c53 -64 126 -100 202 -99 l58 0 -51 14 c-63 17 -155 57
-197 87 l-32 22 20 -24z"/>
<path d="M8230 2669 c-19 -11 -28 -19 -20 -19 8 0 29 9 45 20 37 25 22 24 -25
-1z"/>
<path d="M7920 2604 c25 -8 54 -13 65 -11 32 6 -29 27 -73 26 l-37 -1 45 -14z"/>
<path d="M2040 2159 c14 -6 63 -13 110 -15 103 -4 57 10 -60 20 -58 4 -69 3
-50 -5z"/>
<path d="M4064 1998 c-3 -4 2 -8 10 -8 8 0 17 4 20 8 3 5 -2 9 -10 9 -8 0 -17
-4 -20 -9z"/>
<path d="M7895 6606 c-70 -31 -73 -149 -5 -211 25 -22 94 -25 135 -5 34 17 75
74 75 103 0 41 -40 105 -72 116 -41 15 -96 13 -133 -3z"/>
<path d="M2403 2678 c-48 -49 -52 -62 -24 -78 30 -16 59 -12 81 10 25 25 26
61 3 89 l-18 22 -42 -43z"/>
</g>
</svg>
