<?xml version="1.0" standalone="no"?>
<!DOCTYPE svg PUBLIC "-//W3C//DTD SVG 20010904//EN"
 "http://www.w3.org/TR/2001/REC-SVG-20010904/DTD/svg10.dtd">
<svg version="1.0" xmlns="http://www.w3.org/2000/svg"
 width="1024.000000pt" height="1024.000000pt" viewBox="0 0 1024.000000 1024.000000"
 preserveAspectRatio="xMidYMid meet">

<g transform="translate(0.000000,1024.000000) scale(0.100000,-0.100000)"
fill="#000000" stroke="none">
<path d="M0 5120 l0 -5120 5120 0 5120 0 0 5120 0 5120 -5120 0 -5120 0 0
-5120z m4011 3460 c15 -15 49 -110 49 -136 0 -8 4 -22 10 -32 15 -27 50 -139
50 -162 0 -12 4 -19 9 -15 6 3 8 -4 6 -15 -2 -11 1 -20 6 -20 6 0 7 -5 4 -10
-4 -6 -2 -17 5 -25 6 -7 13 -26 15 -42 2 -15 12 -46 21 -68 10 -22 19 -43 20
-47 1 -5 2 -9 3 -10 2 -2 4 -13 7 -25 2 -12 15 -50 28 -85 13 -35 29 -82 36
-105 7 -24 17 -43 22 -43 5 0 7 -4 3 -9 -3 -5 -1 -12 5 -16 6 -4 8 -10 5 -15
-3 -5 3 -31 14 -59 10 -27 16 -53 13 -56 -4 -3 -2 -9 4 -13 11 -7 51 -120 57
-159 2 -12 6 -26 10 -29 4 -4 7 -18 7 -30 0 -13 4 -25 9 -28 5 -4 12 -25 16
-49 4 -23 12 -48 17 -54 6 -7 8 -13 4 -13 -3 0 8 -37 25 -82 17 -46 47 -130
66 -188 19 -58 38 -112 41 -120 3 -8 6 -19 8 -25 1 -5 17 -46 34 -90 17 -44
40 -105 50 -135 11 -30 40 -113 65 -185 26 -71 47 -137 47 -145 0 -8 4 -19 8
-25 5 -5 12 -26 18 -45 6 -19 33 -100 62 -180 28 -80 66 -190 85 -245 19 -55
46 -131 60 -170 15 -38 28 -74 29 -80 2 -5 6 -17 9 -25 3 -8 14 -39 23 -69 17
-54 18 -55 33 -31 9 13 35 78 59 144 24 67 62 171 84 231 51 142 89 247 92
260 2 6 6 17 9 25 12 28 109 295 111 305 2 6 10 28 20 50 10 22 20 51 22 64 3
13 12 37 20 53 8 16 12 33 9 38 -3 6 -2 10 3 10 5 0 12 14 16 31 3 17 12 45
20 62 29 62 56 138 56 156 0 10 11 43 24 72 13 30 23 56 23 59 0 7 23 81 33
105 5 11 18 54 30 95 11 41 28 93 36 115 9 22 18 47 20 55 3 12 55 160 77 220
3 8 13 38 23 65 10 28 21 55 24 60 7 9 20 55 21 72 0 5 8 16 16 26 9 9 13 17
9 17 -4 0 -1 12 7 28 36 68 98 232 92 242 -3 4 2 11 11 14 8 3 14 14 13 23 -1
10 1 25 4 33 10 28 30 95 33 110 3 25 28 80 36 80 4 0 5 9 3 20 -2 11 1 20 7
20 6 0 8 3 5 7 -4 3 0 17 8 29 8 13 12 30 9 38 -3 9 -2 16 4 16 11 0 22 28 29
75 2 16 10 38 16 50 6 11 11 24 12 28 0 4 6 11 12 15 7 5 192 7 410 5 337 -2
636 -2 783 -1 144 0 912 -13 940 -17 19 -2 60 -7 90 -11 128 -14 53 -34 -190
-51 -47 -3 -112 -7 -145 -9 -33 -2 -91 -4 -128 -5 -41 0 -65 -4 -62 -9 4 -6 1
-10 -6 -10 -8 0 -8 -4 1 -15 9 -10 9 -15 1 -15 -6 0 -11 5 -11 10 0 6 -5 10
-11 10 -6 0 -9 -7 -5 -15 4 -10 -1 -15 -14 -15 -11 0 -20 -5 -20 -11 0 -5 4
-8 9 -4 5 3 13 1 16 -5 4 -6 3 -10 -2 -9 -4 1 -15 1 -23 0 -12 -1 -12 -4 3
-12 20 -12 37 -4 37 17 0 8 4 12 10 9 16 -10 -13 -45 -37 -45 -12 0 -28 7 -37
15 -17 18 -33 2 -27 -28 2 -16 -1 -17 -18 -7 -16 8 -21 8 -19 -1 2 -6 -2 -13
-7 -15 -6 -2 -11 5 -12 16 -1 11 4 20 12 20 8 0 26 18 41 41 16 26 30 39 40
35 8 -3 14 -1 14 4 0 6 -6 10 -14 10 -14 0 -34 -22 -63 -66 -10 -17 -13 -17
-22 -4 -6 8 -11 26 -11 39 0 13 -3 22 -6 18 -4 -3 -6 -67 -5 -141 1 -135 -1
-142 -32 -137 -5 1 -6 -3 -2 -9 3 -5 2 -10 -3 -10 -5 0 -10 69 -11 153 -1 83
-6 156 -12 161 -5 6 -9 -26 -9 -87 0 -71 -3 -97 -12 -97 -9 0 -9 -3 -2 -8 13
-9 14 -85 0 -94 -6 -4 -14 -2 -18 5 -4 7 -8 -2 -8 -21 0 -20 4 -31 10 -27 17
10 32 -5 20 -20 -6 -7 -7 -16 -2 -19 5 -3 8 -15 6 -28 -1 -13 -3 -29 -3 -35
-1 -7 -6 -13 -11 -13 -6 0 -8 15 -6 35 3 19 0 37 -5 41 -5 3 -7 10 -4 15 4 5
-1 9 -10 9 -12 0 -16 8 -15 33 3 48 1 57 -12 57 -9 0 -9 -3 -1 -11 6 -6 8 -23
3 -42 -7 -35 -3 -60 10 -52 4 3 10 -1 13 -9 3 -8 -2 -16 -13 -19 -13 -3 -17
-11 -13 -26 3 -13 1 -21 -7 -21 -7 0 -3 -9 10 -20 17 -15 27 -17 41 -9 15 7
19 6 19 -6 0 -12 -7 -14 -31 -10 -32 6 -59 -3 -41 -14 10 -6 15 -32 13 -60 -1
-11 -4 -11 -16 -1 -17 14 -21 35 -5 25 6 -3 10 -2 10 4 0 5 -4 12 -9 16 -6 3
-10 13 -10 23 0 43 -12 403 -15 450 -3 57 -16 84 -17 36 0 -16 0 -129 0 -251
0 -226 -4 -244 -36 -212 -9 9 -8 15 3 26 8 8 14 20 14 26 0 8 -3 8 -9 -1 -15
-24 -18 6 -20 223 -1 115 -4 212 -7 214 -10 11 -13 -14 -16 -144 l-3 -140 -30
-6 c-16 -4 -24 -7 -17 -8 6 0 12 -10 12 -22 0 -11 4 -18 10 -14 5 3 7 12 3 20
-3 9 1 15 9 15 10 0 13 -17 13 -67 0 -41 -4 -66 -10 -63 -6 3 -9 12 -8 20 1 8
-5 19 -13 23 -8 4 -14 17 -14 28 0 12 -4 17 -11 14 -6 -4 -8 -13 -5 -21 3 -8
1 -14 -5 -14 -6 0 -7 -4 -4 -10 9 -15 -2 -12 -19 6 -16 16 -22 39 -8 31 4 -3
14 2 22 11 13 14 12 15 -3 9 -22 -8 -36 21 -16 34 8 5 9 9 3 9 -7 0 -12 19
-12 48 0 26 -1 92 -1 146 -1 55 -3 97 -5 95 -2 -2 -7 -76 -11 -164 -4 -119
-10 -164 -21 -175 -10 -10 -14 -11 -14 -2 0 7 -6 12 -12 12 -7 0 4 -16 25 -36
20 -19 37 -39 37 -43 0 -5 12 -7 26 -5 16 1 24 -2 21 -9 -3 -7 -11 -11 -18 -9
-8 2 -10 0 -6 -5 5 -4 13 -9 18 -9 22 -3 23 -5 9 -14 -13 -8 -12 -10 3 -10 10
0 16 -4 13 -8 -3 -5 2 -18 12 -28 9 -11 18 -26 20 -34 2 -8 10 -20 18 -27 9
-6 15 -14 14 -17 0 -3 3 -18 6 -32 4 -17 11 -23 21 -19 12 4 14 0 9 -19 -3
-13 -3 -26 2 -28 4 -2 18 -36 31 -75 15 -47 29 -73 38 -73 13 0 13 -2 0 -14
-11 -11 -13 -26 -7 -55 4 -23 5 -41 2 -41 -3 0 3 -7 14 -16 10 -8 14 -13 8
-10 -7 3 -10 -34 -10 -119 1 -69 -3 -125 -7 -125 -5 0 -5 -4 -2 -10 3 -5 2
-10 -3 -10 -5 0 -10 48 -11 106 -1 58 -7 118 -12 132 -6 15 -10 28 -9 30 2 5
-22 88 -31 105 -6 10 -6 17 0 17 5 0 -1 20 -14 44 -13 24 -21 47 -18 50 4 3 2
6 -4 6 -6 0 -18 18 -26 39 -36 89 -99 177 -208 292 -34 35 -130 100 -198 133
-87 42 -185 68 -272 70 -103 4 -114 -10 -14 -17 50 -3 117 -13 150 -22 73 -20
175 -64 175 -77 0 -5 -15 -1 -33 11 -18 11 -44 22 -57 24 -14 3 -45 10 -70 17
-139 39 -324 32 -460 -16 -100 -36 -170 -77 -236 -139 -38 -35 -72 -65 -76
-65 -5 0 -8 -6 -8 -14 0 -8 -4 -16 -9 -18 -14 -5 -109 -156 -140 -222 -27 -58
-75 -168 -92 -211 -25 -64 -59 -156 -73 -199 -9 -26 -21 -56 -26 -66 -5 -9
-12 -30 -14 -47 -3 -16 -12 -42 -20 -59 -8 -16 -17 -40 -20 -54 -8 -42 -35
-122 -45 -134 -4 -6 -11 -22 -14 -36 -7 -37 -162 -488 -209 -610 -22 -58 -49
-130 -60 -160 -11 -30 -31 -79 -45 -107 -13 -29 -26 -67 -30 -85 -3 -18 -15
-48 -25 -66 -10 -18 -18 -37 -18 -43 0 -5 -8 -29 -19 -52 -10 -23 -31 -76 -46
-117 -37 -100 -145 -362 -155 -375 -4 -5 -13 -27 -19 -47 -12 -37 -31 -52 -31
-24 0 8 -9 31 -20 53 -27 53 -139 343 -222 578 -6 17 -17 44 -24 62 -8 17 -14
36 -14 42 0 6 -4 19 -9 29 -5 9 -17 40 -26 67 -10 28 -23 64 -30 80 -33 79
-55 139 -55 149 0 6 -9 28 -20 48 -11 20 -21 47 -24 60 -2 13 -21 68 -41 123
-20 55 -43 121 -51 147 -8 26 -20 53 -28 60 -7 7 -13 21 -13 30 0 10 -19 70
-43 135 -66 183 -74 203 -83 203 -5 0 -6 4 -3 9 8 12 -14 71 -26 71 -5 0 -6 5
-3 10 8 12 -4 52 -13 46 -4 -2 -8 7 -9 21 0 14 -5 28 -10 32 -4 3 -9 17 -11
31 -1 13 -7 27 -13 31 -6 3 -10 9 -10 13 1 3 -6 33 -16 66 -10 38 -22 60 -31
60 -10 0 -12 7 -8 25 5 20 3 23 -11 18 -16 -6 -16 -5 -4 10 17 21 3 22 -19 2
-16 -14 -18 -14 -23 -1 -4 9 -1 15 6 13 7 -1 10 5 8 13 -2 8 -3 23 -3 33 1 20
-14 23 -21 5 -3 -7 -6 -1 -6 15 -1 15 4 27 10 27 7 0 8 7 4 18 -4 9 -13 46
-20 82 -24 122 -56 173 -111 181 -35 5 -59 -11 -93 -61 -36 -54 -48 -60 -31
-15 6 15 9 30 6 32 -7 7 -54 -71 -62 -101 -3 -15 -11 -29 -17 -33 -6 -4 -8 2
-3 18 3 13 9 42 11 64 5 37 3 41 -30 62 -32 20 -36 21 -31 5 2 -9 8 -33 11
-52 9 -44 -8 -30 -24 20 -6 19 -21 46 -32 60 l-20 25 6 -40 6 -40 -24 50 c-23
48 -57 88 -57 68 0 -6 7 -23 15 -40 8 -16 17 -45 20 -64 5 -32 5 -32 -6 -9
-33 75 -53 111 -76 132 l-26 23 17 -32 c9 -17 20 -35 26 -38 5 -3 10 -13 10
-22 0 -8 -15 6 -32 33 -31 45 -95 101 -74 64 5 -8 16 -23 24 -33 15 -17 44
-87 36 -87 -2 0 -10 13 -18 28 -17 32 -67 92 -77 92 -4 0 8 -26 27 -57 19 -31
34 -62 34 -67 -1 -6 -8 1 -16 17 -20 37 -28 34 -20 -7 4 -19 3 -37 -2 -40 -5
-3 -12 11 -16 32 -9 53 -52 142 -88 179 -118 123 -384 -42 -516 -319 -18 -37
-32 -74 -32 -82 0 -8 -4 -17 -9 -20 -5 -3 -17 -38 -26 -78 -22 -92 -35 -117
-29 -58 9 101 14 142 20 151 3 5 1 9 -3 9 -5 0 -9 10 -10 23 -2 20 -1 21 11 4
12 -16 15 -12 27 35 11 46 14 138 6 217 -1 13 3 26 10 28 8 3 10 -9 7 -37 -2
-23 0 -39 4 -36 5 3 7 -16 5 -42 -4 -55 15 -47 24 9 2 19 9 36 14 37 5 2 7 8
3 13 -3 5 0 9 6 9 7 0 10 5 8 12 -2 6 3 19 11 28 9 10 28 33 43 52 14 19 41
42 60 51 18 9 26 17 16 17 -9 0 -20 -5 -23 -10 -4 -6 -10 -8 -15 -5 -5 3 -21
0 -35 -7 -24 -11 -29 -10 -45 12 -10 14 -22 22 -26 18 -3 -4 1 -14 10 -23 22
-22 20 -28 -4 -13 -16 10 -20 24 -21 73 -1 54 -7 189 -8 208 -1 4 -6 7 -12 7
-6 0 -8 -9 -4 -21 6 -16 4 -20 -6 -13 -12 6 -12 5 0 -9 7 -9 9 -17 4 -17 -5 0
-9 -9 -10 -20 -1 -11 2 -20 7 -20 9 0 4 -89 -5 -117 -2 -7 0 -13 6 -13 6 0 7
-6 2 -12 -4 -7 -8 -22 -8 -33 0 -11 -4 -26 -9 -34 -6 -10 -6 -12 2 -7 7 4 12
3 12 -3 0 -18 -19 -21 -24 -4 -10 38 -6 123 7 123 7 0 8 3 2 8 -16 11 -17 34
-3 43 10 7 11 9 0 9 -9 0 -12 20 -11 75 2 69 -3 96 -16 84 -2 -3 -5 -80 -6
-171 0 -123 -4 -166 -12 -162 -15 5 -20 74 -6 74 6 0 7 5 3 12 -4 7 -8 57 -9
113 -2 80 -5 101 -17 103 -12 2 -14 -4 -11 -23 4 -17 1 -25 -8 -25 -11 0 -11
-2 1 -10 13 -9 13 -11 0 -20 -8 -5 -10 -10 -4 -10 12 0 12 -29 0 -48 -4 -7 -2
-12 6 -13 9 0 10 -2 1 -5 -7 -3 -10 -11 -7 -17 2 -7 -9 -21 -25 -32 -17 -11
-32 -28 -35 -38 -5 -19 -26 -15 -26 4 0 6 5 7 10 4 6 -3 10 -2 10 4 0 5 -4 12
-9 15 -12 8 -9 209 3 218 7 5 7 8 -1 8 -7 0 -13 7 -13 15 0 8 -3 15 -7 15 -5
0 -9 -21 -10 -48 -1 -26 -2 -73 -4 -105 -1 -38 -6 -56 -13 -54 -6 2 -10 11 -8
21 2 9 -2 16 -8 16 -5 0 -10 -5 -10 -12 0 -6 -3 -8 -6 -5 -7 6 -11 74 -13 192
-1 56 -2 58 -18 42 -13 -13 -15 -20 -6 -25 11 -7 11 -61 -1 -81 -4 -6 -3 -11
3 -11 6 0 7 -8 4 -17 -6 -15 -7 -15 -13 2 -5 13 -9 15 -14 7 -10 -16 -39 -16
-30 1 5 9 4 9 -6 0 -8 -7 -14 -22 -15 -33 -2 -18 0 -19 15 -5 14 13 17 13 17
1 0 -8 -11 -19 -23 -25 -22 -10 -23 -9 -23 32 2 137 -2 167 -22 167 -16 0 -17
-4 -9 -25 6 -15 6 -26 0 -30 -6 -4 -6 -14 1 -27 8 -15 8 -19 0 -14 -7 5 -11
-3 -12 -21 -1 -15 -3 -21 -6 -12 -2 9 -14 21 -26 28 -21 11 -21 11 -1 6 17 -4
21 -1 20 17 -1 13 3 27 9 31 6 5 4 7 -5 4 -8 -2 -14 -13 -12 -23 2 -16 1 -17
-8 -4 -9 12 -13 12 -17 2 -4 -10 -8 -10 -21 0 -13 11 -14 11 -7 -1 5 -9 -2 -7
-17 5 -21 15 -23 21 -12 27 20 11 17 25 -6 32 -13 4 -31 0 -45 -9 -21 -14 -24
-14 -19 -1 5 12 -5 14 -48 15 -29 0 -60 1 -68 2 -8 0 -26 -2 -39 -6 -13 -5
-21 -4 -18 0 3 5 -19 10 -49 10 -30 1 -102 5 -162 9 -59 5 -120 9 -137 10 -68
5 -126 18 -117 27 22 22 154 29 641 33 239 3 435 6 437 7 1 2 285 3 631 3 546
0 631 -2 644 -15z m-1665 -103 c-10 -7 -34 -22 -52 -34 -19 -12 -34 -19 -34
-14 0 4 21 20 48 34 48 27 73 36 38 14z m5704 -2 c11 -13 10 -14 -4 -9 -9 3
-16 10 -16 15 0 13 6 11 20 -6z m-5957 -34 c16 -6 33 -8 39 -5 6 4 8 2 5 -3
-7 -11 50 -40 66 -35 5 1 6 -2 3 -7 -3 -5 6 -16 20 -26 14 -9 35 -26 46 -37
17 -17 22 -18 30 -7 6 10 7 7 3 -10 -5 -15 -3 -21 3 -17 9 5 24 -16 26 -37 1
-4 6 -11 12 -15 6 -4 17 -22 25 -39 8 -18 20 -33 27 -33 7 0 11 -4 8 -9 -7
-10 25 -114 36 -119 4 -2 4 -10 1 -19 -4 -9 -2 -14 3 -10 5 3 9 -6 9 -19 -1
-14 4 -56 11 -92 8 -37 16 -110 20 -162 8 -124 8 -1443 0 -1805 -6 -278 -13
-626 -21 -1095 -2 -135 -7 -362 -11 -505 -4 -143 -7 -318 -8 -390 -1 -71 -5
-136 -10 -144 -6 -10 -5 -12 2 -7 8 5 10 -2 7 -21 -3 -15 -7 -102 -9 -193 -3
-91 -5 -175 -5 -187 -1 -13 -4 -23 -8 -23 -5 0 -7 42 -6 92 4 128 4 257 0 358
-1 47 2 91 7 98 5 7 5 12 0 12 -5 0 -9 284 -9 645 1 355 -2 645 -6 645 -3 0
-6 -35 -6 -77 0 -43 -3 -215 -7 -383 -17 -746 -21 -866 -36 -995 -5 -44 -12
-116 -15 -160 -18 -224 -73 -502 -129 -645 -116 -298 -171 -407 -257 -515 -70
-86 -95 -109 -189 -165 -46 -27 -79 -50 -74 -51 16 -2 96 3 113 6 162 32 273
130 369 324 18 35 32 72 32 81 0 9 3 20 7 24 4 3 8 12 9 19 1 7 11 41 23 77
11 36 23 76 26 90 2 14 9 45 14 70 5 25 12 63 15 84 10 62 18 57 11 -8 -6 -66
-38 -216 -62 -291 -26 -80 -99 -232 -140 -288 -39 -55 -134 -149 -142 -141 -2
2 -12 -3 -21 -11 -71 -64 -293 -81 -450 -33 -47 14 -103 33 -125 42 l-39 17
24 -26 c37 -40 176 -115 247 -133 89 -24 175 -8 257 48 51 34 55 35 26 9 -92
-82 -210 -102 -332 -55 -162 61 -270 147 -448 356 -92 109 -95 111 -65 50 47
-94 146 -264 166 -286 24 -26 25 -41 1 -17 -25 25 -82 99 -82 107 0 4 -18 34
-40 66 -39 58 -100 178 -100 198 0 5 -7 25 -15 43 l-16 34 6 -32 c12 -60 -10
-34 -28 35 -10 37 -30 108 -44 157 -32 116 -41 363 -17 490 21 110 72 213 139
279 68 67 109 87 182 88 65 1 103 -14 144 -59 40 -42 81 -133 61 -133 -5 0
-12 12 -15 28 -7 33 -61 98 -98 118 -41 21 -142 18 -187 -5 -99 -51 -182 -197
-197 -349 -4 -37 -8 -78 -10 -92 -5 -51 13 -218 34 -300 23 -92 97 -251 140
-299 42 -47 79 -85 95 -98 31 -26 143 -82 186 -94 67 -19 243 -16 320 4 118
31 273 124 252 151 -5 6 -10 18 -10 26 0 8 -7 46 -15 83 -43 191 19 482 167
786 14 30 26 59 26 63 0 5 9 28 20 50 11 23 20 45 20 49 0 4 18 45 39 91 63
135 77 170 101 254 12 43 26 90 31 104 13 38 27 135 34 230 3 47 8 103 10 125
5 37 3 35 -17 -20 -93 -247 -288 -434 -495 -470 -58 -11 -129 -13 -273 -8
-188 5 -198 4 -265 -19 -39 -13 -101 -41 -139 -62 -96 -54 -231 -189 -297
-296 -28 -47 -48 -74 -44 -60 13 43 36 83 95 160 109 143 227 232 363 275 87
28 150 31 357 20 199 -11 296 17 424 120 69 57 171 182 199 245 50 111 89 264
94 365 3 55 9 138 13 185 5 47 11 132 14 190 4 58 11 146 16 195 5 50 11 115
12 145 2 30 8 58 13 62 6 5 5 8 -2 8 -7 0 -10 7 -7 18 3 9 -1 6 -9 -8 -9 -14
-13 -28 -11 -31 3 -5 -87 -190 -138 -282 -27 -48 3 -230 53 -329 11 -21 16
-38 11 -38 -15 0 -65 114 -87 198 -23 88 -25 89 -57 22 -84 -176 -124 -283
-134 -368 -11 -81 -7 -233 6 -282 6 -23 9 -45 6 -48 -8 -8 -15 1 -19 24 -1 10
-6 25 -11 32 -4 7 -6 16 -3 18 3 3 1 19 -3 35 -11 37 -13 131 -6 221 9 104 79
296 163 448 23 42 32 73 36 131 4 44 24 132 47 210 23 74 43 145 46 159 9 47
26 105 59 205 18 55 38 134 44 175 16 108 22 392 23 985 0 659 -2 813 -13 900
-5 39 -11 88 -14 110 -13 107 -71 229 -149 312 -69 74 -201 151 -275 160 -53
6 -68 19 -28 25 24 4 105 -13 150 -31z m6282 19 c16 -7 14 -9 -15 -10 -92 -2
-219 -55 -296 -123 -64 -57 -119 -145 -149 -239 -24 -76 -30 -108 -42 -213 -9
-82 -12 -2261 -3 -2385 9 -132 26 -207 77 -338 49 -130 116 -244 178 -307 55
-55 169 -119 231 -131 47 -9 53 -24 7 -18 -73 9 -168 48 -210 87 -33 30 -35
19 -7 -38 47 -95 82 -183 87 -216 3 -19 10 -47 17 -64 15 -38 40 -198 39 -250
l-1 -40 -9 50 c-5 28 -10 61 -12 75 -2 14 -6 32 -9 40 -4 8 -12 44 -18 80 -7
36 -15 70 -18 75 -4 6 -7 15 -8 20 -3 20 -75 197 -94 233 -11 20 -20 41 -20
47 0 6 -20 39 -45 73 -80 109 -164 282 -181 372 -10 50 -15 33 -9 -30 23 -240
38 -349 61 -450 13 -58 30 -136 39 -175 32 -143 106 -315 186 -432 43 -62 186
-189 270 -239 92 -54 83 -56 -19 -5 -100 50 -176 109 -235 179 -15 19 -27 32
-27 29 0 -6 84 -158 125 -227 80 -132 317 -464 409 -571 49 -57 66 -82 66 -96
0 -6 6 -16 13 -20 6 -4 21 -24 31 -43 11 -19 22 -37 25 -40 9 -7 42 -80 72
-160 9 -23 14 -79 14 -165 -1 -154 -14 -192 -98 -279 -83 -86 -200 -122 -297
-91 -23 7 -24 6 -11 -9 41 -50 212 -106 322 -106 166 0 267 45 400 180 72 73
95 105 141 196 105 206 139 340 134 534 -5 204 -56 303 -185 364 -57 26 -77
30 -146 30 -99 0 -154 -15 -203 -57 l-37 -32 26 34 c70 94 241 116 376 49 66
-33 145 -123 179 -204 28 -67 29 -73 28 -239 0 -138 -4 -187 -22 -260 -23 -99
-54 -198 -76 -248 -7 -18 -27 -67 -42 -109 -16 -43 -32 -78 -37 -78 -10 0 2
45 24 95 10 22 19 50 19 62 0 12 5 25 10 28 6 3 10 14 10 23 0 9 -27 -37 -61
-103 -74 -147 -150 -248 -252 -332 -42 -35 -32 -12 14 32 43 42 159 192 159
206 0 5 -34 -27 -75 -70 -42 -44 -91 -86 -109 -95 -18 -9 -39 -22 -46 -31 -31
-37 -221 -125 -325 -150 -119 -29 -304 28 -380 116 -12 13 -1 8 25 -13 111
-87 223 -109 383 -77 32 7 60 15 62 19 2 4 -28 10 -68 14 -82 7 -201 48 -285
98 -83 49 -200 169 -259 268 -47 78 -99 190 -88 190 3 0 19 -28 36 -62 188
-373 524 -554 797 -428 40 18 72 36 72 40 0 4 10 12 23 18 12 6 16 11 9 11 -7
1 -23 -5 -35 -13 -67 -43 -257 -45 -387 -4 -157 49 -328 188 -460 373 -61 86
-94 166 -114 272 -12 64 -17 89 -21 102 -7 18 -19 127 -19 174 -1 20 -4 37 -7
37 -7 0 -15 51 -25 155 -3 33 -7 65 -9 72 -2 7 0 15 5 18 10 6 17 -15 25 -75
14 -110 89 -449 97 -438 4 7 6 117 5 243 l-4 230 -46 175 c-40 154 -72 301
-82 380 -1 14 -6 33 -10 43 -4 9 -5 29 -3 42 3 14 2 25 -1 25 -3 0 -7 10 -7
23 -1 12 -4 47 -8 77 -3 30 -15 136 -26 235 -11 98 -24 204 -30 234 -5 30 -10
70 -10 88 0 18 -4 33 -10 33 -5 0 -10 -10 -9 -22 0 -13 0 -254 -1 -536 0 -282
3 -525 6 -540 5 -19 3 -24 -4 -17 -6 6 -13 55 -16 110 -6 95 -8 175 -21 745
-3 135 -8 272 -10 305 -14 242 -24 1802 -16 2615 2 285 19 488 42 532 6 11 9
29 6 39 -3 10 -2 19 3 19 4 0 11 11 14 25 9 35 58 139 68 143 4 2 8 9 8 17 0
7 6 18 14 24 8 7 18 26 21 43 5 23 9 27 16 17 8 -12 12 -11 24 5 15 19 47 41
78 52 9 3 17 13 17 21 0 8 4 12 9 9 5 -4 22 -1 38 5 15 6 36 12 47 15 10 2 21
6 24 9 9 8 135 4 157 -5z m-6035 -14 c0 -2 -8 -10 -17 -17 -16 -13 -17 -12 -4
4 13 16 21 21 21 13z m5705 -16 c-10 -11 -21 -18 -23 -15 -3 3 3 12 14 20 27
20 30 18 9 -5z m-5675 -10 c8 -5 11 -10 5 -10 -5 0 -17 5 -25 10 -8 5 -10 10
-5 10 6 0 17 -5 25 -10z m5626 -18 c-18 -16 -18 -16 -6 6 6 13 14 21 18 18 3
-4 -2 -14 -12 -24z m-101 -32 c17 -19 17 -20 0 -20 -10 0 -15 3 -12 7 4 3 2
12 -4 20 -18 21 -4 15 16 -7z m50 -6 c14 -6 13 -8 -5 -21 -12 -8 -19 -21 -16
-29 5 -14 -5 -19 -17 -8 -5 5 11 64 18 64 2 0 11 -3 20 -6z m-59 -44 c0 -11
-6 -20 -13 -20 -16 0 -17 12 -1 28 7 7 12 12 13 12 0 0 1 -9 1 -20z m-5416 0
c0 -5 -5 -10 -11 -10 -5 0 -7 5 -4 10 3 6 8 10 11 10 2 0 4 -4 4 -10z m129
-60 c1 -60 -2 -70 -16 -70 -13 0 -14 3 -5 12 8 8 8 17 0 31 -7 15 -7 22 3 28
12 7 11 9 0 9 -12 0 -12 3 -3 12 16 16 15 31 0 22 -9 -5 -9 -2 1 9 7 9 15 17
16 17 2 0 3 -31 4 -70z m5231 50 c0 -5 -5 -10 -11 -10 -5 0 -7 5 -4 10 3 6 8
10 11 10 2 0 4 -4 4 -10z m44 -42 c-3 -5 -9 -6 -14 -3 -4 3 -10 -2 -14 -10 -3
-9 0 -15 9 -15 8 0 15 -7 15 -15 0 -8 -5 -15 -12 -15 -6 0 -8 3 -4 7 3 4 -4
13 -16 20 -13 7 -17 12 -10 13 6 0 12 6 12 14 0 8 9 14 19 13 11 0 17 -5 15
-9z m-5196 -75 c0 -13 -5 -26 -11 -30 -6 -4 -8 0 -4 10 5 12 1 17 -13 17 -19
0 -28 28 -14 43 12 12 42 -17 42 -40z m-135 17 c-3 -11 -7 -20 -9 -20 -2 0 -4
9 -4 20 0 11 4 20 9 20 5 0 7 -9 4 -20z m4177 -10 c-89 -10 -193 -36 -240 -60
-53 -27 -75 -26 -25 1 55 30 103 46 161 54 26 3 50 8 53 11 2 2 29 3 60 3 l56
-2 -65 -7z m117 4 c-3 -3 -12 -4 -19 -1 -8 3 -5 6 6 6 11 1 17 -2 13 -5z
m-4047 -14 c0 -5 -5 -10 -11 -10 -5 0 -7 5 -4 10 3 6 8 10 11 10 2 0 4 -4 4
-10z m-146 -25 c-4 -8 -8 -15 -10 -15 -2 0 -4 7 -4 15 0 8 4 15 10 15 5 0 7
-7 4 -15z m5086 5 c0 -5 -7 -10 -16 -10 -8 0 -12 5 -9 10 3 6 10 10 16 10 5 0
9 -4 9 -10z m140 6 c0 -3 -4 -8 -10 -11 -5 -3 -10 -1 -10 4 0 6 5 11 10 11 6
0 10 -2 10 -4z m-5080 -14 c0 -5 -11 -14 -25 -20 -23 -11 -24 -10 -13 8 13 20
38 28 38 12z m4410 -2 c8 -5 11 -10 5 -10 -5 0 -17 5 -25 10 -8 5 -10 10 -5
10 6 0 17 -5 25 -10z m597 -79 c-2 -70 -5 -87 -14 -79 -9 7 -13 7 -13 -1 0 -6
7 -14 15 -17 21 -8 9 -23 -14 -17 -24 6 -22 35 4 50 19 12 19 12 -5 13 -20 0
-22 2 -10 10 12 8 12 10 1 10 -11 0 -10 5 3 24 10 15 12 27 6 31 -22 14 -2 61
27 65 1 0 1 -40 0 -89z m-5122 47 c-2 -13 -7 -34 -11 -47 -5 -16 -4 -22 3 -18
6 4 11 -3 11 -17 0 -17 -5 -23 -14 -19 -8 3 -14 -1 -14 -8 0 -16 -13 -3 -16
16 -1 8 4 11 12 8 8 -3 14 0 14 6 0 6 -7 11 -16 11 -15 0 -15 2 0 25 14 21 14
24 1 19 -8 -4 -15 -1 -15 5 0 6 7 11 15 11 8 0 14 3 14 8 -2 14 1 22 10 22 5
0 8 -10 6 -22z m111 -24 c-3 -8 -10 -13 -16 -9 -6 4 -5 13 3 26 13 21 23 8 13
-17z m-62 11 c-4 -8 -8 -15 -10 -15 -2 0 -4 7 -4 15 0 8 4 15 10 15 5 0 7 -7
4 -15z m-124 -5 c0 -5 -7 -7 -15 -4 -8 4 -15 8 -15 10 0 2 7 4 15 4 8 0 15 -4
15 -10z m4541 -7 c13 -17 13 -17 -6 -3 -11 8 -22 16 -24 17 -2 2 0 3 6 3 6 0
17 -8 24 -17z m-731 3 c0 -2 -7 -7 -16 -10 -8 -3 -12 -2 -9 4 6 10 25 14 25 6z
m1083 -21 c-3 -9 -8 -14 -10 -11 -3 3 -2 9 2 15 9 16 15 13 8 -4z m-4645 -48
c2 -26 -1 -47 -6 -47 -17 0 -21 12 -12 36 6 14 6 26 0 29 -15 9 -12 37 3 33 6
-3 13 -25 15 -51z m4835 20 c3 -8 1 -20 -4 -28 -6 -10 -9 -7 -9 14 0 29 5 35
13 14z m-4746 -34 c1 -24 0 -25 -6 -8 -7 17 -6 35 2 35 2 0 3 -12 4 -27z
m4593 18 c0 -12 -20 -25 -27 -18 -7 7 6 27 18 27 5 0 9 -4 9 -9z m-4730 -35
c0 -2 -8 -10 -17 -17 -16 -13 -17 -12 -4 4 13 16 21 21 21 13z m-122 -28 c-3
-7 -11 -13 -19 -13 -8 -1 -13 -7 -11 -14 1 -7 -2 -10 -8 -6 -8 5 -8 11 1 21 6
7 15 11 20 8 5 -3 9 0 9 5 0 6 3 11 6 11 3 0 4 -6 2 -12z m4922 -28 c0 -22 -4
-28 -20 -27 -17 1 -18 3 -5 17 17 19 20 34 5 25 -6 -3 -7 1 -4 9 9 24 24 9 24
-24z m-4755 20 c3 -5 1 -10 -4 -10 -6 0 -11 5 -11 10 0 6 2 10 4 10 3 0 8 -4
11 -10z m3395 6 c0 -2 -8 -10 -17 -17 -16 -13 -17 -12 -4 4 13 16 21 21 21 13z
m1437 -18 c-3 -8 -6 -5 -6 6 -1 11 2 17 5 13 3 -3 4 -12 1 -19z m41 -12 c-1
-19 -5 -33 -9 -30 -4 2 -6 17 -4 32 5 34 4 32 10 32 3 0 5 -15 3 -34z m-4380
-22 c16 -19 35 -54 42 -77 6 -23 28 -74 46 -113 l35 -70 -27 -59 c-48 -110
-42 -245 12 -253 25 -4 73 48 105 111 27 53 28 54 40 37 5 -8 9 -55 9 -105 -2
-141 -4 -131 21 -109 12 10 41 59 66 108 31 62 48 85 55 78 6 -6 13 -51 16
-101 4 -83 6 -89 23 -81 28 15 89 148 96 210 5 44 14 64 44 100 21 25 53 65
71 90 65 86 93 45 93 -135 0 -98 -4 -133 -23 -191 -13 -39 -32 -81 -42 -92
-10 -11 -16 -22 -13 -25 3 -3 -7 -18 -21 -34 -14 -15 -26 -35 -27 -43 0 -10
-2 -11 -6 -2 -2 6 -9 10 -13 7 -5 -3 -6 -13 -3 -22 4 -11 3 -14 -5 -9 -7 4
-12 1 -12 -8 0 -15 -12 -21 -33 -17 -5 1 -6 -3 -3 -8 3 -5 -6 -16 -19 -25 -14
-9 -23 -21 -20 -26 3 -5 0 -12 -6 -16 -8 -4 -9 -3 -5 4 4 7 2 12 -4 12 -6 0
-8 5 -4 12 4 7 3 8 -5 4 -6 -4 -9 -12 -6 -17 4 -5 1 -9 -5 -9 -6 0 -9 -3 -7
-7 3 -5 -5 -16 -18 -25 -21 -16 -24 -16 -29 -2 -3 9 -3 21 1 26 3 7 1 8 -6 4
-6 -4 -9 -16 -6 -27 4 -11 2 -19 -5 -19 -6 0 -8 -5 -4 -12 4 -6 3 -8 -4 -4 -6
3 -13 2 -17 -4 -3 -5 -12 -10 -18 -10 -7 0 -6 4 3 11 12 9 11 9 -5 4 -11 -4
-28 -10 -37 -12 -10 -3 -16 -8 -14 -12 3 -4 -4 -8 -15 -8 -11 -1 -17 2 -14 7
7 12 -17 18 -56 14 -25 -3 -30 -1 -19 6 16 10 13 12 -20 12 -36 0 -41 -2 -35
-14 4 -7 -1 -4 -9 7 -14 17 -20 18 -46 8 -38 -14 -39 -8 -2 11 27 15 27 15
-15 10 -29 -4 -43 -2 -43 6 0 6 5 8 12 4 7 -4 8 -3 4 5 -4 7 -15 11 -24 9 -10
-2 -26 4 -36 14 -21 19 -41 25 -32 9 5 -8 -2 -8 -33 -2 -2 1 2 7 8 14 13 16 5
27 -19 27 -10 0 -32 18 -50 39 -19 21 -40 37 -47 34 -7 -3 -13 2 -13 10 0 8
-7 20 -15 27 -8 7 -15 21 -15 31 0 9 -8 25 -17 34 -16 17 -29 67 -38 153 -2
23 -7 47 -10 52 -3 6 0 10 7 11 7 0 8 3 2 5 -9 4 -9 21 0 104 7 62 21 110 52
179 77 169 167 225 232 145z m4441 27 c12 -8 13 -14 3 -36 -15 -32 -15 -38 -2
-30 6 3 7 -1 4 -9 -7 -19 -20 -21 -22 -3 -1 6 -4 29 -7 50 -7 38 -1 44 24 28z
m-5099 -11 c0 -5 -5 -10 -11 -10 -5 0 -7 5 -4 10 3 6 8 10 11 10 2 0 4 -4 4
-10z m-80 -40 c0 -5 -5 -10 -11 -10 -5 0 -7 5 -4 10 3 6 8 10 11 10 2 0 4 -4
4 -10z m4997 -5 c0 -8 -4 -15 -8 -15 -11 0 -20 16 -12 24 11 11 20 7 20 -9z
m80 -3 c-9 -2 -15 -7 -13 -11 3 -4 -3 -7 -13 -8 -9 -1 -17 6 -18 16 -1 14 5
16 30 12 19 -3 25 -6 14 -9z m43 -7 c0 -8 -7 -15 -16 -15 -14 0 -14 3 -4 15 7
8 14 15 16 15 2 0 4 -7 4 -15z m-4870 -15 c0 -5 -4 -10 -10 -10 -5 0 -10 5
-10 10 0 6 5 10 10 10 6 0 10 -4 10 -10z m3844 -31 c-8 -14 30 -10 45 4 8 7
11 7 8 1 -9 -16 28 -25 43 -10 8 8 9 7 4 -7 -6 -15 -2 -17 27 -12 29 4 32 3
18 -8 -20 -15 -4 -35 24 -29 10 2 16 -2 15 -10 -2 -7 4 -13 12 -13 8 0 15 -5
15 -10 0 -6 -3 -9 -6 -8 -3 1 -6 -4 -6 -12 0 -8 4 -12 8 -9 30 18 30 -100 1
-266 l-17 -95 -52 -6 c-106 -13 -214 -110 -283 -253 -44 -90 -80 -217 -80
-279 l0 -40 75 71 c65 62 144 122 160 122 3 0 -10 -21 -28 -47 -48 -69 -73
-112 -102 -178 l-26 -57 28 6 c50 12 214 95 262 133 97 77 163 181 182 290
l11 61 44 -25 c27 -15 54 -23 70 -20 18 3 22 1 14 -8 -7 -8 3 -12 41 -14 36
-1 49 1 44 9 -5 8 1 7 15 -2 12 -7 32 -19 44 -25 11 -7 15 -13 9 -13 -7 0 -13
-4 -13 -10 0 -5 7 -7 15 -4 8 4 15 1 15 -5 0 -6 -4 -11 -10 -11 -5 0 -10 -4
-10 -10 0 -5 7 -10 16 -10 8 0 13 -4 9 -9 -3 -5 -1 -12 5 -16 6 -3 13 1 16 9
3 9 10 16 15 16 5 0 2 -12 -7 -26 -12 -17 -19 -21 -24 -14 -6 9 -10 9 -16 -1
-4 -7 -3 -14 4 -17 8 -2 9 -9 2 -22 -8 -15 -6 -21 7 -29 17 -9 17 -11 -1 -28
-18 -17 -19 -17 -13 0 4 11 3 16 -3 12 -13 -8 -13 -35 1 -35 5 0 2 -13 -7 -29
-10 -17 -21 -28 -26 -25 -4 3 -8 0 -8 -5 0 -6 5 -11 12 -11 6 0 1 -9 -12 -20
-13 -11 -19 -20 -14 -20 5 0 -3 -11 -18 -25 -14 -13 -29 -34 -33 -46 -4 -13
-13 -19 -24 -16 -18 4 -41 -15 -41 -34 0 -6 -7 -9 -14 -6 -11 4 -13 1 -9 -11
3 -9 3 -14 -2 -10 -4 4 -21 -4 -37 -17 -30 -25 -55 -34 -43 -15 10 16 0 12
-25 -10 -18 -16 -25 -17 -32 -8 -6 10 -8 9 -8 -2 0 -9 -8 -16 -19 -16 -12 0
-17 5 -13 15 3 9 1 12 -6 7 -7 -4 -12 -14 -12 -22 0 -8 -10 -14 -24 -14 -13 0
-31 -3 -40 -6 -9 -3 -16 -1 -16 6 0 6 5 8 10 5 6 -3 10 -1 10 4 0 18 -17 12
-33 -11 -13 -19 -16 -20 -16 -5 -1 20 -15 22 -33 4 -8 -9 -21 -11 -33 -6 -11
4 -30 8 -41 8 -12 1 -39 9 -60 18 -44 19 -47 20 -72 22 -10 0 -28 10 -40 21
-12 11 -26 20 -31 20 -5 0 -23 12 -40 26 -17 14 -31 22 -31 18 0 -4 -15 8 -34
27 -19 19 -46 45 -60 58 -20 18 -24 27 -15 37 8 10 6 12 -11 9 -18 -3 -20 -2
-10 10 10 12 9 15 -4 15 -9 0 -15 6 -13 13 1 6 -3 11 -9 10 -7 -1 -11 3 -11
10 1 41 -4 59 -17 54 -9 -4 -12 2 -10 19 1 13 -2 26 -6 29 -5 3 -7 12 -3 20 4
11 1 13 -11 9 -14 -5 -15 -2 -6 20 7 18 6 26 -1 26 -6 0 -9 9 -6 19 4 15 1 18
-12 14 -9 -4 -13 -3 -9 2 4 4 2 15 -5 23 -9 13 -9 14 1 8 6 -4 12 -3 12 3 0 5
-4 13 -10 16 -16 10 -12 25 8 26 16 1 16 2 0 6 -18 5 -25 23 -9 23 10 0 9 55
-1 65 -4 4 -3 17 1 29 4 11 7 33 6 49 0 15 3 27 8 27 5 0 7 10 4 21 -3 12 -2
29 3 38 5 9 23 53 40 98 17 44 37 84 45 87 8 3 15 11 15 18 0 7 14 24 30 37
17 13 30 29 30 37 0 8 6 11 15 8 11 -5 15 1 15 19 0 19 7 28 30 36 17 5 29 14
28 18 -2 4 7 18 20 31 12 12 22 18 22 13 0 -6 -10 -17 -22 -25 -12 -9 -17 -16
-9 -16 7 0 26 14 43 30 18 18 28 24 24 14 -6 -16 -5 -16 13 0 11 10 19 21 17
25 -2 3 10 7 27 8 17 1 34 6 38 10 11 11 70 12 63 2z m976 -15 c0 -2 -9 0 -20
6 -11 6 -20 13 -20 16 0 2 9 0 20 -6 11 -6 20 -13 20 -16z m47 -1 c1 -19 -1
-22 -8 -12 -11 17 -12 39 -1 39 4 0 8 -12 9 -27z m56 -15 c-10 -22 -11 -21
-10 10 0 22 3 30 10 23 7 -7 7 -18 0 -33z m-4923 17 c0 -8 -4 -15 -8 -15 -5 0
-9 7 -9 15 0 8 4 15 9 15 4 0 8 -7 8 -15z m4802 -24 c16 -18 15 -20 -1 -18 -9
0 -17 9 -17 19 0 10 1 18 1 18 0 0 8 -9 17 -19z m115 -53 c-3 -7 -5 -2 -5 12
0 14 2 19 5 13 2 -7 2 -19 0 -25z m-92 12 c4 -6 -1 -7 -11 -3 -13 5 -15 3 -9
-7 5 -9 4 -11 -4 -6 -6 4 -9 12 -6 17 8 12 22 12 30 -1z m-10 -40 c-3 -5 -12
-10 -18 -10 -7 0 -6 4 3 10 19 12 23 12 15 0z m92 -112 c-3 -7 -5 -2 -5 12 0
14 2 19 5 13 2 -7 2 -19 0 -25z m-40 -10 c-3 -8 -6 -5 -6 6 -1 11 2 17 5 13 3
-3 4 -12 1 -19z m-3511 -68 c0 -12 -4 -16 -9 -11 -5 5 -6 14 -3 20 10 15 12
14 12 -9z m64 -42 c0 -6 -6 -5 -15 2 -8 7 -15 14 -15 16 0 2 7 1 15 -2 8 -4
15 -11 15 -16z m45 -158 c-10 -11 -20 -18 -23 -16 -5 6 21 35 32 36 5 0 1 -9
-9 -20z m20 -50 c3 -5 -1 -10 -10 -10 -9 0 -13 5 -10 10 3 6 8 10 10 10 2 0 7
-4 10 -10z m1855 -90 c0 -5 -4 -10 -10 -10 -5 0 -10 5 -10 10 0 6 5 10 10 10
6 0 10 -4 10 -10z m-2977 -99 c-3 -3 -8 0 -11 8 -2 7 -13 22 -23 32 -11 11
-19 22 -19 27 1 4 14 -8 30 -27 16 -19 27 -37 23 -40z m3378 -564 c-10 -9 -11
-8 -5 6 3 10 9 15 12 12 3 -3 0 -11 -7 -18z m-2977 -452 c3 -170 8 -521 11
-780 5 -460 9 -660 21 -1057 4 -150 3 -198 -6 -198 -7 0 -10 6 -7 14 3 8 2 29
-3 45 -6 22 -5 31 3 32 9 0 9 2 0 5 -6 3 -9 16 -7 31 3 15 0 30 -8 34 -10 7
-10 9 2 9 13 0 13 1 0 10 -13 9 -13 11 0 20 9 6 11 13 5 18 -5 4 -11 13 -13
21 -1 7 -5 302 -7 655 -3 352 -7 828 -10 1056 -3 256 -2 411 4 405 5 -6 12
-149 15 -320z m3027 -882 c-1 -406 -4 -810 -7 -898 -3 -88 -6 -184 -7 -212 -1
-29 -5 -53 -9 -53 -3 0 -3 -13 2 -29 4 -16 6 -32 2 -35 -3 -3 -4 -37 -3 -75 1
-40 -2 -72 -8 -76 -8 -4 -9 114 -6 392 2 219 7 695 11 1058 3 363 8 664 11
668 3 5 7 6 10 4 2 -3 4 -337 4 -744z m2628 -1114 c66 -36 73 -41 128 -83 28
-21 74 -68 101 -105 77 -100 99 -151 128 -286 11 -52 2 -310 -11 -324 -2 -2
-3 51 -1 117 2 126 -19 279 -48 337 -8 17 -25 52 -38 79 -31 66 -141 175 -221
220 -112 63 -239 69 -321 15 -27 -18 -26 -16 8 15 45 42 59 45 156 42 57 -2
85 -8 119 -27z m-1305 -442 c2 -31 1 -59 -2 -61 -4 -2 -8 26 -10 62 -3 80 6
79 12 -1z m-104 37 c0 -8 -4 -12 -10 -9 -5 3 -10 10 -10 16 0 5 5 9 10 9 6 0
10 -7 10 -16z m-3 -81 c-3 -10 -5 -2 -5 17 0 19 2 27 5 18 2 -10 2 -26 0 -35z
m7 -39 c3 -8 2 -12 -4 -9 -6 3 -10 10 -10 16 0 14 7 11 14 -7z m116 -9 c0 -8
-4 -15 -10 -15 -5 0 -10 7 -10 15 0 8 5 15 10 15 6 0 10 -7 10 -15z m-5555
-225 c3 -5 1 -10 -4 -10 -6 0 -11 5 -11 10 0 6 2 10 4 10 3 0 8 -4 11 -10z
m-1 -36 c3 -8 2 -12 -4 -9 -6 3 -10 10 -10 16 0 14 7 11 14 -7z m-7 -61 c-3
-10 -5 -4 -5 12 0 17 2 24 5 18 2 -7 2 -21 0 -30z m7196 -3 c-3 -11 -7 -20 -9
-20 -2 0 -4 9 -4 20 0 11 4 20 9 20 5 0 7 -9 4 -20z m-8866 -72 c-3 -8 -6 -5
-6 6 -1 11 2 17 5 13 3 -3 4 -12 1 -19z m1636 -278 c-3 -12 -8 -19 -11 -16 -5
6 5 36 12 36 2 0 2 -9 -1 -20z m1404 -135 c0 -8 -4 -12 -9 -9 -5 3 -6 10 -3
15 9 13 12 11 12 -6z m13 -51 c0 -8 -4 -14 -9 -14 -6 0 -9 9 -8 19 1 22 17 18
17 -5z m18 -59 c3 -44 60 -176 107 -250 71 -110 213 -236 348 -308 119 -64
269 -108 416 -123 31 -4 61 -11 66 -17 7 -7 7 -8 0 -4 -6 3 -53 8 -105 11
-128 7 -243 30 -385 78 -175 58 -284 153 -380 332 -39 73 -89 222 -80 243 2 7
1 13 -4 13 -4 0 -8 13 -9 30 0 23 2 27 12 18 7 -7 13 -17 14 -23z m-2831 -63
c7 -20 12 -41 12 -47 -1 -14 -37 67 -38 84 -1 22 11 4 26 -37z m5439 -135
c-65 -180 -170 -303 -321 -376 -71 -34 -187 -75 -249 -87 -12 -2 -34 -7 -51
-11 -16 -4 -34 -8 -40 -9 -5 0 -35 -4 -65 -8 -85 -12 -160 -14 -166 -4 -5 8 8
12 37 9 9 -1 81 12 160 30 321 70 514 202 652 446 19 33 37 73 41 89 4 16 12
42 19 57 l12 28 3 -34 c2 -20 -11 -72 -32 -130z m1849 -98 c22 -30 31 -47 21
-39 -31 24 -95 127 -127 200 -44 103 -34 98 20 -11 26 -52 65 -120 86 -150z
m-6084 164 c-12 -20 -14 -14 -5 12 4 9 9 14 11 11 3 -2 0 -13 -6 -23z m-20
-50 c-12 -20 -14 -14 -5 12 4 9 9 14 11 11 3 -2 0 -13 -6 -23z m7172 -3 c-3
-11 -9 -17 -15 -14 -5 3 -4 12 3 20 16 19 18 18 12 -6z m-7190 -35 c-3 -9 -8
-14 -10 -11 -3 3 -2 9 2 15 9 16 15 13 8 -4z m-20 -45 c-3 -11 -10 -23 -16
-27 -5 -3 -8 -2 -5 3 3 5 8 17 11 27 9 24 16 22 10 -3z m6917 -154 c0 -3 -4
-8 -10 -11 -5 -3 -10 -1 -10 4 0 6 5 11 10 11 6 0 10 -2 10 -4z"/>
<path d="M2400 8475 c4 -11 15 -22 25 -23 11 -3 15 0 11 7 -4 6 0 11 8 11 9 0
13 6 10 15 -4 8 -17 13 -34 12 -23 -2 -26 -5 -20 -22z"/>
<path d="M2689 8498 c-6 -12 -4 -48 2 -48 5 0 9 11 9 25 0 21 -6 33 -11 23z"/>
<path d="M2909 8493 c-5 -28 -3 -73 3 -73 5 0 8 18 8 40 0 34 -7 55 -11 33z"/>
<path d="M3151 8465 c1 -40 1 -40 10 -10 5 18 5 33 -1 39 -7 7 -10 -4 -9 -29z"/>
<path d="M7801 8484 c0 -11 3 -14 6 -6 3 7 2 16 -1 19 -3 4 -6 -2 -5 -13z"/>
<path d="M7950 8490 c0 -5 5 -10 10 -10 6 0 10 5 10 10 0 6 -4 10 -10 10 -5 0
-10 -4 -10 -10z"/>
<path d="M2569 8475 c-5 -20 -4 -32 4 -42 7 -9 4 -13 -7 -13 -10 0 -14 -5 -10
-11 3 -6 0 -15 -7 -20 -10 -6 -8 -8 8 -6 12 0 20 4 17 8 -2 4 0 10 6 14 12 7
9 55 -3 55 -4 0 -5 5 -2 10 3 6 4 10 1 10 -3 0 -7 -2 -7 -5z"/>
<path d="M2790 8470 c0 -5 5 -10 11 -10 5 0 7 5 4 10 -3 6 -8 10 -11 10 -2 0
-4 -4 -4 -10z"/>
<path d="M3230 8459 c-22 -18 -22 -19 -3 -10 12 6 25 16 28 21 9 15 3 12 -25
-11z"/>
<path d="M2853 8455 c0 -8 4 -12 9 -9 4 3 8 9 8 15 0 5 -4 9 -8 9 -5 0 -9 -7
-9 -15z"/>
<path d="M3009 8453 c-13 -17 -13 -17 6 -3 11 8 22 16 24 17 2 2 0 3 -6 3 -6
0 -17 -8 -24 -17z"/>
<path d="M3560 8409 c0 -37 -5 -70 -12 -77 -9 -9 -9 -12 0 -12 7 0 12 -10 12
-22 0 -19 -2 -20 -10 -8 -8 13 -10 13 -10 -1 0 -9 3 -19 7 -23 4 -4 8 -21 9
-37 2 -29 1 -30 -18 -12 -11 10 -15 19 -9 21 8 3 7 10 -1 25 -7 12 -11 25 -10
30 3 11 -13 8 -26 -5 -9 -9 -12 -9 -12 1 0 7 -4 10 -9 7 -5 -4 -12 0 -14 6 -4
10 -6 10 -6 1 -1 -7 -8 -13 -17 -13 -8 0 -13 4 -10 8 3 5 -11 7 -30 6 -20 -2
-32 1 -29 6 3 6 -1 7 -9 4 -25 -10 -9 -43 21 -44 7 0 10 7 7 18 -5 13 -4 14 4
3 5 -7 14 -11 20 -7 15 9 22 -7 11 -24 -6 -10 -9 -11 -9 -2 0 6 -4 12 -10 12
-17 0 -11 -14 11 -28 12 -8 18 -9 15 -4 -3 6 0 12 7 15 9 3 12 -4 11 -25 -2
-22 2 -28 12 -24 7 3 13 0 11 -6 -1 -7 15 -15 36 -18 24 -5 37 -3 37 4 0 7 4
6 8 -2 11 -16 72 -33 94 -26 10 3 18 13 18 22 -1 16 -2 16 -14 0 -12 -16 -26
-15 -26 3 0 9 43 24 49 18 3 -2 6 -17 8 -33 2 -22 0 -27 -12 -22 -8 3 -15 1
-15 -4 0 -6 8 -10 18 -10 9 0 34 -9 54 -20 21 -11 44 -17 52 -14 8 3 13 0 13
-8 -1 -7 3 -13 8 -13 6 0 9 7 8 15 -1 8 4 18 10 22 8 5 6 11 -7 21 -13 10 -15
16 -8 21 7 4 12 13 12 19 0 7 -4 6 -10 -3 -8 -13 -10 -12 -10 3 0 19 -15 23
-25 6 -4 -5 0 -18 9 -28 20 -22 20 -27 2 -34 -9 -4 -13 0 -11 11 4 28 -6 35
-21 13 -14 -20 -50 -19 -38 1 3 5 13 7 22 3 9 -3 13 -3 9 1 -4 4 0 15 9 25 18
20 10 41 -14 37 -9 -2 -16 3 -15 10 2 6 0 11 -5 10 -4 0 -18 4 -32 10 -19 8
-21 11 -7 11 10 1 15 6 11 12 -4 8 -9 8 -17 0 -6 -6 -19 -11 -29 -11 -10 0
-18 -7 -18 -15 0 -8 -8 -15 -17 -15 -14 0 -15 2 -4 9 11 7 10 10 -6 15 -19 6
-20 16 -21 112 -1 59 -3 109 -6 112 -3 3 -6 -24 -6 -59z m-80 -139 c0 -5 -5
-10 -11 -10 -5 0 -7 5 -4 10 3 6 8 10 11 10 2 0 4 -4 4 -10z m30 -25 c-6 -7
-10 -17 -9 -21 4 -21 -2 -24 -17 -10 -8 9 -20 14 -25 11 -5 -4 -9 -1 -9 5 0 7
6 10 14 7 9 -4 16 3 20 20 6 20 9 23 22 13 10 -9 11 -16 4 -25z m140 -20 c0
-17 -39 -36 -55 -27 -5 3 3 10 18 15 15 5 25 13 21 18 -3 5 0 9 5 9 6 0 11 -7
11 -15z m52 -37 c-7 -7 -12 -8 -12 -2 0 14 12 26 19 19 2 -3 -1 -11 -7 -17z
m-107 -8 c3 -5 1 -10 -4 -10 -6 0 -11 5 -11 10 0 6 2 10 4 10 3 0 8 -4 11 -10z
m145 6 c0 -2 -7 -9 -15 -16 -13 -11 -14 -10 -9 4 5 14 24 23 24 12z"/>
<path d="M2528 8453 c7 -3 16 -2 19 1 4 3 -2 6 -13 5 -11 0 -14 -3 -6 -6z"/>
<path d="M2790 8426 c0 -2 7 -6 15 -10 8 -3 15 -1 15 4 0 6 -7 10 -15 10 -8 0
-15 -2 -15 -4z"/>
<path d="M7661 8414 c0 -11 3 -14 6 -6 3 7 2 16 -1 19 -3 4 -6 -2 -5 -13z"/>
<path d="M3152 8393 c-2 -27 -6 -33 -24 -34 l-23 0 23 -9 c25 -10 30 -40 7
-40 -8 0 -15 -5 -15 -11 0 -6 7 -9 15 -5 22 8 18 -24 -6 -54 -11 -14 -18 -20
-15 -14 7 13 -21 27 -35 18 -5 -3 -5 -13 1 -25 13 -23 -5 -27 -18 -3 -6 11
-16 14 -31 9 -12 -3 -18 -11 -15 -17 4 -7 2 -8 -5 -4 -6 4 -9 12 -6 17 4 5 1
9 -5 9 -8 0 -10 9 -6 26 l7 26 -24 -26 c-13 -14 -27 -23 -30 -19 -4 3 -7 1 -7
-6 0 -8 7 -10 20 -6 16 5 19 3 13 -11 -5 -13 -3 -15 7 -9 9 5 11 4 6 -3 -4 -7
-4 -12 1 -13 4 0 25 -2 46 -4 25 -3 48 2 71 16 19 11 38 19 42 18 20 -3 35 2
29 10 -3 5 0 13 6 17 7 4 9 3 6 -3 -8 -12 12 -22 31 -16 6 3 12 9 12 14 0 6
-4 8 -9 5 -5 -3 -14 1 -21 9 -7 8 -16 12 -21 9 -5 -3 -9 -2 -10 3 0 4 -2 21
-4 38 -2 16 1 35 7 42 7 9 7 13 0 13 -6 0 -13 15 -15 33 l-4 32 -1 -32z m-52
-163 c0 -5 -2 -10 -4 -10 -3 0 -8 5 -11 10 -3 6 -1 10 4 10 6 0 11 -4 11 -10z
m-40 -31 c0 -5 -4 -9 -10 -9 -5 0 -10 7 -10 16 0 8 5 12 10 9 6 -3 10 -10 10
-16z"/>
<path d="M2645 8390 c-3 -5 -1 -10 4 -10 6 0 11 5 11 10 0 6 -2 10 -4 10 -3 0
-8 -4 -11 -10z"/>
<path d="M3071 8383 c-7 -8 -10 -17 -7 -20 9 -9 29 13 25 25 -2 6 -10 3 -18
-5z"/>
<path d="M3175 8390 c-5 -8 -1 -16 9 -22 9 -5 14 -13 11 -19 -3 -5 1 -6 10 -3
9 4 13 9 11 12 -3 3 0 12 6 21 10 13 10 14 -2 4 -10 -10 -16 -9 -25 4 -9 13
-14 13 -20 3z"/>
<path d="M3300 8396 c0 -2 7 -6 15 -10 8 -3 15 -1 15 4 0 6 -7 10 -15 10 -8 0
-15 -2 -15 -4z"/>
<path d="M3257 8377 c-3 -8 1 -14 8 -14 7 0 11 6 8 14 -3 7 -6 13 -8 13 -2 0
-5 -6 -8 -13z"/>
<path d="M3389 8373 c-13 -17 -13 -17 6 -3 11 8 22 16 24 17 2 2 0 3 -6 3 -6
0 -17 -8 -24 -17z"/>
<path d="M3303 8367 c20 -16 6 -34 -15 -21 -7 4 -5 -2 5 -13 9 -11 17 -25 17
-31 0 -7 4 -12 10 -12 6 0 6 9 0 25 -6 16 -6 25 0 25 6 0 10 -5 10 -11 0 -8 5
-8 15 1 8 7 15 18 14 24 0 7 -2 6 -6 -1 -2 -7 -9 -13 -15 -13 -6 0 -7 8 -4 17
4 10 4 14 0 11 -4 -4 -16 -3 -28 3 -20 9 -20 9 -3 -4z"/>
<path d="M2975 8360 c-3 -5 -1 -10 5 -10 6 0 8 -4 5 -10 -6 -10 2 -13 44 -14
13 -1 26 -7 28 -14 3 -7 -1 -10 -10 -6 -9 3 -20 -3 -26 -15 -10 -17 -9 -20 4
-15 8 4 15 9 15 13 0 4 10 7 22 8 12 1 28 10 37 19 13 15 13 16 1 7 -16 -12
-44 -3 -39 13 1 5 -5 10 -14 12 -9 2 -17 -1 -17 -7 0 -6 -7 -11 -15 -11 -8 0
-14 3 -14 8 5 29 -13 44 -26 22z"/>
<path d="M3483 8355 c0 -7 6 -11 14 -8 7 3 13 6 13 8 0 2 -6 5 -13 8 -8 3 -14
-1 -14 -8z"/>
<path d="M3633 8345 c0 -8 4 -12 9 -9 5 3 6 10 3 15 -9 13 -12 11 -12 -6z"/>
<path d="M2635 8340 c-3 -5 -1 -10 4 -10 6 0 11 5 11 10 0 6 -2 10 -4 10 -3 0
-8 -4 -11 -10z"/>
<path d="M3245 8340 c3 -5 10 -10 16 -10 5 0 9 5 9 10 0 6 -7 10 -16 10 -8 0
-12 -4 -9 -10z"/>
<path d="M3435 8339 c-4 -6 -13 -8 -21 -5 -8 3 -14 1 -14 -4 0 -15 26 -12 40
5 7 8 10 15 7 15 -3 0 -9 -5 -12 -11z"/>
<path d="M7661 8334 c0 -11 3 -14 6 -6 3 7 2 16 -1 19 -3 4 -6 -2 -5 -13z"/>
<path d="M2730 8330 c-8 -5 -10 -10 -5 -10 6 0 17 5 25 10 8 5 11 10 5 10 -5
0 -17 -5 -25 -10z"/>
<path d="M3490 8325 c-7 -9 -9 -19 -5 -23 4 -4 10 -2 12 5 2 7 10 10 17 7 7
-3 13 2 13 11 0 19 -21 19 -37 0z"/>
<path d="M3590 8329 c0 -5 5 -7 10 -4 6 3 10 8 10 11 0 2 -4 4 -10 4 -5 0 -10
-5 -10 -11z"/>
<path d="M2745 8313 c-26 -6 -39 -19 -27 -27 5 -3 21 3 33 14 13 11 22 19 19
19 -3 -1 -14 -3 -25 -6z"/>
<path d="M2975 8310 c3 -5 8 -10 11 -10 2 0 4 5 4 10 0 6 -5 10 -11 10 -5 0
-7 -4 -4 -10z"/>
<path d="M3185 8309 c-12 -18 27 -51 53 -44 33 8 53 -7 22 -17 -20 -6 -18 -7
10 -4 22 2 45 -3 60 -14 37 -25 50 -32 50 -26 0 16 -111 77 -137 76 -42 -3
-50 -1 -33 10 13 8 12 10 -3 10 -10 0 -15 5 -12 10 3 6 4 10 1 10 -3 0 -8 -5
-11 -11z"/>
<path d="M3630 8316 c0 -2 7 -7 16 -10 8 -3 12 -2 9 4 -6 10 -25 14 -25 6z"/>
<path d="M3586 8295 c4 -8 10 -15 15 -15 4 0 6 7 3 15 -4 8 -10 15 -15 15 -4
0 -6 -7 -3 -15z"/>
<path d="M3673 8295 c0 -8 4 -12 9 -9 5 3 6 10 3 15 -9 13 -12 11 -12 -6z"/>
<path d="M3760 8295 c0 -8 4 -15 10 -15 5 0 7 7 4 15 -4 8 -8 15 -10 15 -2 0
-4 -7 -4 -15z"/>
<path d="M7330 8306 c0 -2 7 -7 16 -10 8 -3 12 -2 9 4 -6 10 -25 14 -25 6z"/>
<path d="M3700 8293 c0 -6 5 -15 10 -18 6 -4 8 -10 5 -15 -3 -5 -1 -11 4 -14
12 -8 8 14 -7 39 -6 11 -12 15 -12 8z"/>
<path d="M7676 8291 c-19 -7 -19 -8 0 -13 13 -3 21 0 21 8 0 8 -1 14 -1 13 -1
0 -10 -4 -20 -8z"/>
<path d="M3083 8283 c-21 -8 -15 -22 7 -18 11 2 20 -2 20 -8 0 -7 4 -6 10 3
13 21 -9 35 -37 23z"/>
<path d="M3636 8273 c-6 -14 -5 -15 5 -6 7 7 10 15 7 18 -3 3 -9 -2 -12 -12z"/>
<path d="M3806 8277 c3 -10 9 -15 12 -12 3 3 0 11 -7 18 -10 9 -11 8 -5 -6z"/>
<path d="M7768 8283 c7 -3 16 -2 19 1 4 3 -2 6 -13 5 -11 0 -14 -3 -6 -6z"/>
<path d="M2725 8260 c3 -4 -1 -11 -7 -13 -7 -3 -8 -6 -2 -6 5 -1 18 5 28 12
16 12 16 13 -4 14 -11 1 -18 -2 -15 -7z"/>
<path d="M2935 8260 c3 -5 8 -10 11 -10 2 0 4 5 4 10 0 6 -5 10 -11 10 -5 0
-7 -4 -4 -10z"/>
<path d="M3025 8250 c3 -5 8 -10 11 -10 2 0 4 5 4 10 0 6 -5 10 -11 10 -5 0
-7 -4 -4 -10z"/>
<path d="M7272 8244 c-7 -8 -8 -14 -3 -14 10 0 25 19 20 25 -2 1 -10 -3 -17
-11z"/>
<path d="M7302 8248 c5 -15 28 -23 28 -10 0 5 -7 13 -16 16 -10 4 -14 1 -12
-6z"/>
<path d="M7376 8252 c2 -3 -1 -11 -7 -19 -8 -9 -8 -13 -1 -13 16 0 26 20 15
30 -6 4 -8 5 -7 2z"/>
<path d="M7653 8253 c9 -2 15 -8 12 -13 -3 -4 5 -6 17 -2 21 5 21 6 2 13 -10
4 -26 7 -34 7 -10 0 -9 -2 3 -5z"/>
<path d="M7760 8239 c0 -5 5 -7 10 -4 6 3 10 8 10 11 0 2 -4 4 -10 4 -5 0 -10
-5 -10 -11z"/>
<path d="M2740 8224 c0 -13 -3 -14 -14 -5 -11 9 -12 6 -8 -14 4 -25 5 -25 23
-9 20 18 25 44 9 44 -5 0 -10 -7 -10 -16z"/>
<path d="M3744 8229 c-7 -12 25 -32 41 -25 21 8 9 32 -16 32 -11 0 -22 -3 -25
-7z"/>
<path d="M3812 8229 c2 -7 10 -15 17 -17 8 -3 12 1 9 9 -2 7 -10 15 -17 17 -8
3 -12 -1 -9 -9z"/>
<path d="M7490 8229 c0 -5 5 -7 10 -4 6 3 10 8 10 11 0 2 -4 4 -10 4 -5 0 -10
-5 -10 -11z"/>
<path d="M7310 8209 c0 -5 5 -7 10 -4 6 3 10 8 10 11 0 2 -4 4 -10 4 -5 0 -10
-5 -10 -11z"/>
<path d="M2947 8204 c-12 -12 -8 -34 6 -34 8 0 19 -10 26 -22 6 -13 9 -15 7
-5 -4 12 1 17 17 18 19 1 20 2 3 6 -11 3 -27 14 -35 25 -9 11 -20 16 -24 12z"/>
<path d="M7765 8200 c-3 -5 -1 -10 4 -10 6 0 11 5 11 10 0 6 -2 10 -4 10 -3 0
-8 -4 -11 -10z"/>
<path d="M3882 8183 c-19 -13 -25 -14 -32 -3 -4 7 -13 9 -19 5 -8 -5 -9 -11
-2 -19 7 -8 7 -24 2 -42 -10 -37 -2 -96 13 -91 6 2 19 -7 29 -20 23 -29 37
-29 37 -1 0 17 3 19 12 10 10 -10 10 -17 0 -33 -19 -29 -9 -33 19 -8 13 11 18
18 12 14 -8 -4 -13 0 -13 10 0 13 6 16 23 11 18 -4 23 -1 23 14 0 21 -16 28
-16 8 0 -7 -5 -5 -11 5 -5 9 -15 17 -20 17 -6 0 -7 -6 -3 -12 4 -7 -2 -4 -13
7 -16 15 -18 24 -11 39 9 16 7 18 -7 13 -9 -4 -18 -7 -21 -7 -2 0 -1 -7 2 -15
5 -12 2 -14 -12 -8 -17 6 -17 5 -5 -10 7 -9 17 -15 21 -12 5 3 11 1 15 -5 3
-5 -1 -10 -9 -10 -10 0 -14 -6 -10 -17 3 -10 -5 -1 -16 21 -18 31 -19 40 -8
47 7 5 9 9 3 9 -11 1 34 23 50 24 6 1 15 -7 20 -18 11 -22 35 -33 35 -17 0 6
-6 11 -14 11 -7 0 -16 8 -18 18 -6 21 -67 29 -79 10 -4 -7 -11 -10 -14 -7 -9
9 6 39 20 39 6 0 20 9 30 20 22 24 18 25 -13 3z"/>
<path d="M7340 8190 c0 -5 5 -10 11 -10 5 0 7 5 4 10 -3 6 -8 10 -11 10 -2 0
-4 -4 -4 -10z"/>
<path d="M4026 8153 c-6 -14 -5 -15 5 -6 7 7 10 15 7 18 -3 3 -9 -2 -12 -12z"/>
<path d="M3955 8150 c4 -6 10 -8 15 -5 5 3 13 -3 19 -12 6 -10 11 -13 11 -7 0
5 -5 15 -12 22 -15 15 -42 16 -33 2z"/>
<path d="M7490 8135 c0 -8 4 -15 9 -15 5 0 11 7 15 15 3 9 0 15 -9 15 -8 0
-15 -7 -15 -15z"/>
<path d="M3955 8120 c-3 -5 -1 -10 4 -10 6 0 11 5 11 10 0 6 -2 10 -4 10 -3 0
-8 -4 -11 -10z"/>
<path d="M4000 8041 c0 -5 5 -13 10 -16 6 -3 10 -2 10 4 0 5 -4 13 -10 16 -5
3 -10 2 -10 -4z"/>
<path d="M4040 8041 c0 -5 7 -12 16 -15 21 -8 24 -8 24 5 0 5 -4 7 -10 4 -5
-3 -10 -1 -10 4 0 6 -4 11 -10 11 -5 0 -10 -4 -10 -9z"/>
<path d="M2410 5865 c0 -8 -6 -34 -14 -57 -7 -24 -21 -70 -30 -103 -10 -33
-42 -139 -71 -235 -51 -167 -67 -230 -58 -230 7 0 111 224 122 265 37 125 49
190 55 278 3 53 3 97 1 97 -3 0 -5 -7 -5 -15z"/>
<path d="M2339 4118 c-4 -65 -73 -275 -130 -397 -27 -57 -49 -106 -49 -110 0
-3 -11 -27 -25 -53 -14 -26 -34 -71 -45 -100 -12 -29 -29 -71 -39 -93 -10 -22
-23 -56 -29 -75 -5 -19 -19 -59 -31 -88 -38 -94 -71 -252 -75 -357 -3 -101 9
-233 23 -248 8 -8 63 54 110 122 36 54 121 222 121 241 0 9 4 20 9 25 5 6 17
39 26 75 9 36 21 70 26 76 5 7 12 29 15 50 2 22 13 75 24 120 19 80 44 254 54
369 17 197 29 455 22 455 -3 0 -6 -6 -7 -12z"/>
<path d="M2007 2596 c-83 -114 -203 -193 -363 -237 -136 -37 -312 -15 -405 52
-31 21 -31 21 -20 1 33 -63 212 -153 330 -168 43 -5 56 -2 114 29 74 40 163
106 225 166 45 44 67 55 36 19 -51 -62 -84 -92 -141 -129 -35 -23 -63 -43 -63
-46 0 -5 57 27 79 44 9 7 35 26 59 43 41 29 110 124 105 142 -2 4 1 8 6 8 9 0
85 119 80 125 -2 2 -21 -20 -42 -49z"/>
<path d="M7955 4458 c3 -31 9 -67 14 -80 l10 -23 0 25 c0 14 -6 50 -14 80
l-15 55 5 -57z"/>
<path d="M7995 4339 c5 -13 12 -37 16 -54 4 -16 19 -70 33 -120 75 -264 72
-233 50 -480 -4 -43 -2 -85 5 -110 37 -126 44 -290 24 -545 -11 -140 -8 -164
31 -246 20 -43 57 -105 81 -140 45 -63 150 -164 170 -164 6 0 17 -6 24 -12 6
-7 15 -13 19 -14 4 0 37 -4 74 -8 57 -6 76 -4 137 17 141 49 211 160 211 333
0 135 -49 267 -157 421 -23 35 -43 66 -43 71 0 4 -8 15 -17 23 -57 50 -330
424 -440 601 -43 69 -160 301 -163 323 0 3 -10 24 -20 47 -11 24 -20 48 -20
55 0 6 -5 15 -11 19 -8 4 -9 -1 -4 -17z"/>
<path d="M7981 4255 c-1 -51 11 -137 39 -290 13 -66 28 -151 34 -190 6 -38 15
-65 19 -58 12 20 0 235 -16 283 -13 37 -39 141 -70 275 -3 11 -5 2 -6 -20z"/>
<path d="M2645 8210 c3 -5 8 -10 11 -10 2 0 4 5 4 10 0 6 -5 10 -11 10 -5 0
-7 -4 -4 -10z"/>
<path d="M7770 8130 c0 -5 5 -10 11 -10 5 0 7 5 4 10 -3 6 -8 10 -11 10 -2 0
-4 -4 -4 -10z"/>
<path d="M3659 7013 c-13 -16 -12 -17 4 -4 9 7 17 15 17 17 0 8 -8 3 -21 -13z"/>
<path d="M3568 6989 c-7 -5 4 -6 26 -4 22 3 42 7 44 10 8 7 -57 2 -70 -6z"/>
<path d="M7765 7930 c-3 -5 -1 -10 4 -10 6 0 11 5 11 10 0 6 -2 10 -4 10 -3 0
-8 -4 -11 -10z"/>
<path d="M6347 6755 c3 -8 9 -12 14 -9 12 7 11 11 -5 17 -10 4 -13 1 -9 -8z"/>
<path d="M7070 6599 c0 -5 5 -7 10 -4 6 3 10 8 10 11 0 2 -4 4 -10 4 -5 0 -10
-5 -10 -11z"/>
<path d="M4031 2174 c44 -46 111 -93 174 -122 45 -20 47 -20 25 -2 -14 11 -28
20 -33 20 -12 0 -110 70 -147 106 -48 45 -63 44 -19 -2z"/>
<path d="M4270 2030 c8 -5 20 -10 25 -10 6 0 3 5 -5 10 -8 5 -19 10 -25 10 -5
0 -3 -5 5 -10z"/>
<path d="M6229 2174 c-13 -14 -52 -44 -86 -66 -69 -44 -78 -54 -35 -36 61 27
163 110 150 123 -2 3 -15 -7 -29 -21z"/>
</g>
</svg>
