<?xml version="1.0" standalone="no"?>
<!DOCTYPE svg PUBLIC "-//W3C//DTD SVG 20010904//EN"
 "http://www.w3.org/TR/2001/REC-SVG-20010904/DTD/svg10.dtd">
<svg version="1.0" xmlns="http://www.w3.org/2000/svg"
 width="1024.000000pt" height="1024.000000pt" viewBox="0 0 1024.000000 1024.000000"
 preserveAspectRatio="xMidYMid meet">

<g transform="translate(0.000000,1024.000000) scale(0.100000,-0.100000)"
fill="#000000" stroke="none">
<path d="M0 5120 l0 -5120 5120 0 5120 0 0 5120 0 5120 -5120 0 -5120 0 0
-5120z m5760 3774 c-126 -67 -222 -129 -250 -160 l-25 -28 28 18 c15 9 47 27
70 39 23 13 74 42 112 64 39 23 95 49 125 57 84 24 224 46 233 37 4 -5 -12
-11 -36 -14 -24 -3 -66 -14 -93 -23 -65 -22 -232 -113 -238 -131 -4 -11 -1
-11 14 -3 11 6 20 9 20 6 0 -3 37 9 83 25 152 56 180 61 103 15 -25 -14 -48
-31 -52 -38 -4 -6 -3 -8 4 -4 20 12 142 56 142 51 0 -3 -37 -23 -82 -46 -158
-76 -123 -76 90 2 138 51 203 64 117 24 -65 -31 -45 -31 52 -1 130 41 298 85
344 91 24 4 96 15 159 25 130 21 257 34 249 25 -4 -3 -43 -12 -89 -20 -45 -8
-134 -28 -198 -45 -122 -31 -346 -109 -338 -117 2 -2 62 8 133 23 122 27 140
28 403 28 158 0 284 -4 297 -9 15 -7 -52 -10 -215 -11 -181 0 -254 -4 -307
-17 l-70 -16 123 3 c67 2 122 1 122 -3 0 -3 -44 -15 -97 -25 -54 -10 -116 -24
-138 -32 -38 -13 -36 -13 55 -10 l95 5 -90 -24 c-106 -27 -96 -31 23 -9 93 17
115 15 50 -7 -41 -13 -31 -14 162 -20 194 -7 335 -21 348 -34 3 -3 -48 -3
-114 1 -66 4 -151 3 -189 -2 l-70 -8 80 -11 80 -11 -57 -7 c-97 -12 -114 -28
-50 -45 30 -9 20 -10 -53 -6 -65 4 -86 3 -75 -5 8 -6 23 -11 34 -11 10 0 37
-6 60 -12 l41 -13 -30 -7 c-26 -6 -24 -7 15 -6 138 0 194 -3 181 -11 -7 -5
-21 -6 -31 -4 -10 3 -21 0 -24 -6 -4 -6 -5 -11 -3 -11 24 0 272 -32 276 -36 2
-2 -22 -4 -55 -5 l-59 -1 60 -15 c33 -8 83 -19 110 -23 40 -7 29 -8 -57 -7
-109 3 -140 -5 -70 -17 20 -3 98 -19 172 -36 133 -29 128 -31 -42 -13 -40 4
-58 2 -58 -6 0 -6 12 -11 28 -12 15 0 59 -11 97 -24 l70 -24 -55 4 -55 4 45
-10 c25 -6 76 -17 115 -25 83 -17 208 -54 203 -59 -2 -2 -53 5 -113 16 -122
23 -228 38 -263 39 -35 0 -17 -17 26 -25 70 -11 72 -26 2 -20 -50 5 -61 4 -47
-5 9 -6 36 -15 60 -19 35 -7 26 -9 -55 -10 -58 -1 -98 -5 -98 -11 0 -5 12 -11
28 -11 46 -2 95 -9 100 -14 3 -3 -24 -5 -59 -5 -60 -1 -63 -2 -39 -15 14 -8
72 -33 129 -57 109 -45 125 -62 26 -28 -108 37 -75 10 100 -82 105 -55 126
-69 71 -48 -14 5 -26 8 -26 6 0 -2 54 -34 120 -71 66 -38 120 -73 120 -79 0
-5 10 -21 23 -34 24 -27 14 -24 -48 18 -61 40 -66 43 -63 29 6 -23 -19 -19
-57 11 -51 41 -62 38 -28 -7 l27 -38 -34 30 c-19 17 -27 21 -17 9 31 -37 18
-46 -20 -15 -35 29 -82 43 -68 21 7 -11 103 -62 108 -58 2 2 23 -14 47 -35
l45 -38 -40 24 c-22 13 -49 27 -60 30 -32 11 41 -46 93 -73 77 -40 216 -121
227 -131 13 -13 -29 3 -92 34 -26 13 -54 22 -62 19 -8 -2 -11 -1 -8 4 3 5 -5
9 -16 10 -12 0 -31 4 -42 9 -21 9 61 -58 108 -88 46 -30 24 -31 -33 -2 -62 32
-179 71 -235 79 l-40 6 45 -21 c146 -69 271 -132 268 -135 -2 -2 -35 8 -73 22
-94 35 -211 70 -260 78 l-40 6 36 -32 c20 -18 96 -60 168 -92 72 -32 130 -61
128 -63 -2 -2 -61 13 -131 33 -70 20 -130 34 -132 31 -3 -3 28 -32 68 -65 90
-73 121 -109 52 -60 -53 37 -102 59 -90 39 4 -5 72 -67 151 -137 80 -69 145
-129 145 -131 0 -3 -14 7 -31 21 -28 24 -43 30 -52 24 -2 -2 -19 8 -38 22 -19
14 -51 34 -72 45 -22 11 -50 31 -64 45 -24 23 -25 23 -14 3 14 -28 14 -36 -1
-28 -7 4 18 -23 57 -58 38 -36 68 -68 65 -71 -3 -2 -25 8 -49 25 -24 16 -55
29 -68 29 -12 0 -22 4 -21 9 2 4 -8 18 -22 30 -21 18 -22 20 -5 15 18 -5 18
-4 -2 14 -22 19 -31 42 -16 42 3 0 15 -7 25 -17 27 -24 22 -2 -7 30 -14 15
-34 27 -45 27 -10 0 -21 4 -25 9 -3 6 9 7 30 4 19 -3 35 -3 35 0 0 4 -20 27
-45 53 -25 25 -45 49 -45 53 0 4 -5 12 -12 19 -7 7 -12 25 -13 40 0 36 -41 55
-215 98 -240 59 -552 87 -610 55 -15 -9 -20 -16 -13 -18 10 -4 10 -10 2 -25
-9 -16 -7 -20 10 -25 20 -5 21 -6 4 -20 -16 -12 -4 -13 92 -9 l110 5 -72 -18
c-39 -11 -77 -21 -82 -22 -6 -2 43 -4 109 -4 70 0 124 -4 128 -10 4 -6 48 -23
97 -39 84 -26 210 -84 202 -93 -2 -2 -29 8 -59 21 -30 13 -86 32 -124 41 -38
9 -77 19 -86 21 -25 7 -22 -13 3 -21 11 -4 18 -9 16 -11 -2 -3 -29 4 -58 16
-66 25 -202 37 -244 20 l-30 -12 25 -13 c23 -13 23 -14 5 -16 -11 -1 -2 -5 20
-9 94 -19 158 -39 174 -55 15 -17 14 -17 -17 -11 l-33 6 53 -49 c45 -41 65
-70 106 -153 10 -22 -9 -3 -31 31 -56 84 -162 147 -220 130 -42 -12 -45 -18
-17 -39 19 -15 21 -20 9 -20 -9 0 -21 -6 -27 -13 -9 -10 2 -16 51 -27 l62 -14
-60 -6 c-36 -3 -50 -7 -36 -10 24 -5 39 -40 18 -40 -7 -1 0 -6 15 -13 31 -14
94 -103 114 -162 l14 -40 -26 33 c-27 34 -77 66 -88 55 -3 -4 9 -19 26 -34
l33 -28 -42 20 c-42 21 -70 18 -56 -4 4 -7 6 -20 5 -29 -2 -12 2 -16 11 -12 8
3 18 1 21 -5 4 -6 -5 -13 -19 -17 -14 -3 -30 -14 -35 -24 -14 -26 -13 -30 9
-30 48 0 65 -29 18 -31 -16 0 -10 -5 19 -17 46 -19 124 -71 124 -82 0 -4 -18
2 -40 13 -23 11 -62 21 -88 24 -45 4 -45 3 26 -21 41 -13 98 -41 128 -60 66
-44 72 -57 7 -16 -50 32 -111 55 -120 46 -3 -3 5 -10 18 -15 72 -28 137 -63
164 -86 29 -27 29 -27 5 -20 -14 3 -47 15 -75 25 -96 36 -154 50 -204 50 -48
0 -51 -1 -39 -20 11 -16 10 -22 -6 -33 -17 -13 -15 -15 25 -25 24 -6 53 -18
64 -26 l20 -15 -20 -2 c-11 0 5 -9 35 -20 40 -13 45 -17 20 -13 -32 5 -30 2
27 -31 79 -46 86 -56 20 -34 -56 20 -172 26 -162 9 3 -5 -1 -10 -9 -10 -21 0
-20 -10 2 -26 9 -7 18 -17 18 -23 1 -6 2 -17 3 -24 0 -8 31 -26 69 -40 37 -15
105 -52 152 -83 47 -30 108 -68 135 -85 73 -42 114 -78 50 -43 -27 15 -59 32
-70 39 -11 7 -47 22 -80 33 -45 17 -61 19 -67 9 -6 -9 -10 -9 -16 1 -5 7 -31
20 -58 28 -57 17 -142 29 -108 14 12 -4 24 -15 27 -24 5 -12 0 -16 -21 -17
-24 0 -25 -1 -7 -9 15 -6 7 -9 -29 -9 -46 -1 -48 -2 -30 -16 15 -11 16 -15 4
-15 -8 -1 1 -9 20 -18 59 -29 120 -65 120 -73 0 -3 -21 -2 -46 3 -48 10 -71 3
-41 -13 9 -6 15 -14 12 -18 -2 -5 11 -17 30 -27 40 -21 46 -35 13 -27 -21 5
-20 2 7 -21 17 -15 47 -38 68 -53 20 -14 37 -27 37 -29 0 -1 -20 6 -45 17 -62
28 -79 19 -21 -10 25 -14 44 -26 42 -28 -2 -3 -21 4 -43 15 -55 29 -120 44
-154 37 l-28 -6 23 -24 c12 -12 44 -32 69 -43 49 -22 66 -39 21 -22 -47 18
-49 9 -4 -15 25 -13 65 -42 90 -65 l45 -41 -43 27 c-77 49 -54 17 27 -37 88
-58 109 -85 36 -44 -25 14 -49 25 -53 25 -4 0 29 -34 73 -76 44 -42 64 -63 45
-47 -48 39 -187 109 -231 117 -31 6 -39 3 -53 -18 -11 -17 -12 -27 -5 -32 8
-4 7 -9 -2 -15 -10 -6 -7 -10 10 -17 17 -6 21 -11 12 -16 -9 -6 -8 -11 6 -22
16 -12 15 -13 -17 -14 -35 -1 -35 -1 -13 -17 20 -14 21 -16 7 -31 -15 -14 -12
-18 27 -38 l44 -23 -35 -1 -35 -1 35 -30 c32 -28 33 -30 10 -24 l-25 7 27 -19
c34 -23 211 -174 220 -187 14 -21 -3 -18 -36 8 -47 35 -64 33 -26 -4 36 -35
31 -39 -11 -9 -16 11 -38 22 -49 24 -11 2 -25 7 -32 11 -7 5 -8 3 -3 -5 5 -8
-3 -7 -23 3 -40 21 -112 32 -112 18 0 -6 12 -18 28 -26 15 -8 21 -15 15 -16
-21 0 -11 -48 12 -55 19 -6 19 -7 -4 -14 -23 -6 -23 -7 12 -26 42 -22 39 -39
-6 -30 -23 4 -19 0 18 -16 72 -30 77 -39 17 -32 -66 7 -67 -7 -1 -30 53 -19
133 -83 123 -98 -3 -5 -22 4 -42 20 -30 23 -122 58 -122 46 0 -2 20 -15 44
-29 42 -24 136 -123 136 -142 0 -5 9 -20 20 -34 11 -14 20 -29 20 -35 0 -5 -8
2 -17 15 -9 14 -23 29 -30 33 -7 4 -13 14 -13 21 0 15 -40 69 -46 63 -2 -2 10
-30 26 -62 l30 -59 -37 34 c-20 19 -44 41 -52 49 -23 21 -103 71 -114 71 -5 0
1 -9 14 -21 l24 -20 -22 6 c-18 5 -22 3 -17 -9 4 -11 0 -16 -12 -17 -11 0 -14
-3 -6 -6 6 -2 12 -11 12 -19 0 -7 11 -21 25 -30 28 -18 24 -38 -7 -28 -18 5
-18 4 3 -18 13 -12 60 -47 104 -76 78 -52 79 -54 40 -47 -22 4 -53 10 -70 15
-79 22 -84 22 -82 -2 1 -13 8 -30 16 -38 13 -13 14 -13 8 3 -12 31 10 18 32
-19 13 -22 17 -34 9 -32 -42 16 -60 19 -54 10 11 -18 -5 -42 -28 -42 -21 -1
-21 -1 3 -20 14 -13 18 -20 10 -21 -8 0 2 -8 21 -16 34 -16 34 -16 11 -22 -23
-6 -20 -10 45 -71 38 -35 53 -53 34 -40 l-35 24 38 -42 c39 -44 49 -64 20 -41
-10 8 4 -12 30 -44 26 -33 47 -63 47 -69 0 -5 -24 11 -52 38 -29 26 -77 63
-106 82 -50 34 -53 34 -66 16 -12 -16 -11 -20 7 -33 12 -8 29 -23 37 -34 8
-11 31 -38 50 -60 26 -30 30 -37 13 -29 -12 7 -25 17 -29 23 -3 6 -16 8 -29 5
-14 -4 -28 0 -35 9 -7 8 -17 15 -22 15 -5 0 -2 -7 6 -16 25 -24 38 -53 30 -66
-4 -6 -3 -8 3 -5 6 4 14 0 17 -9 3 -9 2 -12 -5 -9 -11 7 -3 -37 12 -67 23 -43
6 -48 -18 -5 -29 53 -45 49 -18 -3 20 -38 17 -43 -16 -26 -38 19 -60 17 -48
-5 7 -15 6 -17 -6 -13 -21 8 -19 -15 5 -72 18 -40 18 -45 4 -33 -16 13 -16 12
-5 -9 7 -12 16 -20 21 -17 4 3 6 -4 3 -16 -5 -19 -8 -18 -34 13 -22 26 -28 29
-29 15 0 -10 7 -32 16 -48 8 -17 13 -33 10 -37 -3 -3 -6 1 -6 8 0 7 -3 11 -6
8 -3 -3 9 -34 26 -68 38 -74 35 -99 -4 -40 -17 27 -31 38 -35 31 -8 -12 -50
28 -71 67 -6 13 -14 21 -17 19 -2 -3 1 -15 7 -28 7 -12 14 -36 15 -53 2 -17 6
-44 10 -61 6 -29 6 -29 -16 8 -28 46 -39 47 -39 5 l-1 -33 -15 28 c-8 15 -17
27 -20 27 -6 0 -4 -12 12 -75 4 -16 1 -15 -11 5 -16 24 -16 24 -12 -27 2 -29
0 -53 -5 -53 -5 0 -19 22 -31 50 -24 54 -37 65 -29 25 3 -18 0 -25 -12 -25 -9
0 -16 -7 -16 -16 0 -13 -3 -14 -15 -4 -8 7 -22 10 -30 6 -10 -4 -15 1 -15 14
0 11 -4 20 -9 20 -5 0 -8 -24 -5 -52 2 -29 1 -47 -2 -40 -10 22 -23 13 -26
-20 l-4 -33 -13 42 c-11 33 -17 40 -27 32 -7 -6 -15 -27 -17 -47 -3 -32 -5
-34 -12 -14 -11 33 -25 27 -25 -11 0 -49 -13 -54 -26 -10 l-11 38 -8 -49 -8
-49 -13 29 -12 29 -1 -35 c-1 -40 -17 -30 -24 15 -3 24 -4 21 -6 -12 -1 -49
-15 -57 -26 -15 -8 28 -9 27 -20 -21 -5 -24 -8 -27 -20 -17 -8 7 -15 24 -16
39 -1 23 -2 23 -11 -8 -7 -26 -12 -31 -18 -21 -6 9 -10 -3 -12 -35 l-3 -50
-14 45 c-7 25 -17 54 -21 65 -8 19 -9 19 -9 1 -1 -17 -4 -16 -25 7 -27 29 -36
21 -36 -34 0 -34 -17 -39 -22 -6 -2 12 -7 20 -12 19 -5 -2 -12 2 -16 9 -5 7
-11 -13 -16 -47 -4 -32 -9 -53 -11 -46 -3 6 -8 10 -13 7 -5 -3 -15 14 -23 37
l-15 43 -1 -34 c-1 -27 -4 -31 -15 -22 -8 7 -18 28 -22 49 l-8 37 -6 -45 -6
-45 -11 35 c-11 32 -12 33 -18 13 -12 -37 -27 -27 -19 12 4 23 2 35 -5 35 -6
0 -11 -9 -11 -19 0 -11 -4 -23 -10 -26 -5 -3 -10 -25 -10 -48 l0 -42 -20 25
-20 25 -1 -35 -1 -35 -9 30 c-4 17 -11 52 -15 80 -5 46 -7 48 -20 30 -8 -10
-14 -28 -15 -39 -1 -18 -2 -17 -9 4 l-7 25 -11 -25 c-10 -24 -11 -23 -13 15
l-1 40 -13 -50 -12 -50 -10 45 c-8 33 -11 38 -12 18 -1 -15 -5 -30 -11 -33 -5
-3 -10 -27 -10 -53 0 -66 -18 -41 -26 36 -4 34 -9 61 -11 59 -2 -3 -7 -24 -12
-48 -8 -37 -10 -41 -16 -21 -4 12 -11 22 -16 22 -5 0 -9 15 -10 33 l-1 32 -12
-37 c-16 -52 -26 -57 -26 -14 0 42 -19 41 -21 -2 -1 -25 -2 -25 -9 6 -10 44
-18 50 -26 18 -7 -30 -23 -25 -25 7 -1 20 -2 20 -6 3 -3 -11 -11 -26 -19 -34
-12 -11 -14 -9 -14 20 l0 33 -22 -43 c-15 -28 -24 -38 -30 -30 -6 10 -8 9 -8
-2 0 -13 -1 -13 -10 0 -5 8 -10 40 -10 70 0 39 -3 51 -10 40 -5 -8 -10 -10
-10 -5 0 25 -40 -59 -40 -85 0 -26 -2 -28 -22 -21 -17 6 -25 19 -29 47 -6 39
-6 39 -8 -10 -1 -56 -11 -58 -13 -3 -1 38 -18 42 -18 4 0 -18 -2 -19 -10 -7
-7 11 -10 7 -10 -17 0 -23 -4 -31 -17 -29 -9 2 -20 11 -23 21 -6 17 -7 16 -14
-6 -7 -23 -8 -23 -16 -4 -5 11 -9 32 -9 47 -2 46 -18 40 -27 -10 -4 -26 -9
-39 -12 -29 -4 18 -4 18 -17 0 -13 -17 -15 -15 -22 17 l-7 35 -7 -30 -6 -30
-11 25 c-6 14 -11 19 -11 13 -2 -30 -20 -10 -23 25 l-3 37 -14 -42 c-13 -39
-31 -58 -31 -33 0 18 -20 11 -20 -7 -1 -10 -7 -29 -14 -43 l-14 -25 -7 40 c-9
54 -13 65 -14 37 -2 -40 -21 -13 -21 29 0 35 -2 39 -14 26 -8 -8 -18 -32 -22
-53 -5 -26 -9 -33 -13 -22 -6 18 -35 10 -30 -8 1 -5 -5 -10 -13 -12 -10 -2
-19 7 -25 24 l-9 28 -22 -22 c-21 -21 -22 -21 -22 -3 0 11 5 21 12 23 9 3 9 6
0 12 -8 4 -15 -9 -23 -40 -11 -42 -13 -45 -25 -29 -12 16 -14 14 -20 -24 -10
-62 -28 -45 -37 35 -5 38 -13 74 -19 79 -8 7 -9 4 -4 -9 5 -15 4 -17 -8 -7
-12 10 -17 4 -29 -31 -10 -30 -19 -42 -31 -40 -12 2 -16 -5 -16 -33 0 -49 -17
-44 -23 8 -3 23 -10 62 -15 87 -8 44 -9 44 -17 17 -5 -18 -10 -25 -15 -17 -4
7 -15 -6 -26 -34 l-19 -46 -6 42 -5 43 -13 -47 c-9 -33 -17 -45 -27 -41 -11 4
-13 16 -8 49 7 54 -8 57 -29 7 -13 -34 -15 -35 -16 -13 -1 25 -17 50 -32 50
-4 0 -10 -18 -14 -41 l-7 -41 -21 34 -21 33 -6 -25 c-5 -23 -6 -24 -13 -5 -7
16 -10 17 -17 5 -6 -9 -10 -10 -10 -3 0 6 -9 9 -20 6 -16 -4 -20 0 -20 21 0
16 -4 25 -10 21 -5 -3 -10 -17 -10 -31 0 -14 -4 -23 -10 -19 -6 3 -13 -1 -17
-11 -6 -16 -7 -15 -20 2 -7 10 -13 12 -13 5 0 -7 -4 -9 -10 -6 -5 3 -10 31
-10 62 0 59 -7 62 -27 10 -11 -31 -12 -29 -12 30 -1 34 3 73 9 87 14 38 5 32
-31 -21 -18 -26 -34 -42 -37 -35 -2 7 -8 10 -13 7 -5 -4 -7 0 -5 7 2 7 7 28
10 47 5 28 4 32 -8 21 -8 -6 -20 -27 -26 -46 -6 -19 -15 -34 -20 -34 -4 0 -11
-10 -15 -22 -8 -22 -8 -22 -12 4 -3 18 -9 25 -19 21 -10 -3 -14 2 -14 18 0 23
-1 22 -19 -7 -10 -17 -21 -40 -24 -50 -4 -10 -5 0 -4 23 1 23 -1 39 -6 36 -11
-7 1 75 18 124 14 40 10 60 -6 31 -16 -29 -60 -78 -70 -78 -5 0 -9 5 -9 11 0
5 4 8 10 4 5 -3 14 14 20 37 5 24 17 57 25 73 13 25 9 23 -26 -14 -22 -25 -51
-69 -65 -98 -28 -62 -30 -75 -8 -47 15 19 15 19 6 -1 -6 -11 -13 -42 -18 -70
-5 -34 -9 -44 -13 -32 -8 23 -5 224 4 252 3 11 -1 7 -10 -9 -10 -16 -19 -47
-22 -69 -6 -54 -22 -85 -34 -66 -13 20 -11 1 2 -23 8 -15 8 -19 0 -14 -6 4
-11 1 -11 -8 0 -8 -4 -17 -8 -20 -12 -7 3 104 22 162 10 28 24 56 32 62 7 7
14 18 14 25 0 21 59 128 88 158 29 31 27 32 -19 13 -19 -7 -39 -12 -44 -10 -6
3 -24 -10 -40 -26 -23 -24 -26 -30 -10 -24 16 6 18 5 8 -7 -6 -8 -11 -30 -12
-49 0 -39 -34 -134 -43 -124 -4 3 -4 -2 -2 -13 3 -11 -5 -31 -20 -48 -14 -17
-32 -48 -40 -70 -18 -51 -19 -29 -2 60 17 83 13 96 -8 29 -16 -54 -21 -32 -6
31 5 22 5 44 1 48 -5 5 -12 -15 -17 -45 l-8 -53 -7 40 c-4 22 -4 55 -2 73 8
48 -14 40 -27 -10 -28 -112 -33 -72 -9 71 13 77 11 91 -7 61 -14 -24 -14 -24
-8 15 4 22 11 48 16 58 31 60 -45 -18 -91 -93 -11 -19 -21 -29 -21 -21 0 11
-4 9 -15 -5 -14 -18 -14 -17 -9 12 5 26 2 32 -17 37 -25 7 -38 -6 -65 -60 -9
-18 -22 -33 -30 -33 -7 0 -21 -14 -29 -31 -9 -16 -21 -29 -28 -26 -13 4 -30
-15 -73 -88 -42 -69 -56 -124 -58 -229 -1 -60 -4 -70 -24 -84 -23 -15 -24 -15
-20 8 2 18 -2 24 -19 25 -12 1 -20 -2 -17 -7 3 -4 1 -8 -5 -8 -5 0 -18 -8 -27
-17 -16 -16 -17 -16 -12 -1 5 11 0 18 -13 21 -26 7 -31 -4 -32 -82 -1 -54 3
-73 21 -98 12 -17 19 -33 15 -36 -3 -4 0 -14 7 -22 7 -9 14 -42 14 -75 1 -45
-4 -65 -20 -87 -26 -34 -59 -45 -50 -16 6 18 -23 101 -58 168 -9 17 -16 39
-16 50 0 11 -5 27 -10 35 -8 13 -10 13 -10 -2 0 -9 5 -40 11 -67 9 -43 8 -53
-5 -67 -9 -8 -16 -22 -16 -29 0 -20 -21 -30 -31 -14 -5 8 -9 31 -9 52 0 20 -4
37 -9 37 -12 0 -10 43 2 51 5 4 6 12 3 18 -12 19 -13 132 -2 145 17 17 36 64
36 89 0 12 9 36 20 52 11 17 20 37 20 46 0 8 8 24 18 35 10 11 22 31 26 44 18
60 23 90 17 90 -4 0 -14 11 -21 25 l-13 24 -31 -26 c-38 -32 -75 -113 -67
-147 1 -5 -5 -23 -13 -40 -8 -17 -17 -53 -19 -81 -3 -27 -6 -50 -7 -50 -1 0
-4 -13 -6 -30 -3 -16 -11 -46 -19 -66 -7 -20 -12 -53 -9 -75 11 -101 11 -127
1 -154 -6 -16 -15 -26 -19 -24 -5 3 -6 10 -2 15 3 5 1 16 -5 23 -6 7 -15 57
-22 112 -6 54 -14 125 -18 156 -4 32 -5 61 -2 64 3 3 7 15 7 27 2 31 12 85 25
137 20 79 37 165 34 168 -2 2 -10 -9 -19 -25 -8 -15 -15 -25 -16 -22 0 8 56
136 75 171 33 58 4 32 -58 -54 -22 -30 22 62 80 166 33 61 38 75 21 60 -24
-20 -20 -12 29 51 42 55 86 135 74 135 -6 0 -15 -9 -21 -21 -7 -11 -14 -18
-17 -15 -3 3 29 50 71 105 42 55 76 104 76 108 0 4 -37 -30 -82 -77 -45 -47
-74 -71 -64 -55 41 66 107 152 150 198 25 26 43 47 41 47 -3 0 -37 -21 -77
-46 -40 -25 -84 -52 -98 -61 -16 -10 -12 -4 10 17 160 145 189 174 194 187 7
17 3 15 -84 -46 -39 -27 -57 -36 -45 -22 11 13 54 48 95 77 78 55 178 149 168
159 -3 3 -24 -10 -48 -30 -23 -19 -44 -35 -46 -35 -13 0 25 48 97 125 45 47
79 88 75 92 -3 3 -14 -1 -24 -10 -38 -34 -35 -16 4 26 80 85 81 91 10 43 -68
-46 -158 -96 -173 -96 -4 0 12 12 37 27 54 32 187 130 196 145 8 12 7 12 -71
-37 -42 -26 -146 -73 -205 -92 -8 -3 23 17 70 44 81 46 170 124 170 148 0 7
16 32 35 57 19 25 32 48 29 51 -3 3 9 31 27 63 l32 59 -38 -35 -38 -35 26 46
c33 59 68 150 61 161 -3 5 0 16 8 25 9 12 9 15 1 9 -17 -9 -16 3 2 34 26 46
15 45 -37 -6 -29 -27 -66 -61 -82 -74 l-30 -25 33 42 c18 24 37 45 42 48 5 4
17 21 26 38 12 24 13 29 2 21 -8 -6 -34 -26 -59 -44 -25 -19 -67 -55 -94 -80
l-50 -45 45 55 c66 79 167 229 139 205 -20 -17 -19 -12 12 47 38 73 36 74 -32
18 -25 -20 -52 -40 -60 -45 -13 -8 -13 -7 0 11 14 19 14 19 -10 -1 -14 -10
-45 -37 -69 -60 -41 -37 -48 -33 -13 8 25 29 5 32 -30 3 -18 -14 -49 -38 -68
-53 l-35 -27 35 38 c19 21 64 64 101 95 84 74 158 154 133 145 -16 -6 -15 -2
7 22 55 63 51 65 -21 14 -41 -29 -84 -60 -95 -70 -79 -68 -54 -21 43 81 80 85
93 107 32 55 -13 -12 -2 7 25 41 28 34 60 79 73 99 28 45 24 42 -93 -60 -125
-109 -122 -107 -99 -71 10 17 51 78 91 138 75 111 69 119 -21 27 -28 -27 -52
-48 -54 -45 -2 2 22 38 54 80 33 42 58 79 58 83 -1 4 6 18 16 32 33 46 61 102
55 109 -4 3 -13 -3 -21 -14 -8 -11 -21 -29 -29 -40 -14 -19 -14 -18 -9 10 9
41 38 98 90 175 l44 65 -51 -55 c-28 -30 -62 -72 -76 -93 -30 -47 -42 -43 -14
4 26 43 27 57 1 34 -28 -25 -25 -10 8 44 47 76 92 179 86 196 -3 8 -1 15 5 15
6 0 11 5 11 10 0 12 -55 -28 -134 -98 -27 -23 -51 -40 -54 -37 -6 5 17 32 102
123 28 28 45 52 39 52 -6 0 -16 -7 -23 -15 -19 -23 -70 -58 -76 -52 -7 7 54
96 100 144 70 74 61 80 -13 8 -39 -38 -71 -74 -71 -80 0 -17 -41 -67 -89 -111
-44 -38 -44 -38 -29 -9 9 17 33 68 53 115 20 47 49 98 64 114 l26 29 -28 -18
c-15 -10 -32 -26 -38 -37 -5 -10 -14 -16 -18 -14 -5 3 -49 -37 -100 -89 -50
-52 -91 -91 -91 -88 0 3 33 55 74 117 40 61 94 152 120 201 25 50 56 106 68
125 27 44 13 30 -41 -38 -55 -72 -52 -53 9 48 28 46 50 85 50 87 0 15 -107
-78 -195 -168 -58 -59 -105 -105 -105 -102 0 16 113 162 198 258 30 33 63 78
74 100 23 44 22 44 -45 -15 -16 -14 -35 -25 -42 -25 -7 0 -24 -9 -36 -20 -20
-17 -19 -14 5 20 16 22 45 59 63 83 42 52 35 53 -26 4 -25 -21 -68 -53 -96
-71 -39 -26 -20 -3 85 100 74 72 122 124 106 114 l-29 -17 15 21 c9 12 43 47
77 78 65 58 77 83 18 39 -53 -40 -56 -31 -7 20 28 28 36 42 23 35 -15 -8 -23
-8 -23 -1 0 5 4 10 8 10 4 0 16 14 26 31 l18 31 -26 -17 c-14 -9 -31 -15 -38
-12 -7 2 -33 -10 -58 -28 -25 -17 -52 -35 -60 -40 -23 -12 99 97 132 119 20
13 26 21 17 26 -12 8 -57 -13 -118 -57 -31 -22 -30 -20 11 21 26 25 45 46 42
46 -5 0 -115 -75 -159 -108 -11 -8 18 21 65 64 142 132 209 199 169 170 -20
-15 -43 -24 -52 -21 -8 4 -45 -13 -87 -40 -40 -25 -74 -44 -76 -42 -3 2 52 51
122 108 70 57 164 137 211 177 77 66 82 72 56 72 -25 0 -22 3 22 24 l50 24
-35 2 c-29 1 -19 7 67 38 56 20 104 39 106 42 3 3 -15 3 -40 1 -51 -4 -53 13
-2 24 17 4 28 9 26 12 -3 2 -33 -3 -67 -12 -34 -9 -67 -14 -73 -12 -12 4 24
17 101 37 23 6 40 15 37 20 -7 12 17 23 103 47 34 9 62 20 62 24 0 3 -26 4
-57 3 l-58 -3 53 13 c30 8 56 17 59 20 4 3 -50 7 -118 7 l-124 1 65 15 c131
30 114 38 -40 18 -57 -7 103 41 170 51 67 10 84 23 31 24 -51 0 -48 10 6 20
26 5 -1 8 -87 10 -170 3 -104 18 118 27 89 3 160 8 157 11 -3 3 -49 9 -103 13
-74 6 -56 7 73 4 94 -3 176 -1 183 3 7 5 -20 17 -70 31 -133 37 -134 41 -3 35
66 -4 117 -3 114 0 -20 21 -225 67 -343 77 -72 6 -133 13 -135 15 -8 8 325 3
419 -6 93 -9 350 -68 391 -91 19 -10 20 -9 10 10 -7 11 -24 27 -39 35 -23 13
-24 15 -7 15 11 1 40 -11 65 -25 37 -21 41 -22 26 -5 -10 11 -34 28 -54 37
-22 11 -31 19 -22 21 18 4 144 -39 165 -57 39 -33 -5 57 -50 102 l-38 37 33
-12 c18 -7 62 -39 99 -72 103 -94 103 -94 97 -59 -4 16 -3 23 0 16 10 -20 22
-4 17 23 -3 13 -24 46 -46 71 l-41 46 40 -20 c22 -11 64 -39 92 -62 49 -38 52
-39 52 -18 -1 42 -37 106 -70 123 -18 9 -29 19 -26 22 12 12 74 -20 115 -60
l43 -42 -17 34 c-9 19 -28 45 -41 57 -37 38 -2 28 46 -13 23 -20 58 -61 77
-90 18 -29 36 -53 39 -53 3 0 3 15 -1 33 -9 40 6 28 34 -28 11 -22 20 -33 21
-24 0 9 7 22 16 30 8 7 28 41 44 76 32 70 43 81 29 27 -16 -56 -5 -62 15 -8
23 60 41 82 33 39 -3 -16 -9 -58 -13 -93 -6 -56 -5 -62 10 -56 9 4 31 33 47
66 34 68 47 72 24 8 -21 -60 -19 -82 4 -44 27 44 41 51 41 20 0 -14 4 -26 9
-26 6 0 34 37 65 83 30 45 71 100 91 122 l36 40 -35 -65 c-38 -71 -72 -167
-63 -177 4 -3 11 6 16 21 6 14 14 26 19 26 5 0 28 27 52 60 47 65 64 74 29 16
-12 -20 -18 -40 -15 -44 4 -3 11 -1 15 6 4 8 15 14 24 16 9 1 27 12 39 24 30
27 102 59 153 66 l40 6 -43 -14 c-50 -16 -118 -61 -126 -82 -8 -21 22 -17 57
9 31 21 103 57 116 57 3 0 -7 -11 -24 -24 l-30 -25 35 12 c19 7 80 37 135 68
133 75 196 107 280 140 104 41 111 34 15 -17z m1991 -1271 l24 -27 -32 23
c-33 23 -40 31 -25 31 5 0 19 -12 33 -27z m-105 -578 c21 -20 30 -31 19 -26
-30 16 -81 61 -69 61 6 0 28 -16 50 -35z m-31 -90 c22 -14 36 -25 32 -25 -11
0 -87 39 -87 45 0 10 16 4 55 -20z m42 -100 c49 -36 102 -77 118 -91 l30 -25
-40 23 c-102 58 -228 158 -200 158 3 0 44 -29 92 -65z m-102 45 c3 -6 -1 -7
-9 -4 -18 7 -21 14 -7 14 6 0 13 -4 16 -10z m66 -68 c69 -47 100 -72 119 -96
15 -19 14 -19 -19 0 -66 37 -71 41 -63 49 4 5 1 5 -5 1 -8 -4 -13 -2 -13 5 0
7 -3 9 -7 5 -4 -3 9 -23 29 -44 60 -63 53 -79 -9 -21 -68 63 -86 86 -79 98 3
5 -1 11 -9 15 -15 5 -21 26 -7 26 4 0 32 -17 63 -38z m59 -528 c0 -2 -9 0 -20
6 -11 6 -20 13 -20 16 0 2 9 0 20 -6 11 -6 20 -13 20 -16z m-860 -54 c8 -5 11
-10 5 -10 -5 0 -17 5 -25 10 -8 5 -10 10 -5 10 6 0 17 -5 25 -10z m90 -257
c12 -12 7 -11 -20 2 -45 22 -52 29 -20 20 14 -4 32 -14 40 -22z m-115 -133 c3
-6 -1 -7 -9 -4 -18 7 -21 14 -7 14 6 0 13 -4 16 -10z m890 -70 c3 -6 -1 -7 -9
-4 -18 7 -21 14 -7 14 6 0 13 -4 16 -10z m41 -292 l29 -31 -37 28 c-39 28 -45
35 -30 35 5 0 21 -14 38 -32z m74 -233 c13 -14 21 -25 18 -25 -2 0 -15 11 -28
25 -13 14 -21 25 -18 25 2 0 15 -11 28 -25z m51 -161 l34 -37 -32 23 c-18 13
-34 29 -37 37 -8 20 -3 17 35 -23z m61 -106 c10 -9 47 -38 83 -63 36 -26 65
-49 65 -51 0 -11 -80 31 -129 69 -62 47 -77 63 -85 91 -4 16 -1 15 22 -5 15
-13 35 -32 44 -41z m24 -88 c15 -22 31 -40 36 -40 4 0 49 -35 99 -77 101 -87
119 -99 202 -143 31 -17 57 -32 57 -35 0 -7 -93 36 -122 56 -46 33 -44 20 7
-33 28 -28 38 -43 24 -32 -14 10 -64 47 -110 81 -95 70 -173 133 -165 133 3 0
-6 12 -20 27 -14 15 -22 33 -20 40 3 7 -6 20 -19 29 -14 9 -22 20 -19 25 10
17 24 9 50 -31z m-575 13 c13 -16 12 -17 -3 -4 -10 7 -18 15 -18 17 0 8 8 3
21 -13z m363 -52 c43 -30 87 -74 56 -56 -15 8 -86 61 -104 77 -23 19 9 5 48
-21z m396 -27 c0 -2 -9 0 -20 6 -11 6 -20 13 -20 16 0 2 9 0 20 -6 11 -6 20
-13 20 -16z m-597 -89 c18 -26 79 -91 137 -144 58 -53 100 -89 94 -81 -6 8
-25 35 -43 60 -19 26 6 4 61 -53 51 -53 98 -97 103 -97 6 0 6 3 0 8 -9 6 -59
70 -119 152 -6 8 12 -4 39 -27 55 -46 183 -184 228 -245 16 -21 31 -38 33 -38
11 0 -20 42 -103 138 -48 57 -99 118 -113 135 -24 31 -23 31 19 -6 25 -20 50
-37 58 -37 18 0 187 -83 195 -96 4 -6 21 -17 38 -24 16 -7 30 -15 30 -19 0 -3
9 -12 21 -19 21 -13 21 -13 3 12 -11 14 -33 31 -50 37 -23 9 -30 18 -30 35 1
13 5 26 9 30 3 4 5 -3 2 -15 -3 -18 0 -20 21 -17 13 3 24 1 24 -4 0 -9 59 -44
105 -63 16 -7 16 -4 -5 19 -14 14 -34 30 -45 35 -11 5 -28 13 -38 19 -77 45
-194 100 -210 100 -28 0 -220 98 -282 144 -33 24 -71 59 -84 78 l-24 33 28
-25 c16 -14 38 -35 49 -46 12 -12 39 -32 61 -45 l40 -24 -32 42 c-18 22 -33
44 -33 48 0 13 39 -27 61 -61 13 -21 46 -46 101 -74 103 -54 170 -73 194 -55
16 11 14 15 -22 37 -22 14 -46 34 -54 44 -11 15 -11 17 0 7 8 -7 22 -13 33
-13 11 0 15 -4 11 -12 -4 -7 -3 -8 4 -4 18 11 15 21 -13 47 -29 28 -34 50 -6
25 11 -10 25 -15 32 -10 7 4 10 3 5 -4 -8 -13 76 -110 157 -181 85 -73 85 -73
62 -65 -24 9 24 -50 88 -109 l42 -38 -86 46 c-47 25 -89 45 -93 45 -4 0 2 -13
14 -30 12 -16 16 -30 10 -30 -6 0 -8 -5 -5 -10 4 -6 12 -7 18 -4 7 4 9 3 4 -1
-4 -5 14 -31 40 -58 32 -33 39 -44 21 -32 -39 24 -35 9 13 -55 64 -85 65 -87
31 -56 l-32 29 9 -29 c5 -17 16 -44 24 -60 13 -25 13 -31 2 -31 -8 0 -11 5 -8
10 3 6 1 7 -5 3 -6 -3 -14 3 -17 15 -4 11 -9 18 -12 15 -8 -8 21 -49 62 -90
35 -36 45 -53 23 -40 -7 4 -4 -2 6 -14 11 -12 16 -25 13 -29 -4 -4 3 -18 15
-32 12 -14 -1 -3 -28 25 -27 29 -72 78 -100 110 -111 127 -118 133 -70 61 26
-38 46 -74 46 -81 0 -7 12 -23 27 -37 27 -25 24 -14 -11 33 -11 15 -17 30 -14
34 4 3 24 -21 46 -53 22 -32 47 -65 56 -73 10 -7 22 -23 27 -34 9 -20 9 -20
-4 -3 -10 12 -17 15 -22 7 -5 -8 -12 -7 -23 2 -15 12 -16 11 -3 -4 7 -10 17
-15 22 -12 8 5 11 -2 8 -22 0 -3 7 -11 17 -18 9 -7 14 -18 10 -24 -4 -7 -4
-12 1 -12 4 0 16 -11 25 -24 14 -20 14 -23 1 -23 -8 0 -25 17 -38 36 -12 20
-30 42 -39 50 -9 7 -16 19 -16 25 0 6 -9 17 -20 24 -11 7 -20 18 -20 25 -1 13
-55 77 -67 77 -3 0 3 -10 15 -23 12 -13 20 -26 17 -29 -4 -3 11 -34 33 -69 21
-35 45 -75 52 -89 l13 -24 -25 16 c-36 24 -40 13 -13 -38 13 -24 21 -44 19
-44 -3 0 0 -9 6 -20 21 -39 3 -20 -30 33 -41 65 -39 61 -46 55 -3 -4 0 -17 6
-30 7 -12 8 -18 2 -13 -5 6 -29 47 -53 93 -59 116 -67 112 -14 -8 49 -109 51
-115 33 -104 -8 5 -9 2 -5 -9 19 -47 16 -47 -12 -2 -31 49 -31 50 -25 15 4
-19 15 -57 25 -83 11 -26 19 -51 19 -54 0 -15 -90 140 -90 155 -1 15 -50 85
-50 71 0 -3 7 -30 16 -60 9 -30 18 -70 19 -89 3 -31 2 -33 -8 -12 -5 12 -15
22 -21 22 -6 0 -5 -5 2 -12 7 -7 12 -26 12 -43 0 -25 -8 -15 -45 59 -55 110
-78 137 -35 42 50 -112 55 -125 100 -241 24 -60 47 -126 51 -145 7 -32 7 -33
-7 -16 -8 11 -14 26 -14 33 0 7 -8 29 -17 48 -14 30 -18 33 -24 18 -5 -13 -8
-7 -14 22 -3 22 -10 49 -15 60 -4 11 -13 43 -19 72 -12 58 -71 193 -85 193 -5
0 -4 -6 1 -12 5 -7 15 -33 22 -58 7 -25 17 -50 23 -57 5 -7 6 -18 2 -24 -4 -8
-3 -9 4 -5 8 5 11 -8 10 -41 l-1 -47 -28 56 c-16 31 -33 59 -39 63 -6 3 -8 10
-5 15 3 4 -1 10 -9 13 -9 4 -17 -3 -21 -16 -6 -22 -6 -22 -15 -2 -7 17 -9 15
-9 -12 -1 -26 -4 -31 -21 -28 -16 3 -20 -2 -20 -21 0 -13 -4 -24 -10 -24 -5 0
-10 -12 -10 -26 0 -22 -3 -24 -14 -15 -11 10 -15 4 -20 -31 -11 -91 -19 -120
-32 -125 -8 -3 -12 -9 -9 -13 8 -12 -65 -130 -80 -130 -34 0 -35 88 -2 156 31
61 38 102 38 219 0 60 -5 105 -16 135 -26 70 -44 144 -38 154 4 5 1 6 -4 3
-14 -9 -21 21 -29 118 -4 52 -3 77 3 70 9 -9 39 -110 62 -210 7 -30 9 -34 10
-14 1 36 -39 232 -50 244 -5 5 -9 16 -9 25 0 26 -85 193 -117 231 -29 33 -128
183 -164 247 -23 40 -25 65 -3 34 9 -13 27 -35 41 -50 l26 -27 -17 35 -17 35
21 -25 c11 -14 26 -38 34 -55 7 -16 21 -37 31 -45 18 -15 18 -14 0 13 -23 36
-11 48 15 14 12 -15 24 -26 28 -24 20 6 84 -68 126 -145 47 -86 64 -111 47
-65 -29 74 -104 234 -118 249 -9 10 -14 21 -10 24 3 3 -18 26 -46 51 -61 53
-90 83 -82 83 3 0 -6 18 -20 40 -14 22 -22 40 -19 40 4 0 33 -28 66 -62 33
-36 51 -50 41 -33 l-18 30 35 -25 35 -24 -37 44 c-21 25 -54 70 -75 100 -20
30 -40 56 -45 58 -4 2 -18 13 -30 24 l-23 20 33 -19 c18 -11 47 -41 65 -68z
m622 -117 c113 -119 121 -132 38 -63 -46 38 -83 72 -83 76 0 4 -9 11 -20 14
-11 4 -18 10 -15 15 3 5 -12 26 -35 46 -22 20 -40 41 -40 46 0 14 83 -58 155
-134z m-749 -98 c98 -128 182 -267 188 -313 2 -12 11 -39 20 -59 28 -64 46
-149 36 -167 -7 -14 -9 -14 -13 -1 -2 8 -9 31 -16 51 -6 19 -11 42 -11 50 0
22 -53 179 -73 216 -9 18 -35 48 -56 68 -21 20 -47 51 -57 70 -10 19 -22 35
-27 35 -4 0 -5 5 -2 10 3 6 1 10 -5 10 -6 0 -8 5 -5 10 3 6 1 10 -6 10 -7 0
-10 3 -6 6 3 4 -3 25 -15 48 -24 48 -19 43 48 -44z m671 34 c-3 -3 -12 -4 -19
-1 -8 3 -5 6 6 6 11 1 17 -2 13 -5z m-523 -70 c5 -14 4 -15 -9 -4 -17 14 -19
20 -6 20 5 0 12 -7 15 -16z m146 -652 c0 -15 -2 -15 -10 -2 -13 20 -13 33 0
25 6 -3 10 -14 10 -23z m-4586 -205 c-3 -8 -11 -14 -19 -14 -11 0 -12 4 -4 14
6 7 15 13 20 13 5 0 6 -6 3 -13z m5096 -222 c0 -5 -5 -3 -10 5 -5 8 -10 20
-10 25 0 6 5 3 10 -5 5 -8 10 -19 10 -25z m-67 -40 c-3 -9 -8 -14 -10 -11 -3
3 -2 9 2 15 9 16 15 13 8 -4z m76 -239 c1 -58 -13 -34 -16 27 -2 37 0 46 7 32
5 -11 9 -38 9 -59z m38 -78 c-3 -8 -6 -5 -6 6 -1 11 2 17 5 13 3 -3 4 -12 1
-19z m-29 -50 c1 -7 4 -85 7 -173 5 -129 4 -170 -9 -209 -8 -27 -12 -54 -9
-60 4 -6 -1 -5 -11 3 -15 13 -16 27 -11 130 4 64 8 157 10 206 4 116 4 115 13
115 5 0 9 -6 10 -12z m-3240 -222 c18 -6 22 -14 22 -49 -1 -35 -3 -39 -13 -26
-7 9 -17 14 -23 12 -6 -2 -14 6 -18 19 -8 32 -7 75 2 62 4 -6 17 -14 30 -18z
m-56 -67 c-6 -40 -22 -18 -22 31 1 31 2 33 14 18 7 -10 11 -31 8 -49z m134 47
c3 -8 4 -29 2 -48 l-4 -33 -17 38 c-17 37 -16 57 4 57 5 0 12 -6 15 -14z m42
-34 c-3 -14 -6 -14 -16 6 -7 12 -10 27 -6 33 9 15 27 -16 22 -39z m-248 25 c0
-8 3 -7 9 2 12 18 28 -36 34 -113 l4 -59 -20 24 c-19 24 -20 24 -13 2 10 -31
-8 -29 -22 2 -6 14 -16 25 -22 25 -14 0 -14 0 20 -86 40 -101 34 -117 -9 -21
-39 89 -64 110 -55 44 3 -23 10 -54 14 -69 13 -39 4 -35 -17 10 l-18 37 -3
-33 c-2 -18 -7 -30 -12 -27 -5 3 -3 -10 5 -30 9 -19 13 -35 10 -35 -3 0 -1 -9
5 -20 12 -22 1 -27 -19 -7 -11 10 -12 8 -3 -9 6 -11 18 -27 27 -34 9 -7 21
-23 27 -34 8 -15 -3 -10 -35 17 -25 20 -48 37 -50 37 -3 0 -4 -28 -2 -62 2
-43 14 -90 38 -148 19 -47 32 -89 29 -95 -3 -5 -8 -2 -10 5 -8 26 -74 120 -83
120 -6 0 11 -38 37 -86 25 -47 44 -87 41 -90 -7 -7 -77 77 -77 92 0 7 -4 15
-8 18 -20 12 1 -130 28 -192 11 -24 20 -46 20 -48 0 -2 -16 12 -35 32 -19 19
-35 39 -35 44 0 6 -5 10 -10 10 -12 0 -4 -62 13 -95 8 -16 7 -18 -4 -7 -23 21
-38 13 -45 -23 -3 -19 -11 -38 -16 -41 -10 -6 -9 17 5 141 4 28 9 91 13 140 3
50 8 93 10 96 1 3 8 63 14 134 6 71 15 134 19 140 5 5 11 29 14 53 2 24 10 49
16 55 6 6 11 17 11 25 0 8 8 26 19 40 10 15 21 39 25 55 7 29 33 36 55 15 7
-7 11 -8 10 -3 -6 24 13 61 32 62 10 1 19 -4 19 -10z m308 -43 c-3 -14 -5 -12
-10 9 -3 19 -2 25 4 19 6 -6 8 -18 6 -28z m86 -9 c5 -20 4 -27 -3 -20 -5 6
-13 24 -17 40 -4 20 -3 27 3 20 6 -5 14 -23 17 -40z m1506 -256 c0 -22 -19 -6
-29 24 l-11 32 20 -24 c11 -13 20 -27 20 -32z m104 -88 c-1 -2 -20 7 -41 20
-21 13 -42 24 -48 24 -5 1 -19 5 -29 10 -19 8 -19 9 -1 15 13 4 36 -5 71 -29
28 -20 50 -38 48 -40z m-65 -73 c26 -28 29 -36 15 -34 -10 2 -20 8 -22 14 -2
7 -10 12 -17 12 -7 0 -15 14 -17 30 -3 17 -2 27 1 23 3 -4 21 -25 40 -45z m-4
-58 c16 -17 16 -20 3 -15 -9 4 -19 13 -22 21 -7 19 -2 18 19 -6z m35 -79 c11
-16 16 -32 11 -35 -7 -5 -41 45 -41 61 0 9 11 0 30 -26z m50 -203 c0 -6 -6 -5
-15 2 -8 7 -15 14 -15 16 0 2 7 1 15 -2 8 -4 15 -11 15 -16z m-3040 -75 c0
-16 6 -16 30 -3 25 13 43 -15 28 -43 -9 -17 -8 -17 21 -3 34 18 45 20 36 7 -3
-5 5 -11 17 -13 21 -3 19 -6 -23 -55 -24 -28 -52 -63 -62 -78 -11 -14 -31 -31
-45 -38 -15 -6 -35 -18 -45 -26 -15 -12 -20 -13 -26 -2 -7 11 -14 10 -35 -4
-18 -12 -26 -14 -26 -5 0 9 -4 9 -13 2 -7 -6 -36 -14 -65 -18 -29 -4 -55 -10
-57 -14 -5 -7 231 -26 290 -23 29 2 29 2 5 -6 -14 -5 -38 -6 -54 -3 -18 3 -31
0 -37 -9 -5 -8 -9 -9 -9 -3 0 6 -21 10 -50 9 -27 -1 -50 3 -50 8 0 5 -10 6
-22 3 -40 -12 -68 -14 -74 -5 -3 5 -10 9 -15 9 -6 0 -8 -4 -4 -9 3 -6 -19 -10
-52 -10 -32 0 -260 -4 -508 -9 -524 -10 -622 -9 -730 7 -44 6 -123 14 -175 17
-158 8 -399 31 -433 40 -34 10 -6 23 46 22 29 -1 129 6 222 15 94 9 203 16
243 16 40 0 76 2 80 4 8 5 147 13 357 22 72 3 307 7 524 10 217 3 397 9 400
13 3 5 14 11 24 15 9 4 20 14 24 24 8 21 46 59 56 56 4 -2 6 2 5 8 -4 16 93
81 113 76 9 -3 21 -2 27 2 18 11 62 6 62 -6z m159 -105 c-18 -34 -91 -120 -97
-113 -3 2 -12 -1 -20 -8 -33 -26 9 34 61 88 55 58 76 70 56 33z m595 14 c3 -5
-1 -9 -9 -9 -8 0 -15 4 -15 9 0 4 4 8 9 8 6 0 12 -4 15 -8z m1582 -52 c3 0 14
5 25 11 17 9 21 7 26 -10 5 -18 8 -19 21 -9 13 11 14 10 10 -2 -3 -8 2 -20 10
-26 11 -8 12 -18 2 -55 -7 -24 -20 -52 -31 -61 -17 -17 -19 -17 -28 0 -9 16
-10 16 -16 0 -4 -10 -13 -18 -21 -18 -8 0 -23 -6 -34 -12 -17 -11 -22 -10 -29
0 -6 10 -14 10 -35 2 -41 -15 -49 -4 -44 62 4 53 8 63 41 93 20 19 37 31 37
28 0 -3 7 0 15 7 12 10 15 10 15 -1 0 -9 5 -6 12 6 11 18 13 18 16 3 2 -10 6
-18 8 -18z m125 -128 c-6 -2 -11 -10 -11 -18 0 -9 -5 -12 -10 -9 -6 3 -7 18
-4 33 10 42 17 47 26 21 6 -15 5 -25 -1 -27z m-1764 -66 c10 -9 -427 -6 -472
4 -26 6 49 8 213 6 139 -2 255 -6 259 -10z"/>
<path d="M5785 8861 c-22 -10 -49 -26 -60 -35 -11 -9 9 -3 45 15 36 17 67 33
69 35 11 10 -18 2 -54 -15z"/>
<path d="M5887 8153 c-9 -21 -16 -32 -16 -25 -1 21 -31 13 -41 -10 -6 -16 -9
-18 -9 -7 -1 22 -34 19 -43 -3 -10 -25 -28 -22 -28 3 0 18 -2 19 -15 9 -12
-10 -15 -10 -15 4 0 9 -4 16 -10 16 -5 0 -10 -12 -10 -27 0 -26 -1 -26 -15 -7
-12 15 -16 16 -24 5 -7 -11 -9 -11 -13 0 -4 12 -7 12 -22 0 -20 -17 -21 -16
-33 34 l-11 40 -7 -34 -8 -33 -13 23 c-11 20 -13 21 -14 6 0 -26 -23 -16 -31
14 -6 20 -7 21 -8 4 -1 -11 -8 -31 -17 -44 -15 -20 -18 -21 -26 -8 -11 20 -38
11 -38 -12 0 -36 -14 -29 -36 17 -18 37 -24 43 -29 30 -4 -10 -11 -15 -16 -12
-5 3 -9 -7 -9 -21 0 -15 -4 -24 -10 -20 -6 4 -10 -6 -10 -22 l-1 -28 -17 33
c-10 18 -21 30 -25 26 -3 -4 -13 -1 -22 6 -11 9 -15 9 -15 1 0 -20 -33 -48
-38 -33 -6 20 -22 14 -23 -10 -1 -21 -2 -20 -14 7 -14 30 -14 30 -15 5 -1 -14
-4 -20 -6 -13 -3 7 -11 10 -18 7 -8 -3 -17 5 -21 18 -7 20 -9 16 -15 -22 -4
-25 -8 -39 -8 -31 -1 8 -5 11 -9 7 -4 -4 -15 8 -26 26 l-18 33 5 -40 4 -40
-18 40 -19 40 0 -31 c-1 -19 -7 -34 -16 -38 -8 -3 -15 0 -15 6 0 7 -4 7 -13
-1 -11 -8 -16 -6 -25 13 -5 13 -20 26 -32 29 -18 5 -21 2 -18 -20 2 -20 -2
-27 -19 -29 -12 -2 -23 3 -27 11 -5 15 -27 21 -25 8 1 -5 1 -19 0 -32 -1 -19
-4 -21 -16 -11 -12 10 -15 7 -21 -16 l-7 -27 -14 27 c-7 14 -20 26 -29 26 -8
0 -18 8 -21 17 -6 15 -7 15 -14 -3 -4 -10 -8 -31 -8 -46 -1 -37 -16 -35 -31 3
-9 22 -15 27 -21 17 -6 -10 -12 -8 -23 7 -15 20 -15 20 -16 -2 0 -13 -4 -23
-10 -23 -5 0 -10 5 -10 12 0 9 -3 9 -12 0 -18 -18 -26 -15 -42 16 -14 25 -15
25 -16 5 0 -18 -4 -21 -31 -16 -20 3 -29 1 -25 -6 8 -12 -34 -11 -51 2 -7 5
-13 6 -13 2 0 -5 -9 0 -20 10 -17 15 -20 16 -15 3 7 -18 -10 -34 -20 -18 -12
19 -25 10 -25 -17 l0 -26 -22 20 c-23 21 -78 29 -78 11 0 -6 -12 -3 -26 7 -15
10 -23 12 -19 4 6 -9 3 -11 -8 -6 -12 4 -14 2 -10 -11 6 -16 5 -16 -13 0 -16
14 -21 14 -31 2 -7 -7 -13 -20 -13 -29 0 -8 -4 -15 -10 -15 -5 0 -10 4 -10 8
0 5 -16 13 -35 19 -26 8 -35 8 -35 0 0 -7 -5 -5 -10 3 -8 13 -10 12 -10 -2 0
-24 -12 -23 -28 2 -15 24 -34 27 -25 3 4 -11 3 -14 -6 -9 -7 5 -19 0 -29 -11
-10 -11 -29 -18 -47 -17 -16 0 -35 -3 -42 -8 -7 -5 -21 -7 -33 -3 -12 4 -20 2
-20 -5 0 -7 -8 -10 -20 -7 -13 3 -20 0 -20 -9 0 -8 -3 -13 -7 -13 -21 3 -33
-2 -33 -16 0 -11 -7 -14 -25 -9 -19 5 -25 2 -25 -10 0 -11 -9 -16 -30 -16 -26
0 -30 -4 -30 -26 0 -14 -4 -23 -9 -20 -16 10 -69 -24 -75 -50 -5 -17 -15 -26
-35 -30 -23 -5 -27 -10 -24 -29 4 -18 -1 -25 -27 -34 -25 -8 -31 -15 -27 -31
3 -13 -1 -21 -15 -26 -11 -3 -17 -12 -14 -20 3 -8 1 -14 -5 -14 -6 0 -7 -4 -4
-10 3 -6 -1 -7 -9 -4 -11 4 -16 0 -16 -10 0 -9 5 -16 10 -16 6 0 10 -4 10 -10
0 -5 -8 -10 -17 -10 -10 0 -25 -5 -33 -10 -13 -9 -12 -12 5 -22 19 -11 19 -11
0 -19 -19 -6 -18 -8 5 -17 24 -10 24 -11 -9 -11 -34 -1 -34 -1 -15 -22 19 -22
19 -22 -6 -14 l-25 7 24 -26 c25 -27 21 -31 -24 -26 -19 2 -18 0 5 -26 25 -27
25 -27 3 -21 -32 7 -37 -8 -11 -32 19 -18 19 -21 4 -21 -9 0 -15 -4 -12 -9 4
-5 -4 -7 -16 -3 -22 5 -22 5 -2 -15 10 -11 28 -26 39 -32 18 -11 16 -12 -16
-7 -30 3 -36 1 -35 -12 0 -9 15 -25 33 -34 26 -15 35 -16 55 -5 25 13 34 57
11 57 -10 0 -8 7 7 22 23 25 25 34 8 41 -10 4 -10 6 0 6 7 1 10 6 7 11 -3 6 1
10 9 10 9 0 13 7 11 19 -2 12 5 22 22 30 20 9 23 14 13 26 -10 12 -7 15 15 21
17 4 24 11 21 21 -4 8 5 18 22 25 l27 11 -25 7 c-14 5 -18 9 -10 9 8 1 26 20
40 42 35 58 53 77 68 72 10 -4 18 29 13 60 -2 14 18 7 29 -10 9 -14 10 -8 6
27 -5 42 -5 43 8 21 9 -17 15 -20 18 -10 4 12 7 12 21 0 15 -12 17 -10 17 19
0 28 2 31 15 20 13 -11 14 -8 9 19 -8 39 -3 39 35 0 l31 -31 0 31 c0 30 29 71
50 71 5 0 12 -11 16 -25 3 -14 10 -22 16 -19 5 3 7 12 4 20 -3 8 0 11 10 7 8
-3 14 1 14 11 0 23 7 20 34 -11 l24 -28 14 35 15 35 13 -25 13 -25 13 40 c9
32 12 35 13 15 1 -27 21 -66 21 -42 0 7 7 20 15 28 8 9 15 12 15 8 0 -3 6 -1
14 5 11 9 15 6 20 -15 5 -17 12 -24 21 -20 7 2 16 0 18 -7 3 -9 8 -9 18 1 8 7
15 17 15 23 1 5 2 15 3 22 1 8 4 8 12 -3 8 -11 12 -12 16 -2 7 19 21 14 28 -9
5 -15 10 -18 15 -10 4 7 15 13 24 15 10 1 22 9 27 17 8 12 10 12 19 -1 8 -11
9 -7 4 15 -6 29 -6 29 10 10 8 -11 19 -37 22 -57 7 -40 24 -52 24 -18 0 11 6
20 13 20 8 0 19 10 25 23 8 17 11 18 11 5 1 -22 15 -23 34 -3 13 13 17 11 28
-18 12 -31 12 -31 17 -7 2 13 10 33 17 44 13 17 14 17 23 -15 8 -31 9 -32 16
-11 4 12 12 22 17 22 5 0 10 12 10 28 1 20 3 22 6 8 3 -11 11 -26 19 -34 8 -7
14 -23 15 -35 1 -12 6 -2 12 23 6 26 12 37 14 28 3 -10 11 -18 19 -18 8 0 14
-4 14 -10 0 -5 5 -10 10 -10 6 0 10 8 10 19 0 12 7 18 20 17 25 -1 39 -22 41
-56 l1 -25 7 25 c5 18 13 24 29 22 13 -2 22 2 23 10 1 7 4 2 9 -12 l7 -25 11
25 c8 18 11 20 11 8 2 -33 21 -19 21 15 l1 32 18 -40 c15 -32 20 -35 20 -17 1
12 6 22 12 22 5 0 7 5 3 12 -5 7 -2 9 9 5 10 -4 17 0 20 11 3 9 5 2 6 -16 l1
-33 24 26 25 27 3 -64 3 -63 9 53 c6 36 12 49 17 40 6 -9 9 -6 10 12 0 23 1
23 9 5 7 -19 8 -19 15 -2 6 14 10 15 21 6 11 -9 14 -8 14 2 0 11 2 11 10 -1 7
-12 10 -8 10 15 0 23 3 27 10 15 5 -8 10 -10 10 -5 1 6 7 -3 15 -20 13 -29 13
-29 14 -5 1 27 16 18 24 -15 4 -12 5 -8 4 10 -2 38 24 42 33 5 l6 -25 8 23 c4
13 10 21 13 18 4 -3 12 -1 20 5 10 9 13 6 13 -17 1 -28 1 -28 16 -9 8 11 20
19 26 17 5 -1 17 3 25 10 14 11 15 8 8 -22 -7 -33 -6 -34 9 -15 8 11 16 26 16
34 0 8 3 11 6 8 4 -3 15 -2 26 4 18 10 18 8 8 -10 -6 -12 -8 -26 -4 -33 4 -7
12 -2 20 13 7 13 13 18 14 11 0 -7 11 0 25 15 24 28 24 28 25 5 0 -15 7 -26
20 -29 11 -3 20 -13 20 -22 1 -20 18 8 37 59 8 23 12 28 13 15 0 -23 39 -30
52 -11 5 7 8 6 8 -3 0 -11 3 -11 15 -1 12 10 15 10 15 -3 0 -18 27 -31 32 -15
2 6 12 12 21 14 14 2 17 -6 17 -37 0 -49 12 -44 45 19 13 26 24 43 24 37 1 -5
-3 -17 -8 -25 -14 -21 -1 -34 14 -13 12 16 13 14 9 -12 -4 -26 -1 -24 21 18
24 44 44 65 32 33 -10 -25 6 -28 20 -4 14 22 14 22 10 -9 -4 -41 1 -42 14 -3
6 16 15 27 20 24 5 -3 3 -17 -5 -32 -8 -15 -18 -43 -24 -62 -5 -19 -13 -44
-17 -55 -6 -17 -4 -17 14 4 12 13 21 28 21 35 0 6 9 22 20 36 19 25 19 25 0
-28 -16 -46 -17 -52 -3 -40 15 11 16 11 10 -4 -11 -29 3 -20 15 10 6 15 10 39
9 53 0 15 8 34 19 44 14 13 20 14 20 5 0 -9 6 -8 19 4 19 17 19 17 14 -3 -12
-45 24 -9 56 56 19 39 26 61 17 54 -22 -18 -20 -10 9 40 32 56 32 67 0 32
l-26 -28 6 45 c4 32 3 41 -4 30 -6 -8 -15 -15 -21 -15 -6 0 -20 -11 -31 -25
-20 -24 -21 -24 -16 -2 3 12 0 22 -5 22 -6 0 -8 13 -4 33 l6 32 -19 -22 c-16
-20 -20 -21 -25 -7 -5 14 -10 12 -30 -10 -19 -23 -24 -25 -35 -13 -7 10 -9 29
-5 56 8 51 1 52 -19 4z m-210 -275 c-3 -8 -6 -5 -6 6 -1 11 2 17 5 13 3 -3 4
-12 1 -19z m255 -20 c-7 -7 -12 -8 -12 -2 0 14 12 26 19 19 2 -3 -1 -11 -7
-17z"/>
<path d="M6156 8000 c-10 -3 -31 -30 -47 -58 -32 -59 -37 -81 -14 -62 13 11
14 7 11 -30 -6 -56 12 -38 44 45 13 33 26 65 30 70 25 36 16 49 -24 35z"/>
<path d="M6257 7961 c-23 -21 -47 -36 -53 -34 -15 5 -58 -87 -46 -99 6 -6 22
10 42 41 17 28 46 63 64 77 31 26 52 54 41 54 -3 0 -24 -17 -48 -39z"/>
<path d="M6264 7878 l-19 -23 23 19 c21 18 27 26 19 26 -2 0 -12 -10 -23 -22z"/>
<path d="M6323 7879 c-21 -10 -45 -24 -54 -31 -20 -16 -69 -87 -69 -100 0 -9
77 53 140 112 15 14 34 24 43 22 23 -5 21 5 -2 11 -11 2 -36 -4 -58 -14z"/>
<path d="M6398 7844 c-16 -8 -28 -19 -28 -25 0 -6 -11 -24 -25 -41 -24 -29
-31 -26 -19 6 3 9 10 14 14 11 5 -3 11 -1 15 4 3 6 -3 8 -15 6 -31 -6 -42 -16
-36 -32 3 -8 2 -11 -3 -8 -5 3 -13 0 -17 -6 -3 -6 -1 -15 5 -19 9 -5 8 -10 -4
-20 -9 -7 -21 -23 -27 -34 -8 -15 -1 -12 26 12 47 41 53 40 26 -4 -32 -51 -19
-51 26 -1 81 90 100 115 96 126 -2 6 4 14 13 17 13 5 14 8 3 15 -17 11 -18 11
-50 -7z"/>
<path d="M6546 7788 c3 -5 10 -6 15 -3 13 9 11 12 -6 12 -8 0 -12 -4 -9 -9z"/>
<path d="M6505 7780 c3 -5 -2 -10 -12 -10 -11 0 -35 -17 -55 -37 -39 -42 -64
-83 -49 -83 5 0 11 4 13 9 2 5 33 34 70 64 37 30 64 58 61 61 -10 10 -35 7
-28 -4z"/>
<path d="M6770 7774 c-64 -7 -139 -27 -134 -36 3 -4 -1 -8 -10 -8 -8 0 -16 -4
-18 -9 -1 -4 -21 -18 -43 -30 l-40 -22 69 5 c73 6 102 20 76 36 -8 5 -12 10
-8 10 4 0 56 7 115 16 65 10 126 13 153 9 60 -9 140 -15 115 -8 -10 3 -28 11
-40 18 -21 13 -173 26 -235 19z"/>
<path d="M6091 7751 c-6 -10 -8 -21 -5 -24 4 -3 -4 -20 -16 -37 -12 -16 -20
-36 -17 -43 2 -7 13 2 24 20 11 18 23 30 28 25 4 -4 5 1 2 11 -4 9 -2 17 3 17
6 0 10 5 10 11 0 5 -4 8 -9 5 -5 -4 -7 3 -4 14 7 25 -3 26 -16 1z"/>
<path d="M6570 7720 c-8 -5 -10 -10 -5 -10 6 0 17 5 25 10 8 5 11 10 5 10 -5
0 -17 -5 -25 -10z"/>
<path d="M6800 7721 c0 -7 22 -11 63 -11 34 0 87 -2 117 -5 47 -4 51 -3 25 5
-47 17 -205 25 -205 11z"/>
<path d="M7550 7726 c0 -2 8 -10 18 -17 15 -13 16 -12 3 4 -13 16 -21 21 -21
13z"/>
<path d="M2757 7693 c-20 -14 -37 -30 -37 -35 0 -6 18 5 40 22 35 28 46 40 37
40 -1 0 -19 -12 -40 -27z"/>
<path d="M6698 7709 c-19 -12 -7 -15 42 -9 l45 6 -38 5 c-20 3 -43 2 -49 -2z"/>
<path d="M6320 7639 c-7 -11 -10 -23 -7 -25 2 -2 9 7 15 21 14 30 7 33 -8 4z"/>
<path d="M6220 7640 c-9 -6 -10 -10 -3 -10 6 0 15 5 18 10 8 12 4 12 -15 0z"/>
<path d="M6890 7643 c0 -5 6 -15 12 -21 10 -10 6 -12 -24 -10 -21 1 -40 -1
-43 -4 -4 -3 35 -6 87 -6 73 0 106 -5 153 -23 33 -13 62 -23 65 -22 3 1 17 -7
30 -17 l25 -19 -40 10 c-114 28 -448 71 -474 61 -20 -8 88 -32 179 -41 74 -7
75 -7 32 -15 -23 -5 -41 -10 -40 -11 2 -2 52 -8 111 -14 59 -7 145 -23 190
-37 154 -47 251 -74 254 -71 2 2 -8 10 -21 17 -14 7 -27 19 -30 27 -3 8 -1 11
4 8 5 -3 7 0 5 7 -9 23 -165 117 -196 118 -8 0 -24 7 -35 16 -18 15 -18 15 4
9 12 -4 22 -4 22 -1 0 2 -26 12 -57 21 -68 20 -213 32 -213 18z"/>
<path d="M6320 7585 c-8 -9 -8 -15 -2 -15 12 0 26 19 19 26 -2 2 -10 -2 -17
-11z"/>
<path d="M4030 7549 c-25 -4 -70 -9 -100 -10 l-55 -2 55 -6 c30 -4 59 -3 65 1
5 5 19 8 31 8 21 0 23 -4 19 -52 -2 -29 -4 -59 -5 -65 0 -18 -20 -16 -20 1 0
15 -37 32 -47 22 -4 -3 2 -6 13 -6 29 -1 -43 -30 -75 -30 -14 0 -33 -5 -41
-10 -13 -9 -12 -12 4 -25 19 -14 19 -15 -7 -15 -17 0 -27 5 -27 15 0 11 -11
15 -40 15 -29 0 -40 -4 -40 -15 0 -11 -11 -15 -40 -15 l-40 0 0 -40 0 -40 40
0 c33 0 40 -3 40 -20 0 -17 -7 -20 -40 -20 -22 0 -40 5 -40 10 0 15 -29 12
-46 -4 -8 -8 -14 -22 -14 -30 0 -12 -10 -16 -40 -16 l-40 0 0 -80 c0 -66 -3
-80 -16 -80 -8 0 -13 -4 -9 -9 3 -5 1 -12 -5 -16 -14 -9 -13 18 2 33 8 8 8 12
1 12 -6 0 -9 33 -8 95 2 78 0 95 -12 95 -11 0 -14 -16 -13 -82 1 -46 -1 -375
-5 -733 -3 -357 -7 -898 -8 -1202 l-2 -552 -30 -33 c-28 -30 -28 -31 -2 -9 25
23 27 23 27 5 0 -11 -10 -24 -22 -29 -11 -6 -33 -26 -47 -45 l-25 -35 27 24
c35 31 36 16 1 -16 -15 -14 -28 -35 -30 -48 -1 -13 -6 -30 -10 -37 -11 -18 24
10 52 42 14 16 18 27 12 32 -6 3 1 5 15 5 35 -2 34 -17 -3 -52 -16 -16 -28
-31 -25 -33 2 -2 12 3 21 12 9 9 21 15 27 13 15 -5 20 -97 6 -113 -8 -10 -8
-14 0 -14 8 0 9 -36 5 -122 -4 -68 -6 -138 -6 -157 0 -22 -3 -29 -9 -20 -6 11
-9 10 -15 -5 -5 -12 -9 -14 -14 -6 -6 9 -13 7 -28 -8 -27 -27 -44 -60 -37 -72
3 -5 1 -19 -5 -30 -10 -18 -8 -19 22 -13 18 3 43 17 56 31 13 13 26 21 30 17
4 -3 7 -59 7 -122 l0 -116 42 -14 c39 -13 42 -17 32 -35 -6 -11 -7 -18 -1 -14
5 3 8 -12 6 -39 -2 -25 1 -45 6 -45 6 0 10 5 10 11 0 5 4 8 10 4 5 -3 7 -13 4
-23 -4 -11 2 -8 16 8 l22 25 -6 -25 c-2 -14 1 -35 7 -47 l13 -23 18 31 c20 33
34 33 16 0 -7 -15 -8 -21 0 -21 6 0 17 14 24 31 15 36 27 19 18 -27 -5 -26 -3
-27 11 -16 9 7 19 27 22 44 5 22 10 27 18 19 15 -15 30 -14 21 1 -4 7 -3 8 4
4 7 -4 12 -18 12 -31 0 -58 36 -77 47 -25 9 46 23 46 23 0 0 -23 4 -39 9 -35
5 3 9 19 9 36 -1 16 4 35 11 42 10 9 12 9 11 -3 -1 -8 -2 -28 -1 -45 1 -25 5
-30 26 -30 21 0 27 7 36 38 10 37 24 53 17 20 -4 -20 28 -61 38 -50 4 4 10 24
14 44 l8 38 1 -47 c1 -53 21 -67 22 -15 l1 32 13 -30 c12 -27 14 -28 21 -10 4
11 9 23 11 27 2 4 -3 5 -11 2 -13 -5 -14 -1 -6 22 14 40 29 124 21 120 -3 -2
-5 39 -4 92 1 54 2 97 3 97 1 0 3 12 4 28 1 15 -3 27 -8 27 -5 0 -2 8 7 18 20
22 22 52 4 52 -9 0 -13 12 -12 34 0 19 -3 32 -7 30 -14 -9 -9 14 23 93 21 54
43 91 71 118 23 22 38 34 34 28 -4 -7 -3 -13 3 -13 10 0 27 39 23 53 -1 4 3
18 8 30 9 18 6 17 -14 -6 -28 -31 -36 -15 -10 21 9 13 13 30 10 38 -7 18 -4
30 8 26 5 -2 13 3 19 10 9 13 8 10 -9 -39 -4 -10 5 -4 20 12 l25 30 1 -227 c0
-189 -2 -228 -15 -235 -17 -10 -48 -93 -35 -93 6 0 10 -7 10 -15 0 -21 19 -19
28 3 4 9 9 -25 12 -78 l5 -95 29 -3 c27 -3 28 -6 23 -42 -7 -52 4 -60 20 -13
l12 38 -5 -50 c-6 -49 -6 -50 14 -32 20 18 20 18 12 -15 -5 -18 -14 -47 -21
-65 -14 -34 -5 -58 12 -33 5 8 12 32 15 53 9 54 19 53 19 -1 -1 -26 1 -57 3
-69 4 -19 6 -20 18 -8 8 7 14 21 14 29 0 10 6 13 15 10 8 -4 12 -10 9 -15 -12
-20 19 -7 41 17 l25 27 0 -26 c0 -14 -4 -29 -10 -32 -5 -3 -10 -11 -10 -17 0
-6 7 -5 17 3 15 12 16 12 9 -6 -6 -17 -4 -16 16 5 21 23 23 23 27 5 3 -17 5
-17 17 6 l13 24 1 -25 c1 -24 1 -24 15 -6 13 17 15 18 15 3 0 -20 16 -23 23
-4 3 9 7 9 20 -1 18 -15 37 -8 37 14 0 16 16 19 25 4 9 -14 23 -13 28 3 2 6 2
2 1 -10 -6 -31 14 -39 22 -8 3 14 10 25 14 25 5 0 10 6 13 13 2 6 2 1 0 -12
-3 -18 0 -22 11 -18 8 3 16 1 18 -5 3 -8 10 -8 25 0 16 9 23 9 27 -1 3 -8 8
-7 16 6 6 9 18 17 25 17 8 0 15 8 15 17 0 86 11 273 16 288 6 14 4 16 -6 10
-9 -6 -11 -4 -5 4 4 7 8 29 9 49 1 20 8 47 14 59 9 16 9 24 0 29 -6 4 -8 3 -5
-3 4 -6 -1 -17 -10 -24 -14 -12 -16 -12 -8 1 5 8 10 23 11 35 1 11 4 27 6 35
1 8 -3 14 -9 13 -7 -2 -13 1 -13 6 0 14 49 68 50 55 0 -6 -7 -17 -15 -24 -16
-13 -20 -30 -7 -30 4 0 15 16 25 36 9 19 13 33 7 29 -16 -10 -12 11 5 25 8 6
19 9 24 5 6 -3 13 4 15 17 3 13 7 32 9 43 3 11 5 4 6 -15 2 -33 2 -34 16 -16
8 11 15 28 15 38 0 10 4 26 9 36 5 9 15 38 22 64 11 39 15 44 24 31 9 -12 14
-13 19 -4 8 13 36 -9 36 -28 0 -6 4 -11 9 -11 5 0 11 23 15 50 7 51 26 70 26
25 0 -14 5 -25 10 -25 6 0 9 3 8 8 -3 14 23 92 31 92 5 0 12 -21 16 -48 7 -41
9 -44 16 -22 4 14 8 41 10 60 2 31 3 30 9 -15 l7 -50 2 45 2 45 12 -35 c9 -24
18 -34 30 -32 15 3 17 -6 17 -70 0 -51 -3 -68 -10 -58 -7 11 -10 11 -10 2 0
-7 -4 -11 -9 -8 -13 9 -20 -31 -8 -43 6 -6 8 -11 4 -11 -4 0 -3 -10 4 -21 9
-17 13 -19 20 -8 6 10 9 8 9 -8 0 -13 -5 -22 -12 -20 -8 1 -14 -10 -16 -25 -3
-28 12 -39 22 -15 3 6 4 -6 3 -28 -1 -23 -9 -48 -19 -60 -10 -10 -16 -26 -13
-34 3 -8 2 -17 -3 -20 -14 -9 -24 -61 -12 -61 6 0 9 -3 7 -7 -3 -5 1 -14 9
-21 12 -11 14 -7 14 23 0 19 5 35 10 35 6 0 10 -33 10 -80 0 -87 17 -130 50
-130 10 0 20 -10 24 -22 6 -23 7 -23 21 -4 17 23 20 9 5 -28 -6 -16 -6 -27 0
-31 6 -4 14 5 20 19 12 33 19 33 12 0 -2 -14 1 -36 8 -49 7 -13 10 -37 8 -54
-6 -42 3 -39 24 7 17 35 17 31 2 -30 -5 -22 -3 -28 10 -28 9 0 16 8 16 18 1
15 2 15 12 -3 11 -19 12 -18 24 10 l13 30 1 -37 c0 -27 4 -38 15 -38 8 0 15 7
15 15 0 18 20 20 20 3 0 -8 7 -5 15 6 15 19 15 19 15 -5 l0 -24 20 25 c11 14
20 21 20 15 0 -5 5 -3 10 5 8 13 10 12 10 -4 0 -15 3 -16 15 -6 12 10 15 10
15 0 0 -10 3 -10 15 0 8 7 15 9 15 5 0 -4 9 3 20 16 16 20 19 21 20 7 0 -22
18 -24 26 -3 4 8 10 13 15 10 4 -3 13 5 20 17 12 22 12 22 19 3 7 -18 9 -18
20 7 13 27 30 38 30 18 0 -18 25 0 42 31 10 16 23 29 30 27 7 -1 28 13 47 32
30 31 33 38 29 82 -4 36 -2 46 7 38 20 -16 25 1 8 26 -9 14 -13 27 -10 31 4 3
9 -2 13 -11 3 -9 12 -16 19 -16 21 0 24 23 6 44 -15 18 -15 19 3 12 19 -7 19
-6 1 14 -18 20 -8 29 11 10 6 -6 10 -3 10 9 0 11 -3 18 -6 16 -4 -2 -7 2 -7
10 0 9 5 15 11 14 24 -3 37 1 31 10 -3 5 7 12 22 14 27 4 27 4 6 12 -13 4 -23
11 -23 16 0 5 6 6 14 3 21 -8 14 26 -7 38 -13 7 -17 6 -15 -4 2 -7 -5 -12 -15
-12 -17 2 -17 1 -1 -25 l17 -26 -30 28 c-36 34 -55 36 -23 2 19 -20 20 -25 7
-25 -9 0 -19 5 -22 10 -11 18 -35 11 -28 -7 6 -16 5 -16 -11 -4 -9 8 -15 20
-12 27 3 7 -3 15 -12 17 -11 3 -8 5 7 6 20 1 22 4 13 13 -19 19 -14 30 9 18
31 -17 33 -6 4 28 l-25 30 25 -2 c22 -3 29 4 26 26 0 4 16 0 36 -9 34 -14 36
-14 24 1 -11 13 -10 17 7 23 12 5 22 12 24 18 2 5 5 9 8 8 3 -1 14 -5 25 -9
13 -4 9 4 -15 26 -26 25 -44 34 -73 34 -23 1 -36 -3 -33 -10 5 -14 -31 -11
-46 4 -9 9 -7 12 10 12 12 0 22 5 22 10 0 6 -6 10 -14 10 -15 0 -51 48 -42 57
3 3 11 -6 17 -21 7 -14 16 -26 21 -26 11 0 10 7 -3 32 -8 15 -8 19 0 14 6 -4
11 -3 11 3 0 6 7 8 15 5 18 -7 20 7 3 25 -11 10 -9 11 7 6 20 -7 20 -6 1 9
-11 9 -25 16 -30 16 -6 0 -4 5 4 10 13 8 12 10 -2 10 -10 0 -18 5 -18 10 0 15
30 12 36 -4 5 -12 57 -31 77 -27 5 1 6 -3 2 -9 -4 -6 4 -10 18 -10 25 0 42 23
31 41 -3 5 -27 9 -54 9 -54 0 -80 7 -80 22 0 6 12 8 31 4 25 -5 28 -3 17 7 -7
8 -25 17 -40 20 -20 5 -26 13 -24 32 1 17 7 25 19 25 25 0 21 20 -5 21 -13 1
-5 5 17 8 l40 6 -40 19 c-32 15 -36 20 -22 25 22 8 24 20 5 33 -10 7 -10 9 2
7 30 -3 50 1 50 11 0 6 -9 10 -20 10 -11 0 -20 5 -20 11 0 8 14 10 40 6 32 -4
42 -1 50 13 7 13 6 20 -3 24 -6 3 0 5 15 3 15 -2 33 0 40 5 8 6 -3 8 -32 5
-25 -2 -54 -1 -65 3 -11 4 -34 1 -52 -7 -43 -17 -58 -17 -39 2 8 8 24 15 35
15 32 0 25 17 -11 25 -53 13 -2 18 67 7 51 -8 56 -8 40 4 -14 10 -15 14 -4 15
8 1 -6 5 -31 10 -29 6 -46 5 -48 -1 -2 -6 -11 -10 -20 -10 -10 0 -13 3 -7 8
13 9 18 35 5 27 -5 -3 -18 -1 -27 4 -10 6 -12 11 -5 11 20 0 14 16 -10 28
l-23 11 24 0 c13 1 21 4 17 9 -4 4 18 12 51 18 54 10 56 12 33 22 -20 9 -10
10 50 7 56 -3 69 -1 51 6 -14 5 -32 7 -40 4 -9 -3 -5 4 8 15 30 26 24 31 -36
36 -35 3 -43 2 -28 -5 11 -5 14 -10 7 -10 -7 -1 -10 -5 -7 -11 4 -6 -10 -10
-34 -10 -22 0 -43 5 -46 10 -3 6 4 10 17 10 19 0 20 2 8 10 -13 9 -13 11 0 20
13 9 12 12 -4 25 -17 13 -17 15 -3 20 49 15 52 19 20 23 -18 2 -33 6 -33 9 0
14 38 32 65 32 26 0 28 -2 10 -10 -16 -7 -14 -8 10 -3 78 15 34 32 -64 25 -30
-2 -33 0 -21 13 7 9 18 15 24 14 6 -2 12 2 14 7 1 6 -8 11 -21 13 -20 3 -23 7
-19 33 4 26 8 30 26 25 55 -16 76 -18 76 -7 0 6 -13 11 -29 11 -16 0 -42 5
-58 11 -26 10 -26 12 -8 19 11 4 25 5 32 3 6 -3 24 2 40 11 l28 15 -40 -5
c-27 -4 -36 -2 -27 4 11 7 10 10 -3 16 -9 3 -21 4 -25 1 -5 -3 -14 4 -21 16
-9 17 -8 23 2 30 8 5 15 4 17 0 2 -5 21 -6 44 -3 29 3 39 2 34 -6 -5 -8 -1
-10 9 -5 24 8 1 21 -52 29 l-43 6 25 20 c34 27 31 38 -9 38 -42 0 -59 20 -19
21 15 1 37 1 48 0 17 -2 17 0 5 8 -8 6 -32 11 -54 11 -33 0 -38 3 -33 20 3 13
0 20 -9 20 -20 0 -17 17 7 41 11 11 18 23 15 27 -4 3 -12 0 -18 -6 -17 -17
-31 -15 -24 5 4 9 1 20 -6 25 -9 6 -2 8 20 5 17 -2 32 0 32 5 0 4 -4 8 -10 8
-5 0 -10 5 -10 11 0 6 6 9 14 6 23 -9 99 14 87 26 -16 16 -14 25 7 30 14 4 14
5 1 6 -9 0 -24 -8 -34 -19 -22 -24 -43 -26 -52 -4 -6 16 -32 15 -75 -1 -10 -4
-18 -3 -18 2 0 12 87 43 104 37 8 -3 17 -1 20 5 4 5 -3 13 -15 16 -12 4 -24 3
-28 -3 -3 -5 -25 -13 -48 -17 -36 -6 -43 -4 -43 9 0 9 -5 16 -11 16 -6 0 4 14
21 31 30 31 35 54 5 29 -9 -8 -15 -8 -15 -2 0 6 10 18 22 26 19 13 19 16 5 22
-20 7 -37 -2 -37 -22 0 -15 -9 -17 -35 -8 -14 6 -14 8 2 27 18 20 17 20 -9 13
-21 -5 -28 -3 -28 9 0 8 -4 15 -9 15 -5 0 -12 7 -15 16 -5 12 -2 15 11 9 29
-11 35 -11 40 2 3 7 -3 9 -16 6 -15 -4 -21 -1 -21 12 0 11 6 15 18 11 12 -4
31 6 56 29 24 22 33 35 23 35 -9 0 -19 -4 -22 -10 -3 -5 -15 -10 -26 -10 -11
0 -18 -4 -14 -9 3 -5 0 -13 -6 -17 -8 -4 -9 -3 -5 5 8 12 -41 10 -74 -3 -9 -4
-30 8 -52 29 -20 19 -39 35 -43 35 -3 0 -24 12 -46 26 -23 14 -71 38 -108 52
-62 25 -77 26 -231 26 -154 0 -170 -1 -238 -26 -41 -15 -97 -41 -125 -58 -90
-54 -185 -153 -215 -224 -7 -16 -14 -27 -16 -25 -2 2 -7 40 -10 84 -9 104 -12
114 -43 121 -34 9 -493 -16 -515 -28 -16 -8 -18 -29 -19 -206 0 -108 -1 -253
-2 -321 -3 -123 -3 -123 -32 -149 -17 -14 -23 -23 -15 -20 8 3 23 9 33 13 28
12 10 -20 -20 -34 -14 -6 -23 -14 -20 -17 3 -3 14 -1 25 5 11 6 22 8 24 5 3
-2 4 -57 2 -122 -3 -97 -7 -119 -21 -131 -17 -13 -17 -13 0 -8 13 5 17 1 18
-21 0 -15 2 -38 4 -52 1 -14 -2 -30 -7 -37 -5 -7 -5 -13 1 -17 13 -9 5 -87
-11 -97 -18 -11 -19 -49 -2 -42 19 7 19 -43 0 -54 -12 -8 -36 -45 -36 -57 0
-3 9 -6 20 -6 27 0 25 -13 -2 -25 -13 -6 -24 -19 -26 -30 -3 -20 -3 -20 13 -1
8 11 15 16 15 12 0 -5 7 -3 15 4 13 11 15 7 13 -27 -1 -32 -6 -42 -30 -56 -17
-10 -34 -14 -40 -11 -13 8 -28 -14 -28 -42 0 -12 -14 -40 -31 -64 -23 -31 -26
-41 -14 -36 15 5 16 4 6 -8 -10 -11 -9 -16 4 -23 13 -8 11 -13 -16 -37 -17
-15 -34 -25 -37 -21 -3 3 7 17 23 30 17 13 25 24 19 25 -6 0 -14 -3 -18 -7
-14 -14 -35 -11 -29 4 5 13 3 13 -16 3 -18 -9 -22 -9 -20 2 4 29 -2 36 -23 31
-18 -4 -16 0 10 16 34 22 42 34 15 24 -12 -5 -14 -3 -9 8 4 8 1 6 -7 -4 -10
-12 -17 -15 -22 -7 -4 6 5 20 20 32 16 12 25 28 24 42 -2 17 13 62 39 109 2 5
-6 3 -19 -4 -23 -12 -23 -11 -9 7 8 10 26 29 40 42 17 16 19 22 8 18 -23 -7
-31 9 -13 24 8 7 15 18 15 24 0 6 16 21 36 34 46 30 38 40 -9 12 -20 -12 -49
-20 -69 -18 -19 1 -40 -2 -48 -7 -9 -5 -7 1 4 13 11 12 16 22 11 22 -4 0 0 11
9 25 14 22 14 25 1 25 -12 0 -13 4 -3 25 6 14 17 25 24 25 7 0 16 5 20 11 4 8
0 9 -15 4 -17 -5 -20 -3 -14 11 5 14 3 16 -11 11 -11 -4 -15 -3 -10 4 4 6 0
15 -7 20 -11 6 -8 9 8 9 25 0 39 16 21 23 -7 3 0 10 17 17 l30 13 -54 9 c-30
4 -56 10 -58 11 -1 2 16 14 40 26 32 17 36 21 15 17 -16 -4 -28 -2 -28 4 0 5
9 10 19 10 10 0 29 9 42 21 l24 20 -22 -6 c-13 -4 -23 -2 -23 3 0 6 12 13 26
16 42 11 23 14 -31 6 -58 -9 -76 -3 -50 17 11 7 15 13 9 13 -5 0 -2 5 6 10 12
8 9 10 -12 10 -16 0 -28 5 -28 10 0 6 15 10 34 10 38 0 55 14 30 24 -15 6 -14
9 5 25 19 17 20 20 6 28 -18 10 -16 43 5 69 8 10 10 15 3 11 -6 -4 -14 -3 -18
3 -3 6 1 13 10 16 13 6 14 8 3 15 -10 7 -9 9 4 9 13 0 16 7 13 32 -2 18 1 38
6 45 8 9 4 14 -16 19 -19 5 -23 10 -16 17 17 17 13 27 -11 28 -21 1 -21 2 -3
6 25 6 44 23 26 23 -7 0 -9 5 -6 10 3 6 1 10 -4 10 -20 0 -11 18 12 24 18 5
19 8 7 16 -12 7 -12 14 -4 27 14 23 7 43 -14 43 -14 0 -14 2 -3 9 10 6 1 11
-28 16 -46 8 -56 25 -15 25 17 0 36 10 50 28 24 28 32 48 14 37 -5 -3 -10 0
-10 8 0 8 8 18 18 22 16 6 16 7 0 16 -10 5 -15 16 -12 24 4 9 0 15 -7 15 -12
0 -12 2 0 9 10 6 10 10 1 16 -9 6 -9 10 1 16 11 7 11 9 -2 9 -23 0 -12 64 14
81 5 4 4 15 -2 28 -9 16 -21 21 -50 21 -33 0 -38 3 -37 21 1 13 11 25 24 30
15 6 21 5 17 -1 -3 -6 1 -10 9 -10 9 0 13 6 10 14 -3 8 -1 17 4 20 5 3 8 30 6
60 l-3 55 32 3 c29 3 26 6 -33 25 -52 18 -58 22 -28 19 25 -2 39 1 42 10 3 8
0 14 -6 14 -7 0 -3 6 8 14 18 14 18 15 -6 24 -14 5 -34 12 -45 15 -14 3 -10 5
11 6 37 1 53 35 29 61 -13 14 -13 18 2 32 22 23 10 47 -28 55 l-32 6 34 18 34
18 -37 1 c-21 0 -38 5 -38 10 0 6 7 10 16 10 12 0 11 5 -7 19 l-24 19 27 11
c15 6 34 8 42 5 23 -9 28 14 6 29 -11 7 -17 17 -13 20 3 4 -1 7 -10 7 -10 0
-14 5 -11 15 4 9 0 15 -10 15 -19 0 -19 2 -4 35 7 16 19 25 33 25 23 0 41 35
24 46 -5 3 -7 10 -4 15 4 5 -4 13 -17 18 -19 8 -20 10 -4 10 12 1 16 6 12 16
-3 9 1 18 9 21 19 8 13 64 -9 76 -15 9 -14 13 11 36 l28 26 -25 6 -25 6 23 13
c22 12 23 14 7 37 -9 14 -11 24 -4 24 7 0 8 11 4 30 -4 17 -2 30 3 30 6 0 8
17 7 37 -2 21 1 43 6 50 7 7 7 18 1 30 -11 20 -10 183 1 200 4 6 3 14 -3 18
-6 4 -8 10 -5 15 8 13 -13 50 -28 49 -7 -1 -32 -5 -57 -10z m-514 -688 c0 -11
-4 -17 -8 -15 -4 3 -8 12 -8 20 0 8 4 14 8 14 4 0 8 -9 8 -19z m2499 -931 c-3
-5 -10 -10 -16 -10 -5 0 -9 5 -9 10 0 6 7 10 16 10 8 0 12 -4 9 -10z m148
-285 c4 -8 2 -17 -3 -20 -6 -4 -10 -4 -10 -1 0 2 -3 11 -6 20 -3 9 -2 16 4 16
5 0 12 -7 15 -15z m77 -251 c0 -2 -7 -4 -15 -4 -8 0 -15 4 -15 10 0 5 7 7 15
4 8 -4 15 -8 15 -10z m-860 -185 c0 -11 -4 -17 -10 -14 -5 3 -10 13 -10 21 0
8 5 14 10 14 6 0 10 -9 10 -21z m-110 -12 c0 -2 -10 -12 -22 -23 l-23 -19 19
23 c18 21 26 27 26 19z m60 -12 c-10 -12 -8 -14 9 -10 27 5 28 -21 1 -28 -11
-3 -20 0 -20 6 0 6 -10 0 -22 -13 -15 -16 -18 -25 -10 -28 17 -5 15 -29 -4
-36 -8 -3 -12 -11 -8 -17 8 -14 104 87 104 108 0 7 5 13 11 13 6 0 8 -7 5 -16
-3 -8 -2 -13 3 -10 4 3 8 -8 9 -24 0 -16 -3 -32 -8 -35 -5 -3 -7 3 -5 15 2 11
0 22 -6 25 -5 4 -9 0 -9 -7 0 -7 -9 -19 -20 -26 -11 -7 -20 -18 -20 -25 0 -8
3 -8 9 2 5 7 14 10 20 7 14 -9 14 -56 0 -56 -6 0 -8 9 -4 21 6 19 4 18 -23 -6
-17 -15 -30 -34 -30 -44 0 -9 -3 -25 -8 -36 -7 -18 -6 -17 16 3 28 26 50 29
50 6 0 -8 5 -12 11 -8 6 3 8 17 5 29 -3 13 -2 26 3 29 5 3 11 -4 14 -16 5 -18
8 -19 21 -8 13 10 19 10 33 -1 15 -12 16 -12 8 1 -6 12 -5 13 5 3 11 -10 11
-15 0 -28 -9 -11 -9 -15 -1 -15 8 0 11 -21 9 -67 l-3 -68 -34 -2 c-39 -3 -51
-11 -35 -21 17 -11 -5 -100 -31 -132 -7 -8 -19 -33 -26 -55 -15 -45 -36 -76
-24 -35 4 14 7 34 8 45 1 10 9 27 19 37 19 19 25 64 8 53 -5 -3 -10 -12 -10
-20 0 -8 -5 -17 -10 -20 -11 -7 -2 45 9 55 3 3 11 19 17 35 6 17 15 37 18 46
6 13 1 17 -18 17 -26 0 -54 -23 -42 -35 3 -3 6 -1 6 5 0 7 4 12 8 12 5 0 9 -7
9 -15 0 -8 -6 -15 -13 -15 -6 0 -14 -7 -18 -15 -3 -8 -1 -15 3 -15 5 0 12 6
14 13 4 7 6 8 6 1 1 -7 -10 -19 -24 -28 -14 -9 -25 -23 -25 -31 0 -8 -8 -18
-17 -23 -9 -6 -17 -16 -19 -23 -1 -8 -4 -28 -7 -46 -3 -22 -1 -33 9 -37 8 -3
14 0 14 7 0 8 3 8 9 -1 6 -10 10 -7 15 12 7 27 26 36 26 12 0 -8 -16 -45 -36
-82 -35 -67 -61 -97 -76 -88 -4 3 -15 -21 -24 -52 -25 -88 -50 -139 -58 -119
-9 25 -7 37 5 29 7 -4 9 0 5 12 -3 11 -1 26 5 34 8 12 9 9 4 -10 -4 -18 -3
-21 4 -10 5 8 11 29 14 45 3 17 8 42 12 57 4 16 4 36 1 45 -6 15 -9 15 -17 3
-9 -12 -10 -12 -5 3 3 10 6 23 6 28 0 6 5 7 10 4 6 -3 10 1 10 9 0 28 -28 6
-44 -35 -21 -53 -20 -66 4 -44 22 20 26 9 6 -17 -7 -10 -16 -14 -20 -10 -4 4
-5 -5 -1 -19 5 -19 -1 -42 -21 -80 -28 -55 -40 -104 -23 -94 11 8 1 -19 -27
-68 -19 -34 -22 -36 -27 -18 -3 14 -1 19 6 14 8 -4 8 -2 0 9 -7 8 -10 18 -6
22 4 3 7 15 8 26 2 19 0 19 -16 4 -18 -17 -22 -2 -6 24 5 6 4 12 -1 12 -10 0
-9 36 1 46 12 12 8 26 -5 18 -7 -4 -2 5 12 20 20 22 21 26 6 20 -14 -5 -17 -4
-12 4 4 7 2 12 -3 12 -6 0 -11 5 -11 11 0 5 4 8 9 5 5 -4 7 2 4 13 -3 10 0 22
6 25 18 11 13 29 -6 22 -12 -4 -9 1 7 15 16 13 19 19 8 15 -10 -3 -20 -1 -23
4 -4 6 0 10 7 11 10 0 10 2 -1 6 -11 5 -11 7 0 14 12 7 12 9 0 9 -10 0 -9 6 5
28 15 23 15 25 1 13 -11 -9 -17 -9 -17 -2 0 6 9 16 20 23 26 17 27 42 1 35
-13 -3 -21 1 -24 15 -4 15 -3 17 8 8 16 -14 35 -5 35 15 0 9 -7 12 -17 9 -16
-4 -16 -3 1 8 75 53 79 65 20 59 -33 -2 -35 -1 -25 18 15 27 14 30 -9 24 -15
-4 -20 -1 -19 13 0 12 3 14 6 6 4 -10 8 -10 19 -1 10 8 11 16 4 30 -8 14 -6
21 11 29 11 7 18 14 15 17 -3 3 5 14 17 24 l22 18 -23 1 c-31 0 -23 24 9 29
23 3 39 17 39 35 0 4 -7 5 -16 2 -12 -5 -15 -2 -10 10 3 8 6 21 6 27 0 8 3 8
8 -1 7 -9 13 -8 27 8 10 11 24 20 31 20 7 0 21 10 31 23 10 12 25 22 33 22 8
0 16 10 18 23 l4 24 -21 -21 c-12 -12 -31 -21 -43 -20 -23 0 -23 0 2 17 14 9
45 35 68 57 l44 39 -23 -38 -22 -39 22 12 c12 7 25 20 28 29 9 24 24 42 35 42
6 0 5 -6 -2 -15z m-125 -15 c-10 -11 -22 -17 -27 -14 -5 4 1 12 14 19 32 18
34 18 13 -5z m226 -3 c-10 -9 -11 -8 -5 6 3 10 9 15 12 12 3 -3 0 -11 -7 -18z
m-267 -50 c-3 -9 -10 -17 -16 -17 -5 0 -7 -4 -3 -9 3 -5 1 -12 -4 -16 -13 -7
-5 33 9 49 5 7 8 15 6 18 -1 3 1 2 6 -2 5 -3 6 -14 2 -23z m306 -17 c0 -5 -4
-10 -9 -10 -6 0 -13 5 -16 10 -3 6 1 10 9 10 9 0 16 -4 16 -10z m-338 -62 c-7
-7 -12 -8 -12 -2 0 14 12 26 19 19 2 -3 -1 -11 -7 -17z m338 -9 c0 -4 -7 -6
-15 -3 -8 4 -15 10 -15 15 0 4 7 6 15 3 8 -4 15 -10 15 -15z m-125 -19 c-3 -5
-11 -10 -16 -10 -6 0 -7 5 -4 10 3 6 11 10 16 10 6 0 7 -4 4 -10z m135 -301
c0 -27 -3 -31 -21 -26 -16 4 -18 3 -8 -9 6 -7 15 -11 21 -8 5 3 8 -24 6 -66
-1 -39 -6 -74 -12 -77 -5 -3 -6 -1 -2 5 12 20 -12 13 -32 -9 l-20 -20 -11 32
c-6 17 -8 43 -4 57 6 24 6 24 21 6 13 -18 14 -17 8 10 -6 25 -5 28 8 17 25
-21 25 21 0 49 -32 35 -23 70 17 70 26 0 29 -3 29 -31z m-1170 -68 c0 -5 -7
-12 -16 -15 -14 -5 -15 -4 -4 9 14 17 20 19 20 6z m991 -144 c-10 -9 -11 -8
-5 6 3 10 9 15 12 12 3 -3 0 -11 -7 -18z m170 -86 c7 11 9 11 9 1 0 -7 -7 -20
-15 -28 -13 -14 -15 -12 -14 18 1 20 3 25 6 14 4 -15 7 -16 14 -5z m-1274 -93
c-3 -8 -6 -5 -6 6 -1 11 2 17 5 13 3 -3 4 -12 1 -19z m-777 -316 c-8 -3 -23
-13 -34 -23 -11 -11 -22 -16 -25 -13 -9 9 52 54 63 47 6 -4 4 -9 -4 -11z
m2831 -69 c13 -15 12 -15 -8 -4 -24 12 -29 21 -14 21 5 0 15 -7 22 -17z m-23
-98 c-3 -3 -9 2 -12 12 -6 14 -5 15 5 6 7 -7 10 -15 7 -18z m-1571 -247 c-3
-7 -5 -2 -5 12 0 14 2 19 5 13 2 -7 2 -19 0 -25z m134 -58 c-9 -23 -10 -23
-10 12 -1 20 2 45 7 55 6 14 8 12 10 -12 2 -17 -1 -42 -7 -55z m-178 9 c-6 -6
-9 -1 -7 13 3 33 6 36 11 14 3 -10 1 -22 -4 -27z m337 37 c0 -3 -4 -8 -10 -11
-5 -3 -10 -1 -10 4 0 6 5 11 10 11 6 0 10 -2 10 -4z m-260 -48 c0 -18 -2 -20
-9 -8 -6 8 -7 18 -5 22 9 14 14 9 14 -14z m-99 -35 c-12 -20 -14 -14 -5 12 4
9 9 14 11 11 3 -2 0 -13 -6 -23z"/>
<path d="M5230 5040 c0 -5 5 -10 10 -10 6 0 10 5 10 10 0 6 -4 10 -10 10 -5 0
-10 -4 -10 -10z"/>
<path d="M5293 5040 c-13 -5 -23 -17 -23 -27 0 -14 2 -15 13 -2 6 8 19 20 27
27 16 14 14 14 -17 2z"/>
<path d="M5202 5013 c1 -10 -2 -25 -7 -33 -7 -13 -6 -13 7 -2 9 7 14 21 11 32
-7 25 -15 26 -11 3z"/>
<path d="M5136 4984 c-4 -9 -4 -19 -1 -22 2 -3 7 3 11 12 4 9 4 19 1 22 -2 3
-7 -3 -11 -12z"/>
<path d="M5154 4933 c-5 -8 -20 -16 -33 -17 -14 0 -26 -8 -28 -16 -4 -12 -3
-12 5 -1 6 9 11 9 13 2 2 -6 16 -1 34 13 17 13 28 27 25 30 -3 3 -10 -2 -16
-11z"/>
<path d="M5380 4929 c-15 -27 -8 -33 16 -13 10 8 13 12 5 8 -11 -5 -13 -3 -8
9 9 24 0 21 -13 -4z"/>
<path d="M5300 4910 c0 -5 5 -10 10 -10 6 0 10 5 10 10 0 6 -4 10 -10 10 -5 0
-10 -4 -10 -10z"/>
<path d="M5450 4900 c0 -5 5 -10 10 -10 6 0 10 5 10 10 0 6 -4 10 -10 10 -5 0
-10 -4 -10 -10z"/>
<path d="M5387 4882 c-21 -23 -22 -33 -3 -26 8 3 16 14 19 25 6 24 4 24 -16 1z"/>
<path d="M5316 4875 c-9 -26 -7 -32 5 -12 6 10 9 21 6 23 -2 3 -7 -2 -11 -11z"/>
<path d="M5070 4870 c-12 -8 -9 -10 13 -10 15 0 27 5 27 10 0 13 -20 13 -40 0z"/>
<path d="M5138 4863 c7 -3 16 -2 19 1 4 3 -2 6 -13 5 -11 0 -14 -3 -6 -6z"/>
<path d="M5423 4856 c0 -8 8 -14 18 -13 9 1 15 7 12 14 -7 18 -30 17 -30 -1z"/>
<path d="M5068 4831 c-24 -24 -23 -30 7 -27 25 3 48 16 27 16 -6 0 -9 7 -6 15
8 20 -7 18 -28 -4z"/>
<path d="M5383 4781 c-16 -25 -17 -51 -3 -51 14 0 22 23 18 50 -3 21 -3 21
-15 1z"/>
<path d="M5210 4725 c-7 -9 -11 -18 -8 -20 3 -3 11 1 18 10 7 9 11 18 8 20 -3
3 -11 -1 -18 -10z"/>
<path d="M5117 4503 c-4 -3 -7 -11 -7 -17 0 -6 5 -5 12 2 6 6 9 14 7 17 -3 3
-9 2 -12 -2z"/>
<path d="M5425 4710 c-3 -5 -1 -10 4 -10 6 0 11 5 11 10 0 6 -2 10 -4 10 -3 0
-8 -4 -11 -10z"/>
<path d="M6305 7552 c-22 -16 -49 -53 -34 -47 8 3 22 17 32 30 19 26 19 30 2
17z"/>
<path d="M6460 7515 c-13 -14 -20 -25 -16 -25 12 0 56 32 56 41 0 16 -16 10
-40 -16z"/>
<path d="M3813 7523 c9 -2 23 -2 30 0 6 3 -1 5 -18 5 -16 0 -22 -2 -12 -5z"/>
<path d="M3660 7510 c-20 -6 -21 -8 -5 -8 11 0 34 4 50 8 27 7 27 8 5 8 -14 0
-36 -4 -50 -8z"/>
<path d="M3493 7435 c0 -8 4 -15 9 -15 4 0 8 4 8 9 0 6 -4 12 -8 15 -5 3 -9
-1 -9 -9z"/>
<path d="M3488 7403 c6 -2 18 -2 25 0 6 3 1 5 -13 5 -14 0 -19 -2 -12 -5z"/>
<path d="M5445 7359 c-4 -5 -10 -7 -15 -4 -15 9 -58 -13 -189 -100 -71 -46
-132 -93 -136 -104 -8 -26 14 -71 31 -64 9 3 14 -2 14 -16 0 -12 5 -21 10 -21
6 0 10 5 10 10 0 6 5 10 10 10 6 0 10 -8 10 -17 0 -16 2 -16 11 -3 7 11 8 5 3
-22 -8 -46 11 -52 21 -7 6 28 8 29 22 12 10 -13 16 -15 19 -5 10 23 19 12 21
-26 1 -28 0 -32 -6 -17 -8 19 -9 18 -14 -5 -3 -14 -9 -43 -12 -65 l-6 -40 19
28 c10 15 22 24 26 20 4 -4 4 0 1 9 -4 11 0 20 13 27 10 5 36 45 57 88 20 43
41 85 46 93 35 56 50 105 45 135 -4 22 -2 35 5 37 17 6 19 46 3 52 -8 3 -16 1
-19 -5z m-2 -33 c3 -8 -3 -24 -13 -36 -10 -12 -21 -27 -23 -33 -2 -7 -8 -8
-13 -4 -5 4 -2 12 6 17 8 6 12 10 7 10 -7 0 20 60 27 60 2 0 6 -6 9 -14z"/>
<path d="M3488 7295 c-2 -21 0 -35 7 -35 7 0 9 14 7 35 -2 19 -5 35 -7 35 -2
0 -5 -16 -7 -35z"/>
<path d="M6334 7244 c-18 -14 -18 -15 4 -4 12 6 22 13 22 15 0 8 -5 6 -26 -11z"/>
<path d="M3180 7110 c0 -5 -8 -7 -17 -4 -17 5 -17 5 0 -9 21 -17 22 -28 3 -21
-8 3 -17 1 -20 -4 -7 -12 72 -28 82 -17 13 13 7 40 -13 52 -25 15 -35 16 -35
3z"/>
<path d="M6120 7083 c-43 -17 -170 -107 -320 -226 -8 -7 -52 -37 -97 -66 -89
-59 -104 -83 -72 -117 11 -12 22 -34 23 -48 3 -25 28 -63 53 -78 6 -5 9 -18 6
-30 -4 -19 -3 -20 6 -8 13 18 14 14 2 -27 -14 -48 1 -49 21 -1 10 24 16 32 14
18 -3 -14 -3 -36 1 -48 6 -23 6 -23 20 -2 8 11 21 20 30 20 12 0 14 -7 10 -32
-5 -29 -4 -30 5 -11 6 12 17 24 26 28 12 4 12 2 -2 -20 -9 -14 -23 -36 -32
-49 -11 -18 -12 -26 -3 -32 8 -5 9 -3 4 6 -5 8 -4 11 3 7 5 -4 9 -15 7 -25 -2
-9 -4 -20 -4 -24 -1 -5 -6 -8 -12 -8 -8 0 -8 5 1 15 7 8 10 15 7 15 -7 0 -107
-136 -107 -146 0 -5 12 8 26 28 15 21 31 35 36 32 5 -4 1 -16 -9 -28 -11 -11
-25 -30 -33 -41 -15 -20 -14 -20 8 -1 12 11 22 15 22 10 1 -14 34 49 35 68 2
17 82 97 99 98 5 0 1 -10 -7 -22 -37 -52 -55 -87 -43 -82 6 2 20 18 30 34 9
17 22 28 27 25 9 -6 4 -19 -27 -62 -10 -15 -12 -23 -5 -23 6 0 16 11 21 24 5
13 14 27 19 31 15 9 14 -18 -1 -35 -7 -8 -3 -6 10 4 12 11 22 26 22 35 0 9 12
24 25 34 20 14 24 15 19 2 -3 -8 -10 -15 -16 -15 -5 0 -8 -9 -6 -19 2 -11 -8
-32 -22 -48 l-25 -28 25 20 c14 12 34 27 45 35 19 15 19 15 2 -13 -10 -16 -16
-36 -12 -44 3 -10 -4 -26 -16 -40 -25 -26 -23 -28 18 -12 15 5 24 7 20 3 -4
-4 -2 -13 4 -20 7 -9 4 -16 -12 -28 -13 -8 -20 -18 -17 -22 6 -6 31 17 67 61
7 9 19 14 26 11 7 -2 16 2 19 10 3 8 13 14 21 14 9 0 13 -5 10 -10 -4 -6 -11
-8 -16 -5 -5 4 -9 4 -9 0 0 -3 9 -9 20 -13 18 -7 16 -10 -17 -26 -21 -10 -44
-21 -52 -25 -8 -4 -21 -18 -30 -32 l-16 -24 25 18 c43 30 113 60 141 59 15 0
30 6 33 14 3 8 13 14 21 14 24 0 -12 -43 -69 -84 l-45 -32 39 -1 c26 -1 40 3
44 13 4 11 15 13 41 8 31 -6 37 -4 42 15 3 13 14 21 27 22 l21 0 -22 11 c-12
6 -30 7 -40 3 -31 -13 -40 -13 -40 1 0 7 13 16 29 19 34 8 47 25 19 25 -12 0
-21 5 -21 10 0 6 7 10 15 10 8 0 15 5 15 10 0 6 -16 10 -35 8 -19 -1 -37 1
-41 5 -4 4 9 7 29 7 21 0 37 4 37 9 0 11 45 28 98 36 45 7 56 21 20 27 -20 4
-18 6 12 16 l35 12 -32 -3 c-18 -2 -33 -2 -33 0 0 1 15 9 33 17 28 13 29 14 9
15 -32 1 -19 18 21 27 l32 8 -40 6 -40 6 38 19 c42 21 48 35 14 35 -18 0 -23
5 -22 21 1 11 7 24 14 28 6 4 9 15 6 24 -4 8 -2 25 5 36 8 16 8 21 -1 21 -6 0
-8 7 -5 15 3 9 -1 18 -9 21 -11 4 -8 11 13 30 l27 23 -27 1 c-19 0 -28 5 -28
16 0 12 -6 15 -21 11 -17 -4 -19 -3 -10 6 15 15 14 37 -3 37 -15 0 -16 16 -3
38 5 6 5 12 0 12 -4 0 -14 14 -22 31 -10 23 -18 29 -33 26 -19 -5 -19 -5 -2
14 16 18 16 19 -1 19 -17 0 -17 1 0 20 17 18 16 19 -9 26 -21 5 -24 9 -15 20
10 12 8 13 -6 8 -12 -5 -16 -4 -12 3 4 6 1 26 -7 44 -7 19 -11 40 -8 48 2 8 0
11 -6 8 -5 -4 -15 0 -22 8 -7 8 -17 12 -22 9 -6 -4 -6 -9 2 -14 9 -5 9 -9 1
-14 -6 -4 -11 -2 -11 4 0 6 -5 8 -11 4 -7 -4 -10 -1 -7 7 3 8 -2 19 -11 26
-18 14 -20 14 -41 6z m160 -798 c0 -1 -14 -5 -32 -7 -27 -4 -29 -3 -14 8 15
10 46 10 46 -1z m25 -15 c3 -5 -1 -10 -10 -10 -9 0 -13 5 -10 10 3 6 8 10 10
10 2 0 7 -4 10 -10z m-105 -4 c0 -2 -7 -6 -15 -10 -8 -3 -15 -1 -15 4 0 6 7
10 15 10 8 0 15 -2 15 -4z m-58 -38 c-12 -12 -35 -1 -27 12 3 5 13 6 21 3 10
-4 12 -9 6 -15z m38 -8 c-14 -11 -32 -20 -40 -20 -8 0 -1 9 15 20 39 26 58 26
25 0z m-165 -10 c-3 -5 -11 -10 -16 -10 -6 0 -7 5 -4 10 3 6 11 10 16 10 6 0
7 -4 4 -10z m160 -60 c-3 -5 -12 -7 -20 -3 -21 7 -19 13 6 13 11 0 18 -4 14
-10z"/>
<path d="M2566 7023 c-6 -14 -5 -15 5 -6 7 7 10 15 7 18 -3 3 -9 -2 -12 -12z"/>
<path d="M3167 7025 c23 -7 51 -11 62 -8 40 10 20 20 -41 21 l-63 0 42 -13z"/>
<path d="M6424 6975 c-10 -8 -14 -15 -8 -15 6 0 17 7 24 15 16 19 9 19 -16 0z"/>
<path d="M5181 6884 c0 -11 3 -14 6 -6 3 7 2 16 -1 19 -3 4 -6 -2 -5 -13z"/>
<path d="M5192 6862 c-15 -33 -16 -99 0 -108 8 -5 9 -2 5 10 -4 9 -2 39 4 67
13 58 9 69 -9 31z"/>
<path d="M5226 6875 c-3 -8 -1 -15 4 -15 6 0 10 7 10 15 0 8 -2 15 -4 15 -2 0
-6 -7 -10 -15z"/>
<path d="M5060 6865 c0 -8 4 -15 10 -15 5 0 7 7 4 15 -4 8 -8 15 -10 15 -2 0
-4 -7 -4 -15z"/>
<path d="M3140 6860 c8 -5 22 -10 30 -10 13 0 13 1 0 10 -8 5 -22 10 -30 10
-13 0 -13 -1 0 -10z"/>
<path d="M3103 6643 c9 -2 23 -2 30 0 6 3 -1 5 -18 5 -16 0 -22 -2 -12 -5z"/>
<path d="M3148 6543 c7 -3 16 -2 19 1 4 3 -2 6 -13 5 -11 0 -14 -3 -6 -6z"/>
<path d="M5615 6500 c-9 -15 -18 -70 -11 -70 13 0 37 63 28 72 -6 6 -12 6 -17
-2z"/>
<path d="M5677 6453 c-13 -36 -14 -43 -3 -34 14 12 32 68 24 76 -2 3 -12 -16
-21 -42z"/>
<path d="M4240 6423 c0 -5 12 -20 26 -34 24 -21 26 -22 16 -3 -13 25 -42 50
-42 37z"/>
<path d="M5505 6369 c-4 -6 -5 -12 -2 -15 2 -3 7 2 10 11 7 17 1 20 -8 4z"/>
<path d="M5777 6353 c-4 -3 -7 -11 -7 -17 0 -6 5 -5 12 2 6 6 9 14 7 17 -3 3
-9 2 -12 -2z"/>
<path d="M5621 6303 c-10 -26 -10 -27 4 -9 8 11 15 23 15 28 0 15 -7 8 -19
-19z"/>
<path d="M5656 6303 c-6 -14 -5 -15 5 -6 7 7 10 15 7 18 -3 3 -9 -2 -12 -12z"/>
<path d="M5739 6293 c-13 -16 -12 -17 4 -4 9 7 17 15 17 17 0 8 -8 3 -21 -13z"/>
<path d="M4606 6277 c6 -18 60 -58 67 -50 11 10 -6 33 -36 48 -37 18 -38 18
-31 2z"/>
<path d="M5521 6273 c0 -10 -4 -39 -9 -65 -5 -27 -6 -48 -3 -48 12 0 31 58 25
74 -3 9 -1 22 5 30 6 7 8 16 4 19 -12 12 -22 7 -22 -10z"/>
<path d="M5490 6244 c0 -8 5 -12 10 -9 6 3 10 10 10 16 0 5 -4 9 -10 9 -5 0
-10 -7 -10 -16z"/>
<path d="M5661 6233 c-10 -26 -10 -27 4 -9 8 11 15 23 15 28 0 15 -7 8 -19
-19z"/>
<path d="M6298 6228 c-31 -11 -39 -33 -9 -23 10 3 38 12 62 19 l44 14 -35 0
c-19 0 -47 -4 -62 -10z"/>
<path d="M3158 6223 c7 -3 16 -2 19 1 4 3 -2 6 -13 5 -11 0 -14 -3 -6 -6z"/>
<path d="M5555 6219 c-4 -6 -5 -12 -2 -15 2 -3 7 2 10 11 7 17 1 20 -8 4z"/>
<path d="M5480 6210 c-8 -5 -11 -12 -7 -16 4 -4 13 -2 19 4 15 15 7 24 -12 12z"/>
<path d="M5830 6205 c-7 -8 -15 -13 -19 -11 -3 2 -14 -7 -24 -20 -13 -17 -14
-24 -5 -24 8 -1 6 -6 -6 -15 -10 -7 -15 -19 -11 -25 5 -8 13 -6 26 6 10 9 17
20 14 24 -2 4 7 22 20 40 14 19 25 35 25 37 0 7 -8 2 -20 -12z"/>
<path d="M5904 6174 c-21 -20 -28 -29 -14 -20 78 51 84 56 69 56 -9 0 -33 -16
-55 -36z"/>
<path d="M3094 6159 c-7 -12 12 -29 33 -29 21 0 63 23 57 31 -8 13 -82 11 -90
-2z"/>
<path d="M5736 6163 c-4 -5 -12 -9 -17 -9 -5 -1 -13 -2 -19 -3 -5 0 -10 -6
-10 -12 0 -8 4 -9 13 0 8 6 16 9 19 6 3 -3 11 1 18 10 13 15 10 21 -4 8z"/>
<path d="M6310 6155 c-22 -13 -23 -14 -5 -15 32 0 65 12 59 21 -7 13 -25 11
-54 -6z"/>
<path d="M5817 6128 c-15 -17 -25 -33 -21 -37 4 -3 9 0 11 7 3 6 9 12 14 12 4
0 5 -7 2 -17 -4 -11 -3 -14 6 -9 6 4 10 13 9 19 -1 7 3 22 10 35 17 30 3 26
-31 -10z"/>
<path d="M6040 6140 c-8 -5 -12 -11 -10 -14 3 -2 14 2 24 10 22 15 10 19 -14
4z"/>
<path d="M4580 6136 c0 -2 7 -7 16 -10 8 -3 12 -2 9 4 -6 10 -25 14 -25 6z"/>
<path d="M5735 6130 c-3 -5 -1 -10 4 -10 6 0 11 5 11 10 0 6 -2 10 -4 10 -3 0
-8 -4 -11 -10z"/>
<path d="M5950 6130 c0 -5 5 -10 10 -10 6 0 10 5 10 10 0 6 -4 10 -10 10 -5 0
-10 -4 -10 -10z"/>
<path d="M5916 6114 c-9 -22 -8 -26 6 -22 13 5 20 38 8 38 -4 0 -11 -7 -14
-16z"/>
<path d="M6145 6110 c-3 -5 -2 -10 4 -10 5 0 13 5 16 10 3 6 2 10 -4 10 -5 0
-13 -4 -16 -10z"/>
<path d="M5870 6085 c-7 -8 -8 -15 -2 -15 5 0 15 7 22 15 7 8 8 15 2 15 -5 0
-15 -7 -22 -15z"/>
<path d="M6086 6091 c-4 -7 -5 -15 -2 -18 9 -9 19 4 14 18 -4 11 -6 11 -12 0z"/>
<path d="M3125 6080 c-15 -7 -10 -9 23 -9 23 -1 42 4 42 9 0 12 -37 12 -65 0z"/>
<path d="M5897 6073 c-4 -3 -7 -11 -7 -17 0 -6 5 -5 12 2 6 6 9 14 7 17 -3 3
-9 2 -12 -2z"/>
<path d="M5933 6058 c-24 -32 -24 -41 0 -19 15 14 27 26 27 28 0 8 -19 2 -27
-9z"/>
<path d="M6364 6048 c-4 -6 -3 -8 4 -4 5 3 12 1 14 -4 2 -7 11 -5 23 4 19 15
19 15 -7 16 -15 0 -30 -5 -34 -12z"/>
<path d="M3143 6019 c9 -6 15 -14 12 -20 -8 -12 -2 -11 29 5 22 11 24 15 11
20 -9 3 -29 6 -43 6 -23 -1 -25 -2 -9 -11z"/>
<path d="M6050 6018 c0 -5 5 -6 10 -3 6 3 10 2 10 -4 0 -6 7 -8 15 -5 23 9 18
22 -10 22 -14 0 -25 -5 -25 -10z"/>
<path d="M6335 6006 c-22 -6 -42 -13 -45 -17 -3 -4 -18 -11 -33 -14 -15 -4
-31 -14 -36 -22 -4 -8 -11 -14 -15 -12 -4 1 -26 -9 -49 -22 -37 -21 -39 -24
-19 -27 13 -2 35 5 50 14 62 42 86 51 103 41 18 -11 49 -3 49 12 0 6 -7 7 -17
4 -11 -4 -14 -3 -9 6 4 6 16 9 27 6 11 -4 19 -2 19 4 0 6 8 11 18 11 9 1 28 7
41 14 25 14 25 14 -10 13 -19 -1 -52 -6 -74 -11z"/>
<path d="M5986 5994 c-5 -14 -4 -15 9 -4 17 14 19 20 6 20 -5 0 -12 -7 -15
-16z"/>
<path d="M6386 5975 c-15 -11 -14 -13 6 -17 29 -5 58 1 58 12 0 14 -47 17 -64
5z"/>
<path d="M6229 5910 c-21 -5 -22 -7 -6 -13 10 -4 36 -7 58 -7 30 0 37 -3 33
-15 -8 -21 5 -19 25 3 9 10 31 22 50 28 27 7 19 9 -52 9 -46 0 -95 -2 -108 -5z"/>
<path d="M3100 5880 c36 -12 72 -12 65 0 -3 6 -25 10 -48 9 -36 -1 -38 -2 -17
-9z"/>
<path d="M6175 5880 c-3 -5 -2 -10 4 -10 5 0 13 5 16 10 3 6 2 10 -4 10 -5 0
-13 -4 -16 -10z"/>
<path d="M6338 5859 c-10 -5 -18 -15 -18 -20 0 -6 5 -7 12 -3 6 4 26 7 44 6
20 -1 34 4 38 13 4 11 -3 15 -27 15 -18 0 -40 -5 -49 -11z"/>
<path d="M3127 5836 c-3 -8 9 -11 40 -10 44 2 74 13 37 15 -10 0 -31 2 -46 4
-14 2 -29 -2 -31 -9z"/>
<path d="M6255 5840 c-3 -5 -2 -10 4 -10 5 0 13 5 16 10 3 6 2 10 -4 10 -5 0
-13 -4 -16 -10z"/>
<path d="M6085 5830 c-3 -5 -1 -10 4 -10 6 0 11 5 11 10 0 6 -2 10 -4 10 -3 0
-8 -4 -11 -10z"/>
<path d="M6240 5800 c-15 -9 35 -19 61 -13 10 3 19 9 19 14 0 10 -64 9 -80 -1z"/>
<path d="M3096 5784 c-30 -12 -30 -12 23 -19 29 -4 55 -4 58 -1 4 3 0 6 -8 6
-8 1 0 7 16 14 l30 13 -45 0 c-25 0 -58 -6 -74 -13z"/>
<path d="M6350 5785 c-7 -9 -11 -18 -8 -21 9 -9 59 16 53 26 -9 15 -31 12 -45
-5z"/>
<path d="M6210 5760 c0 -6 7 -10 15 -10 8 0 15 2 15 4 0 2 -7 6 -15 10 -8 3
-15 1 -15 -4z"/>
<path d="M6350 5750 c-12 -8 -9 -10 12 -10 15 0 30 5 33 10 8 13 -25 13 -45 0z"/>
<path d="M3140 5743 c-30 -6 -52 -22 -44 -34 3 -5 26 -9 51 -9 26 0 43 3 40 6
-3 4 -2 15 4 25 10 20 4 22 -51 12z"/>
<path d="M6360 5690 c-12 -8 -11 -10 8 -10 12 0 22 5 22 10 0 13 -11 13 -30 0z"/>
<path d="M6400 5690 c0 -6 -16 -18 -35 -27 -32 -15 -48 -43 -25 -43 18 0 65
24 84 43 15 16 16 21 5 28 -19 12 -29 11 -29 -1z"/>
<path d="M3148 5683 c7 -3 16 -2 19 1 4 3 -2 6 -13 5 -11 0 -14 -3 -6 -6z"/>
<path d="M3108 5663 c12 -2 32 -2 45 0 12 2 2 4 -23 4 -25 0 -35 -2 -22 -4z"/>
<path d="M3139 5629 c-10 -6 -4 -9 19 -9 17 0 32 2 32 4 0 9 -39 13 -51 5z"/>
<path d="M6370 5611 c-8 -6 -26 -7 -40 -5 -14 3 -36 1 -50 -5 -24 -9 -23 -10
12 -10 31 -1 36 -4 33 -20 -3 -15 4 -21 25 -26 16 -4 37 -2 47 4 16 9 15 10
-7 11 -33 0 -56 15 -40 25 6 4 17 2 23 -4 17 -17 58 -14 51 4 -4 8 -13 15 -21
15 -8 0 -11 5 -8 10 8 12 -5 13 -25 1z"/>
<path d="M4264 5589 c-9 -15 -2 -18 20 -9 17 6 18 7 3 13 -9 3 -19 2 -23 -4z"/>
<path d="M4262 5540 c-7 -12 -16 -19 -21 -16 -4 3 -8 -1 -8 -9 0 -8 3 -15 6
-15 11 0 42 41 39 51 -2 5 -9 0 -16 -11z"/>
<path d="M3100 5540 c0 -5 21 -10 46 -10 27 0 43 4 39 10 -3 6 -24 10 -46 10
-21 0 -39 -4 -39 -10z"/>
<path d="M6210 5530 c19 -13 30 -13 30 0 0 6 -10 10 -22 10 -19 0 -20 -2 -8
-10z"/>
<path d="M6286 5519 c-11 -10 -29 -19 -40 -20 -21 0 -21 -1 -1 -9 32 -14 39
-11 57 20 19 34 12 38 -16 9z"/>
<path d="M6335 5530 c-3 -5 -1 -10 4 -10 6 0 11 5 11 10 0 6 -2 10 -4 10 -3 0
-8 -4 -11 -10z"/>
<path d="M3418 5503 c7 -3 16 -2 19 1 4 3 -2 6 -13 5 -11 0 -14 -3 -6 -6z"/>
<path d="M3410 5480 c-13 -9 -13 -10 0 -10 8 0 22 5 30 10 13 9 13 10 0 10 -8
0 -22 -5 -30 -10z"/>
<path d="M3046 5453 c-26 -8 -46 -16 -44 -18 2 -3 18 -1 35 4 19 6 50 5 78 -1
37 -8 49 -7 56 3 4 7 6 15 5 17 -11 10 -88 8 -130 -5z"/>
<path d="M6300 5431 c0 -15 16 -22 34 -15 25 9 19 24 -9 24 -14 0 -25 -4 -25
-9z"/>
<path d="M6383 5433 c9 -2 23 -2 30 0 6 3 -1 5 -18 5 -16 0 -22 -2 -12 -5z"/>
<path d="M3133 5403 c9 -2 23 -2 30 0 6 3 -1 5 -18 5 -16 0 -22 -2 -12 -5z"/>
<path d="M3410 5375 c-10 -12 -10 -15 4 -15 9 0 16 7 16 15 0 8 -2 15 -4 15
-2 0 -9 -7 -16 -15z"/>
<path d="M3138 5373 c7 -3 16 -2 19 1 4 3 -2 6 -13 5 -11 0 -14 -3 -6 -6z"/>
<path d="M3258 5353 c6 -2 18 -2 25 0 6 3 1 5 -13 5 -14 0 -19 -2 -12 -5z"/>
<path d="M6375 5344 c-20 -20 -13 -31 26 -39 38 -9 67 12 31 22 -20 5 -21 7
-7 17 14 10 13 12 -9 14 -14 1 -32 -5 -41 -14z"/>
<path d="M3128 5343 c12 -2 30 -2 40 0 9 3 -1 5 -23 4 -22 0 -30 -2 -17 -4z"/>
<path d="M4280 5340 c-13 -8 -12 -10 3 -10 9 0 17 5 17 10 0 12 -1 12 -20 0z"/>
<path d="M3241 5331 c-7 -5 -34 -9 -60 -10 -25 0 -59 -5 -76 -10 l-30 -9 27
-1 c21 -1 26 -5 21 -18 -5 -12 -3 -14 6 -8 8 4 36 9 64 11 49 4 97 25 97 44 0
12 -30 13 -49 1z"/>
<path d="M6380 5290 c0 -5 10 -10 23 -11 21 -1 21 -1 -3 -9 -23 -7 -22 -8 10
-9 l35 0 -24 19 c-25 22 -41 26 -41 10z"/>
<path d="M3158 5263 c12 -2 30 -2 40 0 9 3 -1 5 -23 4 -22 0 -30 -2 -17 -4z"/>
<path d="M3203 5256 c-24 -11 -29 -21 -15 -30 11 -6 52 21 52 35 0 11 -8 10
-37 -5z"/>
<path d="M6370 5240 c0 -15 21 -23 32 -12 6 6 2 11 -11 15 -12 3 -21 1 -21 -3z"/>
<path d="M3165 5209 c-4 -5 3 -9 14 -9 11 0 22 4 25 8 2 4 -4 8 -14 9 -11 1
-22 -2 -25 -8z"/>
<path d="M3389 5193 c-13 -16 -12 -17 4 -4 16 13 21 21 13 21 -2 0 -10 -8 -17
-17z"/>
<path d="M6280 5180 c0 -5 5 -10 10 -10 6 0 10 5 10 10 0 6 -4 10 -10 10 -5 0
-10 -4 -10 -10z"/>
<path d="M6316 5178 c3 -5 10 -6 15 -3 13 9 11 12 -6 12 -8 0 -12 -4 -9 -9z"/>
<path d="M6370 5180 c0 -5 5 -10 11 -10 5 0 7 5 4 10 -3 6 -8 10 -11 10 -2 0
-4 -4 -4 -10z"/>
<path d="M3155 5145 c-5 -2 -30 -9 -55 -16 -45 -12 -45 -12 -15 -20 26 -6 24
-7 -17 -8 -26 0 -49 -5 -52 -9 -6 -10 167 -6 202 4 34 10 21 29 -24 33 -31 3
-35 5 -19 11 20 8 1 12 -20 5z"/>
<path d="M6375 5100 c-3 -5 1 -10 10 -10 9 0 13 5 10 10 -3 6 -8 10 -10 10 -2
0 -7 -4 -10 -10z"/>
<path d="M6360 5070 c0 -5 6 -10 14 -10 8 0 22 -3 30 -6 12 -5 15 -2 10 10 -7
17 -54 23 -54 6z"/>
<path d="M3060 5059 l-45 -6 50 -2 c28 -2 61 -7 75 -11 25 -8 25 -8 -8 -15
-18 -4 -35 -12 -38 -16 -3 -5 -20 -9 -37 -10 -18 0 -41 -4 -52 -9 l-20 -9 20
-1 c156 -8 228 -29 102 -30 -70 0 -147 -18 -147 -35 0 -4 19 -6 43 -5 23 1 56
1 72 0 26 -2 23 -4 -20 -15 -27 -7 -44 -13 -36 -14 11 -1 10 -5 -4 -15 -19
-13 -18 -14 6 -9 14 2 41 0 60 -5 31 -9 32 -10 7 -11 -15 -1 -31 -7 -35 -14
-4 -8 -16 -18 -27 -24 -13 -7 4 -9 60 -5 73 5 77 4 62 -12 -9 -9 -23 -16 -30
-17 -7 0 2 -7 20 -15 17 -8 32 -16 32 -17 0 -2 -26 -3 -57 -3 -81 1 -130 -11
-130 -30 0 -13 9 -15 46 -11 44 5 45 4 20 -9 -15 -7 -29 -20 -32 -28 -5 -13
-1 -13 28 0 19 8 49 13 67 13 24 -1 27 -3 11 -6 -13 -2 -23 -8 -23 -13 0 -4
-18 -15 -40 -24 -48 -19 -52 -28 -7 -16 56 15 94 18 108 9 11 -7 11 -9 -2 -9
-24 0 -63 -37 -47 -43 8 -3 5 -6 -7 -7 -11 0 -45 -14 -75 -30 l-55 -28 80 4
80 4 -81 -23 c-44 -12 -94 -33 -110 -46 -28 -23 -28 -23 -4 -16 l25 7 -22 -24
c-23 -25 -32 -65 -12 -52 8 4 8 0 0 -15 -9 -16 -9 -20 1 -16 39 12 150 36 154
32 2 -2 -20 -11 -50 -20 -30 -10 -59 -24 -66 -32 -11 -13 -6 -13 36 0 54 16
138 20 130 6 -3 -5 -39 -16 -78 -25 -40 -9 -84 -24 -98 -32 -16 -10 -18 -13
-5 -8 20 7 66 9 115 5 18 -2 7 -9 -39 -24 -36 -12 -67 -28 -69 -35 -2 -8 3
-10 15 -6 10 3 7 -2 -7 -10 -14 -8 -20 -16 -15 -16 6 0 3 -5 -5 -11 -12 -9
-11 -9 5 -4 70 25 139 45 143 40 3 -3 -9 -10 -26 -16 -18 -6 -29 -15 -26 -20
5 -9 1 -10 -48 -13 -30 -2 -51 -17 -54 -41 -2 -11 6 -10 39 7 26 13 68 23 112
26 83 5 79 -7 -10 -33 -71 -20 -115 -42 -115 -56 0 -6 8 -5 23 2 16 9 13 2
-12 -25 -41 -42 -36 -45 24 -12 55 31 103 44 182 50 60 4 123 28 123 46 0 12
-56 -8 -71 -26 -23 -27 -31 -14 -11 20 l20 34 -22 -5 c-15 -4 -17 -2 -7 5 11
8 11 10 0 15 -8 3 -4 6 9 6 13 1 20 5 17 11 -3 6 1 10 9 10 8 0 27 11 42 24
24 20 25 23 9 22 -11 -1 -30 -7 -42 -14 -14 -8 -23 -9 -23 -3 0 6 -7 8 -16 4
-15 -5 -15 -3 1 20 9 15 14 27 10 27 -4 0 -2 6 4 13 6 8 8 17 4 21 -4 3 9 20
28 36 l34 31 -35 -21 c-41 -23 -57 -26 -41 -6 9 10 7 16 -5 27 -14 12 -13 14
8 22 24 10 22 11 -26 22 l-29 6 22 23 c12 12 18 25 15 29 -4 3 1 18 10 31 19
30 21 53 4 59 -9 3 -8 10 6 25 19 22 29 92 12 92 -5 0 -3 6 3 14 9 10 9 16 1
21 -6 4 -9 13 -6 20 3 8 0 15 -7 18 -6 2 0 13 16 27 31 28 35 44 8 35 -39 -12
-29 14 15 40 25 15 43 29 41 32 -3 3 -13 1 -22 -4 -9 -5 -29 -8 -44 -5 -23 3
-28 8 -23 25 4 17 2 19 -14 14 -18 -7 -18 -6 -1 7 21 16 23 46 2 46 -24 0 -6
28 23 35 36 8 94 55 69 55 -10 0 -27 -5 -39 -11 -25 -14 -35 -4 -17 17 13 16
12 16 -8 6 -30 -17 -69 -16 -55 1 8 9 0 12 -36 12 -26 0 -67 -3 -92 -6z m27
-905 c-3 -3 -12 -4 -19 -1 -8 3 -5 6 6 6 11 1 17 -2 13 -5z m8 -95 c-57 -18
-92 -19 -44 -1 13 5 31 12 39 15 8 3 26 5 40 5 15 0 0 -8 -35 -19z"/>
<path d="M6405 5020 c-3 -5 -1 -10 4 -10 6 0 11 5 11 10 0 6 -2 10 -4 10 -3 0
-8 -4 -11 -10z"/>
<path d="M4220 4860 c-13 -9 -13 -10 0 -10 8 0 22 5 30 10 13 9 13 10 0 10 -8
0 -22 -5 -30 -10z"/>
<path d="M6281 4861 c-8 -5 -20 -7 -28 -4 -7 3 -13 0 -13 -6 0 -7 21 -11 55
-11 56 0 73 13 33 24 -29 7 -30 7 -47 -3z"/>
<path d="M6320 4821 c0 -10 30 -24 37 -17 3 2 -5 9 -16 16 -12 6 -21 7 -21 1z"/>
<path d="M4230 4795 c-7 -9 -8 -15 -2 -15 5 0 12 7 16 15 3 8 4 15 2 15 -2 0
-9 -7 -16 -15z"/>
<path d="M6356 4651 c-16 -18 -16 -18 10 -13 18 3 25 1 20 -6 -3 -6 0 -13 6
-15 7 -3 3 -6 -9 -6 -40 -2 -24 -21 16 -21 22 0 43 5 46 10 3 6 1 10 -5 10 -7
0 -9 8 -5 19 4 15 -1 21 -26 30 -18 6 -33 11 -34 11 -1 0 -10 -8 -19 -19z"/>
<path d="M6380 4550 c15 -12 18 -18 8 -14 -10 3 -26 3 -35 0 -15 -6 -15 -8 -3
-16 12 -8 10 -10 -9 -10 -20 0 -21 -2 -11 -15 7 -8 19 -15 27 -15 11 0 11 -3
1 -14 -7 -8 -16 -10 -19 -4 -3 5 -12 2 -19 -7 -10 -12 -10 -15 3 -15 10 0 14
-6 11 -15 -5 -12 3 -15 42 -15 48 1 48 1 24 15 l-25 15 28 -6 c35 -8 37 13 2
26 -14 5 -25 12 -25 15 0 2 12 0 26 -5 24 -9 26 -8 21 10 -3 11 0 20 6 20 7 0
4 5 -7 11 -13 8 -15 14 -7 18 22 14 0 41 -33 41 l-31 0 25 -20z"/>
<path d="M4263 4518 c-13 -6 -23 -15 -23 -20 0 -5 11 -1 25 8 37 24 35 30 -2
12z"/>
<path d="M3315 4370 c-3 -6 1 -7 9 -4 18 7 21 14 7 14 -6 0 -13 -4 -16 -10z"/>
<path d="M5451 4324 c0 -11 3 -14 6 -6 3 7 2 16 -1 19 -3 4 -6 -2 -5 -13z"/>
<path d="M6354 4317 c28 -20 29 -22 9 -27 -18 -4 -19 -8 -10 -21 14 -18 73
-36 62 -19 -3 5 -15 10 -26 10 -10 0 -19 5 -19 12 0 6 3 9 6 5 4 -3 15 4 24
16 18 22 18 22 -13 34 -51 18 -65 14 -33 -10z"/>
<path d="M5210 4279 c0 -5 5 -7 10 -4 6 3 10 8 10 11 0 2 -4 4 -10 4 -5 0 -10
-5 -10 -11z"/>
<path d="M3359 4263 c-13 -16 -12 -17 4 -4 16 13 21 21 13 21 -2 0 -10 -8 -17
-17z"/>
<path d="M5294 4253 c-3 -16 -10 -44 -15 -63 -12 -49 -12 -110 1 -90 7 12 10
8 11 -15 0 -16 2 -38 4 -47 2 -10 -1 -21 -7 -24 -5 -3 -9 2 -8 12 6 54 -13 78
-22 29 -3 -14 -1 -25 5 -25 14 0 2 -169 -13 -183 -10 -9 -11 -9 -5 3 6 12 5
13 -6 2 -9 -8 -13 -33 -11 -78 1 -35 -2 -73 -8 -84 -6 -11 -7 -33 -2 -57 l9
-38 7 60 c13 104 25 130 23 48 -2 -88 14 -80 19 9 2 35 6 81 9 103 4 22 6 74
6 115 0 41 2 69 5 62 8 -18 24 -4 24 21 0 12 4 28 9 36 5 8 8 -20 7 -73 -1
-47 2 -94 6 -103 4 -12 7 -4 7 22 1 22 6 47 12 55 9 12 10 11 6 -8 -3 -12 -1
-20 4 -16 12 7 11 101 -1 109 -5 3 -10 11 -10 16 0 6 5 7 10 4 9 -6 14 10 13
43 -1 26 32 7 47 -28 9 -23 10 -21 5 10 -3 19 -6 43 -6 53 0 9 -4 15 -8 13 -4
-3 -7 12 -7 34 1 28 -2 36 -10 29 -7 -5 -10 -20 -7 -32 2 -12 -5 -4 -16 18
-21 42 -23 39 -24 -36 0 -34 -1 -35 -23 -25 -25 11 -27 20 -27 99 0 53 -4 60
-13 20z m-29 -452 c-7 -22 -25 -29 -25 -11 0 12 23 40 28 35 2 -2 1 -13 -3
-24z"/>
<path d="M6328 4263 c7 -3 16 -2 19 1 4 3 -2 6 -13 5 -11 0 -14 -3 -6 -6z"/>
<path d="M6356 4231 c14 -13 62 -22 68 -12 6 9 -26 21 -58 21 -12 0 -16 -3
-10 -9z"/>
<path d="M4282 4188 c-14 -14 -16 -28 -3 -28 9 0 24 30 18 36 -2 2 -9 -2 -15
-8z"/>
<path d="M5332 4170 c0 -14 2 -19 5 -12 2 6 2 18 0 25 -3 6 -5 1 -5 -13z"/>
<path d="M4146 4143 c-6 -14 -5 -15 5 -6 7 7 10 15 7 18 -3 3 -9 -2 -12 -12z"/>
<path d="M5202 4140 c0 -14 2 -19 5 -12 2 6 2 18 0 25 -3 6 -5 1 -5 -13z"/>
<path d="M5227 4106 c-4 -32 -6 -60 -5 -62 9 -8 23 65 18 91 -5 25 -7 20 -13
-29z"/>
<path d="M4166 4119 c-9 -11 -15 -26 -13 -32 2 -6 12 1 22 16 22 33 16 44 -9
16z"/>
<path d="M4271 4087 c-28 -31 -17 -72 14 -49 7 5 16 72 9 72 0 0 -10 -11 -23
-23z"/>
<path d="M5201 4094 c0 -11 3 -14 6 -6 3 7 2 16 -1 19 -3 4 -6 -2 -5 -13z"/>
<path d="M2643 4060 c3 -11 1 -20 -4 -20 -5 0 -9 -8 -10 -17 0 -11 -3 -13 -6
-5 -8 21 -23 3 -23 -29 0 -18 4 -28 10 -24 6 3 10 1 10 -4 0 -6 -4 -11 -10
-11 -5 0 -16 -12 -25 -27 -15 -28 -15 -27 -9 22 l6 50 -20 -38 c-12 -21 -18
-46 -15 -55 4 -13 2 -14 -4 -4 -11 14 -31 -32 -53 -117 -6 -23 -14 -40 -17
-37 -3 3 -15 -6 -26 -20 -15 -20 -22 -49 -28 -120 -4 -52 -5 -102 -2 -111 4
-11 2 -14 -5 -9 -12 7 -29 -60 -18 -71 10 -10 45 37 39 53 -3 8 0 14 7 14 7 0
10 7 6 15 -3 8 -1 15 4 15 5 0 12 10 16 23 4 12 10 24 13 27 31 23 78 116 73
143 -1 4 3 7 8 7 6 0 10 7 10 15 0 8 6 15 13 16 6 0 28 20 47 45 19 25 43 54
53 65 10 11 15 24 11 27 -3 4 -9 1 -11 -5 -3 -7 -8 -13 -13 -13 -4 0 -3 19 2
43 14 62 16 84 7 99 -6 9 -13 2 -24 -22 l-16 -35 5 40 c3 22 8 52 12 68 4 18
2 27 -6 27 -7 0 -10 -8 -7 -20z"/>
<path d="M5151 4048 c-17 -43 -18 -45 -26 -98 l-6 -45 19 36 c15 29 38 139 29
139 -2 0 -9 -15 -16 -32z"/>
<path d="M4120 4035 c-8 -9 -8 -15 -2 -15 12 0 26 19 19 26 -2 2 -10 -2 -17
-11z"/>
<path d="M3200 4020 c-8 -5 -10 -10 -5 -10 6 0 17 5 25 10 8 5 11 10 5 10 -5
0 -17 -5 -25 -10z"/>
<path d="M3332 4005 c-9 -19 -8 -23 1 -19 7 2 13 13 14 24 2 26 -1 25 -15 -5z"/>
<path d="M4226 3995 c-24 -24 -22 -49 3 -35 27 14 35 30 23 42 -6 6 -15 4 -26
-7z"/>
<path d="M3075 3990 c-13 -5 -14 -9 -5 -9 8 0 24 4 35 9 13 5 14 9 5 9 -8 0
-24 -4 -35 -9z"/>
<path d="M5066 3965 c-3 -9 -6 -22 -5 -28 0 -7 5 -1 10 12 5 13 8 26 5 28 -2
2 -6 -3 -10 -12z"/>
<path d="M3145 3926 c-22 -7 -44 -13 -48 -13 -14 -2 -21 -13 -8 -13 24 0 101
23 107 31 7 11 -2 11 -51 -5z"/>
<path d="M4195 3931 c-3 -5 -1 -12 5 -16 5 -3 10 1 10 9 0 18 -6 21 -15 7z"/>
<path d="M4213 3895 c-27 -41 -28 -46 -6 -38 12 5 14 3 8 -7 -5 -9 -4 -11 4
-6 6 4 9 11 6 16 -3 5 -1 19 5 30 20 37 6 40 -17 5z"/>
<path d="M6330 3921 c0 -5 7 -12 16 -15 14 -5 15 -4 4 9 -14 17 -20 19 -20 6z"/>
<path d="M5046 3905 c-9 -26 -7 -32 5 -12 6 10 9 21 6 23 -2 3 -7 -2 -11 -11z"/>
<path d="M3195 3883 c-11 -2 -39 -10 -63 -18 -23 -8 -40 -10 -37 -4 4 5 -1 9
-10 9 -10 0 -13 -5 -9 -12 5 -9 2 -9 -9 1 -15 12 -22 8 -62 -31 -44 -44 -61
-86 -31 -75 11 4 13 1 9 -11 -4 -10 6 -4 24 13 25 24 28 33 19 45 -10 13 -9
13 7 1 16 -12 21 -12 46 7 16 11 57 33 92 47 82 35 89 43 24 28z m-175 -97 c0
-2 -7 -7 -16 -10 -8 -3 -12 -2 -9 4 6 10 25 14 25 6z"/>
<path d="M4260 3850 c0 -5 5 -10 11 -10 5 0 7 5 4 10 -3 6 -8 10 -11 10 -2 0
-4 -4 -4 -10z"/>
<path d="M3150 3813 c-78 -39 -177 -142 -151 -157 5 -3 28 19 51 49 30 39 63
66 114 95 80 44 69 55 -14 13z"/>
<path d="M4171 3818 c-5 -13 -11 -34 -15 -48 l-7 -25 18 24 c10 14 18 35 18
48 1 29 -3 29 -14 1z"/>
<path d="M5187 3773 c-4 -38 -13 -91 -20 -120 -8 -29 -10 -58 -6 -65 6 -9 8
-7 8 7 0 11 9 45 20 75 20 53 27 170 11 170 -4 0 -10 -30 -13 -67z"/>
<path d="M4247 3811 c-4 -17 -3 -21 5 -13 5 5 8 16 6 23 -3 8 -7 3 -11 -10z"/>
<path d="M5318 3775 c2 -19 8 -32 13 -29 13 8 11 40 -4 52 -10 9 -12 4 -9 -23z"/>
<path d="M5432 3790 c0 -14 2 -19 5 -12 2 6 2 18 0 25 -3 6 -5 1 -5 -13z"/>
<path d="M5397 3774 c-11 -11 -9 -19 12 -43 14 -16 20 -18 24 -8 6 16 -26 61
-36 51z"/>
<path d="M6265 3750 c3 -5 8 -10 11 -10 2 0 4 5 4 10 0 6 -5 10 -11 10 -5 0
-7 -4 -4 -10z"/>
<path d="M5036 3708 c-9 -12 -16 -36 -16 -53 1 -27 3 -25 20 19 22 56 20 69
-4 34z"/>
<path d="M3143 3708 c-13 -6 -23 -15 -23 -20 0 -7 31 8 59 29 10 7 -16 1 -36
-9z"/>
<path d="M5451 3713 c-1 -6 -4 -20 -7 -30 -5 -17 -5 -17 6 0 6 10 9 23 6 30
-3 9 -5 9 -5 0z"/>
<path d="M2742 3688 c-14 -14 -16 -58 -3 -58 7 0 22 60 17 67 -1 2 -8 -3 -14
-9z"/>
<path d="M5057 3694 c-4 -4 -7 -14 -7 -23 0 -11 3 -12 11 -4 6 6 10 16 7 23
-2 6 -7 8 -11 4z"/>
<path d="M5390 3695 c0 -2 -7 -30 -16 -62 -14 -52 -24 -123 -17 -123 2 0 10
17 18 38 17 38 32 152 21 152 -3 0 -6 -2 -6 -5z"/>
<path d="M5446 3644 c-18 -17 -20 -30 -8 -38 4 -3 13 8 19 25 13 33 11 35 -11
13z"/>
<path d="M5190 3635 c-5 -17 -10 -48 -15 -90 l-5 -40 16 34 c8 18 13 50 11 70
-2 20 -5 32 -7 26z"/>
<path d="M5460 3595 c-12 -25 -20 -49 -18 -55 1 -5 15 15 30 45 15 30 23 55
19 55 -5 0 -19 -20 -31 -45z"/>
<path d="M4351 3574 c0 -11 3 -14 6 -6 3 7 2 16 -1 19 -3 4 -6 -2 -5 -13z"/>
<path d="M5415 3570 c-10 -11 -13 -20 -7 -20 6 0 16 9 22 20 6 11 9 20 7 20
-2 0 -12 -9 -22 -20z"/>
<path d="M3239 3563 c-13 -16 -12 -17 4 -4 16 13 21 21 13 21 -2 0 -10 -8 -17
-17z"/>
<path d="M5605 3570 c-3 -5 -1 -10 4 -10 6 0 11 5 11 10 0 6 -2 10 -4 10 -3 0
-8 -4 -11 -10z"/>
<path d="M5146 3525 c-9 -26 -7 -32 5 -12 6 10 9 21 6 23 -2 3 -7 -2 -11 -11z"/>
<path d="M2366 3352 c-8 -13 3 -42 15 -42 9 0 7 35 -3 45 -3 4 -9 2 -12 -3z"/>
<path d="M7665 4520 c10 -11 20 -20 23 -20 3 0 -3 9 -13 20 -10 11 -20 20 -23
20 -3 0 3 -9 13 -20z"/>
<path d="M7720 4486 c19 -26 39 -50 44 -54 5 -3 -6 16 -24 42 -19 26 -39 50
-44 54 -5 3 6 -16 24 -42z"/>
<path d="M7759 4483 c23 -29 45 -53 48 -53 7 0 -54 75 -74 91 -10 8 2 -10 26
-38z"/>
<path d="M7939 4487 c14 -15 21 -27 16 -27 -5 0 7 -17 26 -37 19 -21 48 -57
64 -81 19 -28 32 -39 38 -33 7 7 6 15 -3 26 -7 8 -9 15 -4 15 5 0 17 -14 27
-32 14 -24 15 -28 2 -18 -18 15 -19 7 -2 -22 21 -38 50 -67 59 -62 5 3 7 0 6
-7 -3 -13 81 -83 90 -74 3 3 -4 13 -17 21 -12 9 -20 21 -18 27 2 7 -4 23 -14
36 -11 13 -19 32 -19 42 0 11 -5 19 -11 19 -5 0 -8 4 -4 9 6 10 -82 76 -101
76 -6 0 -32 19 -59 43 -26 23 -44 42 -39 42 7 0 83 -49 94 -60 13 -15 80 -51
80 -43 0 4 4 1 10 -7 5 -8 11 -12 15 -9 10 11 -50 61 -110 91 -33 17 -73 40
-90 52 -49 37 -61 41 -36 13z"/>
<path d="M7660 4486 c0 -6 8 -19 18 -30 21 -23 137 -217 171 -283 12 -24 23
-43 26 -43 6 0 -2 37 -14 59 -15 27 -14 36 3 22 9 -7 17 -8 20 -2 3 5 1 11 -6
13 -8 3 -9 6 -1 11 6 4 30 -23 57 -63 26 -39 52 -70 57 -70 13 0 0 24 -40 74
-17 21 -28 43 -24 49 3 5 1 7 -5 3 -6 -3 -17 3 -25 15 -10 13 -16 16 -19 8 -2
-7 -14 4 -27 24 -12 20 -36 48 -52 61 -18 15 -27 31 -23 37 4 7 3 9 -3 6 -6
-4 -17 1 -24 10 -12 14 -12 16 1 9 8 -4 -4 9 -27 29 -24 20 -47 44 -53 53 -5
9 -10 13 -10 8z"/>
<path d="M8224 4258 c-4 -7 -4 -10 0 -6 5 4 18 -5 31 -20 13 -15 26 -25 28
-22 3 3 -7 18 -23 33 -21 21 -30 25 -36 15z"/>
<path d="M8261 4121 c-8 -5 -9 -11 -3 -15 5 -3 12 1 16 9 6 17 6 18 -13 6z"/>
<path d="M8151 4113 c0 -5 14 -19 32 -33 l32 -25 -23 33 c-22 29 -43 42 -41
25z"/>
<path d="M8286 4088 c3 -5 10 -6 15 -3 13 9 11 12 -6 12 -8 0 -12 -4 -9 -9z"/>
<path d="M8000 4085 c0 -5 5 -17 10 -25 5 -8 10 -10 10 -5 0 6 -5 17 -10 25
-5 8 -10 11 -10 5z"/>
<path d="M8211 4028 c6 -13 22 -32 37 -43 25 -18 25 -16 -6 23 -38 47 -47 53
-31 20z"/>
<path d="M7806 3970 c3 -19 8 -49 10 -67 2 -18 9 -43 14 -55 8 -19 9 -17 4 12
-4 28 -3 32 6 20 17 -23 5 27 -20 81 -20 43 -20 44 -14 9z"/>
<path d="M8120 3893 c17 -29 34 -53 37 -53 6 0 -37 71 -55 90 -7 8 0 -9 18
-37z"/>
<path d="M8340 3896 c0 -3 9 -10 20 -16 11 -6 20 -8 20 -6 0 3 -9 10 -20 16
-11 6 -20 8 -20 6z"/>
<path d="M8256 3807 c3 -10 9 -15 12 -12 3 3 0 11 -7 18 -10 9 -11 8 -5 -6z"/>
<path d="M8186 3757 c3 -10 9 -15 12 -12 3 3 0 11 -7 18 -10 9 -11 8 -5 -6z"/>
<path d="M8010 3744 c0 -6 7 -19 16 -30 14 -18 14 -18 3 6 -14 31 -19 36 -19
24z"/>
<path d="M2890 1649 c-454 -9 -620 -17 -620 -30 0 -5 181 -10 428 -10 235 -1
512 -4 615 -8 196 -6 198 -6 211 37 l7 22 -123 -2 c-68 0 -301 -5 -518 -9z"/>
</g>
</svg>
