<?xml version="1.0" standalone="no"?>
<!DOCTYPE svg PUBLIC "-//W3C//DTD SVG 20010904//EN"
 "http://www.w3.org/TR/2001/REC-SVG-20010904/DTD/svg10.dtd">
<svg version="1.0" xmlns="http://www.w3.org/2000/svg"
 width="1024.000000pt" height="1024.000000pt" viewBox="0 0 1024.000000 1024.000000"
 preserveAspectRatio="xMidYMid meet">

<g transform="translate(0.000000,1024.000000) scale(0.100000,-0.100000)"
fill="#000000" stroke="none">
<path d="M3164 8769 c-3 -6 -3 -101 1 -210 l7 -200 -58 3 -59 3 -1 183 c-2
185 -7 211 -38 199 -14 -6 -16 -33 -16 -197 l0 -190 -61 0 c-56 0 -64 3 -92
33 -18 18 -67 69 -110 114 -49 52 -84 80 -93 76 -11 -4 -14 -29 -14 -112 l0
-108 -167 -6 c-91 -4 -215 -7 -275 -7 l-108 0 -2 -1237 c-1 -681 -2 -1535 -2
-1898 1 -363 2 -1221 3 -1907 l1 -1248 276 0 275 0 -2 -171 c-2 -176 4 -206
36 -179 12 10 15 41 15 181 l0 169 160 0 160 0 0 -139 0 -139 -76 -71 c-76
-71 -90 -102 -50 -109 12 -3 38 15 72 49 32 31 54 47 55 39 0 -8 0 -42 -1 -75
-1 -71 17 -108 44 -86 14 11 15 30 10 125 l-6 111 61 60 61 59 0 -167 c0 -144
2 -168 16 -174 9 -3 20 0 25 8 5 8 9 98 9 200 l0 186 49 52 c26 28 51 51 55
51 3 0 6 -103 6 -229 0 -194 2 -230 15 -241 34 -29 39 1 40 248 l0 237 812 3
812 2 60 -56 c34 -31 61 -60 61 -65 0 -5 -344 -9 -815 -9 l-815 0 0 -25 c0
-14 6 -25 13 -25 6 0 375 0 820 0 l807 1 0 -66 0 -65 -97 -1 c-54 0 -246 -2
-428 -5 -181 -2 -336 -4 -343 -4 -8 0 -12 -9 -10 -22 l3 -23 437 -3 437 -2 3
-63 c3 -54 5 -62 23 -62 18 0 20 8 23 63 l3 62 828 0 c734 0 830 2 841 15 9
10 10 19 3 26 -6 6 -270 9 -709 9 -384 0 -759 3 -831 7 l-133 6 0 64 0 64 343
-2 c188 -1 577 -1 865 0 l523 1 -3 23 -3 22 -862 3 c-694 2 -863 5 -863 15 0
7 23 35 50 62 l51 50 854 3 855 3 0 -261 c0 -227 2 -261 16 -267 35 -13 38 11
35 262 -1 135 1 245 6 245 4 0 29 -24 55 -52 l48 -53 0 -202 c0 -203 4 -228
35 -203 12 10 15 46 15 182 l0 169 55 -56 55 -55 0 -104 c0 -80 3 -106 15
-116 30 -25 45 5 45 87 l0 75 51 -56 c52 -57 82 -69 93 -39 5 12 -14 38 -69
93 l-75 75 0 138 0 137 126 0 125 0 -1 -162 c-2 -217 -4 -200 23 -196 22 3 22
5 25 181 l2 177 310 0 310 0 -1 3140 c-1 2361 -4 3142 -12 3147 -7 4 -111 6
-232 5 -121 -1 -255 1 -297 4 l-78 6 0 109 0 109 -25 0 c-13 0 -28 -6 -32 -14
-19 -33 -204 -196 -223 -196 -19 0 -20 8 -22 183 l-3 182 -25 0 -25 0 -1 -115
c-1 -63 -2 -149 -3 -190 l-1 -75 -52 1 -53 2 -5 193 c-5 186 -6 194 -25 194
-19 0 -20 -8 -23 -198 l-2 -198 -53 3 -52 3 -1 195 -1 195 -24 0 -24 0 -3
-191 -2 -191 -92 -7 c-118 -8 -1576 -8 -1657 0 l-61 7 0 42 0 43 173 7 c94 4
481 5 859 2 723 -4 708 -5 692 37 -5 13 -107 14 -737 11 -403 -2 -789 -1 -859
2 l-128 6 0 58 0 57 43 7 c23 4 227 6 452 4 l410 -4 3 23 c2 13 -2 22 -10 23
-7 0 -149 0 -316 -1 -167 -1 -364 2 -437 6 l-134 7 -3 31 c-2 23 -9 32 -25 34
-17 3 -24 -3 -28 -25 -4 -15 -8 -33 -10 -39 -3 -9 -213 -11 -804 -9 -657 3
-803 1 -818 -10 -15 -11 -16 -16 -5 -27 10 -10 162 -12 776 -9 420 1 784 -1
810 -4 l46 -7 0 -58 c0 -47 -3 -58 -17 -62 -10 -2 -376 -3 -815 -2 -838 3
-829 4 -812 -39 8 -22 39 -30 63 -17 19 10 940 11 1414 2 l167 -3 0 -27 c0
-15 -3 -37 -6 -50 l-6 -23 -872 3 -871 3 -3 188 -2 188 -23 -3 c-22 -3 -22 -6
-27 -188 l-5 -185 -52 -1 -53 -1 0 201 c0 203 -4 226 -36 226 -7 0 -16 -5 -20
-11z m-411 -347 l58 -67 -52 -3 c-76 -5 -79 -2 -79 73 0 36 3 65 8 64 4 0 33
-30 65 -67z m4872 -1 l-7 -59 -54 -4 c-30 -1 -54 1 -54 5 0 12 112 128 118
123 2 -3 1 -32 -3 -65z m-208 -107 c4 -10 -10 -31 -38 -61 -117 -120 -1731
-1702 -2042 -2003 -92 -88 -110 -101 -118 -87 -14 25 -1 43 108 146 54 52 199
193 323 315 124 122 439 430 700 686 261 255 601 589 755 742 154 153 286 278
293 278 7 0 15 -7 19 -16z m-4184 -296 c172 -167 422 -411 557 -543 135 -132
308 -301 385 -375 77 -75 241 -235 365 -356 579 -565 570 -556 570 -586 0 -15
-3 -28 -8 -28 -8 0 -502 480 -1302 1265 -135 132 -397 388 -582 569 -186 180
-338 334 -338 342 0 46 57 -1 353 -288z m3316 167 c16 -8 36 -30 45 -50 42
-87 -55 -176 -142 -131 -64 33 -72 108 -18 162 38 38 70 43 115 19z m-4006
-47 c81 -24 147 -114 147 -198 -1 -36 -32 -100 -66 -134 -90 -89 -237 -71
-311 38 -26 38 -33 59 -33 95 1 87 58 167 142 198 43 15 72 16 121 1z m5564
-668 c1 -501 -2 -677 -10 -683 -9 -6 -9 -10 1 -14 19 -7 15 -43 -5 -43 -17 -1
-17 -1 0 -11 21 -12 23 -39 2 -39 -8 0 -15 -4 -15 -10 0 -5 7 -10 15 -10 8 0
15 -7 15 -15 0 -8 -7 -15 -15 -15 -8 0 -15 -4 -15 -10 0 -5 7 -10 15 -10 9 0
12 -6 9 -15 -7 -18 -31 -20 -37 -2 -2 6 -8 8 -13 4 -12 -12 24 -37 42 -30 10
4 12 0 8 -11 -8 -20 -28 -21 -48 -1 -8 8 -22 15 -30 15 -9 0 -16 7 -16 15 0 8
-7 15 -15 15 -8 0 -15 7 -15 15 0 8 7 15 15 15 8 0 15 5 15 10 0 6 -7 10 -15
10 -8 0 -15 6 -15 14 0 7 -9 16 -20 19 -11 3 -20 13 -20 22 0 12 6 16 19 12
23 -6 18 18 -5 27 -8 3 -14 12 -14 21 0 8 -7 15 -15 15 -8 0 -15 4 -15 9 0 5
-7 11 -15 15 -9 3 -15 0 -15 -9 0 -8 7 -15 15 -15 8 0 15 -7 15 -15 0 -8 7
-15 15 -15 8 0 15 -7 15 -15 0 -24 -23 -17 -50 15 -27 33 -40 38 -40 15 0 -8
7 -15 15 -15 8 0 15 -7 15 -15 0 -8 7 -15 15 -15 8 0 15 -7 15 -15 0 -8 -9
-15 -20 -15 -11 0 -20 -4 -20 -10 0 -5 -7 -10 -15 -10 -8 0 -15 5 -15 10 0 6
-7 10 -15 10 -8 0 -15 5 -15 11 0 7 -11 22 -25 35 -28 26 -32 44 -10 44 8 0
15 -7 15 -15 0 -8 7 -15 15 -15 8 0 15 -4 15 -10 0 -12 32 -50 42 -50 16 0 7
22 -17 44 -30 28 -31 35 -7 52 16 12 16 13 0 19 -25 10 -22 22 12 54 17 15 27
30 24 34 -12 12 -24 8 -24 -8 0 -8 -7 -15 -15 -15 -8 0 -15 -7 -15 -15 0 -8
-7 -15 -15 -15 -8 0 -15 -7 -15 -15 0 -8 -7 -15 -15 -15 -8 0 -15 -7 -15 -15
0 -22 -28 -18 -41 6 -8 15 -14 18 -22 10 -7 -7 -3 -18 17 -36 15 -14 31 -25
37 -25 5 0 9 -7 9 -15 0 -8 -7 -15 -15 -15 -8 0 -15 7 -15 15 0 8 -5 15 -12
15 -10 0 -68 58 -68 68 0 2 9 2 20 -1 15 -4 20 0 20 14 0 10 -7 19 -15 19 -8
0 -15 7 -15 15 0 8 7 15 15 15 8 0 15 7 15 15 0 8 -7 15 -15 15 -8 0 -15 7
-15 15 0 8 7 15 15 15 8 0 15 -7 15 -15 0 -8 7 -15 15 -15 8 0 15 -7 15 -15 0
-8 -7 -15 -15 -15 -8 0 -15 -7 -15 -15 0 -8 7 -15 15 -15 8 0 15 7 15 15 0 22
27 18 33 -5 3 -11 10 -20 16 -20 16 0 13 27 -4 34 -8 3 -15 12 -15 21 0 8 -7
15 -15 15 -8 0 -15 7 -15 15 0 8 7 15 15 15 17 0 20 16 5 25 -6 3 -13 -1 -16
-9 -8 -20 -34 -21 -34 -1 0 8 7 15 15 15 8 0 15 7 15 15 0 8 -7 15 -15 15 -8
0 -15 7 -15 16 0 10 -6 13 -19 9 -15 -4 -18 -1 -14 19 3 14 8 24 12 23 3 -1 7
3 9 8 1 6 -3 10 -9 10 -7 0 -12 27 -14 68 -2 42 0 67 7 67 7 0 7 4 1 13 -11
13 -19 890 -8 907 4 7 86 9 228 8 l222 -3 2 -675z m-2969 648 l-3 -23 -845 -2
c-479 -2 -851 1 -859 6 -8 5 -11 16 -8 25 6 14 87 16 862 16 l856 0 -3 -22z
m1165 8 c3 -7 0 -19 -6 -25 -15 -15 -1093 -16 -1102 -1 -4 6 -4 17 -1 25 8 22
1101 22 1109 1z m627 -1 c20 -24 3 -57 -28 -53 -32 4 -40 29 -17 52 20 20 29
20 45 1z m-101 -108 c12 -15 -135 -163 -764 -773 -192 -186 -461 -448 -597
-582 -136 -134 -253 -242 -260 -240 -26 9 -17 34 30 83 84 88 544 538 982 961
568 548 584 563 591 564 4 0 11 -6 18 -13z m-578 -56 c53 -54 25 -135 -52
-147 -46 -8 -99 33 -99 76 0 91 89 132 151 71z m-1359 -41 l249 0 -3 -22 -3
-23 -282 -3 -283 -2 0 24 c0 25 27 38 58 30 8 -2 126 -4 264 -4z m1126 1 c8
-5 12 -17 10 -27 -3 -18 -20 -19 -418 -19 l-415 0 -3 22 -3 23 388 3 c213 1
397 3 408 4 11 2 26 -1 33 -6z m-1518 -26 l0 -25 -448 0 c-360 0 -452 3 -467
13 -46 34 -13 37 456 37 l459 0 0 -25z m2800 -60 c26 -32 -13 -81 -47 -59 -24
15 -27 38 -8 58 20 20 39 20 55 1z m-4162 -27 c2 -19 -3 -30 -18 -38 -27 -14
-50 2 -50 35 0 29 9 37 40 33 19 -2 26 -10 28 -30z m2712 -34 c66 -27 90 -96
50 -147 -40 -51 -140 -53 -175 -4 -36 51 0 149 58 160 12 2 23 5 24 6 2 0 21
-6 43 -15z m-2034 -79 c8 -20 -13 -45 -38 -45 -21 0 -33 22 -24 45 7 20 55 19
62 0z m3666 -1690 c-2 -938 0 -1704 5 -1704 4 1 82 78 173 171 l164 168 -97
98 c-53 53 -97 102 -97 109 0 6 8 14 17 17 12 5 45 -22 125 -102 59 -60 108
-115 108 -121 0 -18 -402 -421 -420 -421 -9 0 -31 -21 -49 -46 -18 -25 -35
-43 -38 -40 -3 2 -7 781 -9 1731 l-4 1726 57 60 c31 32 59 59 63 59 3 0 4
-767 2 -1705z m-2342 1670 l0 -25 -604 0 c-409 0 -607 3 -611 10 -4 6 -1 17 5
25 11 13 99 15 611 15 l599 0 0 -25z m485 0 c0 -19 -7 -20 -215 -20 l-215 0
-3 23 -3 22 218 -2 c210 -3 218 -4 218 -23z m-2673 -52 l58 -57 0 -1360 0
-1359 -64 59 -64 59 -1 1358 c0 746 2 1357 6 1357 4 0 33 -26 65 -57z m-564
-973 c1 -509 0 -931 -3 -939 -4 -11 -9 -10 -25 4 -20 18 -20 34 -20 935 0 504
3 920 7 924 4 4 14 5 23 4 13 -3 15 -102 18 -928z m237 -525 l0 -1450 -22 -3
-23 -3 0 1456 0 1456 23 -3 22 -3 0 -1450z m4285 1402 c0 -25 -1622 -1622
-1648 -1622 -11 0 -16 7 -15 20 1 12 188 203 459 470 252 248 616 606 809 797
248 247 357 347 373 348 12 0 22 -6 22 -13z m410 -1582 c0 -1104 -3 -1595 -11
-1595 -6 0 -7 -5 -2 -12 4 -7 8 -71 9 -143 l1 -129 -50 -53 c-27 -29 -54 -53
-60 -53 -5 0 -4 7 3 15 9 10 9 15 1 15 -6 0 -11 7 -11 15 0 8 5 15 11 15 6 0
7 5 2 13 -11 17 -12 167 -1 167 5 0 6 6 1 13 -11 17 -12 107 -1 107 5 0 6 5 2
12 -4 7 -8 708 -8 1560 l-1 1548 49 50 c27 27 52 50 57 50 5 0 9 -680 9 -1595z
m-4150 98 c0 -744 -4 -1353 -8 -1353 -4 0 -29 22 -56 49 l-48 49 -2 1078 c-1
594 -1 1207 1 1364 l4 284 54 -59 54 -60 1 -1352z m890 1418 c0 -19 -23 -35
-34 -24 -14 15 -5 43 14 43 13 0 20 -7 20 -19z m220 1 c0 -24 -8 -32 -26 -25
-22 8 -17 43 6 43 13 0 20 -7 20 -18z m220 -2 c0 -13 -7 -20 -19 -20 -22 0
-35 15 -26 30 12 19 45 11 45 -10z m220 0 c0 -23 -35 -28 -43 -6 -7 18 1 26
25 26 11 0 18 -7 18 -20z m225 10 c4 -6 1 -18 -6 -26 -11 -13 -14 -13 -27 0
-8 8 -11 19 -8 25 9 14 33 14 41 1z m233 -407 c-3 -364 -5 -418 -18 -418 -25
0 -31 128 -24 498 6 321 8 337 25 337 19 0 19 -15 17 -417z m237 397 c0 -8
-10 -16 -22 -18 -22 -3 -32 16 -16 32 12 11 38 2 38 -14z m218 6 c7 -17 -18
-40 -33 -31 -5 3 -10 15 -10 26 0 23 35 27 43 5z m227 -6 c0 -13 -7 -20 -20
-20 -13 0 -20 7 -20 20 0 13 7 20 20 20 13 0 20 -7 20 -20z m218 -3 c2 -11 -3
-17 -17 -17 -23 0 -35 15 -26 31 10 15 39 6 43 -14z m-2315 -234 c133 -131
325 -319 427 -419 537 -523 876 -858 883 -870 10 -17 1 -34 -17 -34 -7 0 -181
165 -387 367 -206 201 -450 441 -544 532 -421 410 -645 635 -645 647 0 45 54
2 283 -223z m3396 -1613 c-2 -1039 -7 -1780 -12 -1780 -5 0 -4 -6 2 -13 7 -9
8 -24 1 -47 -7 -23 -6 -38 1 -47 8 -9 8 -17 0 -26 -6 -8 -8 -17 -4 -21 10 -10
11 -45 3 -83 -5 -20 -4 -33 3 -36 6 -2 7 -9 2 -17 -4 -7 -7 -77 -6 -154 1 -87
-2 -136 -8 -127 -7 11 -11 10 -19 -5 -9 -16 -12 -16 -28 -4 -13 12 -18 12 -21
3 -5 -15 -33 -18 -33 -4 0 5 8 12 17 15 14 6 15 9 3 16 -8 5 -14 27 -15 55 -2
38 0 45 14 41 13 -5 13 -4 -1 8 -24 18 -23 26 5 27 l22 2 -22 4 c-23 4 -34 43
-13 43 6 0 10 -5 10 -11 0 -5 4 -7 10 -4 5 3 15 -3 22 -15 7 -11 16 -20 21
-20 10 0 -25 49 -36 50 -12 0 -37 27 -37 40 0 6 5 8 10 5 6 -3 10 -2 10 4 0 5
-5 11 -10 13 -7 2 -10 615 -10 1883 l0 1880 52 52 c29 29 56 53 61 53 5 0 7
-766 6 -1780z m-3825 -190 c-3 -987 -5 -1805 -5 -1817 1 -15 -5 -23 -17 -24
-16 -1 -16 -2 1 -6 9 -2 17 -9 17 -15 0 -6 -8 -17 -17 -25 -17 -14 -17 -14 0
-9 13 4 17 0 17 -19 0 -15 -5 -23 -12 -20 -16 5 -54 -22 -45 -32 4 -3 13 2 21
12 14 20 36 13 36 -11 0 -8 -4 -13 -9 -9 -5 3 -12 1 -16 -5 -3 -5 1 -10 9 -10
9 0 16 -7 16 -15 0 -8 -7 -15 -15 -15 -8 0 -15 -5 -15 -11 0 -6 7 -9 15 -5 27
10 16 -28 -12 -41 -28 -14 -47 -8 -24 7 12 7 11 11 -3 25 -13 13 -20 14 -30 6
-9 -8 -16 -8 -20 -2 -4 5 -2 12 4 16 7 4 7 13 -1 26 -7 15 -7 24 1 34 8 9 8
15 0 20 -8 5 -8 11 1 21 8 10 8 14 0 14 -6 0 -11 7 -11 15 0 17 16 20 25 5 3
-5 12 -10 18 -10 7 0 0 8 -15 18 -31 18 -34 31 -15 51 8 9 8 12 0 7 -15 -8
-14 153 1 173 8 11 8 13 -1 8 -8 -5 -11 430 -12 1775 l-2 1783 61 -60 60 -60
-6 -1795z m944 1837 c4 -22 -27 -35 -38 -16 -10 15 7 42 24 36 6 -2 12 -11 14
-20z m219 7 c8 -21 -13 -42 -28 -27 -13 13 -5 43 11 43 6 0 13 -7 17 -16z
m218 -10 c0 -10 -8 -20 -17 -22 -18 -3 -26 27 -11 42 12 11 28 0 28 -20z m233
3 c4 -20 -25 -34 -40 -19 -15 15 -1 44 19 40 10 -2 19 -11 21 -21z m457 -2 c0
-11 -8 -21 -17 -23 -14 -3 -18 3 -18 23 0 20 4 26 18 23 9 -2 17 -12 17 -23z
m224 11 c9 -10 8 -16 -4 -26 -21 -17 -51 6 -34 26 6 8 15 14 19 14 4 0 13 -6
19 -14z m225 -3 c8 -19 -8 -38 -23 -29 -16 10 -13 46 3 46 8 0 17 -8 20 -17z
m1135 -1833 c-1 -1202 -5 -1800 -11 -1800 -7 0 -7 -4 -1 -12 13 -17 15 -76 2
-83 -5 -4 -9 -12 -9 -18 0 -8 3 -8 9 1 5 8 8 -8 8 -42 0 -31 -4 -56 -9 -56 -4
0 -8 5 -8 11 0 7 -11 0 -25 -15 -25 -27 -33 -42 -16 -31 5 3 12 1 15 -4 3 -5
-7 -20 -22 -33 l-28 -24 27 -23 c16 -14 26 -28 23 -33 -3 -4 0 -8 7 -8 13 0
38 -29 39 -44 0 -5 -3 -7 -6 -4 -3 3 -17 -5 -30 -19 -23 -23 -24 -27 -10 -41
9 -9 19 -12 23 -8 4 4 1 11 -7 17 -13 8 -13 10 0 19 21 14 33 12 24 -2 -12
-20 -12 -52 0 -61 7 -5 5 -12 -8 -22 -19 -14 -19 -15 -2 -28 17 -12 17 -14 2
-20 -20 -8 -21 -27 -1 -27 8 0 15 -4 15 -10 0 -17 -25 -11 -38 10 -7 11 -20
20 -30 20 -12 -1 -8 -9 18 -30 24 -22 29 -30 17 -30 -9 0 -17 5 -17 10 0 6 -6
10 -14 10 -8 0 -16 6 -19 13 -2 6 -8 9 -12 4 -5 -4 0 -14 11 -22 11 -9 14 -14
6 -15 -25 0 -40 23 -28 45 6 11 15 23 20 26 4 4 3 10 -3 13 -6 4 -11 2 -11 -3
0 -6 -5 -11 -11 -11 -7 0 -8 7 -4 18 7 15 7 32 4 110 -1 32 10 40 26 19 7 -10
16 -14 19 -9 3 5 -6 15 -19 22 -20 11 -24 19 -21 51 2 20 0 43 -5 50 -4 7 -3
19 3 26 6 7 6 13 1 13 -5 0 -9 47 -9 105 0 58 4 105 9 105 4 0 5 6 0 13 -11
16 -12 297 -1 297 5 0 5 8 -1 18 -5 10 -9 663 -10 1620 l-2 1602 53 60 c29 33
56 60 61 60 4 0 7 -810 6 -1800z m-3491 -182 c-3 -1475 -7 -1809 -17 -1822 -9
-11 -10 -16 -2 -16 15 0 14 -27 -1 -34 -10 -5 -10 -7 0 -12 6 -3 12 -12 12
-20 0 -8 -6 -14 -12 -15 -10 0 -10 -2 0 -6 6 -2 12 -11 12 -19 0 -8 -6 -14
-12 -14 -9 0 -10 -2 -2 -8 7 -4 12 -41 13 -89 1 -69 -1 -83 -14 -83 -18 0 -19
12 -3 28 9 9 9 12 0 12 -7 0 -12 7 -12 15 0 8 5 15 12 15 6 0 3 9 -7 20 -20
22 -35 26 -35 10 0 -5 7 -10 15 -10 20 0 19 -10 -2 -26 -17 -12 -17 -13 0 -19
21 -9 23 -25 2 -25 -8 0 -15 -4 -15 -9 0 -5 -8 -11 -17 -14 -17 -4 -17 -4 1
-12 12 -5 21 -3 28 6 7 11 11 11 15 2 2 -7 11 -13 19 -13 22 0 16 -15 -11 -30
-14 -7 -25 -17 -25 -22 0 -4 -6 -8 -14 -8 -8 0 -16 -6 -19 -12 -2 -7 -8 -10
-12 -6 -7 7 21 35 59 60 6 4 7 11 2 15 -5 4 -11 2 -13 -4 -3 -7 -11 -13 -18
-13 -7 0 -15 -6 -18 -12 -2 -7 -8 -9 -13 -5 -5 4 -2 13 6 18 11 8 12 12 3 16
-19 7 -16 23 9 44 11 11 17 19 12 19 -6 0 -15 -5 -22 -12 -9 -9 -12 -8 -12 4
0 9 10 24 23 33 20 16 20 16 1 11 -17 -5 -20 -1 -21 29 -1 20 4 35 10 35 7 0
4 6 -5 14 -13 9 -14 16 -6 24 8 8 8 15 0 24 -6 8 -7 19 -2 27 4 8 6 21 3 29
-4 8 4 23 18 34 23 18 23 19 2 8 -13 -6 -23 -9 -24 -8 -6 16 -3 371 3 374 5 3
4 13 -1 22 -4 9 -9 773 -10 1697 l-2 1680 61 -60 62 -60 -4 -1807z m1220 1794
c3 -17 -2 -22 -17 -22 -14 0 -21 6 -21 18 0 38 33 41 38 4z m232 -3 c0 -12 -7
-19 -19 -19 -26 0 -36 17 -21 35 15 18 40 8 40 -16z m458 -15 c-19 -19 -38
-11 -38 16 0 24 21 31 40 14 12 -12 12 -16 -2 -30z m1415 -1217 c-3 -2316 -3
-2337 -15 -2337 -9 0 -9 -3 0 -12 15 -15 16 -42 1 -32 -8 5 -8 1 0 -14 17 -32
14 -47 -6 -31 -14 11 -13 8 2 -9 16 -20 17 -25 5 -32 -8 -6 -19 -10 -24 -10
-5 0 1 -11 14 -25 22 -24 22 -25 5 -51 -13 -20 -14 -26 -4 -22 11 4 14 -6 15
-38 0 -24 -3 -44 -8 -44 -5 0 -18 -9 -30 -20 -12 -11 -17 -20 -10 -20 6 0 14
5 17 10 3 5 14 10 23 10 15 -1 15 -2 -2 -15 -17 -13 -18 -15 -3 -15 9 0 17 -7
17 -15 0 -19 -5 -19 -35 1 -14 9 -32 13 -45 9 -20 -6 -20 -8 -4 -19 12 -9 14
-15 6 -20 -15 -9 -16 -26 -1 -26 5 0 7 5 4 10 -3 6 1 10 9 10 21 0 20 17 -1
29 -15 8 -15 10 -3 11 9 0 22 -9 30 -20 8 -11 20 -20 27 -20 7 0 13 -4 13 -10
0 -5 -7 -10 -15 -10 -8 0 -15 -4 -15 -10 0 -5 7 -10 16 -10 8 0 12 -5 9 -10
-5 -8 -12 -7 -22 1 -12 10 -16 10 -23 -2 -7 -11 -12 -11 -22 -1 -9 9 -9 12 5
12 9 0 17 5 17 10 0 6 -10 8 -24 4 -16 -4 -25 -1 -29 10 -4 9 -2 16 4 16 6 0
6 7 1 18 -5 9 -10 65 -11 123 -1 88 1 108 14 113 8 3 15 11 14 18 0 10 -2 10
-6 1 -16 -41 -22 12 -22 210 -2 570 -2 1636 -1 2487 l1 935 52 57 c29 32 54
57 57 58 3 0 4 -568 3 -1263z m-2323 1233 c0 -13 -7 -20 -20 -20 -13 0 -20 7
-20 20 0 13 7 20 20 20 13 0 20 -7 20 -20z m1130 -1 c0 -25 -33 -22 -38 4 -2
12 3 17 17 17 15 0 21 -6 21 -21z m-1971 -1618 c-2 -1247 -5 -1474 -17 -1478
-10 -5 -11 -8 -1 -13 14 -9 20 -388 6 -397 -5 -3 -3 -9 4 -13 10 -7 10 -12 0
-23 -8 -11 -9 -17 -1 -22 6 -3 8 -11 4 -16 -4 -6 -11 -6 -20 2 -10 8 -14 8
-14 0 0 -6 4 -11 9 -11 13 0 32 -58 21 -65 -5 -3 -18 -1 -29 5 -31 16 -36 12
-12 -9 13 -11 29 -17 37 -14 15 6 20 -12 5 -22 -11 -6 -61 15 -61 27 0 4 -8 8
-17 8 -10 0 -2 -11 22 -29 22 -16 44 -27 50 -25 7 3 10 -7 8 -28 -1 -18 -4
-59 -5 -90 -2 -31 -6 -52 -9 -46 -3 5 -10 9 -15 8 -5 -1 -10 3 -12 9 -2 6 5
11 15 11 17 1 17 1 1 14 -22 16 -23 26 -3 26 8 0 15 3 15 6 0 10 -28 34 -39
34 -6 0 -11 5 -11 10 0 6 -5 10 -10 10 -6 0 -5 -8 2 -19 7 -11 15 -18 19 -15
4 2 10 0 13 -5 4 -5 -7 -18 -24 -27 -32 -19 -37 -29 -20 -39 6 -3 10 1 10 9 0
9 7 16 15 16 21 0 19 -16 -2 -25 -17 -6 -17 -7 1 -20 17 -13 17 -15 3 -29 -9
-9 -20 -16 -25 -16 -6 0 -13 -6 -15 -12 -4 -9 -6 -10 -6 -1 -1 6 6 18 14 27
19 18 20 37 2 30 -10 -4 -13 4 -12 28 1 17 7 34 14 36 6 2 11 8 11 14 0 6 -6
8 -14 5 -12 -5 -15 257 -16 1876 l-1 1882 56 -55 56 -55 -2 -1474z m4031 1565
c0 -14 -24 -29 -33 -19 -3 3 -3 11 0 19 7 18 33 18 33 0z m-1031 -1888 c-1
-997 -6 -1821 -11 -1830 -5 -10 -4 -19 2 -23 8 -5 8 -11 0 -20 -8 -10 -8 -15
1 -21 9 -5 7 -11 -6 -21 -11 -7 -14 -13 -8 -13 7 0 11 -8 11 -17 -1 -10 2 -31
6 -48 l7 -30 -42 42 c-24 23 -40 46 -35 50 4 4 12 1 17 -7 9 -13 10 -13 6 0
-2 8 -14 15 -27 15 -28 0 -50 29 -33 46 17 17 37 1 22 -17 -15 -18 -2 -18 17
0 8 8 10 17 5 20 -5 3 -7 14 -4 25 3 14 -4 23 -28 35 -40 20 -45 20 -25 1 8
-8 22 -15 31 -15 9 0 15 -5 13 -12 -7 -21 -24 -19 -51 6 -15 14 -27 20 -27 14
0 -6 9 -19 21 -29 12 -10 18 -23 14 -30 -5 -7 -15 -3 -29 14 -17 20 -23 40
-24 88 -1 41 3 66 11 71 9 6 9 8 0 8 -7 0 -13 7 -13 15 0 8 5 15 10 15 6 0 10
-4 10 -10 0 -5 6 -10 13 -10 6 1 2 9 -10 19 l-22 19 -2 1588 c-1 874 -3 1611
-4 1639 l-3 50 91 92 c50 51 93 93 95 93 2 0 3 -816 1 -1812z m-1939 1732 c0
-13 -7 -20 -20 -20 -13 0 -20 7 -20 20 0 13 7 20 20 20 13 0 20 -7 20 -20z
m225 0 c0 -8 -10 -16 -22 -18 -22 -3 -32 16 -16 32 12 11 38 2 38 -14z m468 6
c8 -20 -20 -43 -35 -28 -14 14 -3 42 16 42 7 0 16 -6 19 -14z m-1621 -63 l66
-68 3 -1015 c4 -1251 0 -2436 -8 -2444 -4 -3 -12 -1 -20 5 -11 10 -11 15 -1
27 10 12 11 16 0 19 -6 3 -10 9 -6 14 3 5 -1 9 -10 9 -8 0 -16 6 -19 13 -2 6
-8 8 -13 4 -5 -4 -2 -12 5 -16 10 -7 9 -13 -5 -30 -10 -11 -25 -21 -33 -21
-12 0 -12 -3 -3 -12 10 -10 15 -10 22 2 5 8 12 11 16 7 4 -4 -1 -14 -12 -22
-16 -12 -20 -12 -30 0 -6 9 -14 11 -20 5 -5 -5 -10 19 -12 62 -2 50 1 74 10
80 10 6 10 8 1 8 -7 0 -13 7 -13 15 0 8 6 15 13 16 10 0 10 2 0 6 -7 2 -13 11
-13 19 0 8 6 14 13 15 10 0 10 2 0 6 -7 2 -13 11 -13 19 0 8 6 14 13 15 9 0 9
2 0 6 -9 3 -12 76 -12 296 -1 161 -2 441 -3 622 -5 689 2 2405 10 2405 4 0 37
-30 74 -67z m4028 22 c0 -8 -7 -15 -15 -15 -8 0 -15 7 -15 15 0 8 7 15 15 15
8 0 15 -7 15 -15z m-137 -39 c9 -7 17 -18 17 -24 0 -5 8 -13 17 -16 12 -5 14
-9 5 -18 -9 -9 -17 -7 -32 10 -11 11 -20 26 -20 32 0 5 -4 10 -10 10 -5 0 -10
5 -10 10 0 13 11 12 33 -4z m105 -53 c-4 -22 -22 -20 -26 1 -2 10 3 16 13 16
10 0 15 -7 13 -17z m-118 3 c0 -3 -4 -8 -10 -11 -5 -3 -10 -1 -10 4 0 6 5 11
10 11 6 0 10 -2 10 -4z m80 -37 c0 -5 -7 -9 -15 -9 -15 0 -20 12 -9 23 8 8 24
-1 24 -14z m63 6 c8 -18 -11 -31 -25 -17 -11 11 -3 32 12 32 4 0 10 -7 13 -15z
m127 0 c0 -8 -9 -15 -20 -15 -20 0 -26 11 -13 23 12 13 33 7 33 -8z m-1510
-96 l0 -101 -182 -187 c-254 -259 -1054 -1061 -1059 -1061 -2 0 -4 49 -4 110
l0 110 610 613 c336 338 616 614 623 615 9 2 12 -24 12 -99z m1260 91 c0 -5
-4 -10 -10 -10 -5 0 -10 5 -10 10 0 6 5 10 10 10 6 0 10 -4 10 -10z m206 -15
c7 -17 44 -21 44 -5 0 6 7 10 15 10 8 0 15 -7 15 -15 0 -8 -7 -15 -15 -15 -8
0 -15 -4 -15 -10 0 -5 6 -10 14 -10 21 0 30 -20 16 -33 -9 -9 -16 -7 -30 11
-10 12 -23 22 -28 22 -5 0 -12 7 -16 15 -3 8 -12 15 -20 15 -10 0 -13 6 -10
15 4 8 10 15 15 15 5 0 12 -7 15 -15z m-181 -4 c3 -5 1 -12 -5 -16 -5 -3 -10
1 -10 9 0 18 6 21 15 7z m-3632 -158 c88 -87 361 -358 608 -603 l449 -445 0
-108 c0 -59 -3 -107 -7 -107 -3 0 -280 274 -615 609 l-608 609 0 101 c0 56 3
101 7 101 4 0 78 -71 166 -157z m3697 147 c0 -5 -7 -10 -15 -10 -8 0 -15 5
-15 10 0 6 7 10 15 10 8 0 15 -4 15 -10z m85 -15 c23 -19 27 -27 18 -36 -10
-10 -14 -8 -20 7 -4 10 -15 19 -23 19 -8 0 -16 8 -18 18 -5 23 7 21 43 -8z
m-2915 0 c0 -9 -7 -18 -16 -22 -18 -7 -39 11 -30 26 11 17 46 13 46 -4z m2790
-5 c0 -5 -4 -10 -10 -10 -5 0 -10 5 -10 10 0 6 5 10 10 10 6 0 10 -4 10 -10z
m70 -24 c-13 -13 -35 7 -25 24 5 8 11 8 21 -1 10 -8 12 -15 4 -23z m-44 -23
c-10 -10 -19 5 -10 18 6 11 8 11 12 0 2 -7 1 -15 -2 -18z m84 2 c0 -8 -7 -15
-15 -15 -8 0 -15 7 -15 15 0 8 7 15 15 15 8 0 15 -7 15 -15z m112 -24 c14 -14
16 -21 7 -27 -7 -4 -19 1 -30 15 -10 12 -23 20 -30 19 -6 -2 -14 3 -17 11 -7
19 43 6 70 -18z m48 14 c7 -8 18 -15 24 -15 6 0 19 -9 29 -20 9 -11 23 -17 32
-14 18 7 20 -7 4 -23 -14 -14 -39 -6 -39 13 0 8 -7 14 -15 14 -23 0 -65 30
-65 46 0 18 14 18 30 -1z m-203 -21 c-9 -9 -28 6 -21 18 4 6 10 6 17 -1 6 -6
8 -13 4 -17z m78 7 c7 -12 -12 -24 -25 -16 -11 7 -4 25 10 25 5 0 11 -4 15 -9z
m-44 -34 c-13 -13 -26 -3 -16 12 3 6 11 8 17 5 6 -4 6 -10 -1 -17z m77 -4
c-14 -17 -28 -16 -28 1 0 8 9 14 19 13 15 -1 17 -4 9 -14z m96 2 c8 -8 19 -15
25 -15 6 0 11 -7 11 -15 0 -8 -7 -15 -15 -15 -8 0 -15 7 -15 15 0 17 -35 21
-45 5 -9 -15 -22 -12 -29 6 -5 13 -2 15 14 11 13 -3 20 0 20 9 0 18 15 18 34
-1z m-134 -31 c0 -16 -16 -19 -25 -4 -8 13 4 32 16 25 5 -4 9 -13 9 -21z m60
-10 c0 -17 -22 -14 -28 4 -2 7 3 12 12 12 9 0 16 -7 16 -16z m68 -5 c-2 -6 -8
-10 -13 -10 -5 0 -11 4 -13 10 -2 6 4 11 13 11 9 0 15 -5 13 -11z m99 -19 c0
-16 -4 -30 -9 -30 -4 0 -8 4 -8 9 0 5 -9 11 -20 14 -11 3 -20 11 -20 17 0 8 9
10 25 6 14 -4 25 -2 25 4 0 5 2 10 3 10 2 0 4 -13 4 -30z m-197 0 c0 -5 -7
-10 -15 -10 -8 0 -15 5 -15 10 0 6 7 10 15 10 8 0 15 -4 15 -10z m65 1 c7 -12
-12 -24 -25 -16 -11 7 -4 25 10 25 5 0 11 -4 15 -9z m65 -16 c0 -8 9 -15 20
-15 11 0 20 -4 20 -10 0 -5 7 -10 15 -10 17 0 20 -16 5 -25 -6 -3 -13 1 -16 9
-8 20 -44 21 -44 1 0 -8 -7 -15 -15 -15 -8 0 -15 -4 -15 -9 0 -5 -9 -11 -20
-14 -13 -3 -20 0 -20 9 0 8 9 14 20 14 11 0 20 7 20 15 0 8 7 15 15 15 8 0 15
5 15 10 0 6 -7 10 -15 10 -8 0 -15 -4 -15 -10 0 -5 -7 -10 -15 -10 -8 0 -15 7
-15 15 0 8 7 15 15 15 8 0 15 5 15 10 0 6 7 10 15 10 8 0 15 -7 15 -15z m-100
-15 c0 -5 -7 -10 -15 -10 -8 0 -15 5 -15 10 0 6 7 10 15 10 8 0 15 -4 15 -10z
m-1510 -127 l0 -108 -508 -510 c-280 -280 -559 -563 -620 -629 l-112 -118 0
114 0 114 588 593 c323 326 598 606 612 622 14 16 28 29 33 29 4 0 7 -48 7
-107z m1540 97 c0 -5 -7 -10 -15 -10 -8 0 -15 5 -15 10 0 6 7 10 15 10 8 0 15
-4 15 -10z m-2830 -1342 c0 -54 -3 -98 -7 -98 -4 0 -73 66 -153 148 -80 81
-353 354 -607 607 l-463 460 0 96 c0 52 3 98 6 101 3 3 279 -269 615 -605
l609 -610 0 -99z m2940 1312 c0 -6 -8 -14 -17 -17 -10 -4 -22 -13 -26 -20 -5
-7 -12 -11 -18 -8 -14 9 -11 25 6 25 9 0 18 7 21 15 7 17 34 21 34 5z m-2892
-59 c4 -73 -4 -101 -28 -101 -18 0 -20 7 -20 81 0 78 1 80 23 77 19 -3 22 -10
25 -57z m2922 39 c0 -5 -7 -10 -15 -10 -8 0 -15 5 -15 10 0 6 7 10 15 10 8 0
15 -4 15 -10z m-36 -45 c-6 -16 -34 -21 -34 -7 0 13 11 22 26 22 8 0 11 -6 8
-15z m30 -1 c3 -8 2 -12 -4 -9 -6 3 -10 10 -10 16 0 14 7 11 14 -7z m-4 -34
c0 -5 -4 -10 -10 -10 -5 0 -10 5 -10 10 0 6 5 10 10 10 6 0 10 -4 10 -10z
m-282 -52 c7 -7 12 -22 12 -35 0 -27 -42 -42 -65 -23 -28 23 -11 70 25 70 9 0
21 -5 28 -12z m-1388 -207 l0 -109 -37 -34 c-21 -20 -299 -297 -618 -617 -319
-320 -582 -583 -584 -584 -3 -1 -6 40 -8 91 -4 81 -1 97 17 125 11 18 151 163
310 322 160 160 429 430 598 602 169 172 310 312 315 313 4 0 7 -49 7 -109z
m-1290 -1241 l0 -106 -615 611 -615 611 0 110 0 109 615 -615 615 -615 0 -105z
m48 1180 c3 -87 0 -120 -11 -134 -28 -38 -37 -9 -37 125 0 129 0 130 23 127
21 -3 22 -7 25 -118z m2826 -51 c194 -97 223 -370 52 -500 -131 -100 -303 -88
-409 30 -53 59 -69 104 -70 191 0 62 5 86 28 138 34 75 97 135 164 157 67 22
175 14 235 -16z m-5771 -138 c48 -47 109 -110 134 -140 40 -46 45 -55 31 -65
-11 -8 -13 -15 -4 -28 5 -9 6 -21 2 -25 -5 -4 -11 -2 -13 5 -3 6 -12 12 -20
12 -11 0 -9 -7 11 -26 27 -28 34 -60 15 -66 -8 -3 -8 -11 2 -27 11 -19 11 -25
2 -28 -7 -3 -13 -11 -13 -18 0 -7 6 -15 13 -18 9 -3 9 -10 -3 -32 -12 -22 -12
-29 -2 -32 14 -5 16 -33 2 -33 -5 0 -10 -7 -10 -15 0 -8 5 -15 10 -15 6 0 10
-7 10 -15 0 -8 -4 -15 -10 -15 -5 0 -10 -7 -10 -15 0 -8 5 -15 10 -15 6 0 10
-7 10 -15 0 -8 -4 -15 -10 -15 -5 0 -10 7 -10 15 0 8 -7 15 -15 15 -8 0 -15 7
-15 15 0 8 -9 15 -20 15 -11 0 -20 -7 -20 -15 0 -8 7 -15 15 -15 8 0 15 -7 15
-15 0 -8 -7 -15 -15 -15 -8 0 -15 7 -15 15 0 8 -7 15 -15 15 -8 0 -15 -6 -15
-14 0 -8 7 -16 15 -20 8 -3 15 -12 15 -21 0 -8 -7 -15 -15 -15 -8 0 -15 9 -15
20 0 11 -7 20 -15 20 -8 0 -15 7 -15 15 0 8 7 15 15 15 8 0 15 7 15 15 0 8 -7
15 -15 15 -8 0 -15 7 -15 15 0 8 -4 15 -10 15 -13 0 -50 37 -50 50 0 6 7 10
15 10 8 0 15 -7 15 -15 0 -8 7 -15 15 -15 8 0 15 7 15 15 0 8 7 15 15 15 8 0
15 -7 15 -15 0 -8 -7 -15 -15 -15 -8 0 -15 -7 -15 -15 0 -8 7 -15 15 -15 8 0
15 7 15 15 0 8 7 15 15 15 8 0 15 -7 15 -15 0 -8 -7 -15 -15 -15 -8 0 -15 -7
-15 -15 0 -8 7 -15 15 -15 8 0 15 7 15 15 0 8 9 15 20 15 11 0 20 -7 20 -15 0
-8 7 -15 15 -15 8 0 15 7 15 15 0 8 -6 15 -14 15 -24 0 -30 21 -7 27 24 6 29
33 6 33 -8 0 -15 7 -15 15 0 8 -9 15 -20 15 -11 0 -20 7 -20 15 0 8 -7 15 -15
15 -8 0 -15 -3 -15 -6 0 -10 50 -54 61 -54 5 0 9 -7 9 -15 0 -8 -9 -15 -20
-15 -11 0 -20 7 -20 15 0 8 -7 15 -15 15 -8 0 -15 7 -15 15 0 8 -7 15 -15 15
-8 0 -15 7 -15 15 0 8 -7 15 -15 15 -8 0 -15 -7 -15 -15 0 -8 7 -15 15 -15 8
0 15 -7 15 -15 0 -8 -4 -15 -10 -15 -13 0 -50 37 -50 50 0 6 -7 10 -15 10 -21
0 -19 30 3 46 15 12 15 13 1 14 -9 0 -19 -7 -23 -15 -8 -22 -36 -18 -36 5 0
11 7 20 15 20 8 0 15 5 15 10 0 6 -7 10 -15 10 -8 0 -15 9 -15 20 0 11 7 23
15 26 8 4 15 11 15 16 0 7 -4 7 -13 0 -10 -9 -13 27 -15 184 -2 154 1 194 10
188 7 -4 53 -46 101 -93z m4187 -42 l0 -101 -528 -526 c-290 -290 -569 -570
-620 -623 l-92 -96 0 113 c0 69 4 114 10 114 6 0 10 3 10 8 0 10 1203 1212
1213 1212 4 0 7 -45 7 -101z m-1901 -519 l611 -610 0 -101 c0 -60 -4 -99 -10
-97 -9 3 -828 817 -1091 1084 l-129 131 0 102 c0 55 2 101 4 101 2 0 279 -275
615 -610z m1895 239 l6 -95 -608 -607 c-334 -334 -613 -607 -620 -607 -10 0
-12 23 -10 91 l3 90 610 613 c336 337 611 612 612 612 1 -1 4 -45 7 -97z
m-1284 -1215 c0 -48 -5 -86 -11 -89 -10 -7 -248 225 -921 895 l-298 297 0 101
0 101 615 -611 615 -612 0 -82z m-2975 1096 c0 -22 -29 -18 -33 3 -3 14 1 18
15 15 10 -2 18 -10 18 -18z m35 -35 c0 -8 -7 -15 -15 -15 -8 0 -15 7 -15 15 0
8 7 15 15 15 8 0 15 -7 15 -15z m-30 -32 c0 -7 -7 -13 -15 -13 -8 0 -15 -4
-15 -10 0 -5 7 -10 15 -10 8 0 15 5 15 10 0 6 7 10 15 10 8 0 15 -7 15 -15 0
-8 5 -15 10 -15 6 0 10 -7 10 -15 0 -8 7 -15 15 -15 8 0 15 -7 15 -15 0 -8 -7
-15 -15 -15 -20 0 -19 -20 3 -36 14 -10 15 -15 4 -26 -10 -10 -14 -8 -19 10
-3 13 -11 21 -18 18 -7 -2 -15 4 -18 15 -4 16 -11 18 -31 13 -20 -5 -26 -2
-26 11 0 12 6 16 20 12 11 -3 20 -1 20 4 0 5 7 9 15 9 8 0 15 7 15 15 0 8 -9
15 -20 15 -11 0 -20 -7 -20 -15 0 -8 -6 -12 -14 -9 -10 4 -14 20 -14 54 1 44
3 47 20 37 10 -7 18 -17 18 -24z m10 -149 c0 -11 -40 -27 -48 -19 -3 2 -2 10
1 17 6 17 47 18 47 2z m200 1 c0 -8 7 -15 15 -15 8 0 15 -4 15 -10 0 -5 -4
-10 -10 -10 -15 0 -50 33 -44 42 9 13 24 9 24 -7z m5515 -21 c19 -20 16 -43
-7 -58 -35 -22 -74 27 -48 59 16 19 35 19 55 -1z m-5685 -9 c0 -8 -7 -15 -15
-15 -16 0 -20 12 -8 23 11 12 23 8 23 -8z m70 -5 c0 -21 -15 -27 -25 -10 -7
12 2 30 16 30 5 0 9 -9 9 -20z m121 -40 c5 0 9 -4 9 -10 0 -17 -29 -11 -47 10
-10 11 -23 20 -30 20 -7 0 -13 6 -13 13 0 27 13 26 42 -3 16 -17 34 -30 39
-30z m-215 8 c13 -13 24 -30 23 -38 0 -11 -5 -9 -18 8 -11 12 -26 22 -35 22
-17 0 -29 14 -19 24 11 11 25 7 49 -16z m62 -1 c2 -10 -3 -17 -12 -17 -10 0
-16 9 -16 21 0 24 23 21 28 -4z m64 -2 c0 -5 -5 -11 -11 -13 -6 -2 -11 4 -11
13 0 9 5 15 11 13 6 -2 11 -8 11 -13z m-32 -30 c0 -8 -7 -15 -15 -15 -8 0 -15
7 -15 15 0 8 7 15 15 15 8 0 15 -7 15 -15z m70 0 c0 -8 -6 -15 -14 -15 -8 0
-16 -7 -20 -15 -3 -8 -10 -15 -16 -15 -5 0 -10 7 -10 15 0 8 7 15 15 15 8 0
15 7 15 15 0 8 7 15 15 15 8 0 15 -7 15 -15z m-180 -21 c0 -8 -7 -14 -15 -14
-8 0 -15 9 -15 20 0 13 5 18 15 14 8 -4 15 -12 15 -20z m80 -11 c0 -10 -6 -14
-20 -10 -13 3 -20 0 -20 -10 0 -8 -5 -13 -12 -11 -18 6 -22 28 -5 28 8 0 20 7
27 15 14 17 30 11 30 -12z m160 7 c0 -5 -2 -10 -4 -10 -3 0 -8 5 -11 10 -3 6
-1 10 4 10 6 0 11 -4 11 -10z m-29 -15 c-1 -15 -24 -12 -29 3 -3 9 2 13 12 10
10 -1 17 -7 17 -13z m-101 -21 c0 -17 -22 -14 -28 4 -2 7 3 12 12 12 9 0 16
-7 16 -16z m68 -2 c2 -7 -3 -12 -11 -12 -8 0 -17 -7 -21 -15 -3 -8 -10 -15
-16 -15 -5 0 -10 7 -10 15 0 8 7 15 15 15 8 0 15 7 15 16 0 17 22 14 28 -4z
m-180 -14 c2 -8 -4 -15 -13 -15 -8 0 -15 9 -15 20 0 22 23 18 28 -5z m242 7
c0 -8 -4 -15 -10 -15 -5 0 -10 7 -10 15 0 8 5 15 10 15 6 0 10 -7 10 -15z
m-165 -6 c10 -15 -1 -23 -20 -15 -9 3 -13 10 -10 16 8 13 22 13 30 -1z m133
-20 c-2 -6 -8 -10 -13 -10 -5 0 -11 4 -13 10 -2 6 4 11 13 11 9 0 15 -5 13
-11z m-158 -19 c23 -23 25 -31 8 -27 -16 3 -48 30 -48 39 0 14 20 8 40 -12z
m93 -20 c4 0 7 7 7 15 0 17 16 20 25 6 3 -6 -3 -14 -12 -20 -16 -9 -16 -12 -3
-20 10 -7 17 -6 23 5 5 8 12 12 18 9 15 -10 10 -19 -16 -32 -22 -10 -27 -8
-35 8 -6 10 -24 26 -41 34 -16 9 -27 20 -23 26 4 7 15 2 28 -10 12 -12 25 -21
29 -21z m640 -36 l55 -66 1 -419 c0 -390 -1 -419 -17 -420 -16 -1 -16 -2 1 -6
9 -2 17 -11 17 -19 0 -8 -8 -15 -17 -15 -17 -1 -17 -2 -1 -6 19 -5 22 -52 3
-65 -6 -5 -6 -8 3 -8 6 0 12 -7 12 -15 0 -19 -5 -19 -36 1 -13 9 -27 14 -30
11 -3 -3 4 -8 15 -12 12 -3 21 -11 21 -16 0 -5 7 -9 15 -9 8 0 15 -4 15 -10 0
-5 -5 -10 -11 -10 -8 0 -7 -5 1 -15 18 -22 3 -32 -23 -16 -15 10 -22 10 -25 2
-5 -14 -32 -15 -32 -1 0 6 -5 10 -12 10 -6 0 -3 -9 7 -20 14 -15 21 -17 32 -8
10 8 20 8 38 0 29 -13 33 -32 8 -32 -17 -1 -17 -1 0 -11 14 -8 16 -14 6 -25
-8 -10 -8 -14 0 -14 6 0 11 -5 11 -11 0 -7 -12 -8 -32 -4 l-33 6 33 -17 c17
-9 32 -20 32 -24 0 -12 -36 -40 -43 -33 -12 12 -7 23 11 24 16 1 16 2 0 6 -10
2 -18 9 -18 14 0 5 -8 9 -17 9 -15 0 -15 -1 2 -13 11 -9 14 -16 7 -21 -6 -3
-13 -2 -17 4 -8 13 -25 13 -25 -1 0 -5 5 -7 10 -4 6 3 10 2 10 -2 0 -5 18 -19
39 -33 41 -24 46 -46 9 -34 -18 5 -19 4 -7 -9 8 -8 17 -13 20 -11 17 10 14
-35 -3 -50 -17 -15 -20 -15 -42 8 -17 19 -26 22 -34 14 -6 -6 -15 -8 -19 -3
-5 4 -2 10 6 13 11 4 11 6 0 13 -7 4 -10 11 -7 15 4 4 19 -1 32 -10 29 -18 36
-20 36 -7 0 5 -9 13 -20 16 -25 8 -26 25 -2 25 15 1 15 2 -2 15 -11 8 -25 15
-30 14 -6 0 -5 -3 2 -6 17 -7 15 -23 -4 -23 -12 0 -15 7 -12 25 3 14 1 28 -4
31 -5 3 -4 11 2 19 8 10 8 15 0 20 -8 5 -8 10 0 20 6 7 7 15 3 18 -11 7 -17
1267 -5 1267 5 0 34 -30 65 -66z m-783 41 c0 -8 -7 -15 -15 -15 -8 0 -15 7
-15 15 0 8 7 15 15 15 8 0 15 -7 15 -15z m240 5 c0 -5 -4 -10 -10 -10 -5 0
-10 5 -10 10 0 6 5 10 10 10 6 0 10 -4 10 -10z m5690 -8 c0 -9 -36 -53 -80
-97 -76 -75 -81 -78 -97 -62 -16 16 -13 21 62 97 78 78 115 98 115 62z m-5789
-44 c7 -2 10 -10 8 -16 -3 -9 -11 -7 -26 8 -12 11 -27 20 -33 20 -11 0 -13 13
-3 23 3 4 14 -1 24 -12 10 -10 23 -21 30 -23z m3959 25 c0 -10 -233 -250 -540
-555 l-540 -537 0 -324 c0 -178 -3 -419 -7 -535 -6 -197 -7 -212 -25 -212 -17
0 -18 19 -20 398 -2 218 -3 458 -3 533 l0 136 -294 289 c-691 677 -764 751
-757 762 4 7 16 12 26 12 12 0 162 -141 387 -363 576 -568 633 -623 638 -618
3 2 5 53 5 113 0 108 0 109 23 106 21 -3 22 -6 22 -115 l0 -113 405 404 c541
538 642 635 663 636 10 0 17 -7 17 -17z m-4070 -8 c0 -8 -4 -15 -9 -15 -13 0
-22 16 -14 24 11 11 23 6 23 -9z m-38 -20 c0 -5 -5 -11 -11 -13 -6 -2 -11 4
-11 13 0 9 5 15 11 13 6 -2 11 -8 11 -13z m83 6 c7 -12 -12 -24 -25 -16 -11 7
-4 25 10 25 5 0 11 -4 15 -9z m162 -17 c-9 -9 -28 6 -21 18 4 6 10 6 17 -1 6
-6 8 -13 4 -17z m-202 -24 c-5 -8 -11 -8 -17 -2 -6 6 -7 16 -3 22 5 8 11 8 17
2 6 -6 7 -16 3 -22z m75 4 c0 -16 -16 -19 -25 -4 -8 13 4 32 16 25 5 -4 9 -13
9 -21z m95 6 c3 -6 -1 -13 -10 -16 -19 -8 -30 0 -20 15 8 14 22 14 30 1z
m-210 -30 c-3 -5 -10 -10 -16 -10 -5 0 -9 5 -9 10 0 6 7 10 16 10 8 0 12 -4 9
-10z m80 0 c3 -5 -1 -10 -9 -10 -9 0 -16 5 -16 10 0 6 4 10 9 10 6 0 13 -4 16
-10z m75 -5 c0 -8 -4 -15 -10 -15 -5 0 -10 7 -10 15 0 8 5 15 10 15 6 0 10 -7
10 -15z m87 -11 c-9 -9 -28 6 -21 18 4 6 10 6 17 -1 6 -6 8 -13 4 -17z m-197
-15 c0 -5 -7 -9 -15 -9 -15 0 -20 12 -9 23 8 8 24 -1 24 -14z m70 1 c0 -11 -4
-20 -10 -20 -5 0 -10 9 -10 20 0 11 5 20 10 20 6 0 10 -9 10 -20z m90 -5 c0
-8 -7 -15 -15 -15 -16 0 -20 12 -8 23 11 12 23 8 23 -8z m-206 -14 c3 -5 -1
-11 -9 -15 -9 -3 -15 0 -15 9 0 16 16 20 24 6z m81 -21 c-5 -8 -11 -8 -17 -2
-6 6 -7 16 -3 22 5 8 11 8 17 2 6 -6 7 -16 3 -22z m75 -6 c0 -8 -4 -14 -9 -14
-11 0 -22 26 -14 34 9 9 23 -3 23 -20z m841 -68 c6 3 8 -185 7 -458 -3 -378
-5 -462 -16 -460 -8 1 -11 -2 -7 -8 3 -6 10 -8 15 -5 4 3 7 -85 7 -194 -2
-191 -3 -199 -20 -184 -12 11 -14 20 -7 27 5 5 10 15 10 21 0 5 -7 1 -16 -10
-8 -11 -17 -19 -19 -18 -8 4 -40 -10 -47 -21 -5 -8 -8 -7 -8 1 0 17 40 53 59
53 12 0 13 2 2 13 -10 10 -14 9 -22 -5 -17 -30 -36 -21 -37 17 -1 25 3 35 14
35 8 0 12 5 9 10 -4 6 -11 8 -16 5 -5 -4 -9 1 -9 9 0 9 7 16 15 16 8 0 15 5
15 11 0 6 -6 9 -14 6 -20 -8 -18 54 2 77 15 17 15 19 1 14 -14 -6 -16 13 -17
170 -1 127 2 179 11 184 9 6 9 8 0 8 -9 0 -12 94 -13 391 l0 391 46 -51 c25
-28 50 -48 55 -45z m-953 51 c5 -23 -10 -21 -26 4 -12 18 -11 20 5 17 10 -2
19 -11 21 -21z m74 -2 c0 -5 -5 -11 -11 -13 -6 -2 -11 4 -11 13 0 9 5 15 11
13 6 -2 11 -8 11 -13z m88 0 c0 -8 -4 -15 -9 -15 -13 0 -22 16 -14 24 11 11
23 6 23 -9z m-210 -3 c0 -13 -12 -22 -22 -16 -10 6 -1 24 13 24 5 0 9 -4 9 -8z
m85 -42 c-5 -8 -11 -8 -17 -2 -6 6 -7 16 -3 22 5 8 11 8 17 2 6 -6 7 -16 3
-22z m-65 10 c0 -5 -2 -10 -4 -10 -3 0 -8 5 -11 10 -3 6 -1 10 4 10 6 0 11 -4
11 -10z m140 -5 c0 -8 -4 -15 -10 -15 -5 0 -10 7 -10 15 0 8 5 15 10 15 6 0
10 -7 10 -15z m75 -5 c3 -5 1 -10 -4 -10 -6 0 -11 5 -11 10 0 6 2 10 4 10 3 0
8 -4 11 -10z m-245 -16 c0 -8 -5 -12 -10 -9 -6 4 -8 11 -5 16 9 14 15 11 15
-7z m60 1 c0 -8 -4 -15 -9 -15 -13 0 -22 16 -14 24 11 11 23 6 23 -9z m70 -5
c0 -5 -4 -10 -10 -10 -5 0 -10 5 -10 10 0 6 5 10 10 10 6 0 10 -4 10 -10z m75
0 c3 -5 1 -10 -4 -10 -6 0 -11 5 -11 10 0 6 2 10 4 10 3 0 8 -4 11 -10z m-170
-30 c-3 -5 -10 -10 -16 -10 -5 0 -9 5 -9 10 0 6 7 10 16 10 8 0 12 -4 9 -10z
m55 0 c0 -5 -4 -10 -10 -10 -5 0 -10 5 -10 10 0 6 5 10 10 10 6 0 10 -4 10
-10z m74 -11 c-3 -5 -10 -7 -15 -3 -5 3 -7 10 -3 15 3 5 10 7 15 3 5 -3 7 -10
3 -15z m86 1 c0 -5 -4 -10 -10 -10 -5 0 -10 5 -10 10 0 6 5 10 10 10 6 0 10
-4 10 -10z m-249 -23 c-13 -13 -26 -3 -16 12 3 6 11 8 17 5 6 -4 6 -10 -1 -17z
m59 -2 c0 -8 -4 -15 -10 -15 -5 0 -10 7 -10 15 0 8 5 15 10 15 6 0 10 -7 10
-15z m70 5 c0 -5 -4 -10 -10 -10 -5 0 -10 5 -10 10 0 6 5 10 10 10 6 0 10 -4
10 -10z m80 -11 c0 -5 -4 -9 -10 -9 -5 0 -10 7 -10 16 0 8 5 12 10 9 6 -3 10
-10 10 -16z m-180 -24 c0 -8 -4 -15 -10 -15 -5 0 -10 7 -10 15 0 8 5 15 10 15
6 0 10 -7 10 -15z m62 0 c0 -5 -5 -11 -11 -13 -6 -2 -11 4 -11 13 0 9 5 15 11
13 6 -2 11 -8 11 -13z m72 -6 c-3 -5 -10 -7 -15 -3 -5 3 -7 10 -3 15 3 5 10 7
15 3 5 -3 7 -10 3 -15z m1790 5 c18 -18 19 -24 7 -42 -11 -18 -51 -11 -65 11
-9 15 -7 21 8 33 25 18 31 18 50 -2z m2176 1 c14 -17 5 -51 -16 -59 -8 -3 -23
3 -34 14 -16 16 -18 25 -10 40 13 23 42 26 60 5z m-3880 1 c0 -3 -4 -8 -10
-11 -5 -3 -10 -1 -10 4 0 6 5 11 10 11 6 0 10 -2 10 -4z m350 -13 c0 -20 -428
-443 -448 -443 -39 0 7 59 198 251 199 199 250 239 250 192z m5363 -195 c-2
-106 -3 -196 -3 -200 0 -4 -7 -5 -15 -2 -8 4 -15 1 -15 -5 0 -6 7 -11 15 -11
22 0 20 -50 -2 -50 -16 -1 -16 -2 -2 -13 21 -17 25 -129 4 -120 -8 3 -15 1
-15 -5 0 -5 7 -12 15 -16 18 -6 20 -33 4 -38 -8 -3 -8 -11 2 -27 11 -19 11
-25 2 -28 -15 -6 -17 -33 -3 -33 14 0 12 -27 -2 -33 -10 -4 -10 -7 0 -18 6 -7
12 -17 12 -21 0 -15 -17 -8 -43 18 -14 14 -31 23 -37 19 -11 -7 37 -58 65 -69
9 -3 13 -10 10 -16 -10 -16 -45 -12 -45 5 0 8 -6 15 -14 15 -8 0 -18 9 -21 20
-3 11 -13 20 -21 20 -8 0 -14 7 -14 15 0 8 7 15 15 15 8 0 15 7 15 15 0 8 7
15 15 15 8 0 15 7 15 15 0 8 -7 15 -15 15 -8 0 -15 -4 -15 -10 0 -12 -37 -50
-49 -50 -5 0 -11 7 -15 15 -3 8 -10 15 -16 15 -5 0 -10 -7 -10 -15 0 -8 7 -15
15 -15 8 0 15 -7 15 -15 0 -8 6 -15 14 -15 7 0 16 -9 19 -20 3 -11 12 -20 21
-20 9 0 16 -7 16 -15 0 -8 7 -15 15 -15 8 0 15 -7 15 -15 0 -8 5 -15 10 -15 6
0 10 -7 10 -15 0 -8 -4 -15 -10 -15 -5 0 -10 -5 -10 -11 0 -14 25 -39 39 -39
6 0 11 -7 11 -15 0 -24 -18 -18 -57 20 -35 34 -36 36 -15 42 12 3 22 12 22 19
0 19 -29 18 -36 -1 -4 -8 -12 -15 -20 -15 -8 0 -14 -7 -14 -15 0 -8 5 -15 11
-15 14 0 49 -43 42 -52 -8 -14 -23 -9 -23 7 0 8 -7 15 -15 15 -8 0 -15 7 -15
15 0 8 -7 15 -15 15 -8 0 -15 7 -15 15 0 8 -7 15 -15 15 -8 0 -15 7 -15 15 0
8 7 15 15 15 8 0 15 7 15 15 0 8 7 15 15 15 8 0 15 -7 15 -15 0 -8 -7 -15 -15
-15 -8 0 -15 -7 -15 -15 0 -8 7 -15 15 -15 8 0 15 7 15 15 0 8 7 15 15 15 8 0
15 7 15 15 0 8 -7 15 -15 15 -8 0 -15 7 -15 15 0 8 -7 15 -15 15 -8 0 -15 -7
-15 -15 0 -8 -7 -15 -15 -15 -8 0 -15 6 -15 14 0 8 -9 18 -20 21 -23 7 -27 35
-5 35 8 0 15 7 15 15 0 8 -5 15 -10 15 -6 0 -13 -7 -16 -15 -4 -8 -12 -15 -20
-15 -8 0 -14 7 -14 15 0 8 7 15 15 15 8 0 15 7 15 15 0 8 7 15 15 15 8 0 15 7
15 15 0 8 9 15 20 15 11 0 20 -7 20 -15 0 -8 7 -15 15 -15 8 0 15 7 15 15 0 8
-6 15 -14 15 -8 0 -18 9 -21 20 -3 11 -10 20 -15 20 -5 0 -12 -9 -15 -20 -3
-11 -13 -20 -21 -20 -8 0 -14 -7 -14 -15 0 -8 -7 -15 -15 -15 -8 0 -15 7 -15
15 0 9 -7 18 -15 21 -8 4 -15 12 -15 20 0 8 7 14 15 14 8 0 15 -7 15 -15 0 -8
7 -15 15 -15 8 0 15 7 15 15 0 8 7 15 15 15 8 0 15 7 15 15 0 8 -7 15 -15 15
-8 0 -15 7 -15 15 0 8 -7 15 -15 15 -8 0 -15 -7 -15 -15 0 -8 -7 -15 -15 -15
-20 0 -19 26 1 34 8 3 12 10 9 16 -9 15 -25 12 -25 -5 0 -8 -7 -15 -15 -15 -8
0 -15 -7 -15 -15 0 -8 -9 -15 -21 -15 -12 0 -17 4 -14 11 4 6 -2 13 -14 16
-24 6 -29 43 -6 43 8 0 15 7 15 15 0 8 -7 15 -15 15 -8 0 -15 7 -15 15 0 8 7
15 15 15 8 0 15 7 15 15 0 8 -5 15 -10 15 -6 0 -13 -7 -16 -15 -4 -8 -12 -15
-20 -15 -8 0 -14 7 -14 15 0 8 7 15 15 15 8 0 15 5 15 10 0 6 -7 10 -15 10 -8
0 -15 -4 -15 -10 0 -5 -7 -10 -15 -10 -8 0 -15 -7 -15 -15 0 -8 7 -15 15 -15
8 0 15 -7 15 -15 0 -8 7 -15 15 -15 8 0 15 -7 15 -15 0 -8 -7 -15 -15 -15 -8
0 -15 7 -15 16 0 12 -6 15 -20 11 -17 -4 -20 -2 -15 14 4 11 2 19 -4 19 -15 0
-14 27 2 34 10 5 10 7 0 12 -15 7 -17 34 -3 34 6 0 10 -4 10 -10 0 -5 7 -10
15 -10 18 0 20 17 3 22 -8 3 -2 16 15 39 44 57 395 401 404 396 4 -3 7 -92 6
-199z m-5963 182 c0 -5 -2 -10 -4 -10 -3 0 -8 5 -11 10 -3 6 -1 10 4 10 6 0
11 -4 11 -10z m55 0 c3 -5 1 -10 -4 -10 -6 0 -11 5 -11 10 0 6 2 10 4 10 3 0
8 -4 11 -10z m70 1 c3 -5 1 -12 -5 -16 -5 -3 -10 1 -10 9 0 18 6 21 15 7z m85
-22 c0 -5 -4 -9 -10 -9 -5 0 -10 7 -10 16 0 8 5 12 10 9 6 -3 10 -10 10 -16z
m-170 -7 c0 -5 -7 -9 -15 -9 -8 0 -12 4 -9 9 3 4 9 8 15 8 5 0 9 -4 9 -8z m50
-7 c0 -8 -4 -15 -10 -15 -5 0 -10 7 -10 15 0 8 5 15 10 15 6 0 10 -7 10 -15z
m74 -6 c-3 -5 -10 -7 -15 -3 -5 3 -7 10 -3 15 3 5 10 7 15 3 5 -3 7 -10 3 -15z
m-114 -28 c0 -6 -4 -13 -10 -16 -5 -3 -10 1 -10 9 0 9 5 16 10 16 6 0 10 -4
10 -9z m70 5 c0 -3 -4 -8 -10 -11 -5 -3 -10 -1 -10 4 0 6 5 11 10 11 6 0 10
-2 10 -4z m-43 -38 c-3 -8 -6 -5 -6 6 -1 11 2 17 5 13 3 -3 4 -12 1 -19z m83
18 c0 -3 -4 -8 -10 -11 -5 -3 -10 -1 -10 4 0 6 5 11 10 11 6 0 10 -2 10 -4z
m-150 -16 c0 -5 -4 -10 -10 -10 -5 0 -10 5 -10 10 0 6 5 10 10 10 6 0 10 -4
10 -10z m110 -20 c0 -5 -4 -10 -10 -10 -5 0 -10 5 -10 10 0 6 5 10 10 10 6 0
10 -4 10 -10z m-70 -10 c0 -5 -4 -10 -10 -10 -5 0 -10 5 -10 10 0 6 5 10 10
10 6 0 10 -4 10 -10z m27 -32 c-3 -8 -6 -5 -6 6 -1 11 2 17 5 13 3 -3 4 -12 1
-19z m-67 8 c0 -3 -4 -8 -10 -11 -5 -3 -10 -1 -10 4 0 6 5 11 10 11 6 0 10 -2
10 -4z m30 -32 c0 -8 -5 -12 -10 -9 -6 4 -8 11 -5 16 9 14 15 11 15 -7z m2121
-8 c124 -84 69 -286 -78 -286 -62 0 -107 22 -137 66 -48 71 -28 174 43 221 48
32 124 32 172 -1z m-2151 -16 c0 -5 -4 -10 -10 -10 -5 0 -10 5 -10 10 0 6 5
10 10 10 6 0 10 -4 10 -10z m4036 -54 c58 -58 41 -125 -40 -156 -36 -13 -89 2
-111 33 -43 62 5 157 80 157 29 0 45 -8 71 -34z m1284 -92 c0 -8 -4 -12 -10
-9 -5 3 -10 10 -10 16 0 5 5 9 10 9 6 0 10 -7 10 -16z m-1 -119 c1 -85 0 -95
-16 -96 -17 -1 -17 -2 0 -6 14 -4 17 -16 17 -72 0 -39 -5 -72 -12 -79 -9 -9
-9 -12 0 -12 7 0 12 -7 12 -15 0 -8 -5 -15 -10 -15 -6 0 -5 -8 2 -19 9 -15 9
-23 -1 -34 -9 -12 -9 -16 0 -19 7 -2 10 -10 8 -17 -4 -11 -8 -10 -21 2 -14 15
-17 15 -22 1 -3 -8 -10 -12 -16 -9 -5 3 -10 1 -10 -4 0 -14 13 -14 28 1 9 9
12 9 12 0 0 -7 7 -12 15 -12 8 0 15 -7 15 -15 0 -17 -16 -20 -25 -5 -3 6 -12
10 -18 9 -9 0 -9 -2 1 -6 18 -7 15 -23 -5 -23 -14 0 -14 -2 3 -21 15 -17 16
-22 4 -29 -13 -8 -12 -12 5 -24 18 -14 18 -17 -1 -15 -3 0 -11 -7 -18 -16 -11
-16 -14 -16 -28 -1 -12 12 -18 13 -21 3 -3 -6 -6 -2 -6 11 -1 23 13 30 24 12
3 -5 11 -10 17 -10 6 0 3 8 -8 19 -10 10 -22 17 -26 14 -5 -2 -8 8 -8 22 0 14
3 24 8 22 4 -3 16 4 26 14 11 11 14 19 8 19 -6 0 -14 -4 -17 -10 -14 -23 -25
-7 -25 39 0 44 4 52 31 71 16 12 27 25 24 28 -3 4 -9 2 -13 -3 -4 -6 -14 -16
-23 -23 -16 -12 -17 3 -17 178 l0 190 41 34 c28 24 45 32 53 25 7 -6 12 -46
13 -104z m-4834 15 c37 -41 -24 -97 -63 -58 -17 17 -15 44 4 62 21 21 37 20
59 -4z m3211 -59 c141 -64 128 -252 -21 -301 -120 -40 -240 87 -194 207 22 59
93 112 149 112 14 0 43 -8 66 -18z m1461 -46 c-1 -36 -5 -65 -10 -65 -5 0 -3
-7 4 -16 11 -14 10 -18 -6 -30 -17 -12 -17 -14 -2 -14 22 0 21 -8 0 -34 -17
-19 -17 -20 -1 -7 16 12 17 10 14 -29 -2 -23 -10 -46 -17 -51 -12 -7 -12 -9 0
-9 8 0 11 -7 8 -20 -3 -11 -1 -23 4 -26 15 -9 10 -20 -16 -34 -19 -10 -22 -16
-14 -24 8 -8 13 -7 16 2 3 6 9 12 15 12 7 0 6 -5 -1 -14 -7 -8 -8 -17 -3 -20
5 -3 10 -17 10 -31 0 -19 -5 -25 -15 -21 -8 3 -17 6 -19 6 -2 0 -4 5 -4 10 0
6 8 10 17 10 13 0 14 3 6 11 -9 9 -16 7 -29 -5 -15 -16 -15 -18 1 -30 29 -21
0 -29 -32 -9 l-28 17 25 -25 c14 -14 28 -24 33 -22 4 3 10 -3 13 -11 3 -9 12
-16 20 -16 16 0 19 -16 4 -25 -6 -3 -13 1 -16 9 -3 9 -11 16 -16 16 -5 0 -23
9 -38 20 -22 16 -28 27 -27 56 1 20 3 32 5 25 4 -12 32 -16 32 -3 0 4 -8 12
-19 19 -22 14 -28 93 -8 105 9 6 9 8 0 8 -7 0 -13 7 -13 16 0 8 5 12 10 9 6
-3 10 -1 10 4 0 6 -4 11 -9 11 -4 0 -9 25 -10 56 0 31 -3 60 -6 64 -3 5 -1 11
4 14 5 3 7 14 4 24 -3 13 13 37 49 74 29 31 54 56 55 57 1 1 1 -28 0 -64z
m383 -15 c0 -6 -9 -10 -20 -10 -13 0 -20 7 -20 20 0 18 3 19 20 10 11 -6 20
-15 20 -20z m-1271 -24 c-7 -11 -275 -285 -597 -608 -465 -467 -589 -585 -599
-576 -8 6 -13 17 -11 25 2 7 271 281 597 608 454 453 598 592 608 584 9 -9 10
-16 2 -33z m1301 -11 c0 -8 6 -15 14 -15 24 0 30 -21 7 -27 -12 -3 -21 -12
-21 -19 0 -8 -7 -14 -15 -14 -8 0 -15 7 -15 15 0 8 -7 15 -15 15 -8 0 -15 -7
-15 -15 0 -8 -4 -15 -10 -15 -14 0 -12 28 3 33 9 3 9 8 -2 21 -8 9 -11 19 -8
22 8 8 47 -19 47 -33 0 -7 7 -13 15 -13 8 0 15 7 15 15 0 8 -7 15 -15 15 -8 0
-15 7 -15 15 0 8 7 15 15 15 8 0 15 -7 15 -15z m-3172 -607 c544 -545 586
-592 554 -612 -5 -3 -275 262 -602 589 -513 513 -592 596 -581 609 12 14 16
14 40 -3 14 -11 279 -273 589 -583z m20 560 c3 -29 -25 -52 -52 -42 -41 16
-22 77 22 72 21 -2 28 -9 30 -30z m3252 17 c0 -8 -7 -15 -15 -15 -8 0 -15 -7
-15 -15 0 -8 7 -15 15 -15 8 0 15 -9 15 -20 0 -11 7 -20 15 -20 8 0 15 -7 15
-15 0 -8 -7 -15 -15 -15 -8 0 -15 -7 -15 -15 0 -8 7 -15 15 -15 8 0 15 -7 15
-15 0 -8 7 -15 15 -15 8 0 15 -6 15 -14 0 -8 9 -18 20 -21 11 -3 20 -13 20
-21 0 -8 -9 -14 -20 -14 -11 0 -20 -7 -20 -15 0 -8 4 -15 10 -15 10 0 80 -64
80 -74 0 -14 -25 -4 -46 19 -26 28 -44 32 -44 10 0 -8 7 -15 15 -15 8 0 15 -7
15 -15 0 -8 7 -15 15 -15 8 0 15 -6 15 -14 0 -7 10 -16 22 -20 18 -4 20 -8 10
-18 -10 -10 -18 -6 -42 20 -16 18 -34 32 -39 32 -6 0 -11 5 -11 11 0 6 -21 31
-47 56 -46 43 -47 45 -28 60 19 13 19 15 3 27 -10 7 -18 18 -18 25 0 6 -7 11
-15 11 -8 0 -15 7 -15 15 0 8 7 15 15 15 8 0 15 7 15 15 0 8 -7 15 -15 15 -9
0 -18 -7 -21 -15 -4 -8 -12 -15 -20 -15 -8 0 -14 7 -14 15 0 8 -7 15 -15 15
-9 0 -18 7 -22 16 -3 8 -12 13 -19 10 -8 -3 -14 1 -14 8 0 8 7 16 15 20 9 3
15 0 15 -9 0 -23 37 -18 43 5 3 11 10 20 15 20 5 0 12 -9 15 -20 3 -11 12 -20
21 -20 9 0 16 8 16 20 0 11 -7 20 -15 20 -8 0 -15 7 -15 15 0 8 7 15 15 15 8
0 15 7 15 15 0 8 7 15 15 15 8 0 15 -7 15 -15z m60 0 c0 -8 -7 -15 -15 -15 -8
0 -15 7 -15 15 0 8 7 15 15 15 8 0 15 -7 15 -15z m-5327 -106 c22 -6 59 -30
87 -57 62 -60 78 -111 61 -196 -17 -82 -51 -129 -117 -161 -48 -23 -63 -26
-121 -21 -45 3 -75 11 -94 25 -16 12 -31 21 -35 21 -13 0 -64 64 -61 74 2 6
-3 17 -11 25 -11 11 -13 32 -10 86 4 60 10 79 36 117 56 82 161 116 265 87z
m5122 -18 c7 -12 -12 -24 -25 -16 -11 7 -4 25 10 25 5 0 11 -4 15 -9z m40 -31
c3 -6 -1 -13 -10 -16 -19 -8 -30 0 -20 15 8 14 22 14 30 1z m-43 -35 c0 -5 -5
-11 -11 -13 -6 -2 -11 4 -11 13 0 9 5 15 11 13 6 -2 11 -8 11 -13z m78 1 c0
-7 9 -16 20 -19 11 -3 20 -10 20 -16 0 -17 -30 -13 -36 4 -4 8 -12 15 -20 15
-15 0 -19 12 -7 23 11 12 23 8 23 -7z m-40 -31 c0 -8 -7 -15 -15 -15 -8 0 -15
7 -15 15 0 8 7 15 15 15 8 0 15 -7 15 -15z m390 -14 c0 -6 -4 -13 -10 -16 -5
-3 -10 1 -10 9 0 9 5 16 10 16 6 0 10 -4 10 -9z m-422 -19 c2 -7 -3 -12 -12
-12 -9 0 -16 7 -16 16 0 17 22 14 28 -4z m72 -8 c0 -16 -16 -19 -25 -4 -8 13
4 32 16 25 5 -4 9 -13 9 -21z m-2850 -10 c27 -23 31 -32 28 -67 -5 -75 -95
-110 -151 -59 -45 40 -40 103 11 135 39 24 76 21 112 -9z m2564 -20 c4 -10 1
-14 -6 -12 -15 5 -23 28 -10 28 5 0 13 -7 16 -16z m247 1 c-1 -15 -24 -12 -29
3 -3 9 2 13 12 10 10 -1 17 -7 17 -13z m79 0 c0 -8 -7 -15 -15 -15 -8 0 -15 7
-15 15 0 8 7 15 15 15 8 0 15 -7 15 -15z m310 -6 c0 -5 -7 -9 -15 -9 -15 0
-20 12 -9 23 8 8 24 -1 24 -14z m-2612 -11 c19 -19 14 -56 -8 -68 -43 -23 -83
17 -60 60 12 22 49 27 68 8z m2182 -3 c0 -8 -4 -15 -10 -15 -5 0 -10 7 -10 15
0 8 5 15 10 15 6 0 10 -7 10 -15z m-4670 1 c0 -3 -4 -8 -10 -11 -5 -3 -10 -1
-10 4 0 6 5 11 10 11 6 0 10 -2 10 -4z m3358 -14 c2 -8 -116 -135 -281 -300
-157 -158 -423 -426 -591 -597 l-305 -310 -2 -110 c-1 -120 -6 -165 -19 -179
-23 -23 -30 11 -30 142 l0 137 -591 591 c-576 576 -620 624 -567 624 7 0 267
-254 578 -565 311 -311 567 -565 570 -565 3 0 5 35 5 77 0 77 0 78 25 78 24 0
25 -2 28 -76 l3 -75 572 573 c314 315 578 572 586 571 8 -2 16 -9 19 -16z
m1392 2 c0 -17 -22 -14 -28 4 -2 7 3 12 12 12 9 0 16 -7 16 -16z m70 1 c0 -8
-4 -15 -9 -15 -13 0 -22 16 -14 24 11 11 23 6 23 -9z m-350 -16 c0 -5 -7 -9
-15 -9 -15 0 -20 12 -9 23 8 8 24 -1 24 -14z m244 -4 c3 -9 0 -15 -9 -15 -8 0
-15 7 -15 15 0 8 4 15 9 15 5 0 11 -7 15 -15z m76 -15 c0 -21 -15 -27 -25 -10
-7 12 2 30 16 30 5 0 9 -9 9 -20z m60 6 c0 -8 7 -17 16 -20 8 -3 12 -10 9 -16
-9 -15 -25 -12 -25 5 0 8 -4 15 -10 15 -5 0 -10 7 -10 15 0 8 5 15 10 15 6 0
10 -6 10 -14z m-180 -6 c0 -5 -4 -10 -10 -10 -5 0 -10 5 -10 10 0 6 5 10 10
10 6 0 10 -4 10 -10z m-365 -19 c7 -12 -12 -24 -25 -16 -11 7 -4 25 10 25 5 0
11 -4 15 -9z m165 -6 c0 -8 -4 -15 -9 -15 -13 0 -22 16 -14 24 11 11 23 6 23
-9z m280 -11 c0 -16 -16 -19 -25 -4 -8 13 4 32 16 25 5 -4 9 -13 9 -21z m267
2 c12 -13 20 -26 16 -30 -11 -11 -23 -6 -23 9 0 8 -7 15 -15 15 -8 0 -15 7
-15 15 0 21 11 18 37 -9z m64 3 c15 -15 18 -24 10 -32 -7 -7 -12 -5 -17 6 -3
9 -12 17 -20 17 -8 0 -14 7 -14 15 0 21 16 19 41 -6z m-381 1 c0 -5 -4 -10
-10 -10 -5 0 -10 5 -10 10 0 6 5 10 10 10 6 0 10 -4 10 -10z m120 -5 c0 -8 -4
-15 -10 -15 -5 0 -10 7 -10 15 0 8 5 15 10 15 6 0 10 -7 10 -15z m-556 -47
c23 -21 14 -37 -9 -18 -13 11 -19 10 -33 -4 -15 -15 -15 -18 -2 -26 13 -9 13
-11 1 -19 -12 -8 -12 -11 0 -23 8 -8 21 -18 29 -21 8 -4 3 -5 -12 -2 -16 3
-28 1 -28 -5 0 -5 5 -10 10 -10 6 0 10 -4 10 -10 0 -5 -7 -10 -15 -10 -12 0
-15 15 -15 75 0 53 4 75 13 76 10 0 10 2 0 6 -7 2 -13 14 -13 25 0 23 -3 25
64 -34z m145 28 c9 -11 6 -18 -16 -35 -26 -19 -26 -22 -10 -32 15 -9 15 -12 3
-25 -8 -8 -17 -14 -19 -14 -2 0 -5 27 -6 60 -1 53 1 60 18 60 10 0 24 -6 30
-14z m47 0 c18 -19 18 -26 -1 -26 -20 0 -19 -10 2 -26 10 -7 15 -16 10 -20 -4
-4 -17 3 -28 15 -17 18 -19 25 -9 31 11 7 11 11 1 24 -17 21 4 22 25 2z m214
4 c0 -5 -4 -10 -10 -10 -5 0 -10 5 -10 10 0 6 5 10 10 10 6 0 10 -4 10 -10z
m120 -16 c0 -16 -16 -19 -25 -4 -8 13 4 32 16 25 5 -4 9 -13 9 -21z m118 14
c-3 -7 -11 -13 -18 -13 -7 0 -15 6 -17 13 -3 7 4 12 17 12 13 0 20 -5 18 -12z
m-169 -28 c6 0 11 -7 11 -15 0 -8 -7 -15 -15 -15 -8 0 -15 7 -15 15 0 8 -7 15
-15 15 -16 0 -20 12 -8 24 4 4 13 0 19 -8 6 -9 16 -16 23 -16z m116 12 c0 -18
-20 -15 -23 4 -3 10 1 15 10 12 7 -3 13 -10 13 -16z m-4901 -35 c18 -18 18
-19 0 -32 -23 -17 -34 -19 -34 -5 0 6 -7 10 -15 10 -32 0 -8 -29 53 -65 34
-20 47 -41 32 -50 -6 -4 -10 1 -10 9 0 9 -7 16 -15 16 -8 0 -15 5 -15 10 0 15
-22 12 -45 -6 -20 -15 -20 -15 -1 -30 19 -14 19 -14 -1 -14 -20 0 -21 5 -19
88 0 48 5 93 9 100 9 14 22 8 61 -31z m4009 12 c-25 -9 -36 0 -22 17 9 11 15
12 26 2 13 -10 12 -13 -4 -19z m973 6 c4 -8 12 -15 20 -15 8 0 14 -7 14 -15 0
-8 -5 -15 -10 -15 -6 0 -13 7 -16 15 -4 8 -12 15 -20 15 -8 0 -14 7 -14 15 0
8 5 15 10 15 6 0 13 -7 16 -15z m69 6 c7 -12 -12 -24 -25 -16 -11 7 -4 25 10
25 5 0 11 -4 15 -9z m70 -1 c3 -6 -1 -13 -10 -16 -19 -8 -30 0 -20 15 8 14 22
14 30 1z m-255 -21 c0 -11 -4 -17 -10 -14 -5 3 -10 13 -10 21 0 8 5 14 10 14
6 0 10 -9 10 -21z m-4826 -4 c-4 -8 -8 -15 -10 -15 -2 0 -4 7 -4 15 0 8 4 15
10 15 5 0 7 -7 4 -15z m4676 -1 c0 -8 -4 -12 -10 -9 -5 3 -10 10 -10 16 0 5 5
9 10 9 6 0 10 -7 10 -16z m225 7 c7 -12 -12 -24 -25 -16 -11 7 -4 25 10 25 5
0 11 -4 15 -9z m-915 -10 c0 -5 -6 -12 -12 -15 -10 -5 -10 -7 0 -12 16 -8 15
-22 -2 -40 -17 -16 -36 -19 -36 -4 0 6 7 10 15 10 8 0 15 7 15 15 0 8 -7 15
-15 15 -20 0 -19 10 3 26 20 16 32 18 32 5z m280 -6 c11 -14 14 -13 25 1 10
14 14 14 20 4 5 -9 4 -15 -4 -18 -9 -3 -9 -8 1 -20 11 -13 10 -15 -9 -10 -13
4 -23 4 -23 1 0 -3 10 -13 23 -24 19 -16 20 -18 4 -19 -10 0 -15 4 -12 10 3 6
-1 7 -9 4 -9 -3 -16 -1 -16 5 0 6 -7 11 -15 11 -20 0 -19 19 2 27 14 5 13 8
-6 15 -12 4 -19 12 -16 18 9 14 21 12 35 -5z m155 5 c3 -5 -1 -10 -9 -10 -9 0
-16 5 -16 10 0 6 4 10 9 10 6 0 13 -4 16 -10z m620 1 c7 -12 -12 -24 -25 -16
-11 7 -4 25 10 25 5 0 11 -4 15 -9z m63 -3 c-6 -18 -28 -21 -28 -4 0 9 7 16
16 16 9 0 14 -5 12 -12z m-4838 -8 c0 -5 -6 -10 -14 -10 -8 0 -16 -6 -19 -12
-2 -7 -8 -10 -12 -6 -4 4 -2 14 5 23 14 17 40 20 40 5z m4452 -5 c0 -5 -5 -11
-11 -13 -6 -2 -11 4 -11 13 0 9 5 15 11 13 6 -2 11 -8 11 -13z m76 3 c-6 -18
-28 -21 -28 -4 0 9 7 16 16 16 9 0 14 -5 12 -12z m67 -8 c-3 -5 -10 -10 -16
-10 -5 0 -9 5 -9 10 0 6 7 10 16 10 8 0 12 -4 9 -10z m72 -16 c-9 -9 -28 6
-21 18 4 6 10 6 17 -1 6 -6 8 -13 4 -17z m-4949 -14 c-13 -10 -25 -16 -27 -14
-7 7 33 42 42 37 4 -2 -3 -13 -15 -23z m4476 14 c20 -19 20 -22 -1 -42 -16
-16 -16 -17 0 -20 20 -4 23 -22 4 -22 -7 0 -18 9 -24 20 -11 16 -10 21 5 29
16 9 16 11 0 28 -17 17 -18 16 -18 -5 0 -13 -6 -22 -15 -22 -18 0 -19 16 -2
35 16 19 32 19 51 -1z m615 0 c29 -14 34 -34 9 -34 -14 0 -48 30 -48 42 0 11
2 10 39 -8z m-4760 -90 c-8 -10 -8 -14 0 -14 6 0 11 -7 11 -15 0 -8 -4 -15
-10 -15 -5 0 -10 5 -10 10 0 6 -5 10 -12 10 -6 0 -2 -10 10 -23 23 -25 29 -47
12 -47 -5 0 -10 5 -10 10 0 14 -63 69 -72 64 -15 -10 -8 -24 13 -24 11 0 17
-4 14 -10 -10 -15 -32 -12 -39 6 -4 9 -2 22 4 29 6 8 6 16 -3 24 -8 10 -9 15
-1 18 6 2 20 10 30 18 17 13 18 14 2 15 -10 0 -18 -5 -18 -11 0 -5 -5 -7 -10
-4 -14 8 6 45 25 45 7 0 16 -6 18 -12 4 -9 8 -10 14 -2 4 6 15 13 23 16 19 6
27 -67 9 -88z m3626 87 c7 -12 -12 -24 -25 -16 -11 7 -4 25 10 25 5 0 11 -4
15 -9z m735 -1 c0 -5 -4 -10 -10 -10 -5 0 -10 5 -10 10 0 6 5 10 10 10 6 0 10
-4 10 -10z m150 -4 c0 -8 6 -16 13 -19 6 -2 9 -7 5 -11 -7 -8 -48 23 -48 36 0
5 7 8 15 8 8 0 15 -6 15 -14z m196 -11 c13 -14 28 -25 34 -25 7 0 10 -6 7 -12
-2 -7 7 -23 20 -35 12 -12 23 -25 23 -30 0 -4 -5 -2 -12 5 -18 18 -38 15 -38
-5 -1 -17 -1 -17 -14 0 -7 9 -21 17 -30 17 -17 0 -22 15 -7 25 5 3 16 -2 24
-10 39 -38 36 1 -2 43 -30 32 -51 41 -51 22 0 -5 -7 -10 -15 -10 -8 0 -15 5
-15 10 0 6 7 10 15 10 8 0 15 5 15 10 0 18 22 11 46 -15z m-1206 5 c0 -5 -4
-10 -10 -10 -5 0 -10 5 -10 10 0 6 5 10 10 10 6 0 10 -4 10 -10z m940 6 c0 -3
-4 -8 -10 -11 -5 -3 -10 -1 -10 4 0 6 5 11 10 11 6 0 10 -2 10 -4z m144 -5 c3
-4 3 -11 0 -14 -8 -8 -34 3 -34 14 0 11 27 12 34 0z m-4774 -16 c0 -8 -7 -15
-15 -15 -8 0 -15 -5 -15 -11 0 -6 -7 -9 -15 -5 -22 8 -18 -7 7 -28 14 -13 23
-15 26 -8 2 7 10 12 18 12 8 0 14 5 14 10 0 6 -7 10 -15 10 -8 0 -15 -4 -15
-10 0 -5 -4 -10 -10 -10 -17 0 -11 14 11 28 18 12 24 11 38 -2 14 -15 14 -18
1 -26 -12 -7 -12 -12 -2 -22 17 -17 15 -38 -3 -38 -8 0 -15 -4 -15 -10 0 -5
-7 -10 -15 -10 -8 0 -15 -7 -15 -15 0 -20 26 -19 34 1 3 8 10 12 16 9 15 -9
12 -25 -5 -25 -20 0 -19 -16 2 -24 15 -6 13 -10 -10 -30 -27 -23 -36 -46 -17
-46 5 0 13 8 19 17 5 10 13 15 17 11 4 -5 -7 -22 -25 -39 -24 -23 -36 -28 -44
-20 -8 8 -6 11 6 11 9 0 17 5 17 10 0 18 -29 10 -44 -12 -9 -12 -16 -17 -16
-11 0 6 7 18 15 27 20 19 19 33 -2 45 -17 10 -17 10 0 11 9 0 17 -4 17 -10 0
-5 5 -10 11 -10 14 0 39 25 39 39 0 15 -27 14 -33 -1 -2 -7 -8 -9 -13 -5 -5 4
-2 12 6 17 8 5 11 12 7 16 -3 4 -13 1 -22 -6 -10 -8 -15 -9 -15 -1 0 6 5 11
10 11 6 0 10 7 10 15 0 8 5 15 11 15 5 0 7 5 3 12 -4 6 -3 8 3 5 6 -4 18 2 28
13 16 17 16 20 2 20 -8 0 -17 -3 -19 -7 -2 -5 -15 -19 -31 -32 -23 -21 -27
-22 -27 -7 0 9 5 14 10 11 6 -3 10 1 10 9 0 9 5 16 12 16 9 0 9 3 0 12 -10 10
-15 10 -22 -2 -5 -8 -10 -10 -10 -4 0 5 5 15 12 22 9 9 9 12 0 12 -19 0 -14
21 10 47 25 26 48 30 48 8z m4592 0 c0 -5 -5 -11 -11 -13 -6 -2 -11 4 -11 13
0 9 5 15 11 13 6 -2 11 -8 11 -13z m-4725 -17 c-3 -8 -6 -5 -6 6 -1 11 2 17 5
13 3 -3 4 -12 1 -19z m4801 3 c3 -8 -1 -12 -9 -9 -7 2 -15 10 -17 17 -3 8 1
12 9 9 7 -2 15 -10 17 -17z m-3976 -6 c0 -5 -5 -11 -11 -13 -6 -2 -11 4 -11
13 0 9 5 15 11 13 6 -2 11 -8 11 -13z m4123 5 c11 -17 -5 -32 -21 -19 -7 6
-11 15 -8 20 7 12 21 11 29 -1z m-545 -4 c0 -11 -19 -15 -25 -6 -3 5 1 10 9
10 9 0 16 -2 16 -4z m280 -6 c0 -5 -4 -10 -10 -10 -5 0 -10 5 -10 10 0 6 5 10
10 10 6 0 10 -4 10 -10z m70 -6 c0 -8 -5 -12 -10 -9 -6 4 -8 11 -5 16 9 14 15
11 15 -7z m245 6 c3 -6 -1 -13 -10 -16 -14 -6 -14 -9 0 -30 13 -21 13 -24 1
-24 -23 0 -35 29 -22 56 12 26 21 30 31 14z m-1005 -10 c0 -5 -4 -10 -9 -10
-6 0 -13 5 -16 10 -3 6 1 10 9 10 9 0 16 -4 16 -10z m300 -5 c0 -8 -7 -15 -15
-15 -8 0 -15 -4 -15 -10 0 -16 22 -12 36 8 9 11 13 13 14 4 0 -16 -24 -42 -39
-42 -19 0 -12 -18 16 -40 35 -28 42 -57 7 -32 -13 9 -26 25 -29 35 -6 16 -35
25 -35 10 1 -14 38 -53 51 -53 7 0 9 -3 6 -6 -4 -4 3 -15 15 -26 12 -10 18
-21 15 -24 -3 -4 -25 12 -48 35 -23 22 -46 41 -51 41 -15 0 -8 33 10 46 16 13
16 13 0 14 -18 0 -26 20 -9 20 5 0 19 11 32 25 28 28 39 31 39 10z m605 6 c10
-17 -12 -21 -25 -6 -10 12 -10 15 3 15 9 0 18 -4 22 -9z m215 -1 c0 -5 -4 -10
-10 -10 -5 0 -10 5 -10 10 0 6 5 10 10 10 6 0 10 -4 10 -10z m-668 -20 c17
-16 18 -20 6 -20 -9 0 -19 -7 -22 -16 -4 -9 -9 -14 -13 -11 -3 4 0 14 7 22 11
13 10 18 -6 30 -12 9 -14 14 -6 15 7 0 22 -9 34 -20z m400 5 c0 -5 -5 -11 -11
-13 -6 -2 -11 4 -11 13 0 9 5 15 11 13 6 -2 11 -8 11 -13z m-4880 -15 c12 -11
19 -22 16 -25 -3 -4 -18 5 -33 19 -16 15 -23 26 -16 26 6 0 21 -9 33 -20z
m851 -32 c-13 -14 -18 -16 -24 -6 -6 10 -12 9 -26 -6 -17 -17 -17 -18 -1 -13
10 3 20 2 23 -2 7 -12 -21 -22 -41 -14 -9 3 -19 1 -23 -5 -4 -7 -7 4 -8 23 -1
40 11 52 33 34 12 -10 19 -8 37 15 20 25 22 26 34 10 11 -15 10 -21 -4 -36z
m3587 26 c0 -20 -7 -17 -20 6 -9 16 -8 18 5 14 8 -4 15 -12 15 -20z m391 3
c-13 -13 -26 -3 -16 12 3 6 11 8 17 5 6 -4 6 -10 -1 -17z m-61 3 c0 -5 -4 -10
-10 -10 -5 0 -10 5 -10 10 0 6 5 10 10 10 6 0 10 -4 10 -10z m216 -17 c-8 -8
-36 5 -36 17 0 7 6 7 21 0 11 -7 18 -14 15 -17z m-833 -7 c14 -13 28 -21 31
-18 3 3 6 -1 6 -8 0 -7 -8 -19 -17 -27 -17 -14 -17 -14 0 -9 11 3 17 0 17 -10
0 -13 -4 -12 -32 2 -27 14 -29 18 -15 26 9 5 17 14 17 20 0 6 -3 8 -7 5 -3 -4
-12 1 -19 10 -11 16 -13 16 -31 -6 -18 -22 -19 -22 -20 -2 -1 12 4 21 13 21 8
0 14 5 14 10 0 16 16 11 43 -14z m37 9 c0 -9 -6 -12 -15 -9 -8 4 -15 10 -15
15 0 5 7 9 15 9 8 0 15 -7 15 -15z m530 5 c0 -5 -4 -10 -10 -10 -5 0 -10 5
-10 10 0 6 5 10 10 10 6 0 10 -4 10 -10z m219 -9 c9 -16 8 -18 -9 -14 -11 3
-20 12 -20 19 0 20 18 17 29 -5z m-1492 -7 c4 -11 -28 -50 -108 -130 -62 -63
-119 -114 -125 -114 -21 0 -25 32 -7 54 46 52 209 205 221 206 7 0 15 -7 19
-16z m1057 -8 c-10 -8 -21 -12 -24 -10 -5 6 21 24 34 24 6 0 1 -6 -10 -14z
m374 -5 c3 -8 -1 -12 -9 -9 -7 2 -15 10 -17 17 -3 8 1 12 9 9 7 -2 15 -10 17
-17z m-4888 -1 c0 -5 -4 -10 -10 -10 -5 0 -10 5 -10 10 0 6 5 10 10 10 6 0 10
-4 10 -10z m1112 -87 c95 -94 118 -133 80 -133 -15 0 -140 119 -196 187 -18
22 -15 43 7 43 6 0 56 -44 109 -97z m3255 71 c-9 -9 -28 6 -21 18 4 6 10 6 17
-1 6 -6 8 -13 4 -17z m83 10 c0 -8 -5 -12 -10 -9 -6 4 -8 11 -5 16 9 14 15 11
15 -7z m338 4 c-6 -18 -28 -21 -28 -4 0 9 7 16 16 16 9 0 14 -5 12 -12z
m-4812 -25 c-6 -6 -36 9 -36 18 0 5 9 4 20 -3 10 -7 18 -14 16 -15z m4166 12
c0 -5 -5 -11 -11 -13 -6 -2 -11 4 -11 13 0 9 5 15 11 13 6 -2 11 -8 11 -13z
m845 -11 c-9 -9 -28 6 -21 18 4 6 10 6 17 -1 6 -6 8 -13 4 -17z m101 8 c2 -7
-3 -12 -12 -12 -9 0 -16 7 -16 16 0 17 22 14 28 -4z m-5058 -2 c0 -5 -4 -10
-10 -10 -5 0 -10 5 -10 10 0 6 5 10 10 10 6 0 10 -4 10 -10z m4700 0 c0 -5 -4
-10 -10 -10 -5 0 -10 5 -10 10 0 6 5 10 10 10 6 0 10 -4 10 -10z m115 0 c3 -5
2 -10 -4 -10 -5 0 -13 5 -16 10 -3 6 -2 10 4 10 5 0 13 -4 16 -10z m98 -12 c8
-31 2 -33 -22 -9 -13 13 -16 21 -8 25 21 8 25 6 30 -16z m95 3 c3 -8 -1 -12
-9 -9 -7 2 -15 10 -17 17 -3 8 1 12 9 9 7 -2 15 -10 17 -17z m97 5 c-20 -14
-35 -12 -35 5 0 5 12 9 27 9 26 0 26 -1 8 -14z m-4802 -14 c-1 -5 9 -13 22
-16 14 -4 25 -13 25 -21 0 -11 -10 -7 -39 13 -21 15 -37 31 -34 35 7 11 29 2
26 -11z m4157 8 c8 -5 11 -12 8 -16 -10 -9 -38 3 -38 16 0 12 10 13 30 0z
m-4204 -27 c-10 -10 -19 5 -10 18 6 11 8 11 12 0 2 -7 1 -15 -2 -18z m3834 17
c0 -5 -4 -10 -10 -10 -5 0 -10 5 -10 10 0 6 5 10 10 10 6 0 10 -4 10 -10z
m347 -25 c24 -24 30 -35 19 -35 -9 0 -16 -4 -16 -10 0 -5 -6 -10 -14 -10 -8 0
-16 -6 -19 -12 -2 -7 -8 -9 -13 -5 -5 5 -2 12 6 17 44 27 44 27 23 54 -11 14
-23 22 -27 19 -3 -3 -6 -1 -6 5 0 19 10 14 47 -23z m-4467 15 c0 -5 -4 -10
-10 -10 -5 0 -10 5 -10 10 0 6 5 10 10 10 6 0 10 -4 10 -10z m4135 -17 c-23
-16 -35 -17 -35 -2 0 5 4 8 9 5 5 -3 12 1 15 10 3 8 11 12 17 8 9 -5 6 -11 -6
-21z m645 17 c0 -5 -4 -10 -10 -10 -5 0 -10 5 -10 10 0 6 5 10 10 10 6 0 10
-4 10 -10z m119 -24 c0 -7 -2 -6 -6 2 -2 6 -11 12 -19 12 -9 0 -12 5 -9 10 8
13 35 -6 34 -24z m255 13 c-3 -5 -10 -7 -15 -3 -5 3 -7 10 -3 15 3 5 10 7 15
3 5 -3 7 -10 3 -15z m-4371 -9 c-10 -11 -19 -20 -21 -20 -1 0 2 9 8 20 6 11
15 20 20 20 6 0 2 -9 -7 -20z m4302 11 c10 -17 -12 -21 -25 -6 -10 12 -10 15
3 15 9 0 18 -4 22 -9z m-4755 -23 c0 -5 4 -7 8 -4 5 3 16 -4 26 -16 14 -16 15
-22 5 -29 -10 -6 -10 -11 1 -24 12 -14 12 -18 -1 -26 -12 -8 -12 -10 1 -18 8
-6 11 -13 7 -18 -5 -4 -12 -1 -17 6 -5 9 -15 11 -26 7 -17 -7 -16 -9 9 -24 30
-19 35 -32 11 -32 -9 0 -14 -6 -11 -12 2 -7 10 -12 16 -10 6 1 11 -2 11 -8 0
-15 -14 -12 -36 8 -10 10 -28 22 -39 26 -13 6 -16 10 -7 13 7 3 19 0 27 -7 8
-6 19 -9 25 -5 6 4 2 13 -11 24 l-22 17 28 22 28 22 -31 29 c-23 23 -27 31
-16 35 9 3 12 11 9 16 -5 8 -11 7 -21 -1 -19 -16 -30 -4 -13 14 14 15 39 12
39 -5z m365 12 c-3 -5 -11 -10 -16 -10 -10 0 -28 -13 -59 -44 -17 -17 -20 -17
-20 -4 0 9 8 19 19 23 10 3 26 14 36 25 18 20 51 28 40 10z m3830 0 c3 -5 1
-10 -4 -10 -6 0 -11 5 -11 10 0 6 2 10 4 10 3 0 8 -4 11 -10z m320 0 c-3 -5
-10 -10 -16 -10 -5 0 -9 5 -9 10 0 6 7 10 16 10 8 0 12 -4 9 -10z m145 0 c0
-5 -7 -10 -15 -10 -8 0 -15 5 -15 10 0 6 7 10 15 10 8 0 15 -4 15 -10z m48 -8
c2 -7 -2 -10 -12 -6 -9 3 -16 11 -16 16 0 13 23 5 28 -10z m82 3 c0 -8 -4 -15
-10 -15 -5 0 -10 7 -10 15 0 8 5 15 10 15 6 0 10 -7 10 -15z m-954 -10 c-11
-8 -17 -18 -13 -21 4 -4 13 -1 22 6 9 7 19 10 23 6 4 -4 0 -12 -8 -16 -38 -23
-45 -31 -32 -37 6 -2 12 -8 12 -13 0 -4 -11 -3 -25 3 -28 13 -33 27 -10 27 8
0 15 5 15 11 0 7 -10 9 -27 4 -23 -5 -25 -4 -14 9 8 9 20 16 27 16 8 0 14 5
14 10 0 6 8 10 18 10 15 -1 15 -2 -2 -15z m140 -21 c20 -19 34 -38 31 -41 -6
-5 -77 61 -77 72 0 11 12 3 46 -31z m-4359 4 c-3 -8 -6 -5 -6 6 -1 11 2 17 5
13 3 -3 4 -12 1 -19z m4493 12 c0 -5 -4 -10 -10 -10 -5 0 -10 5 -10 10 0 6 5
10 10 10 6 0 10 -4 10 -10z m-4430 -4 c0 -3 -4 -8 -10 -11 -5 -3 -10 -1 -10 4
0 6 5 11 10 11 6 0 10 -2 10 -4z m4930 -6 c0 -5 -4 -10 -10 -10 -5 0 -10 5
-10 10 0 6 5 10 10 10 6 0 10 -4 10 -10z m-4250 -15 c-7 -8 -17 -12 -22 -9 -6
4 -5 10 3 15 22 14 33 10 19 -6z m4040 5 c0 -5 -4 -10 -10 -10 -5 0 -10 5 -10
10 0 6 5 10 10 10 6 0 10 -4 10 -10z m304 -11 c-6 -11 -24 -2 -24 11 0 5 7 7
15 4 8 -4 12 -10 9 -15z m54 2 c3 -8 -1 -12 -9 -9 -7 2 -15 10 -17 17 -3 8 1
12 9 9 7 -2 15 -10 17 -17z m67 9 c3 -5 -1 -10 -9 -10 -9 0 -16 5 -16 10 0 6
4 10 9 10 6 0 13 -4 16 -10z m-5175 -10 c0 -5 -5 -10 -11 -10 -5 0 -7 5 -4 10
3 6 8 10 11 10 2 0 4 -4 4 -10z m50 0 c0 -5 -4 -10 -10 -10 -5 0 -10 5 -10 10
0 6 5 10 10 10 6 0 10 -4 10 -10z m4500 6 c0 -11 -19 -15 -25 -6 -3 5 1 10 9
10 9 0 16 -2 16 -4z m310 -6 c0 -5 -4 -10 -10 -10 -5 0 -10 5 -10 10 0 6 5 10
10 10 6 0 10 -4 10 -10z m150 1 c0 -6 -4 -13 -10 -16 -5 -3 -10 1 -10 9 0 9 5
16 10 16 6 0 10 -4 10 -9z m-5580 -40 c0 -29 -25 -45 -49 -31 -25 13 -27 45
-4 59 23 12 53 -4 53 -28z m298 27 c30 -30 -4 -77 -41 -57 -29 17 -15 69 18
69 6 0 16 -5 23 -12z m4582 -9 c0 -14 -17 -10 -23 5 -4 10 -1 13 9 9 7 -3 14
-9 14 -14z m204 0 c-3 -5 -10 -7 -15 -3 -5 3 -7 10 -3 15 3 5 10 7 15 3 5 -3
7 -10 3 -15z m-4539 1 c3 -5 1 -10 -4 -10 -6 0 -11 5 -11 10 0 6 2 10 4 10 3
0 8 -4 11 -10z m345 0 c0 -5 -4 -10 -10 -10 -5 0 -10 5 -10 10 0 6 5 10 10 10
6 0 10 -4 10 -10z m346 -5 c-11 -8 -23 -15 -28 -15 -11 0 -10 -28 1 -32 5 -1
3 -8 -3 -14 -10 -9 -13 -5 -14 19 -1 31 20 56 48 56 11 0 10 -3 -4 -14z m3554
5 c0 -5 -4 -10 -10 -10 -5 0 -10 5 -10 10 0 6 5 10 10 10 6 0 10 -4 10 -10z
m695 0 c3 -5 -1 -10 -10 -10 -9 0 -13 5 -10 10 3 6 8 10 10 10 2 0 7 -4 10
-10z m225 0 c0 -5 -4 -10 -10 -10 -5 0 -10 5 -10 10 0 6 5 10 10 10 6 0 10 -4
10 -10z m-5113 -6 c-3 -3 -12 -4 -19 -1 -8 3 -5 6 6 6 11 1 17 -2 13 -5z m685
-16 c-7 -7 -12 -8 -12 -2 0 6 3 14 7 17 3 4 9 5 12 2 2 -3 -1 -11 -7 -17z
m4248 12 c0 -5 -4 -10 -10 -10 -5 0 -10 5 -10 10 0 6 5 10 10 10 6 0 10 -4 10
-10z m-4606 -15 c3 -9 0 -15 -9 -15 -8 0 -15 7 -15 15 0 8 4 15 9 15 5 0 11
-7 15 -15z m3825 -23 c7 -7 11 -16 8 -19 -3 -3 -13 2 -22 11 -9 9 -22 16 -30
16 -7 0 -15 7 -18 15 -5 12 -2 12 21 2 15 -6 33 -18 41 -25z m211 28 c0 -5 -4
-10 -10 -10 -5 0 -10 5 -10 10 0 6 5 10 10 10 6 0 10 -4 10 -10z m100 6 c0
-11 -19 -15 -25 -6 -3 5 1 10 9 10 9 0 16 -2 16 -4z m50 -6 c-13 -9 -13 -11
-1 -19 12 -8 12 -12 -2 -25 -9 -9 -18 -12 -21 -7 -4 5 0 11 6 14 10 4 11 7 1
18 -10 9 -13 10 -13 1 0 -7 -6 -12 -12 -12 -7 1 -2 10 11 20 13 11 28 20 35
20 6 0 4 -5 -4 -10z m470 -11 c0 -5 -7 -9 -15 -9 -15 0 -20 12 -9 23 8 8 24
-1 24 -14z m45 11 c3 -5 -1 -10 -9 -10 -9 0 -16 5 -16 10 0 6 4 10 9 10 6 0
13 -4 16 -10z m50 0 c3 -5 -1 -10 -9 -10 -9 0 -16 5 -16 10 0 6 4 10 9 10 6 0
13 -4 16 -10z m65 0 c0 -5 -4 -10 -10 -10 -5 0 -10 5 -10 10 0 6 5 10 10 10 6
0 10 -4 10 -10z m-820 -15 c9 -10 9 -15 1 -15 -6 0 -11 5 -11 10 0 14 -27 13
-32 -2 -3 -7 -9 -8 -18 -3 -11 7 -10 10 6 16 29 12 40 10 54 -6z m510 5 c0 -5
-4 -10 -10 -10 -5 0 -10 5 -10 10 0 6 5 10 10 10 6 0 10 -4 10 -10z m-4340
-20 c-14 -10 -27 -17 -29 -15 -8 8 22 35 38 35 12 0 10 -5 -9 -20z m3700 10
c0 -5 -4 -10 -10 -10 -5 0 -10 5 -10 10 0 6 5 10 10 10 6 0 10 -4 10 -10z
m240 0 c0 -5 -4 -10 -10 -10 -5 0 -10 5 -10 10 0 6 5 10 10 10 6 0 10 -4 10
-10z m-4225 -10 c3 -5 1 -10 -4 -10 -6 0 -11 5 -11 10 0 6 2 10 4 10 3 0 8 -4
11 -10z m85 0 c0 -5 -4 -10 -10 -10 -5 0 -10 5 -10 10 0 6 5 10 10 10 6 0 10
-4 10 -10z m4487 4 c-3 -3 -12 -4 -19 -1 -8 3 -5 6 6 6 11 1 17 -2 13 -5z
m333 -4 c0 -5 -4 -10 -10 -10 -5 0 -10 5 -10 10 0 6 5 10 10 10 6 0 10 -4 10
-10z m-5170 -9 c0 -5 8 -12 18 -14 14 -4 14 -5 1 -6 -9 0 -22 6 -29 14 -9 10
-9 15 -1 15 6 0 11 -4 11 -9z m5130 1 c0 -13 -12 -22 -22 -16 -10 6 -1 24 13
24 5 0 9 -4 9 -8z m-4935 -11 c3 -5 1 -12 -5 -16 -5 -3 -10 1 -10 9 0 18 6 21
15 7z m3990 -11 c-3 -5 -13 -6 -21 -3 -12 4 -13 8 -3 14 15 9 32 2 24 -11z
m175 11 c0 -5 8 -12 18 -14 14 -4 14 -5 1 -6 -9 0 -22 6 -29 14 -9 10 -9 15
-1 15 6 0 11 -4 11 -9z m630 -1 c0 -5 -4 -10 -9 -10 -6 0 -13 5 -16 10 -3 6 1
10 9 10 9 0 16 -4 16 -10z m40 0 c0 -5 -2 -10 -4 -10 -3 0 -8 5 -11 10 -3 6
-1 10 4 10 6 0 11 -4 11 -10z m50 0 c0 -5 -4 -10 -10 -10 -5 0 -10 5 -10 10 0
6 5 10 10 10 6 0 10 -4 10 -10z m120 0 c0 -5 -4 -10 -10 -10 -5 0 -10 5 -10
10 0 6 5 10 10 10 6 0 10 -4 10 -10z m-4946 -16 c3 -9 1 -23 -5 -32 -9 -15
-10 -15 -5 2 4 11 0 24 -11 32 -16 12 -16 13 -2 14 9 0 20 -7 23 -16z m261 5
c11 -17 -1 -21 -15 -4 -8 9 -8 15 -2 15 6 0 14 -5 17 -11z m75 0 c0 -11 -37
-12 -43 -1 -3 4 6 8 19 8 13 1 24 -2 24 -7z m3301 -12 c-13 -13 -26 -3 -16 12
3 6 11 8 17 5 6 -4 6 -10 -1 -17z m359 13 c0 -5 -4 -10 -10 -10 -5 0 -10 5
-10 10 0 6 5 10 10 10 6 0 10 -4 10 -10z m155 -72 c5 -5 5 -8 -1 -8 -6 0 -20
9 -31 19 -12 11 -24 17 -27 14 -3 -4 -6 1 -6 10 0 10 -7 17 -16 17 -8 0 -12 5
-8 11 4 7 20 -2 43 -23 20 -18 40 -36 46 -40z m155 40 c0 -12 -10 -9 -26 6
-20 21 -17 28 6 14 11 -7 20 -16 20 -20z m-4340 13 c0 -5 -6 -11 -12 -14 -10
-3 -9 -8 2 -23 14 -18 14 -18 -2 -5 -15 11 -21 11 -35 0 -17 -13 -17 -13 -3 6
28 37 35 44 43 45 4 0 7 -4 7 -9z m450 -1 c0 -5 -5 -10 -11 -10 -5 0 -7 5 -4
10 3 6 8 10 11 10 2 0 4 -4 4 -10z m3358 -8 c-16 -9 -28 -20 -28 -24 0 -13 28
-9 33 5 4 10 7 10 18 0 11 -11 10 -13 -4 -13 -9 0 -17 -4 -17 -10 0 -14 -11
-12 -34 5 -18 14 -18 15 5 34 13 11 31 20 39 20 8 0 3 -7 -12 -17z m189 12
c-3 -3 -12 -4 -19 -1 -8 3 -5 6 6 6 11 1 17 -2 13 -5z m857 -15 c-3 -5 -10 -7
-15 -3 -5 3 -7 10 -3 15 3 5 10 7 15 3 5 -3 7 -10 3 -15z m96 11 c0 -5 -4 -10
-9 -10 -6 0 -13 5 -16 10 -3 6 1 10 9 10 9 0 16 -4 16 -10z m-4620 -11 c0 -6
9 -8 23 -4 21 7 21 7 3 -8 -16 -12 -22 -12 -33 -1 -16 15 -17 24 -3 24 6 0 10
-5 10 -11z m3530 1 c0 -5 -4 -10 -10 -10 -5 0 -10 5 -10 10 0 6 5 10 10 10 6
0 10 -4 10 -10z m330 0 c0 -5 -4 -10 -9 -10 -6 0 -13 5 -16 10 -3 6 1 10 9 10
9 0 16 -4 16 -10z m615 0 c3 -5 1 -10 -4 -10 -6 0 -11 5 -11 10 0 6 2 10 4 10
3 0 8 -4 11 -10z m100 0 c-3 -5 -10 -10 -16 -10 -5 0 -9 5 -9 10 0 6 7 10 16
10 8 0 12 -4 9 -10z m75 0 c0 -5 -4 -10 -10 -10 -5 0 -10 5 -10 10 0 6 5 10
10 10 6 0 10 -4 10 -10z m-5180 -10 c0 -5 -2 -10 -4 -10 -3 0 -8 5 -11 10 -3
6 -1 10 4 10 6 0 11 -4 11 -10z m4865 0 c3 -5 1 -10 -4 -10 -6 0 -11 5 -11 10
0 6 2 10 4 10 3 0 8 -4 11 -10z m-4379 -25 c-9 -9 -16 -13 -16 -8 0 12 22 34
28 28 2 -2 -3 -11 -12 -20z m-456 5 c0 -5 -4 -10 -10 -10 -5 0 -10 5 -10 10 0
6 5 10 10 10 6 0 10 -4 10 -10z m3141 -6 c11 -13 -41 -69 -387 -415 -219 -219
-403 -398 -409 -396 -5 2 -11 13 -13 24 -2 16 91 116 385 412 213 215 393 391
399 391 6 0 17 -7 25 -16z m1026 10 c-3 -3 -12 -4 -19 -1 -8 3 -5 6 6 6 11 1
17 -2 13 -5z m948 -4 c3 -5 -1 -10 -9 -10 -9 0 -16 5 -16 10 0 6 4 10 9 10 6
0 13 -4 16 -10z m-4805 -10 c0 -5 -4 -10 -10 -10 -5 0 -10 5 -10 10 0 6 5 10
10 10 6 0 10 -4 10 -10z m847 -6 c5 -14 -856 -866 -871 -861 -39 13 -4 52 406
458 410 407 452 443 465 403z m403 -233 c244 -244 273 -281 221 -281 -13 0
-434 414 -495 487 -19 23 -15 43 10 43 8 0 127 -112 264 -249z m1983 -5 c227
-223 257 -261 222 -273 -5 -1 -125 109 -265 246 -222 217 -253 251 -241 265 9
11 18 13 30 6 9 -5 123 -115 254 -244z m747 244 c0 -5 -4 -10 -9 -10 -6 0 -13
5 -16 10 -3 6 1 10 9 10 9 0 16 -4 16 -10z m730 0 c0 -5 -4 -10 -10 -10 -5 0
-10 5 -10 10 0 6 5 10 10 10 6 0 10 -4 10 -10z m50 -6 c0 -8 -4 -12 -10 -9 -5
3 -10 10 -10 16 0 5 5 9 10 9 6 0 10 -7 10 -16z m80 6 c0 -5 -5 -10 -11 -10
-5 0 -7 5 -4 10 3 6 8 10 11 10 2 0 4 -4 4 -10z m-5000 -4 c0 -3 -4 -8 -10
-11 -5 -3 -10 -1 -10 4 0 6 5 11 10 11 6 0 10 -2 10 -4z m57 -2 c-3 -3 -12 -4
-19 -1 -8 3 -5 6 6 6 11 1 17 -2 13 -5z m3828 -4 c3 -5 2 -10 -4 -10 -5 0 -13
5 -16 10 -3 6 -2 10 4 10 5 0 13 -4 16 -10z m100 0 c-3 -5 -10 -10 -16 -10 -5
0 -9 5 -9 10 0 6 7 10 16 10 8 0 12 -4 9 -10z m62 4 c-3 -3 -12 -4 -19 -1 -8
3 -5 6 6 6 11 1 17 -2 13 -5z m263 -4 c0 -5 -4 -10 -10 -10 -5 0 -10 5 -10 10
0 6 5 10 10 10 6 0 10 -4 10 -10z m60 6 c0 -3 -4 -8 -10 -11 -5 -3 -10 -1 -10
4 0 6 5 11 10 11 6 0 10 -2 10 -4z m-4180 -16 c0 -5 -4 -10 -10 -10 -5 0 -10
5 -10 10 0 6 5 10 10 10 6 0 10 -4 10 -10z m130 1 c0 -5 -7 -12 -16 -15 -14
-5 -15 -4 -4 9 14 17 20 19 20 6z m3514 -40 c-2 -2 -14 6 -28 17 -14 10 -23
22 -20 25 5 5 52 -35 48 -42z m26 29 c0 -5 -7 -7 -15 -4 -8 4 -12 10 -9 15 6
11 24 2 24 -11z m305 10 c3 -5 1 -10 -4 -10 -6 0 -11 5 -11 10 0 6 2 10 4 10
3 0 8 -4 11 -10z m615 0 c0 -5 -2 -10 -4 -10 -3 0 -8 5 -11 10 -3 6 -1 10 4
10 6 0 11 -4 11 -10z m-4760 -10 c0 -5 -4 -10 -10 -10 -5 0 -10 5 -10 10 0 6
5 10 10 10 6 0 10 -4 10 -10z m128 -32 c-11 -11 -23 -17 -26 -13 -4 4 1 11 11
17 18 9 18 10 0 24 -16 13 -15 13 8 3 27 -11 27 -11 7 -31z m3807 32 c3 -5 1
-10 -4 -10 -6 0 -11 5 -11 10 0 6 2 10 4 10 3 0 8 -4 11 -10z m65 0 c0 -5 -4
-10 -9 -10 -6 0 -13 5 -16 10 -3 6 1 10 9 10 9 0 16 -4 16 -10z m320 0 c0 -5
-4 -10 -10 -10 -5 0 -10 5 -10 10 0 6 5 10 10 10 6 0 10 -4 10 -10z m630 0 c0
-5 -7 -10 -16 -10 -8 0 -12 5 -9 10 3 6 10 10 16 10 5 0 9 -4 9 -10z m-4750
-10 c0 -5 -4 -10 -10 -10 -5 0 -10 5 -10 10 0 6 5 10 10 10 6 0 10 -4 10 -10z
m4650 0 c0 -5 -2 -10 -4 -10 -3 0 -8 5 -11 10 -3 6 -1 10 4 10 6 0 11 -4 11
-10z m130 0 c0 -5 -4 -10 -10 -10 -5 0 -10 5 -10 10 0 6 5 10 10 10 6 0 10 -4
10 -10z m-4946 -16 c9 -24 7 -27 -9 -10 -17 17 -19 26 -6 26 5 0 12 -7 15 -16z
m4156 12 c0 -11 -19 -15 -25 -6 -3 5 1 10 9 10 9 0 16 -2 16 -4z m705 -6 c3
-5 1 -10 -4 -10 -6 0 -11 5 -11 10 0 6 2 10 4 10 3 0 8 -4 11 -10z m-4736 -31
c-11 -11 -23 -18 -27 -15 -3 4 3 13 14 21 28 22 37 18 13 -6z m-329 1 c0 -5
-5 -10 -11 -10 -5 0 -7 5 -4 10 3 6 8 10 11 10 2 0 4 -4 4 -10z m5120 0 c0 -5
-7 -7 -15 -4 -8 4 -15 8 -15 10 0 2 7 4 15 4 8 0 15 -4 15 -10z m-4650 -20 c0
-5 -5 -10 -11 -10 -5 0 -7 5 -4 10 3 6 8 10 11 10 2 0 4 -4 4 -10z m3997 4
c-3 -3 -12 -4 -19 -1 -8 3 -5 6 6 6 11 1 17 -2 13 -5z m593 -4 c0 -5 -4 -10
-10 -10 -5 0 -10 5 -10 10 0 6 5 10 10 10 6 0 10 -4 10 -10z m-4710 -10 c0 -5
-4 -10 -10 -10 -5 0 -10 5 -10 10 0 6 5 10 10 10 6 0 10 -4 10 -10z m364 4
c21 -8 21 -50 0 -58 -32 -12 -57 27 -32 52 14 14 12 14 32 6z m3004 -6 c19
-19 14 -46 -8 -53 -22 -7 -50 9 -50 29 0 15 20 36 35 36 6 0 16 -5 23 -12z
m-3423 -8 c4 -6 11 -8 16 -5 5 4 9 1 9 -4 0 -15 -11 -13 -34 4 -11 8 -15 15
-9 15 7 0 15 -5 18 -10z m4035 0 c0 -5 -4 -10 -10 -10 -5 0 -10 5 -10 10 0 6
5 10 10 10 6 0 10 -4 10 -10z m-3960 -10 c0 -5 -5 -10 -11 -10 -5 0 -7 5 -4
10 3 6 8 10 11 10 2 0 4 -4 4 -10z m-742 -20 c68 -31 101 -58 123 -103 25 -49
38 -157 19 -157 -10 0 -10 -3 -1 -14 13 -16 -2 -32 -19 -21 -5 3 -10 2 -10 -3
0 -6 7 -12 15 -15 16 -7 6 -34 -29 -74 -21 -24 -39 -20 -79 18 -18 16 -16 45
3 34 5 -3 11 -1 15 5 8 12 -15 13 -34 1 -8 -5 -11 -16 -6 -31 6 -19 4 -21 -17
-18 -12 2 -23 10 -24 18 -2 31 -5 35 -13 21 -7 -12 -13 -12 -24 -3 -11 10 -14
7 -15 -19 -1 -37 -10 -49 -22 -29 -5 8 -6 16 -1 18 11 4 1 52 -10 52 -5 0 -8
-10 -6 -22 1 -15 -3 -23 -13 -23 -8 0 -15 9 -15 20 0 15 -6 19 -22 17 -21 -3
-23 1 -23 39 0 66 -14 36 -15 -34 l-2 -62 44 4 c26 2 43 -1 43 -8 0 -6 -16 -9
-40 -7 -22 2 -43 -1 -46 -5 -11 -18 -25 4 -24 35 3 46 1 51 -12 38 -19 -19
-27 -14 -27 16 0 49 -8 102 -16 110 -4 4 -4 -3 -1 -16 5 -16 3 -24 -9 -28 -21
-8 -40 10 -29 28 5 7 7 25 5 40 -6 59 83 167 154 187 54 16 137 12 183 -9z
m512 16 c0 -3 -4 -8 -10 -11 -5 -3 -10 -1 -10 4 0 6 5 11 10 11 6 0 10 -2 10
-4z m3980 -6 c-8 -5 -19 -10 -25 -10 -5 0 -3 5 5 10 8 5 20 10 25 10 6 0 3 -5
-5 -10z m240 0 c0 -5 -4 -10 -10 -10 -5 0 -10 5 -10 10 0 6 5 10 10 10 6 0 10
-4 10 -10z m610 -10 c0 -5 -2 -10 -4 -10 -3 0 -8 5 -11 10 -3 6 -1 10 4 10 6
0 11 -4 11 -10z m90 0 c0 -5 -2 -10 -4 -10 -3 0 -8 5 -11 10 -3 6 -1 10 4 10
6 0 11 -4 11 -10z m55 0 c3 -6 -1 -7 -9 -4 -18 7 -21 14 -7 14 6 0 13 -4 16
-10z m-790 -10 c3 -5 1 -10 -4 -10 -6 0 -11 5 -11 10 0 6 2 10 4 10 3 0 8 -4
11 -10z m180 0 c3 -5 1 -10 -4 -10 -6 0 -11 5 -11 10 0 6 2 10 4 10 3 0 8 -4
11 -10z m-305 -10 c0 -5 -2 -10 -4 -10 -3 0 -8 5 -11 10 -3 6 -1 10 4 10 6 0
11 -4 11 -10z m250 0 c0 -5 -5 -10 -11 -10 -5 0 -7 5 -4 10 3 6 8 10 11 10 2
0 4 -4 4 -10z m-340 -20 c0 -5 -2 -10 -4 -10 -3 0 -8 5 -11 10 -3 6 -1 10 4
10 6 0 11 -4 11 -10z m380 4 c0 -8 -19 -13 -24 -6 -3 5 1 9 9 9 8 0 15 -2 15
-3z m620 2 c0 -3 -4 -8 -10 -11 -5 -3 -10 -1 -10 4 0 6 5 11 10 11 6 0 10 -2
10 -4z m-940 -50 c0 -11 -19 -15 -25 -6 -3 5 1 10 9 10 9 0 16 -2 16 -4z m105
-6 c3 -5 1 -10 -4 -10 -6 0 -11 5 -11 10 0 6 2 10 4 10 3 0 8 -4 11 -10z m212
4 c-3 -3 -12 -4 -19 -1 -8 3 -5 6 6 6 11 1 17 -2 13 -5z m-4187 -39 c-7 -8
-16 -15 -21 -15 -5 0 -1 8 9 18 20 22 31 19 12 -3z m4160 21 c0 -3 -4 -8 -10
-11 -5 -3 -10 -1 -10 4 0 6 5 11 10 11 6 0 10 -2 10 -4z m60 -6 c0 -5 -4 -10
-10 -10 -5 0 -10 5 -10 10 0 6 5 10 10 10 6 0 10 -4 10 -10z m-1285 -55 c0
-25 -4 -31 -27 -33 -19 -2 -28 2 -33 18 -8 27 12 52 39 48 16 -2 21 -10 21
-33z m-1919 -47 c42 -29 55 -52 59 -102 11 -132 -170 -191 -256 -82 -45 57
-21 158 45 190 46 23 114 20 152 -6z m-1992 -82 c0 -16 -6 -32 -14 -34 -9 -3
-11 2 -7 17 3 11 1 21 -4 21 -5 0 -9 7 -9 16 0 9 7 14 17 12 11 -2 17 -13 17
-32z m4816 -41 c10 -12 10 -18 0 -30 -26 -32 -68 -8 -54 30 4 8 14 15 24 15
10 0 23 -7 30 -15z m-3790 -20 c0 -31 -26 -43 -47 -22 -13 13 -14 19 -3 31 21
26 50 20 50 -9z m-1010 5 c0 -5 7 -10 15 -10 9 0 15 -9 15 -25 0 -30 -20 -33
-27 -5 -3 11 -9 20 -14 20 -5 0 -9 7 -9 15 0 8 5 15 10 15 6 0 10 -4 10 -10z
m110 -6 c0 -9 -5 -14 -12 -12 -18 6 -21 28 -4 28 9 0 16 -7 16 -16z m127 -30
c-3 -4 -14 -3 -24 0 -15 6 -15 8 -3 16 16 10 39 -4 27 -16z m75 -9 c0 -5 -5
-11 -11 -13 -6 -2 -11 4 -11 13 0 9 5 15 11 13 6 -2 11 -8 11 -13z m-34 -13
c2 -7 -3 -12 -12 -12 -9 0 -16 7 -16 16 0 17 22 14 28 -4z m-40 -10 c2 -7 -3
-12 -12 -12 -9 0 -16 7 -16 16 0 17 22 14 28 -4z m2046 -9 c9 -22 -13 -45 -38
-41 -26 4 -33 38 -11 54 20 15 41 9 49 -13z m-2169 7 c3 -5 1 -10 -4 -10 -6 0
-11 5 -11 10 0 6 2 10 4 10 3 0 8 -4 11 -10z m45 0 c0 -5 -4 -10 -10 -10 -5 0
-10 5 -10 10 0 6 5 10 10 10 6 0 10 -4 10 -10z m38 -1 c-2 -6 -8 -10 -13 -10
-5 0 -11 4 -13 10 -2 6 4 11 13 11 9 0 15 -5 13 -11z m152 1 c0 -5 -7 -10 -15
-10 -8 0 -15 5 -15 10 0 6 7 10 15 10 8 0 15 -4 15 -10z m3208 -7 c6 -10 6
-28 1 -40 -11 -29 -54 -31 -69 -4 -13 25 -13 27 6 45 21 21 51 20 62 -1z m332
2 c10 -12 10 -21 2 -40 -14 -31 -56 -34 -72 -5 -24 44 38 83 70 45z m318 3
c18 -18 14 -45 -10 -62 -37 -26 -79 14 -58 55 12 21 50 25 68 7z m-4128 -8 c0
-5 -6 -10 -14 -10 -8 0 -18 5 -21 10 -3 6 3 10 14 10 12 0 21 -4 21 -10z
m1505 -1 c4 -5 4 -21 1 -35 -5 -20 -12 -25 -34 -22 -27 3 -39 25 -28 54 6 16
52 19 61 3z m1066 -86 c95 -93 120 -134 82 -133 -27 1 -213 184 -213 209 0 40
33 21 131 -76z m1966 15 c78 -78 96 -109 73 -123 -11 -7 -164 135 -181 168
-11 19 -4 37 14 37 6 0 49 -37 94 -82z m-4307 62 c0 -5 -7 -10 -15 -10 -8 0
-15 5 -15 10 0 6 7 10 15 10 8 0 15 -4 15 -10z m-195 -10 c3 -5 -1 -10 -9 -10
-9 0 -16 5 -16 10 0 6 4 10 9 10 6 0 13 -4 16 -10z m45 -11 c0 -5 -7 -9 -15
-9 -15 0 -20 12 -9 23 8 8 24 -1 24 -14z m108 10 c-2 -6 -8 -10 -13 -10 -5 0
-11 4 -13 10 -2 6 4 11 13 11 9 0 15 -5 13 -11z m-76 -14 c0 -5 -5 -11 -11
-13 -6 -2 -11 4 -11 13 0 9 5 15 11 13 6 -2 11 -8 11 -13z m38 5 c0 -5 -4 -10
-10 -10 -5 0 -10 5 -10 10 0 6 5 10 10 10 6 0 10 -4 10 -10z m650 -288 c0 -45
-4 -51 -55 -102 l-55 -54 0 102 0 102 55 0 55 0 0 -48z m3990 27 c0 -18 -2
-19 -15 -9 -15 12 -12 30 6 30 5 0 9 -10 9 -21z m168 -29 c2 -25 1 -69 -3 -99
l-7 -54 -54 54 c-51 50 -54 56 -54 102 l0 48 58 -3 57 -3 3 -45z"/>
<path d="M7670 7380 c0 -5 5 -10 11 -10 5 0 7 5 4 10 -3 6 -8 10 -11 10 -2 0
-4 -4 -4 -10z"/>
<path d="M7730 7320 c0 -5 5 -10 11 -10 5 0 7 5 4 10 -3 6 -8 10 -11 10 -2 0
-4 -4 -4 -10z"/>
<path d="M7700 7290 c0 -5 5 -10 10 -10 6 0 10 5 10 10 0 6 -4 10 -10 10 -5 0
-10 -4 -10 -10z"/>
<path d="M7670 7260 c0 -5 5 -10 10 -10 6 0 10 5 10 10 0 6 -4 10 -10 10 -5 0
-10 -4 -10 -10z"/>
<path d="M7730 7260 c0 -5 5 -10 10 -10 6 0 10 5 10 10 0 6 -4 10 -10 10 -5 0
-10 -4 -10 -10z"/>
<path d="M7705 7230 c-3 -5 1 -10 10 -10 9 0 13 5 10 10 -3 6 -8 10 -10 10 -2
0 -7 -4 -10 -10z"/>
<path d="M7760 7230 c0 -5 5 -10 11 -10 5 0 7 5 4 10 -3 6 -8 10 -11 10 -2 0
-4 -4 -4 -10z"/>
<path d="M7820 7230 c0 -5 5 -10 11 -10 5 0 7 5 4 10 -3 6 -8 10 -11 10 -2 0
-4 -4 -4 -10z"/>
<path d="M7670 7200 c0 -5 5 -10 10 -10 6 0 10 5 10 10 0 6 -4 10 -10 10 -5 0
-10 -4 -10 -10z"/>
<path d="M7730 7200 c0 -5 5 -10 10 -10 6 0 10 5 10 10 0 6 -4 10 -10 10 -5 0
-10 -4 -10 -10z"/>
<path d="M7790 7200 c0 -5 5 -10 10 -10 6 0 10 5 10 10 0 6 -4 10 -10 10 -5 0
-10 -4 -10 -10z"/>
<path d="M7850 7200 c0 -5 5 -10 11 -10 5 0 7 5 4 10 -3 6 -8 10 -11 10 -2 0
-4 -4 -4 -10z"/>
<path d="M7700 7170 c0 -5 5 -10 10 -10 6 0 10 5 10 10 0 6 -4 10 -10 10 -5 0
-10 -4 -10 -10z"/>
<path d="M7760 7170 c0 -5 5 -10 10 -10 6 0 10 5 10 10 0 6 -4 10 -10 10 -5 0
-10 -4 -10 -10z"/>
<path d="M7820 7170 c0 -5 5 -10 10 -10 6 0 10 5 10 10 0 6 -4 10 -10 10 -5 0
-10 -4 -10 -10z"/>
<path d="M7670 7140 c0 -5 5 -10 10 -10 6 0 10 5 10 10 0 6 -4 10 -10 10 -5 0
-10 -4 -10 -10z"/>
<path d="M7730 7140 c0 -5 5 -10 10 -10 6 0 10 5 10 10 0 6 -4 10 -10 10 -5 0
-10 -4 -10 -10z"/>
<path d="M7790 7140 c0 -5 5 -10 10 -10 6 0 10 5 10 10 0 6 -4 10 -10 10 -5 0
-10 -4 -10 -10z"/>
<path d="M7850 7140 c0 -5 5 -10 10 -10 6 0 10 5 10 10 0 6 -4 10 -10 10 -5 0
-10 -4 -10 -10z"/>
<path d="M7695 7110 c-3 -5 1 -10 9 -10 9 0 16 5 16 10 0 6 -4 10 -9 10 -6 0
-13 -4 -16 -10z"/>
<path d="M7760 7110 c0 -5 5 -10 10 -10 6 0 10 5 10 10 0 6 -4 10 -10 10 -5 0
-10 -4 -10 -10z"/>
<path d="M7820 7110 c0 -5 5 -10 10 -10 6 0 10 5 10 10 0 6 -4 10 -10 10 -5 0
-10 -4 -10 -10z"/>
<path d="M7885 7110 c3 -5 8 -10 11 -10 2 0 4 5 4 10 0 6 -5 10 -11 10 -5 0
-7 -4 -4 -10z"/>
<path d="M7945 7110 c-3 -5 -1 -10 4 -10 6 0 11 5 11 10 0 6 -2 10 -4 10 -3 0
-8 -4 -11 -10z"/>
<path d="M7730 7074 c0 -8 5 -12 10 -9 6 4 8 11 5 16 -9 14 -15 11 -15 -7z"/>
<path d="M7790 7075 c0 -8 5 -15 10 -15 6 0 10 7 10 15 0 8 -4 15 -10 15 -5 0
-10 -7 -10 -15z"/>
<path d="M7850 7081 c0 -6 5 -13 10 -16 6 -3 10 1 10 9 0 9 -4 16 -10 16 -5 0
-10 -4 -10 -9z"/>
<path d="M7692 7049 c2 -6 8 -10 13 -10 5 0 11 4 13 10 2 6 -4 11 -13 11 -9 0
-15 -5 -13 -11z"/>
<path d="M7760 7044 c0 -8 5 -12 10 -9 6 3 10 10 10 16 0 5 -4 9 -10 9 -5 0
-10 -7 -10 -16z"/>
<path d="M7820 7046 c0 -9 5 -16 10 -16 6 0 10 4 10 9 0 6 -4 13 -10 16 -5 3
-10 -1 -10 -9z"/>
<path d="M7885 7040 c3 -5 8 -10 11 -10 2 0 4 5 4 10 0 6 -5 10 -11 10 -5 0
-7 -4 -4 -10z"/>
<path d="M7722 7019 c2 -7 10 -15 17 -17 8 -3 12 1 9 9 -2 7 -10 15 -17 17 -8
3 -12 -1 -9 -9z"/>
<path d="M7790 7016 c0 -9 5 -16 10 -16 6 0 10 4 10 9 0 6 -4 13 -10 16 -5 3
-10 -1 -10 -9z"/>
<path d="M7850 7010 c0 -5 5 -10 10 -10 6 0 10 5 10 10 0 6 -4 10 -10 10 -5 0
-10 -4 -10 -10z"/>
<path d="M7915 7010 c3 -5 8 -10 11 -10 2 0 4 5 4 10 0 6 -5 10 -11 10 -5 0
-7 -4 -4 -10z"/>
<path d="M7755 6980 c3 -5 10 -10 16 -10 5 0 9 5 9 10 0 6 -7 10 -16 10 -8 0
-12 -4 -9 -10z"/>
<path d="M7820 6980 c0 -5 5 -10 10 -10 6 0 10 5 10 10 0 6 -4 10 -10 10 -5 0
-10 -4 -10 -10z"/>
<path d="M7880 6980 c0 -5 5 -10 10 -10 6 0 10 5 10 10 0 6 -4 10 -10 10 -5 0
-10 -4 -10 -10z"/>
<path d="M7950 6979 c0 -5 5 -7 10 -4 6 3 10 8 10 11 0 2 -4 4 -10 4 -5 0 -10
-5 -10 -11z"/>
<path d="M8010 6979 c0 -5 5 -7 10 -4 6 3 10 8 10 11 0 2 -4 4 -10 4 -5 0 -10
-5 -10 -11z"/>
<path d="M7790 6950 c0 -5 5 -10 10 -10 6 0 10 5 10 10 0 6 -4 10 -10 10 -5 0
-10 -4 -10 -10z"/>
<path d="M7850 6950 c0 -5 5 -10 10 -10 6 0 10 5 10 10 0 6 -4 10 -10 10 -5 0
-10 -4 -10 -10z"/>
<path d="M7915 6950 c3 -5 11 -10 16 -10 6 0 7 5 4 10 -3 6 -11 10 -16 10 -6
0 -7 -4 -4 -10z"/>
<path d="M7985 6950 c3 -5 8 -10 11 -10 2 0 4 5 4 10 0 6 -5 10 -11 10 -5 0
-7 -4 -4 -10z"/>
<path d="M7756 6932 c-3 -6 -1 -14 5 -17 15 -10 25 3 12 16 -7 7 -13 7 -17 1z"/>
<path d="M7820 6920 c0 -5 5 -10 10 -10 6 0 10 5 10 10 0 6 -4 10 -10 10 -5 0
-10 -4 -10 -10z"/>
<path d="M7880 6920 c0 -5 7 -10 16 -10 8 0 12 5 9 10 -3 6 -10 10 -16 10 -5
0 -9 -4 -9 -10z"/>
<path d="M7945 6920 c3 -5 10 -10 16 -10 5 0 9 5 9 10 0 6 -7 10 -16 10 -8 0
-12 -4 -9 -10z"/>
<path d="M8075 6920 c-3 -5 -1 -10 4 -10 6 0 11 5 11 10 0 6 -2 10 -4 10 -3 0
-8 -4 -11 -10z"/>
<path d="M7790 6896 c0 -9 5 -16 10 -16 6 0 10 4 10 9 0 6 -4 13 -10 16 -5 3
-10 -1 -10 -9z"/>
<path d="M7915 6890 c-3 -5 1 -10 10 -10 9 0 13 5 10 10 -3 6 -8 10 -10 10 -2
0 -7 -4 -10 -10z"/>
<path d="M7980 6890 c0 -5 5 -10 10 -10 6 0 10 5 10 10 0 6 -4 10 -10 10 -5 0
-10 -4 -10 -10z"/>
<path d="M7880 6855 c0 -8 -7 -15 -15 -15 -8 0 -15 -7 -15 -15 0 -8 3 -15 8
-15 12 0 52 47 45 54 -11 11 -23 6 -23 -9z"/>
<path d="M7950 6860 c0 -5 5 -10 10 -10 6 0 10 5 10 10 0 6 -4 10 -10 10 -5 0
-10 -4 -10 -10z"/>
<path d="M8015 6860 c-3 -5 -1 -10 4 -10 6 0 11 5 11 10 0 6 -2 10 -4 10 -3 0
-8 -4 -11 -10z"/>
<path d="M8070 6860 c0 -5 5 -10 10 -10 6 0 10 5 10 10 0 6 -4 10 -10 10 -5 0
-10 -4 -10 -10z"/>
<path d="M7720 6825 c0 -8 7 -15 15 -15 8 0 15 7 15 15 0 8 -7 15 -15 15 -8 0
-15 -7 -15 -15z"/>
<path d="M7912 6829 c2 -6 8 -10 13 -10 5 0 11 4 13 10 2 6 -4 11 -13 11 -9 0
-15 -5 -13 -11z"/>
<path d="M7980 6830 c0 -5 5 -10 10 -10 6 0 10 5 10 10 0 6 -4 10 -10 10 -5 0
-10 -4 -10 -10z"/>
<path d="M8040 6830 c0 -5 5 -10 10 -10 6 0 10 5 10 10 0 6 -4 10 -10 10 -5 0
-10 -4 -10 -10z"/>
<path d="M7945 6801 c-6 -11 9 -23 19 -14 9 9 7 23 -3 23 -6 0 -12 -4 -16 -9z"/>
<path d="M8010 6794 c0 -8 5 -12 10 -9 6 3 10 1 10 -6 0 -7 2 -10 5 -7 8 7 -5
38 -16 38 -5 0 -9 -7 -9 -16z"/>
<path d="M7980 6759 c0 -11 5 -17 10 -14 6 3 10 13 10 21 0 8 -4 14 -10 14 -5
0 -10 -9 -10 -21z"/>
<path d="M8055 6740 c4 -6 11 -8 16 -5 14 9 11 15 -7 15 -8 0 -12 -5 -9 -10z"/>
<path d="M8020 6719 c0 -5 5 -7 10 -4 6 3 10 8 10 11 0 2 -4 4 -10 4 -5 0 -10
-5 -10 -11z"/>
<path d="M7990 6690 c0 -5 5 -10 10 -10 6 0 10 5 10 10 0 6 -4 10 -10 10 -5 0
-10 -4 -10 -10z"/>
<path d="M8048 6693 c6 -2 18 -2 25 0 6 3 1 5 -13 5 -14 0 -19 -2 -12 -5z"/>
<path d="M8020 6670 c0 -5 5 -10 10 -10 6 0 10 5 10 10 0 6 -4 10 -10 10 -5 0
-10 -4 -10 -10z"/>
<path d="M8045 6640 c3 -5 -1 -10 -9 -10 -9 0 -16 -4 -16 -10 0 -16 15 -12 35
10 17 19 17 20 1 20 -9 0 -14 -4 -11 -10z"/>
<path d="M7055 3760 c3 -5 8 -10 11 -10 2 0 4 5 4 10 0 6 -5 10 -11 10 -5 0
-7 -4 -4 -10z"/>
<path d="M7085 3689 c-4 -6 -5 -12 -2 -15 2 -3 7 2 10 11 7 17 1 20 -8 4z"/>
<path d="M7070 3544 c0 -7 27 -34 34 -34 13 0 5 16 -14 28 -11 7 -20 10 -20 6z"/>
<path d="M7095 3470 c3 -5 8 -10 11 -10 2 0 4 5 4 10 0 6 -5 10 -11 10 -5 0
-7 -4 -4 -10z"/>
<path d="M7120 3450 c0 -5 5 -10 11 -10 5 0 7 5 4 10 -3 6 -8 10 -11 10 -2 0
-4 -4 -4 -10z"/>
<path d="M7118 3387 c-15 -12 -15 -14 5 -27 19 -12 20 -11 10 2 -10 11 -10 17
-1 26 16 16 7 15 -14 -1z"/>
<path d="M7105 3330 c16 -16 31 -28 33 -25 6 5 -45 55 -55 55 -4 0 6 -13 22
-30z"/>
<path d="M7060 3331 c0 -20 13 -41 25 -41 7 0 15 -6 18 -12 2 -7 8 -10 12 -6
5 5 -3 17 -16 29 -13 12 -23 25 -21 30 1 5 -2 9 -8 9 -5 0 -10 -4 -10 -9z"/>
<path d="M3255 3570 c-3 -5 -1 -10 4 -10 6 0 11 5 11 10 0 6 -2 10 -4 10 -3 0
-8 -4 -11 -10z"/>
<path d="M3275 3550 c-3 -5 -1 -10 4 -10 6 0 11 5 11 10 0 6 -2 10 -4 10 -3 0
-8 -4 -11 -10z"/>
<path d="M3250 3440 c0 -5 5 -10 11 -10 5 0 7 5 4 10 -3 6 -8 10 -11 10 -2 0
-4 -4 -4 -10z"/>
<path d="M3270 3410 c0 -5 4 -10 9 -10 6 0 13 5 16 10 3 6 -1 10 -9 10 -9 0
-16 -4 -16 -10z"/>
<path d="M6940 3500 c0 -5 5 -10 11 -10 5 0 7 5 4 10 -3 6 -8 10 -11 10 -2 0
-4 -4 -4 -10z"/>
<path d="M6890 3280 c0 -5 5 -10 10 -10 6 0 10 5 10 10 0 6 -4 10 -10 10 -5 0
-10 -4 -10 -10z"/>
<path d="M6910 3242 c-11 -12 -10 -13 10 -7 19 6 22 4 17 -9 -8 -19 6 -21 21
-3 16 19 -30 38 -48 19z"/>
<path d="M6885 3171 c-3 -5 -1 -12 5 -16 5 -3 10 1 10 9 0 18 -6 21 -15 7z"/>
<path d="M6910 3141 c0 -5 8 -14 17 -20 16 -9 16 -11 -2 -31 -14 -16 -15 -21
-5 -18 8 2 14 -3 13 -9 -2 -7 4 -13 12 -13 20 0 19 16 -1 24 -8 3 -12 10 -9
16 4 6 10 8 15 5 5 -3 11 -1 14 4 4 5 -7 19 -24 31 -16 12 -30 17 -30 11z"/>
<path d="M6895 3110 c-3 -5 -1 -10 4 -10 6 0 11 5 11 10 0 6 -2 10 -4 10 -3 0
-8 -4 -11 -10z"/>
<path d="M3460 3579 c0 -5 5 -7 10 -4 6 3 10 8 10 11 0 2 -4 4 -10 4 -5 0 -10
-5 -10 -11z"/>
<path d="M3445 3440 c-3 -5 -1 -10 4 -10 6 0 11 5 11 10 0 6 -2 10 -4 10 -3 0
-8 -4 -11 -10z"/>
<path d="M3440 3390 c0 -5 5 -10 10 -10 6 0 10 5 10 10 0 6 -4 10 -10 10 -5 0
-10 -4 -10 -10z"/>
<path d="M3405 3370 c-3 -5 1 -10 9 -10 9 0 16 5 16 10 0 6 -4 10 -9 10 -6 0
-13 -4 -16 -10z"/>
<path d="M3440 3300 c0 -5 -7 -10 -15 -10 -8 0 -15 -4 -15 -10 0 -15 12 -12
40 10 20 16 22 20 8 20 -10 0 -18 -4 -18 -10z"/>
<path d="M3448 3263 c7 -3 16 -2 19 1 4 3 -2 6 -13 5 -11 0 -14 -3 -6 -6z"/>
<path d="M3420 3240 c-8 -5 -12 -11 -10 -14 3 -2 14 2 24 10 22 15 10 19 -14
4z"/>
<path d="M6720 3489 c0 -5 5 -7 10 -4 6 3 10 8 10 11 0 2 -4 4 -10 4 -5 0 -10
-5 -10 -11z"/>
<path d="M6760 3304 c0 -10 31 -36 37 -31 3 3 -2 13 -10 22 -16 15 -27 19 -27
9z"/>
<path d="M6732 3180 c-7 -11 -10 -20 -6 -20 7 0 34 27 34 34 0 13 -16 5 -28
-14z"/>
<path d="M6790 3190 c0 -5 5 -10 10 -10 6 0 10 5 10 10 0 6 -4 10 -10 10 -5 0
-10 -4 -10 -10z"/>
<path d="M6770 3170 c0 -5 5 -10 11 -10 5 0 7 5 4 10 -3 6 -8 10 -11 10 -2 0
-4 -4 -4 -10z"/>
<path d="M6720 3120 c0 -5 5 -10 10 -10 6 0 10 5 10 10 0 6 -4 10 -10 10 -5 0
-10 -4 -10 -10z"/>
<path d="M6770 3040 c0 -5 5 -10 10 -10 6 0 10 5 10 10 0 6 -4 10 -10 10 -5 0
-10 -4 -10 -10z"/>
<path d="M3618 3543 c7 -3 16 -2 19 1 4 3 -2 6 -13 5 -11 0 -14 -3 -6 -6z"/>
<path d="M3590 3480 c0 -5 5 -10 11 -10 5 0 7 5 4 10 -3 6 -8 10 -11 10 -2 0
-4 -4 -4 -10z"/>
<path d="M3595 3440 c-3 -5 -1 -10 4 -10 6 0 11 5 11 10 0 6 -2 10 -4 10 -3 0
-8 -4 -11 -10z"/>
<path d="M3568 3413 c7 -3 16 -2 19 1 4 3 -2 6 -13 5 -11 0 -14 -3 -6 -6z"/>
<path d="M3587 3314 c6 -16 19 -18 27 -5 3 5 -3 11 -13 14 -14 3 -18 1 -14 -9z"/>
<path d="M3625 3290 c-3 -5 -1 -10 4 -10 6 0 11 5 11 10 0 6 -2 10 -4 10 -3 0
-8 -4 -11 -10z"/>
<path d="M6570 3500 c0 -5 5 -10 10 -10 6 0 10 5 10 10 0 6 -4 10 -10 10 -5 0
-10 -4 -10 -10z"/>
<path d="M6540 3480 c0 -5 5 -10 11 -10 5 0 7 5 4 10 -3 6 -8 10 -11 10 -2 0
-4 -4 -4 -10z"/>
<path d="M6570 3461 c0 -5 7 -11 14 -14 10 -4 13 -1 9 9 -6 15 -23 19 -23 5z"/>
<path d="M6535 3400 c-3 -5 -1 -10 4 -10 6 0 11 5 11 10 0 6 -2 10 -4 10 -3 0
-8 -4 -11 -10z"/>
<path d="M6570 3380 c0 -5 5 -10 10 -10 6 0 10 5 10 10 0 6 -4 10 -10 10 -5 0
-10 -4 -10 -10z"/>
<path d="M6503 3366 c5 -12 3 -23 -5 -28 -9 -5 -10 -8 -1 -8 6 0 15 5 18 10 3
6 11 10 16 10 6 0 7 -4 4 -10 -3 -5 -1 -10 4 -10 6 0 11 12 11 28 0 20 -3 23
-9 13 -8 -13 -12 -13 -27 0 -16 13 -17 12 -11 -5z"/>
<path d="M6570 3332 c0 -6 -8 -13 -17 -15 -16 -4 -16 -5 -1 -6 18 -1 34 16 24
26 -3 4 -6 1 -6 -5z"/>
<path d="M6615 3240 c3 -5 8 -10 11 -10 2 0 4 5 4 10 0 6 -5 10 -11 10 -5 0
-7 -4 -4 -10z"/>
<path d="M6610 3200 c0 -5 5 -10 11 -10 5 0 7 5 4 10 -3 6 -8 10 -11 10 -2 0
-4 -4 -4 -10z"/>
<path d="M6620 3130 c0 -5 5 -10 10 -10 6 0 10 5 10 10 0 6 -4 10 -10 10 -5 0
-10 -4 -10 -10z"/>
<path d="M3817 3506 c-4 -10 -1 -13 8 -9 8 3 12 9 9 14 -7 12 -11 11 -17 -5z"/>
<path d="M3790 3492 c0 -6 -8 -13 -17 -15 -16 -4 -16 -5 -1 -6 18 -1 34 16 24
26 -3 4 -6 1 -6 -5z"/>
<path d="M3815 3471 c3 -5 -5 -12 -17 -14 l-23 -4 23 -8 c27 -9 24 -32 -4 -27
-16 3 -15 0 6 -20 14 -13 29 -22 34 -20 5 3 1 11 -9 18 -17 12 -17 14 -1 20
14 5 14 9 4 22 -10 12 -10 16 0 19 13 5 7 23 -9 23 -6 0 -8 -4 -4 -9z"/>
<path d="M3752 3424 c-7 -8 -8 -14 -3 -14 10 0 25 19 20 25 -2 1 -10 -3 -17
-11z"/>
<path d="M3760 3394 c0 -7 27 -34 34 -34 13 0 5 16 -14 28 -11 7 -20 10 -20 6z"/>
<path d="M3761 3344 c0 -11 3 -14 6 -6 3 7 2 16 -1 19 -3 4 -6 -2 -5 -13z"/>
<path d="M3812 3348 c3 -7 12 -14 22 -14 13 -2 13 -1 1 3 -8 2 -13 9 -10 14 4
5 1 9 -5 9 -7 0 -10 -6 -8 -12z"/>
<path d="M3725 3331 c-6 -11 9 -23 19 -14 9 9 7 23 -3 23 -6 0 -12 -4 -16 -9z"/>
<path d="M3743 3306 c-13 -6 -23 -16 -23 -23 0 -18 17 -16 24 3 3 8 10 12 16
9 5 -3 10 1 10 9 0 9 -1 15 -2 15 -2 -1 -13 -6 -25 -13z"/>
<path d="M2185 5560 c3 -5 8 -10 11 -10 2 0 4 5 4 10 0 6 -5 10 -11 10 -5 0
-7 -4 -4 -10z"/>
<path d="M2250 5560 c0 -5 5 -10 11 -10 5 0 7 5 4 10 -3 6 -8 10 -11 10 -2 0
-4 -4 -4 -10z"/>
<path d="M2310 5560 c0 -5 5 -10 11 -10 5 0 7 5 4 10 -3 6 -8 10 -11 10 -2 0
-4 -4 -4 -10z"/>
<path d="M2370 5559 c0 -5 5 -7 10 -4 6 3 10 8 10 11 0 2 -4 4 -10 4 -5 0 -10
-5 -10 -11z"/>
<path d="M2150 5530 c0 -5 5 -10 10 -10 6 0 10 5 10 10 0 6 -4 10 -10 10 -5 0
-10 -4 -10 -10z"/>
<path d="M2210 5530 c0 -5 5 -10 10 -10 6 0 10 5 10 10 0 6 -4 10 -10 10 -5 0
-10 -4 -10 -10z"/>
<path d="M2275 5530 c3 -5 11 -10 16 -10 6 0 7 5 4 10 -3 6 -11 10 -16 10 -6
0 -7 -4 -4 -10z"/>
<path d="M2335 5530 c-3 -5 1 -10 10 -10 9 0 13 5 10 10 -3 6 -8 10 -10 10 -2
0 -7 -4 -10 -10z"/>
<path d="M2180 5500 c0 -5 5 -10 10 -10 6 0 10 5 10 10 0 6 -4 10 -10 10 -5 0
-10 -4 -10 -10z"/>
<path d="M2240 5500 c0 -5 5 -10 10 -10 6 0 10 5 10 10 0 6 -4 10 -10 10 -5 0
-10 -4 -10 -10z"/>
<path d="M2305 5500 c-3 -5 1 -10 10 -10 9 0 13 5 10 10 -3 6 -8 10 -10 10 -2
0 -7 -4 -10 -10z"/>
<path d="M2210 5470 c0 -5 5 -10 10 -10 6 0 10 5 10 10 0 6 -4 10 -10 10 -5 0
-10 -4 -10 -10z"/>
<path d="M2270 5470 c0 -5 5 -10 10 -10 6 0 10 5 10 10 0 6 -4 10 -10 10 -5 0
-10 -4 -10 -10z"/>
<path d="M2335 5470 c4 -6 11 -8 16 -5 14 9 11 15 -7 15 -8 0 -12 -5 -9 -10z"/>
<path d="M2170 5442 c0 -5 7 -13 16 -16 10 -4 14 -1 12 6 -5 15 -28 23 -28 10z"/>
<path d="M2240 5440 c0 -5 5 -10 10 -10 6 0 10 5 10 10 0 6 -4 10 -10 10 -5 0
-10 -4 -10 -10z"/>
<path d="M2300 5440 c0 -5 7 -10 15 -10 8 0 15 5 15 10 0 6 -7 10 -15 10 -8 0
-15 -4 -15 -10z"/>
<path d="M2360 5440 c0 -5 7 -10 15 -10 8 0 15 5 15 10 0 6 -7 10 -15 10 -8 0
-15 -4 -15 -10z"/>
<path d="M2206 5412 c-3 -6 -1 -14 5 -17 15 -10 25 3 12 16 -7 7 -13 7 -17 1z"/>
<path d="M2270 5405 c0 -8 5 -15 10 -15 6 0 10 7 10 15 0 8 -4 15 -10 15 -5 0
-10 -7 -10 -15z"/>
<path d="M2330 5405 c0 -8 7 -15 15 -15 8 0 15 -7 15 -15 0 -8 -7 -15 -15 -15
-8 0 -15 -7 -15 -15 0 -8 7 -15 15 -15 8 0 15 7 15 15 0 8 7 15 15 15 8 0 15
7 15 15 0 8 -7 15 -15 15 -8 0 -15 7 -15 15 0 8 -7 15 -15 15 -8 0 -15 -7 -15
-15z"/>
<path d="M2300 5375 c0 -8 5 -15 10 -15 6 0 10 7 10 15 0 8 -4 15 -10 15 -5 0
-10 -7 -10 -15z"/>
<path d="M2230 5370 c0 -5 7 -10 15 -10 8 0 15 5 15 10 0 6 -7 10 -15 10 -8 0
-15 -4 -15 -10z"/>
<path d="M2200 5340 c0 -5 7 -10 15 -10 8 0 15 5 15 10 0 6 -7 10 -15 10 -8 0
-15 -4 -15 -10z"/>
<path d="M2260 5340 c0 -5 7 -10 15 -10 8 0 15 5 15 10 0 6 -7 10 -15 10 -8 0
-15 -4 -15 -10z"/>
<path d="M2360 5311 c0 -5 7 -11 15 -15 9 -3 15 0 15 9 0 8 -7 15 -15 15 -8 0
-15 -4 -15 -9z"/>
<path d="M2196 5155 c-4 -12 -1 -16 11 -13 18 3 21 20 5 26 -5 1 -12 -4 -16
-13z"/>
<path d="M2936 3835 c10 -8 26 -14 34 -15 8 0 2 7 -14 15 -36 19 -45 19 -20 0z"/>
<path d="M2900 3786 c0 -5 69 -46 78 -46 3 0 -9 11 -28 25 -31 23 -50 31 -50
21z"/>
<path d="M2905 3670 c3 -5 8 -10 11 -10 2 0 4 5 4 10 0 6 -5 10 -11 10 -5 0
-7 -4 -4 -10z"/>
<path d="M2930 3649 c0 -5 5 -7 10 -4 6 3 10 8 10 11 0 2 -4 4 -10 4 -5 0 -10
-5 -10 -11z"/>
<path d="M2958 3633 c7 -3 16 -2 19 1 4 3 -2 6 -13 5 -11 0 -14 -3 -6 -6z"/>
<path d="M2965 3430 c-3 -5 1 -10 9 -10 9 0 16 5 16 10 0 6 -4 10 -9 10 -6 0
-13 -4 -16 -10z"/>
<path d="M3105 3620 c3 -5 10 -10 16 -10 5 0 9 5 9 10 0 6 -7 10 -16 10 -8 0
-12 -4 -9 -10z"/>
<path d="M3070 3600 c0 -5 5 -10 10 -10 6 0 10 5 10 10 0 6 -4 10 -10 10 -5 0
-10 -4 -10 -10z"/>
<path d="M3100 3579 c0 -5 5 -7 10 -4 6 3 10 8 10 11 0 2 -4 4 -10 4 -5 0 -10
-5 -10 -11z"/>
<path d="M3130 3559 c0 -5 5 -7 10 -4 6 3 10 8 10 11 0 2 -4 4 -10 4 -5 0 -10
-5 -10 -11z"/>
<path d="M3130 3519 c0 -5 5 -7 10 -4 6 3 10 8 10 11 0 2 -4 4 -10 4 -5 0 -10
-5 -10 -11z"/>
<path d="M3100 3490 c0 -5 5 -10 10 -10 6 0 10 5 10 10 0 6 -4 10 -10 10 -5 0
-10 -4 -10 -10z"/>
<path d="M3100 3450 c0 -5 5 -10 11 -10 5 0 7 5 4 10 -3 6 -8 10 -11 10 -2 0
-4 -4 -4 -10z"/>
<path d="M3125 3430 c-3 -5 1 -10 10 -10 9 0 13 5 10 10 -3 6 -8 10 -10 10 -2
0 -7 -4 -10 -10z"/>
<path d="M3085 3400 c-10 -12 -13 -20 -7 -20 7 0 12 4 12 9 0 5 8 11 18 13 11
2 13 6 6 10 -6 4 -19 -1 -29 -12z"/>
<path d="M7865 4180 c-3 -5 -1 -10 4 -10 6 0 11 5 11 10 0 6 -2 10 -4 10 -3 0
-8 -4 -11 -10z"/>
<path d="M7775 4150 c-3 -5 1 -10 10 -10 9 0 13 5 10 10 -3 6 -8 10 -10 10 -2
0 -7 -4 -10 -10z"/>
<path d="M7830 4150 c0 -5 5 -10 10 -10 6 0 10 5 10 10 0 6 -4 10 -10 10 -5 0
-10 -4 -10 -10z"/>
<path d="M7960 4150 c0 -5 5 -10 10 -10 6 0 10 5 10 10 0 6 -4 10 -10 10 -5 0
-10 -4 -10 -10z"/>
<path d="M7740 4121 c0 -6 5 -13 10 -16 6 -3 10 1 10 9 0 9 -4 16 -10 16 -5 0
-10 -4 -10 -9z"/>
<path d="M7800 4120 c0 -5 7 -10 16 -10 8 0 12 5 9 10 -3 6 -10 10 -16 10 -5
0 -9 -4 -9 -10z"/>
<path d="M7860 4120 c0 -5 5 -10 10 -10 6 0 10 5 10 10 0 6 -4 10 -10 10 -5 0
-10 -4 -10 -10z"/>
<path d="M7930 4120 c0 -5 5 -10 10 -10 6 0 10 5 10 10 0 6 -4 10 -10 10 -5 0
-10 -4 -10 -10z"/>
<path d="M7990 4120 c0 -5 5 -10 10 -10 6 0 10 5 10 10 0 6 -4 10 -10 10 -5 0
-10 -4 -10 -10z"/>
<path d="M8055 4120 c-3 -5 -1 -10 4 -10 6 0 11 5 11 10 0 6 -2 10 -4 10 -3 0
-8 -4 -11 -10z"/>
<path d="M7770 4085 c0 -9 5 -15 11 -13 6 2 11 8 11 13 0 5 -5 11 -11 13 -6 2
-11 -4 -11 -13z"/>
<path d="M7830 4090 c0 -5 5 -10 10 -10 6 0 10 5 10 10 0 6 -4 10 -10 10 -5 0
-10 -4 -10 -10z"/>
<path d="M7895 4090 c-3 -5 1 -10 10 -10 9 0 13 5 10 10 -3 6 -8 10 -10 10 -2
0 -7 -4 -10 -10z"/>
<path d="M7965 4090 c-3 -5 -1 -10 4 -10 6 0 11 5 11 10 0 6 -2 10 -4 10 -3 0
-8 -4 -11 -10z"/>
<path d="M8025 4090 c-3 -5 -1 -10 4 -10 6 0 11 5 11 10 0 6 -2 10 -4 10 -3 0
-8 -4 -11 -10z"/>
<path d="M7710 4080 c0 -5 5 -10 10 -10 6 0 10 5 10 10 0 6 -4 10 -10 10 -5 0
-10 -4 -10 -10z"/>
<path d="M7800 4055 c0 -9 5 -15 11 -13 6 2 11 8 11 13 0 5 -5 11 -11 13 -6 2
-11 -4 -11 -13z"/>
<path d="M7862 4061 c4 -13 18 -16 19 -4 0 4 -5 9 -11 12 -7 2 -11 -2 -8 -8z"/>
<path d="M7926 4062 c-3 -6 -1 -14 5 -17 15 -10 25 3 12 16 -7 7 -13 7 -17 1z"/>
<path d="M7735 4050 c3 -5 10 -10 16 -10 5 0 9 5 9 10 0 6 -7 10 -16 10 -8 0
-12 -4 -9 -10z"/>
<path d="M7995 4050 c3 -5 8 -10 11 -10 2 0 4 5 4 10 0 6 -5 10 -11 10 -5 0
-7 -4 -4 -10z"/>
<path d="M8055 4050 c3 -5 8 -10 11 -10 2 0 4 5 4 10 0 6 -5 10 -11 10 -5 0
-7 -4 -4 -10z"/>
<path d="M7770 4025 c0 -8 5 -15 10 -15 6 0 10 7 10 15 0 8 -4 15 -10 15 -5 0
-10 -7 -10 -15z"/>
<path d="M7830 4025 c0 -9 5 -15 11 -13 6 2 11 8 11 13 0 5 -5 11 -11 13 -6 2
-11 -4 -11 -13z"/>
<path d="M7896 4032 c-3 -6 -1 -14 5 -17 15 -10 25 3 12 16 -7 7 -13 7 -17 1z"/>
<path d="M7960 4020 c0 -5 5 -10 10 -10 6 0 10 5 10 10 0 6 -4 10 -10 10 -5 0
-10 -4 -10 -10z"/>
<path d="M8020 4020 c0 -5 5 -10 10 -10 6 0 10 5 10 10 0 6 -4 10 -10 10 -5 0
-10 -4 -10 -10z"/>
<path d="M7797 3989 c-3 -12 -10 -18 -16 -14 -6 3 -11 -1 -11 -9 0 -9 2 -16 5
-16 9 0 45 40 45 50 0 19 -18 10 -23 -11z"/>
<path d="M7866 4003 c-11 -11 -6 -23 9 -23 8 0 15 4 15 9 0 13 -16 22 -24 14z"/>
<path d="M7930 3990 c0 -5 5 -10 10 -10 6 0 10 5 10 10 0 6 -4 10 -10 10 -5 0
-10 -4 -10 -10z"/>
<path d="M7990 3990 c0 -5 5 -10 10 -10 6 0 10 5 10 10 0 6 -4 10 -10 10 -5 0
-10 -4 -10 -10z"/>
<path d="M8050 3991 c0 -6 5 -13 10 -16 6 -3 10 1 10 9 0 9 -4 16 -10 16 -5 0
-10 -4 -10 -9z"/>
<path d="M7836 3973 c-11 -11 -6 -23 9 -23 8 0 15 4 15 9 0 13 -16 22 -24 14z"/>
<path d="M7890 3960 c0 -5 7 -10 15 -10 8 0 15 5 15 10 0 6 -7 10 -15 10 -8 0
-15 -4 -15 -10z"/>
<path d="M7960 3961 c0 -6 5 -13 10 -16 6 -3 10 1 10 9 0 9 -4 16 -10 16 -5 0
-10 -4 -10 -9z"/>
<path d="M8010 3966 c0 -2 7 -9 15 -16 12 -10 15 -10 15 4 0 9 -7 16 -15 16
-8 0 -15 -2 -15 -4z"/>
<path d="M8080 3950 c0 -5 5 -10 10 -10 6 0 10 5 10 10 0 6 -4 10 -10 10 -5 0
-10 -4 -10 -10z"/>
<path d="M7806 3943 c-11 -11 -6 -23 9 -23 8 0 15 4 15 9 0 13 -16 22 -24 14z"/>
<path d="M7860 3930 c0 -5 7 -10 15 -10 8 0 15 5 15 10 0 6 -7 10 -15 10 -8 0
-15 -4 -15 -10z"/>
<path d="M7930 3925 c0 -8 5 -15 10 -15 6 0 10 7 10 15 0 8 -4 15 -10 15 -5 0
-10 -7 -10 -15z"/>
<path d="M7990 3930 c0 -5 5 -10 10 -10 6 0 10 5 10 10 0 6 -4 10 -10 10 -5 0
-10 -4 -10 -10z"/>
<path d="M8050 3930 c0 -5 5 -10 10 -10 6 0 10 5 10 10 0 6 -4 10 -10 10 -5 0
-10 -4 -10 -10z"/>
<path d="M7770 3895 c0 -8 5 -15 10 -15 6 0 10 7 10 15 0 8 -4 15 -10 15 -5 0
-10 -7 -10 -15z"/>
<path d="M7892 3898 c6 -18 28 -21 28 -4 0 9 -7 16 -16 16 -9 0 -14 -5 -12
-12z"/>
<path d="M7960 3895 c0 -9 5 -15 11 -13 6 2 11 8 11 13 0 5 -5 11 -11 13 -6 2
-11 -4 -11 -13z"/>
<path d="M8020 3895 c0 -9 5 -15 11 -13 6 2 11 8 11 13 0 5 -5 11 -11 13 -6 2
-11 -4 -11 -13z"/>
<path d="M7925 3869 c-4 -6 2 -13 14 -16 12 -3 21 -12 21 -19 0 -8 7 -14 15
-14 21 0 19 9 -11 36 -29 27 -30 28 -39 13z"/>
<path d="M7990 3866 c0 -9 7 -16 16 -16 17 0 14 22 -4 28 -7 2 -12 -3 -12 -12z"/>
<path d="M8050 3866 c0 -9 7 -16 16 -16 9 0 14 5 12 12 -6 18 -28 21 -28 4z"/>
<path d="M8020 3830 c0 -5 7 -10 15 -10 8 0 15 5 15 10 0 6 -7 10 -15 10 -8 0
-15 -4 -15 -10z"/>
<path d="M7995 3810 c-4 -6 -3 -16 3 -22 6 -6 12 -6 17 2 4 6 3 16 -3 22 -6 6
-12 6 -17 -2z"/>
<path d="M8052 3798 c6 -18 28 -21 28 -4 0 9 -7 16 -16 16 -9 0 -14 -5 -12
-12z"/>
<path d="M8060 3735 c0 -9 5 -15 11 -13 6 2 11 8 11 13 0 5 -5 11 -11 13 -6 2
-11 -4 -11 -13z"/>
<path d="M7930 3676 c0 -9 7 -16 16 -16 9 0 14 5 12 12 -6 18 -28 21 -28 4z"/>
<path d="M4190 4190 c-25 -25 -26 -52 -2 -73 37 -34 92 -11 92 38 0 24 -33 55
-57 55 -7 0 -22 -9 -33 -20z"/>
<path d="M6103 4200 c-53 -21 -31 -100 27 -100 54 0 80 65 38 94 -25 18 -33
19 -65 6z"/>
<path d="M7414 3802 c3 -6 -2 -15 -11 -21 -10 -5 -15 -12 -12 -15 3 -4 14 2
23 13 13 14 14 21 5 27 -7 4 -10 3 -5 -4z"/>
<path d="M7440 3679 c0 -5 5 -7 10 -4 6 3 10 8 10 11 0 2 -4 4 -10 4 -5 0 -10
-5 -10 -11z"/>
<path d="M7417 3663 c-4 -3 -7 -11 -7 -17 0 -6 5 -5 12 2 6 6 9 14 7 17 -3 3
-9 2 -12 -2z"/>
<path d="M7270 3640 c0 -5 5 -10 10 -10 6 0 10 5 10 10 0 6 -4 10 -10 10 -5 0
-10 -4 -10 -10z"/>
<path d="M7225 3600 c3 -5 8 -10 11 -10 2 0 4 5 4 10 0 6 -5 10 -11 10 -5 0
-7 -4 -4 -10z"/>
<path d="M7270 3600 c0 -5 5 -10 10 -10 6 0 10 5 10 10 0 6 -4 10 -10 10 -5 0
-10 -4 -10 -10z"/>
<path d="M7255 3540 c3 -5 8 -10 11 -10 2 0 4 5 4 10 0 6 -5 10 -11 10 -5 0
-7 -4 -4 -10z"/>
<path d="M7730 3736 c0 -10 9 -16 21 -16 24 0 21 23 -4 28 -10 2 -17 -3 -17
-12z"/>
<path d="M7800 3735 c0 -8 7 -15 15 -15 8 0 15 7 15 15 0 8 -7 15 -15 15 -8 0
-15 -7 -15 -15z"/>
<path d="M7800 3675 c0 -8 7 -15 15 -15 8 0 15 -7 15 -15 0 -8 7 -15 15 -15 8
0 15 -7 15 -15 0 -8 -7 -15 -15 -15 -8 0 -15 -9 -15 -20 0 -11 7 -20 15 -20 8
0 15 -7 15 -15 0 -8 7 -15 15 -15 8 0 15 6 15 14 0 8 -7 16 -15 20 -8 3 -15
10 -15 16 0 5 7 10 15 10 8 0 15 9 15 20 0 11 -7 20 -15 20 -8 0 -15 7 -15 15
0 8 -7 15 -15 15 -8 0 -15 7 -15 15 0 8 -7 15 -15 15 -8 0 -15 -7 -15 -15z"/>
<path d="M2405 3340 c-3 -5 -1 -10 4 -10 6 0 11 5 11 10 0 6 -2 10 -4 10 -3 0
-8 -4 -11 -10z"/>
<path d="M4809 3516 c-16 -34 3 -58 44 -54 62 6 61 70 -1 76 -26 3 -34 -2 -43
-22z"/>
<path d="M7380 3413 c0 -7 6 -13 13 -13 8 0 14 6 14 13 0 8 -6 14 -14 14 -7 0
-13 -6 -13 -14z"/>
<path d="M2910 3392 c0 -16 24 -42 39 -42 6 0 11 5 11 10 0 6 -5 10 -11 10 -7
0 -18 8 -25 18 -9 11 -13 13 -14 4z"/>
<path d="M2905 3299 c-10 -15 3 -25 16 -12 7 7 7 13 1 17 -6 3 -14 1 -17 -5z"/>
<path d="M3305 3290 c3 -5 8 -10 11 -10 2 0 4 5 4 10 0 6 -5 10 -11 10 -5 0
-7 -4 -4 -10z"/>
<path d="M3240 3251 c0 -9 24 -21 42 -21 6 0 6 6 -2 15 -14 16 -40 20 -40 6z"/>
<path d="M3298 3253 c7 -3 16 -2 19 1 4 3 -2 6 -13 5 -11 0 -14 -3 -6 -6z"/>
<path d="M7235 3220 c3 -5 10 -10 16 -10 5 0 9 5 9 10 0 6 -7 10 -16 10 -8 0
-12 -4 -9 -10z"/>
<path d="M3790 3220 c0 -5 4 -10 9 -10 6 0 13 5 16 10 3 6 -1 10 -9 10 -9 0
-16 -4 -16 -10z"/>
<path d="M3725 3211 c-3 -5 -1 -12 5 -16 5 -3 10 1 10 9 0 18 -6 21 -15 7z"/>
<path d="M3280 3086 c0 -9 7 -16 16 -16 17 0 14 22 -4 28 -7 2 -12 -3 -12 -12z"/>
<path d="M2400 2570 c0 -5 5 -10 11 -10 5 0 7 5 4 10 -3 6 -8 10 -11 10 -2 0
-4 -4 -4 -10z"/>
<path d="M2310 2549 c0 -5 5 -7 10 -4 6 3 10 8 10 11 0 2 -4 4 -10 4 -5 0 -10
-5 -10 -11z"/>
<path d="M2585 2550 c3 -5 8 -10 11 -10 2 0 4 5 4 10 0 6 -5 10 -11 10 -5 0
-7 -4 -4 -10z"/>
<path d="M2625 2530 c-3 -5 -1 -10 4 -10 6 0 11 5 11 10 0 6 -2 10 -4 10 -3 0
-8 -4 -11 -10z"/>
<path d="M2556 2517 c3 -10 9 -15 12 -12 3 3 0 11 -7 18 -10 9 -11 8 -5 -6z"/>
<path d="M2316 2505 c-3 -8 -1 -15 4 -15 13 0 22 18 11 24 -5 3 -11 -1 -15 -9z"/>
<path d="M2485 2490 c3 -5 8 -10 11 -10 2 0 4 5 4 10 0 6 -5 10 -11 10 -5 0
-7 -4 -4 -10z"/>
<path d="M2316 2465 c-3 -8 -1 -15 4 -15 13 0 22 18 11 24 -5 3 -11 -1 -15 -9z"/>
<path d="M2440 2471 c0 -5 5 -13 10 -16 6 -3 10 -2 10 4 0 5 -4 13 -10 16 -5
3 -10 2 -10 -4z"/>
<path d="M2522 2460 c0 -14 2 -19 5 -12 2 6 2 18 0 25 -3 6 -5 1 -5 -13z"/>
<path d="M2660 2471 c0 -6 5 -13 10 -16 6 -3 10 1 10 9 0 9 -4 16 -10 16 -5 0
-10 -4 -10 -9z"/>
<path d="M2400 2459 c0 -5 5 -7 10 -4 6 3 10 8 10 11 0 2 -4 4 -10 4 -5 0 -10
-5 -10 -11z"/>
<path d="M2630 2451 c0 -5 5 -13 10 -16 6 -3 10 -2 10 4 0 5 -4 13 -10 16 -5
3 -10 2 -10 -4z"/>
<path d="M2662 2421 c4 -13 18 -16 19 -4 0 4 -5 9 -11 12 -7 2 -11 -2 -8 -8z"/>
<path d="M2635 2390 c3 -5 8 -10 11 -10 2 0 4 5 4 10 0 6 -5 10 -11 10 -5 0
-7 -4 -4 -10z"/>
<path d="M6353 8671 c-8 -8 -11 -17 -6 -22 5 -5 125 -11 267 -13 221 -4 258
-2 263 11 13 34 -13 38 -264 38 -197 0 -249 -3 -260 -14z"/>
<path d="M8401 7991 c-9 -6 -11 -703 -11 -2940 0 -1613 3 -2937 6 -2942 8 -13
41 -11 45 4 2 6 3 1331 1 2943 -2 3062 -1 2959 -41 2935z"/>
<path d="M8534 6744 c-9 -34 18 -64 43 -48 29 18 38 41 24 58 -22 26 -60 20
-67 -10z"/>
<path d="M1894 6694 c-13 -51 41 -71 65 -25 8 15 7 23 -5 35 -24 25 -53 20
-60 -10z"/>
<path d="M8530 6571 c-13 -26 -3 -50 26 -57 31 -8 44 2 44 36 0 41 -50 57 -70
21z"/>
<path d="M1903 6552 c-18 -12 -15 -2288 3 -2303 32 -26 75 31 48 62 -12 14
-14 182 -14 1123 1 608 -2 1111 -5 1116 -7 12 -16 12 -32 2z"/>
<path d="M1736 6271 c-3 -5 -6 -859 -6 -1897 -1 -1676 1 -1890 14 -1899 10 -6
19 -6 26 1 17 17 14 3785 -3 3796 -16 10 -25 10 -31 -1z"/>
<path d="M8682 5948 c-17 -17 -15 -57 3 -64 8 -4 26 -3 40 0 41 11 28 76 -15
76 -9 0 -21 -5 -28 -12z"/>
<path d="M8550 5863 c0 -10 0 -495 0 -1078 0 -930 2 -1061 15 -1075 12 -11 20
-12 33 -4 23 15 27 48 7 64 -13 11 -15 123 -15 1024 0 556 -3 1028 -6 1049 -7
37 -34 53 -34 20z"/>
<path d="M8697 5803 c-4 -3 -7 -402 -7 -885 0 -789 2 -879 16 -885 8 -3 20 -1
26 5 11 11 15 1743 3 1761 -7 12 -28 15 -38 4z"/>
<path d="M1912 3958 c-17 -17 -15 -32 8 -53 18 -17 21 -17 45 -1 28 19 29 20
15 47 -12 21 -50 25 -68 7z"/>
<path d="M1906 3748 c-21 -30 -4 -60 32 -56 34 4 44 45 16 65 -24 18 -30 17
-48 -9z"/>
<path d="M1922 3558 c-25 -25 -6 -68 30 -68 9 0 22 9 28 20 22 40 -26 80 -58
48z"/>
<path d="M3528 1733 c-7 -9 -7 -18 2 -28 11 -13 48 -15 254 -13 l241 3 0 23 0
23 -243 2 c-185 1 -246 -1 -254 -10z"/>
</g>
</svg>
